%TF.GenerationSoftware,KiCad,Pcbnew,(6.0.7)*%
%TF.CreationDate,2022-09-02T00:32:44-07:00*%
%TF.ProjectId,HARDWARE_USBC_ISP_Programmer,48415244-5741-4524-955f-555342435f49,rev?*%
%TF.SameCoordinates,Original*%
%TF.FileFunction,Soldermask,Bot*%
%TF.FilePolarity,Negative*%
%FSLAX46Y46*%
G04 Gerber Fmt 4.6, Leading zero omitted, Abs format (unit mm)*
G04 Created by KiCad (PCBNEW (6.0.7)) date 2022-09-02 00:32:44*
%MOMM*%
%LPD*%
G01*
G04 APERTURE LIST*
%ADD10C,0.010000*%
%ADD11R,1.700000X1.700000*%
%ADD12O,1.700000X1.700000*%
G04 APERTURE END LIST*
%TO.C,J1*%
G36*
X68114000Y-90911000D02*
G01*
X68148000Y-90914000D01*
X68182000Y-90918000D01*
X68215000Y-90924000D01*
X68248000Y-90932000D01*
X68281000Y-90942000D01*
X68313000Y-90953000D01*
X68344000Y-90966000D01*
X68375000Y-90981000D01*
X68405000Y-90997000D01*
X68434000Y-91015000D01*
X68462000Y-91034000D01*
X68489000Y-91055000D01*
X68515000Y-91077000D01*
X68540000Y-91100000D01*
X68563000Y-91125000D01*
X68585000Y-91151000D01*
X68606000Y-91178000D01*
X68625000Y-91206000D01*
X68643000Y-91235000D01*
X68659000Y-91265000D01*
X68674000Y-91296000D01*
X68687000Y-91327000D01*
X68698000Y-91359000D01*
X68708000Y-91392000D01*
X68716000Y-91425000D01*
X68722000Y-91458000D01*
X68726000Y-91492000D01*
X68729000Y-91526000D01*
X68730000Y-91560000D01*
X68730000Y-92560000D01*
X68729000Y-92594000D01*
X68726000Y-92628000D01*
X68722000Y-92662000D01*
X68716000Y-92695000D01*
X68708000Y-92728000D01*
X68698000Y-92761000D01*
X68687000Y-92793000D01*
X68674000Y-92824000D01*
X68659000Y-92855000D01*
X68643000Y-92885000D01*
X68625000Y-92914000D01*
X68606000Y-92942000D01*
X68585000Y-92969000D01*
X68563000Y-92995000D01*
X68540000Y-93020000D01*
X68515000Y-93043000D01*
X68489000Y-93065000D01*
X68462000Y-93086000D01*
X68434000Y-93105000D01*
X68405000Y-93123000D01*
X68375000Y-93139000D01*
X68344000Y-93154000D01*
X68313000Y-93167000D01*
X68281000Y-93178000D01*
X68248000Y-93188000D01*
X68215000Y-93196000D01*
X68182000Y-93202000D01*
X68148000Y-93206000D01*
X68114000Y-93209000D01*
X68080000Y-93210000D01*
X68046000Y-93209000D01*
X68012000Y-93206000D01*
X67978000Y-93202000D01*
X67945000Y-93196000D01*
X67912000Y-93188000D01*
X67879000Y-93178000D01*
X67847000Y-93167000D01*
X67816000Y-93154000D01*
X67785000Y-93139000D01*
X67755000Y-93123000D01*
X67726000Y-93105000D01*
X67698000Y-93086000D01*
X67671000Y-93065000D01*
X67645000Y-93043000D01*
X67620000Y-93020000D01*
X67597000Y-92995000D01*
X67575000Y-92969000D01*
X67554000Y-92942000D01*
X67535000Y-92914000D01*
X67517000Y-92885000D01*
X67501000Y-92855000D01*
X67486000Y-92824000D01*
X67473000Y-92793000D01*
X67462000Y-92761000D01*
X67452000Y-92728000D01*
X67444000Y-92695000D01*
X67438000Y-92662000D01*
X67434000Y-92628000D01*
X67431000Y-92594000D01*
X67430000Y-92560000D01*
X67430000Y-91560000D01*
X67431000Y-91526000D01*
X67434000Y-91492000D01*
X67438000Y-91458000D01*
X67444000Y-91425000D01*
X67452000Y-91392000D01*
X67462000Y-91359000D01*
X67473000Y-91327000D01*
X67486000Y-91296000D01*
X67501000Y-91265000D01*
X67517000Y-91235000D01*
X67535000Y-91206000D01*
X67554000Y-91178000D01*
X67575000Y-91151000D01*
X67597000Y-91125000D01*
X67620000Y-91100000D01*
X67645000Y-91077000D01*
X67671000Y-91055000D01*
X67698000Y-91034000D01*
X67726000Y-91015000D01*
X67755000Y-90997000D01*
X67785000Y-90981000D01*
X67816000Y-90966000D01*
X67847000Y-90953000D01*
X67879000Y-90942000D01*
X67912000Y-90932000D01*
X67945000Y-90924000D01*
X67978000Y-90918000D01*
X68012000Y-90914000D01*
X68046000Y-90911000D01*
X68080000Y-90910000D01*
X68114000Y-90911000D01*
G37*
D10*
X68114000Y-90911000D02*
X68148000Y-90914000D01*
X68182000Y-90918000D01*
X68215000Y-90924000D01*
X68248000Y-90932000D01*
X68281000Y-90942000D01*
X68313000Y-90953000D01*
X68344000Y-90966000D01*
X68375000Y-90981000D01*
X68405000Y-90997000D01*
X68434000Y-91015000D01*
X68462000Y-91034000D01*
X68489000Y-91055000D01*
X68515000Y-91077000D01*
X68540000Y-91100000D01*
X68563000Y-91125000D01*
X68585000Y-91151000D01*
X68606000Y-91178000D01*
X68625000Y-91206000D01*
X68643000Y-91235000D01*
X68659000Y-91265000D01*
X68674000Y-91296000D01*
X68687000Y-91327000D01*
X68698000Y-91359000D01*
X68708000Y-91392000D01*
X68716000Y-91425000D01*
X68722000Y-91458000D01*
X68726000Y-91492000D01*
X68729000Y-91526000D01*
X68730000Y-91560000D01*
X68730000Y-92560000D01*
X68729000Y-92594000D01*
X68726000Y-92628000D01*
X68722000Y-92662000D01*
X68716000Y-92695000D01*
X68708000Y-92728000D01*
X68698000Y-92761000D01*
X68687000Y-92793000D01*
X68674000Y-92824000D01*
X68659000Y-92855000D01*
X68643000Y-92885000D01*
X68625000Y-92914000D01*
X68606000Y-92942000D01*
X68585000Y-92969000D01*
X68563000Y-92995000D01*
X68540000Y-93020000D01*
X68515000Y-93043000D01*
X68489000Y-93065000D01*
X68462000Y-93086000D01*
X68434000Y-93105000D01*
X68405000Y-93123000D01*
X68375000Y-93139000D01*
X68344000Y-93154000D01*
X68313000Y-93167000D01*
X68281000Y-93178000D01*
X68248000Y-93188000D01*
X68215000Y-93196000D01*
X68182000Y-93202000D01*
X68148000Y-93206000D01*
X68114000Y-93209000D01*
X68080000Y-93210000D01*
X68046000Y-93209000D01*
X68012000Y-93206000D01*
X67978000Y-93202000D01*
X67945000Y-93196000D01*
X67912000Y-93188000D01*
X67879000Y-93178000D01*
X67847000Y-93167000D01*
X67816000Y-93154000D01*
X67785000Y-93139000D01*
X67755000Y-93123000D01*
X67726000Y-93105000D01*
X67698000Y-93086000D01*
X67671000Y-93065000D01*
X67645000Y-93043000D01*
X67620000Y-93020000D01*
X67597000Y-92995000D01*
X67575000Y-92969000D01*
X67554000Y-92942000D01*
X67535000Y-92914000D01*
X67517000Y-92885000D01*
X67501000Y-92855000D01*
X67486000Y-92824000D01*
X67473000Y-92793000D01*
X67462000Y-92761000D01*
X67452000Y-92728000D01*
X67444000Y-92695000D01*
X67438000Y-92662000D01*
X67434000Y-92628000D01*
X67431000Y-92594000D01*
X67430000Y-92560000D01*
X67430000Y-91560000D01*
X67431000Y-91526000D01*
X67434000Y-91492000D01*
X67438000Y-91458000D01*
X67444000Y-91425000D01*
X67452000Y-91392000D01*
X67462000Y-91359000D01*
X67473000Y-91327000D01*
X67486000Y-91296000D01*
X67501000Y-91265000D01*
X67517000Y-91235000D01*
X67535000Y-91206000D01*
X67554000Y-91178000D01*
X67575000Y-91151000D01*
X67597000Y-91125000D01*
X67620000Y-91100000D01*
X67645000Y-91077000D01*
X67671000Y-91055000D01*
X67698000Y-91034000D01*
X67726000Y-91015000D01*
X67755000Y-90997000D01*
X67785000Y-90981000D01*
X67816000Y-90966000D01*
X67847000Y-90953000D01*
X67879000Y-90942000D01*
X67912000Y-90932000D01*
X67945000Y-90924000D01*
X67978000Y-90918000D01*
X68012000Y-90914000D01*
X68046000Y-90911000D01*
X68080000Y-90910000D01*
X68114000Y-90911000D01*
G36*
X76789000Y-90911000D02*
G01*
X76821000Y-90914000D01*
X76854000Y-90919000D01*
X76886000Y-90926000D01*
X76917000Y-90934000D01*
X76949000Y-90944000D01*
X76979000Y-90955000D01*
X77009000Y-90968000D01*
X77039000Y-90983000D01*
X77067000Y-90999000D01*
X77095000Y-91016000D01*
X77121000Y-91035000D01*
X77147000Y-91056000D01*
X77172000Y-91078000D01*
X77195000Y-91100000D01*
X77217000Y-91125000D01*
X77238000Y-91150000D01*
X77257000Y-91176000D01*
X77275000Y-91204000D01*
X77292000Y-91232000D01*
X77307000Y-91261000D01*
X77321000Y-91291000D01*
X77333000Y-91321000D01*
X77343000Y-91352000D01*
X77352000Y-91384000D01*
X77359000Y-91416000D01*
X77364000Y-91448000D01*
X77368000Y-91480000D01*
X77370000Y-91510000D01*
X77370000Y-92547000D01*
X77369000Y-92582000D01*
X77365000Y-92617000D01*
X77360000Y-92652000D01*
X77353000Y-92687000D01*
X77344000Y-92721000D01*
X77334000Y-92755000D01*
X77321000Y-92788000D01*
X77307000Y-92820000D01*
X77291000Y-92852000D01*
X77274000Y-92883000D01*
X77255000Y-92913000D01*
X77234000Y-92942000D01*
X77212000Y-92969000D01*
X77189000Y-92996000D01*
X77164000Y-93021000D01*
X77138000Y-93045000D01*
X77111000Y-93067000D01*
X77082000Y-93088000D01*
X77053000Y-93108000D01*
X77022000Y-93126000D01*
X76991000Y-93142000D01*
X76959000Y-93157000D01*
X76926000Y-93170000D01*
X76892000Y-93181000D01*
X76858000Y-93190000D01*
X76824000Y-93198000D01*
X76789000Y-93204000D01*
X76754000Y-93208000D01*
X76720000Y-93210000D01*
X76686000Y-93209000D01*
X76652000Y-93206000D01*
X76618000Y-93202000D01*
X76585000Y-93196000D01*
X76552000Y-93188000D01*
X76519000Y-93178000D01*
X76487000Y-93167000D01*
X76456000Y-93154000D01*
X76425000Y-93139000D01*
X76395000Y-93123000D01*
X76366000Y-93105000D01*
X76338000Y-93086000D01*
X76311000Y-93065000D01*
X76285000Y-93043000D01*
X76260000Y-93020000D01*
X76237000Y-92995000D01*
X76215000Y-92969000D01*
X76194000Y-92942000D01*
X76175000Y-92914000D01*
X76157000Y-92885000D01*
X76141000Y-92855000D01*
X76126000Y-92824000D01*
X76113000Y-92793000D01*
X76102000Y-92761000D01*
X76092000Y-92728000D01*
X76084000Y-92695000D01*
X76078000Y-92662000D01*
X76074000Y-92628000D01*
X76071000Y-92594000D01*
X76070000Y-92560000D01*
X76070000Y-91560000D01*
X76071000Y-91526000D01*
X76074000Y-91492000D01*
X76078000Y-91458000D01*
X76084000Y-91425000D01*
X76092000Y-91392000D01*
X76102000Y-91359000D01*
X76113000Y-91327000D01*
X76126000Y-91296000D01*
X76141000Y-91265000D01*
X76157000Y-91235000D01*
X76175000Y-91206000D01*
X76194000Y-91178000D01*
X76215000Y-91151000D01*
X76237000Y-91125000D01*
X76260000Y-91100000D01*
X76285000Y-91077000D01*
X76311000Y-91055000D01*
X76338000Y-91034000D01*
X76366000Y-91015000D01*
X76395000Y-90997000D01*
X76425000Y-90981000D01*
X76456000Y-90966000D01*
X76487000Y-90953000D01*
X76519000Y-90942000D01*
X76552000Y-90932000D01*
X76585000Y-90924000D01*
X76618000Y-90918000D01*
X76652000Y-90914000D01*
X76686000Y-90911000D01*
X76720000Y-90910000D01*
X76756000Y-90910000D01*
X76789000Y-90911000D01*
G37*
X76789000Y-90911000D02*
X76821000Y-90914000D01*
X76854000Y-90919000D01*
X76886000Y-90926000D01*
X76917000Y-90934000D01*
X76949000Y-90944000D01*
X76979000Y-90955000D01*
X77009000Y-90968000D01*
X77039000Y-90983000D01*
X77067000Y-90999000D01*
X77095000Y-91016000D01*
X77121000Y-91035000D01*
X77147000Y-91056000D01*
X77172000Y-91078000D01*
X77195000Y-91100000D01*
X77217000Y-91125000D01*
X77238000Y-91150000D01*
X77257000Y-91176000D01*
X77275000Y-91204000D01*
X77292000Y-91232000D01*
X77307000Y-91261000D01*
X77321000Y-91291000D01*
X77333000Y-91321000D01*
X77343000Y-91352000D01*
X77352000Y-91384000D01*
X77359000Y-91416000D01*
X77364000Y-91448000D01*
X77368000Y-91480000D01*
X77370000Y-91510000D01*
X77370000Y-92547000D01*
X77369000Y-92582000D01*
X77365000Y-92617000D01*
X77360000Y-92652000D01*
X77353000Y-92687000D01*
X77344000Y-92721000D01*
X77334000Y-92755000D01*
X77321000Y-92788000D01*
X77307000Y-92820000D01*
X77291000Y-92852000D01*
X77274000Y-92883000D01*
X77255000Y-92913000D01*
X77234000Y-92942000D01*
X77212000Y-92969000D01*
X77189000Y-92996000D01*
X77164000Y-93021000D01*
X77138000Y-93045000D01*
X77111000Y-93067000D01*
X77082000Y-93088000D01*
X77053000Y-93108000D01*
X77022000Y-93126000D01*
X76991000Y-93142000D01*
X76959000Y-93157000D01*
X76926000Y-93170000D01*
X76892000Y-93181000D01*
X76858000Y-93190000D01*
X76824000Y-93198000D01*
X76789000Y-93204000D01*
X76754000Y-93208000D01*
X76720000Y-93210000D01*
X76686000Y-93209000D01*
X76652000Y-93206000D01*
X76618000Y-93202000D01*
X76585000Y-93196000D01*
X76552000Y-93188000D01*
X76519000Y-93178000D01*
X76487000Y-93167000D01*
X76456000Y-93154000D01*
X76425000Y-93139000D01*
X76395000Y-93123000D01*
X76366000Y-93105000D01*
X76338000Y-93086000D01*
X76311000Y-93065000D01*
X76285000Y-93043000D01*
X76260000Y-93020000D01*
X76237000Y-92995000D01*
X76215000Y-92969000D01*
X76194000Y-92942000D01*
X76175000Y-92914000D01*
X76157000Y-92885000D01*
X76141000Y-92855000D01*
X76126000Y-92824000D01*
X76113000Y-92793000D01*
X76102000Y-92761000D01*
X76092000Y-92728000D01*
X76084000Y-92695000D01*
X76078000Y-92662000D01*
X76074000Y-92628000D01*
X76071000Y-92594000D01*
X76070000Y-92560000D01*
X76070000Y-91560000D01*
X76071000Y-91526000D01*
X76074000Y-91492000D01*
X76078000Y-91458000D01*
X76084000Y-91425000D01*
X76092000Y-91392000D01*
X76102000Y-91359000D01*
X76113000Y-91327000D01*
X76126000Y-91296000D01*
X76141000Y-91265000D01*
X76157000Y-91235000D01*
X76175000Y-91206000D01*
X76194000Y-91178000D01*
X76215000Y-91151000D01*
X76237000Y-91125000D01*
X76260000Y-91100000D01*
X76285000Y-91077000D01*
X76311000Y-91055000D01*
X76338000Y-91034000D01*
X76366000Y-91015000D01*
X76395000Y-90997000D01*
X76425000Y-90981000D01*
X76456000Y-90966000D01*
X76487000Y-90953000D01*
X76519000Y-90942000D01*
X76552000Y-90932000D01*
X76585000Y-90924000D01*
X76618000Y-90918000D01*
X76652000Y-90914000D01*
X76686000Y-90911000D01*
X76720000Y-90910000D01*
X76756000Y-90910000D01*
X76789000Y-90911000D01*
G36*
X76754000Y-85302000D02*
G01*
X76789000Y-85306000D01*
X76824000Y-85312000D01*
X76858000Y-85320000D01*
X76892000Y-85329000D01*
X76926000Y-85340000D01*
X76959000Y-85353000D01*
X76991000Y-85368000D01*
X77022000Y-85384000D01*
X77053000Y-85402000D01*
X77082000Y-85422000D01*
X77111000Y-85443000D01*
X77138000Y-85465000D01*
X77164000Y-85489000D01*
X77189000Y-85514000D01*
X77212000Y-85541000D01*
X77234000Y-85568000D01*
X77255000Y-85597000D01*
X77274000Y-85627000D01*
X77291000Y-85658000D01*
X77307000Y-85690000D01*
X77321000Y-85722000D01*
X77334000Y-85755000D01*
X77344000Y-85789000D01*
X77353000Y-85823000D01*
X77360000Y-85858000D01*
X77365000Y-85893000D01*
X77369000Y-85928000D01*
X77370000Y-85963000D01*
X77370000Y-87437000D01*
X77369000Y-87472000D01*
X77365000Y-87507000D01*
X77360000Y-87542000D01*
X77353000Y-87577000D01*
X77344000Y-87611000D01*
X77334000Y-87645000D01*
X77321000Y-87678000D01*
X77307000Y-87710000D01*
X77291000Y-87742000D01*
X77274000Y-87773000D01*
X77255000Y-87803000D01*
X77234000Y-87832000D01*
X77212000Y-87859000D01*
X77189000Y-87886000D01*
X77164000Y-87911000D01*
X77138000Y-87935000D01*
X77111000Y-87957000D01*
X77082000Y-87978000D01*
X77053000Y-87998000D01*
X77022000Y-88016000D01*
X76991000Y-88032000D01*
X76959000Y-88047000D01*
X76926000Y-88060000D01*
X76892000Y-88071000D01*
X76858000Y-88080000D01*
X76824000Y-88088000D01*
X76789000Y-88094000D01*
X76754000Y-88098000D01*
X76720000Y-88100000D01*
X76686000Y-88098000D01*
X76651000Y-88094000D01*
X76616000Y-88088000D01*
X76582000Y-88080000D01*
X76548000Y-88071000D01*
X76514000Y-88060000D01*
X76481000Y-88047000D01*
X76449000Y-88032000D01*
X76418000Y-88016000D01*
X76387000Y-87998000D01*
X76358000Y-87978000D01*
X76329000Y-87957000D01*
X76302000Y-87935000D01*
X76276000Y-87911000D01*
X76251000Y-87886000D01*
X76228000Y-87859000D01*
X76206000Y-87832000D01*
X76185000Y-87803000D01*
X76166000Y-87773000D01*
X76149000Y-87742000D01*
X76133000Y-87710000D01*
X76119000Y-87678000D01*
X76106000Y-87645000D01*
X76096000Y-87611000D01*
X76087000Y-87577000D01*
X76080000Y-87542000D01*
X76075000Y-87507000D01*
X76071000Y-87472000D01*
X76070000Y-87437000D01*
X76070000Y-85963000D01*
X76071000Y-85928000D01*
X76075000Y-85893000D01*
X76080000Y-85858000D01*
X76087000Y-85823000D01*
X76096000Y-85789000D01*
X76106000Y-85755000D01*
X76119000Y-85722000D01*
X76133000Y-85690000D01*
X76149000Y-85658000D01*
X76166000Y-85627000D01*
X76185000Y-85597000D01*
X76206000Y-85568000D01*
X76228000Y-85541000D01*
X76251000Y-85514000D01*
X76276000Y-85489000D01*
X76302000Y-85465000D01*
X76329000Y-85443000D01*
X76358000Y-85422000D01*
X76387000Y-85402000D01*
X76418000Y-85384000D01*
X76449000Y-85368000D01*
X76481000Y-85353000D01*
X76514000Y-85340000D01*
X76548000Y-85329000D01*
X76582000Y-85320000D01*
X76616000Y-85312000D01*
X76651000Y-85306000D01*
X76686000Y-85302000D01*
X76720000Y-85300000D01*
X76754000Y-85302000D01*
G37*
X76754000Y-85302000D02*
X76789000Y-85306000D01*
X76824000Y-85312000D01*
X76858000Y-85320000D01*
X76892000Y-85329000D01*
X76926000Y-85340000D01*
X76959000Y-85353000D01*
X76991000Y-85368000D01*
X77022000Y-85384000D01*
X77053000Y-85402000D01*
X77082000Y-85422000D01*
X77111000Y-85443000D01*
X77138000Y-85465000D01*
X77164000Y-85489000D01*
X77189000Y-85514000D01*
X77212000Y-85541000D01*
X77234000Y-85568000D01*
X77255000Y-85597000D01*
X77274000Y-85627000D01*
X77291000Y-85658000D01*
X77307000Y-85690000D01*
X77321000Y-85722000D01*
X77334000Y-85755000D01*
X77344000Y-85789000D01*
X77353000Y-85823000D01*
X77360000Y-85858000D01*
X77365000Y-85893000D01*
X77369000Y-85928000D01*
X77370000Y-85963000D01*
X77370000Y-87437000D01*
X77369000Y-87472000D01*
X77365000Y-87507000D01*
X77360000Y-87542000D01*
X77353000Y-87577000D01*
X77344000Y-87611000D01*
X77334000Y-87645000D01*
X77321000Y-87678000D01*
X77307000Y-87710000D01*
X77291000Y-87742000D01*
X77274000Y-87773000D01*
X77255000Y-87803000D01*
X77234000Y-87832000D01*
X77212000Y-87859000D01*
X77189000Y-87886000D01*
X77164000Y-87911000D01*
X77138000Y-87935000D01*
X77111000Y-87957000D01*
X77082000Y-87978000D01*
X77053000Y-87998000D01*
X77022000Y-88016000D01*
X76991000Y-88032000D01*
X76959000Y-88047000D01*
X76926000Y-88060000D01*
X76892000Y-88071000D01*
X76858000Y-88080000D01*
X76824000Y-88088000D01*
X76789000Y-88094000D01*
X76754000Y-88098000D01*
X76720000Y-88100000D01*
X76686000Y-88098000D01*
X76651000Y-88094000D01*
X76616000Y-88088000D01*
X76582000Y-88080000D01*
X76548000Y-88071000D01*
X76514000Y-88060000D01*
X76481000Y-88047000D01*
X76449000Y-88032000D01*
X76418000Y-88016000D01*
X76387000Y-87998000D01*
X76358000Y-87978000D01*
X76329000Y-87957000D01*
X76302000Y-87935000D01*
X76276000Y-87911000D01*
X76251000Y-87886000D01*
X76228000Y-87859000D01*
X76206000Y-87832000D01*
X76185000Y-87803000D01*
X76166000Y-87773000D01*
X76149000Y-87742000D01*
X76133000Y-87710000D01*
X76119000Y-87678000D01*
X76106000Y-87645000D01*
X76096000Y-87611000D01*
X76087000Y-87577000D01*
X76080000Y-87542000D01*
X76075000Y-87507000D01*
X76071000Y-87472000D01*
X76070000Y-87437000D01*
X76070000Y-85963000D01*
X76071000Y-85928000D01*
X76075000Y-85893000D01*
X76080000Y-85858000D01*
X76087000Y-85823000D01*
X76096000Y-85789000D01*
X76106000Y-85755000D01*
X76119000Y-85722000D01*
X76133000Y-85690000D01*
X76149000Y-85658000D01*
X76166000Y-85627000D01*
X76185000Y-85597000D01*
X76206000Y-85568000D01*
X76228000Y-85541000D01*
X76251000Y-85514000D01*
X76276000Y-85489000D01*
X76302000Y-85465000D01*
X76329000Y-85443000D01*
X76358000Y-85422000D01*
X76387000Y-85402000D01*
X76418000Y-85384000D01*
X76449000Y-85368000D01*
X76481000Y-85353000D01*
X76514000Y-85340000D01*
X76548000Y-85329000D01*
X76582000Y-85320000D01*
X76616000Y-85312000D01*
X76651000Y-85306000D01*
X76686000Y-85302000D01*
X76720000Y-85300000D01*
X76754000Y-85302000D01*
G36*
X68114000Y-85352000D02*
G01*
X68149000Y-85356000D01*
X68184000Y-85362000D01*
X68218000Y-85370000D01*
X68252000Y-85379000D01*
X68286000Y-85390000D01*
X68319000Y-85403000D01*
X68351000Y-85418000D01*
X68382000Y-85434000D01*
X68413000Y-85452000D01*
X68442000Y-85472000D01*
X68471000Y-85493000D01*
X68498000Y-85515000D01*
X68524000Y-85539000D01*
X68549000Y-85564000D01*
X68572000Y-85591000D01*
X68594000Y-85618000D01*
X68615000Y-85647000D01*
X68634000Y-85677000D01*
X68651000Y-85708000D01*
X68667000Y-85740000D01*
X68681000Y-85772000D01*
X68694000Y-85805000D01*
X68704000Y-85839000D01*
X68713000Y-85873000D01*
X68720000Y-85908000D01*
X68725000Y-85943000D01*
X68729000Y-85978000D01*
X68730000Y-86013000D01*
X68730000Y-87387000D01*
X68729000Y-87422000D01*
X68725000Y-87457000D01*
X68720000Y-87492000D01*
X68713000Y-87527000D01*
X68704000Y-87561000D01*
X68694000Y-87595000D01*
X68681000Y-87628000D01*
X68667000Y-87660000D01*
X68651000Y-87692000D01*
X68634000Y-87723000D01*
X68615000Y-87753000D01*
X68594000Y-87782000D01*
X68572000Y-87809000D01*
X68549000Y-87836000D01*
X68524000Y-87861000D01*
X68498000Y-87885000D01*
X68471000Y-87907000D01*
X68442000Y-87928000D01*
X68413000Y-87948000D01*
X68382000Y-87966000D01*
X68351000Y-87982000D01*
X68319000Y-87997000D01*
X68286000Y-88010000D01*
X68252000Y-88021000D01*
X68218000Y-88030000D01*
X68184000Y-88038000D01*
X68149000Y-88044000D01*
X68114000Y-88048000D01*
X68080000Y-88050000D01*
X68046000Y-88048000D01*
X68011000Y-88044000D01*
X67976000Y-88038000D01*
X67942000Y-88030000D01*
X67908000Y-88021000D01*
X67874000Y-88010000D01*
X67841000Y-87997000D01*
X67809000Y-87982000D01*
X67778000Y-87966000D01*
X67747000Y-87948000D01*
X67718000Y-87928000D01*
X67689000Y-87907000D01*
X67662000Y-87885000D01*
X67636000Y-87861000D01*
X67611000Y-87836000D01*
X67588000Y-87809000D01*
X67566000Y-87782000D01*
X67545000Y-87753000D01*
X67526000Y-87723000D01*
X67509000Y-87692000D01*
X67493000Y-87660000D01*
X67479000Y-87628000D01*
X67466000Y-87595000D01*
X67456000Y-87561000D01*
X67447000Y-87527000D01*
X67440000Y-87492000D01*
X67435000Y-87457000D01*
X67431000Y-87422000D01*
X67430000Y-87387000D01*
X67430000Y-86013000D01*
X67431000Y-85978000D01*
X67435000Y-85943000D01*
X67440000Y-85908000D01*
X67447000Y-85873000D01*
X67456000Y-85839000D01*
X67466000Y-85805000D01*
X67479000Y-85772000D01*
X67493000Y-85740000D01*
X67509000Y-85708000D01*
X67526000Y-85677000D01*
X67545000Y-85647000D01*
X67566000Y-85618000D01*
X67588000Y-85591000D01*
X67611000Y-85564000D01*
X67636000Y-85539000D01*
X67662000Y-85515000D01*
X67689000Y-85493000D01*
X67718000Y-85472000D01*
X67747000Y-85452000D01*
X67778000Y-85434000D01*
X67809000Y-85418000D01*
X67841000Y-85403000D01*
X67874000Y-85390000D01*
X67908000Y-85379000D01*
X67942000Y-85370000D01*
X67976000Y-85362000D01*
X68011000Y-85356000D01*
X68046000Y-85352000D01*
X68080000Y-85350000D01*
X68114000Y-85352000D01*
G37*
X68114000Y-85352000D02*
X68149000Y-85356000D01*
X68184000Y-85362000D01*
X68218000Y-85370000D01*
X68252000Y-85379000D01*
X68286000Y-85390000D01*
X68319000Y-85403000D01*
X68351000Y-85418000D01*
X68382000Y-85434000D01*
X68413000Y-85452000D01*
X68442000Y-85472000D01*
X68471000Y-85493000D01*
X68498000Y-85515000D01*
X68524000Y-85539000D01*
X68549000Y-85564000D01*
X68572000Y-85591000D01*
X68594000Y-85618000D01*
X68615000Y-85647000D01*
X68634000Y-85677000D01*
X68651000Y-85708000D01*
X68667000Y-85740000D01*
X68681000Y-85772000D01*
X68694000Y-85805000D01*
X68704000Y-85839000D01*
X68713000Y-85873000D01*
X68720000Y-85908000D01*
X68725000Y-85943000D01*
X68729000Y-85978000D01*
X68730000Y-86013000D01*
X68730000Y-87387000D01*
X68729000Y-87422000D01*
X68725000Y-87457000D01*
X68720000Y-87492000D01*
X68713000Y-87527000D01*
X68704000Y-87561000D01*
X68694000Y-87595000D01*
X68681000Y-87628000D01*
X68667000Y-87660000D01*
X68651000Y-87692000D01*
X68634000Y-87723000D01*
X68615000Y-87753000D01*
X68594000Y-87782000D01*
X68572000Y-87809000D01*
X68549000Y-87836000D01*
X68524000Y-87861000D01*
X68498000Y-87885000D01*
X68471000Y-87907000D01*
X68442000Y-87928000D01*
X68413000Y-87948000D01*
X68382000Y-87966000D01*
X68351000Y-87982000D01*
X68319000Y-87997000D01*
X68286000Y-88010000D01*
X68252000Y-88021000D01*
X68218000Y-88030000D01*
X68184000Y-88038000D01*
X68149000Y-88044000D01*
X68114000Y-88048000D01*
X68080000Y-88050000D01*
X68046000Y-88048000D01*
X68011000Y-88044000D01*
X67976000Y-88038000D01*
X67942000Y-88030000D01*
X67908000Y-88021000D01*
X67874000Y-88010000D01*
X67841000Y-87997000D01*
X67809000Y-87982000D01*
X67778000Y-87966000D01*
X67747000Y-87948000D01*
X67718000Y-87928000D01*
X67689000Y-87907000D01*
X67662000Y-87885000D01*
X67636000Y-87861000D01*
X67611000Y-87836000D01*
X67588000Y-87809000D01*
X67566000Y-87782000D01*
X67545000Y-87753000D01*
X67526000Y-87723000D01*
X67509000Y-87692000D01*
X67493000Y-87660000D01*
X67479000Y-87628000D01*
X67466000Y-87595000D01*
X67456000Y-87561000D01*
X67447000Y-87527000D01*
X67440000Y-87492000D01*
X67435000Y-87457000D01*
X67431000Y-87422000D01*
X67430000Y-87387000D01*
X67430000Y-86013000D01*
X67431000Y-85978000D01*
X67435000Y-85943000D01*
X67440000Y-85908000D01*
X67447000Y-85873000D01*
X67456000Y-85839000D01*
X67466000Y-85805000D01*
X67479000Y-85772000D01*
X67493000Y-85740000D01*
X67509000Y-85708000D01*
X67526000Y-85677000D01*
X67545000Y-85647000D01*
X67566000Y-85618000D01*
X67588000Y-85591000D01*
X67611000Y-85564000D01*
X67636000Y-85539000D01*
X67662000Y-85515000D01*
X67689000Y-85493000D01*
X67718000Y-85472000D01*
X67747000Y-85452000D01*
X67778000Y-85434000D01*
X67809000Y-85418000D01*
X67841000Y-85403000D01*
X67874000Y-85390000D01*
X67908000Y-85379000D01*
X67942000Y-85370000D01*
X67976000Y-85362000D01*
X68011000Y-85356000D01*
X68046000Y-85352000D01*
X68080000Y-85350000D01*
X68114000Y-85352000D01*
%TD*%
D11*
%TO.C,J2*%
X75200000Y-124025000D03*
D12*
X75200000Y-126565000D03*
X72660000Y-124025000D03*
X72660000Y-126565000D03*
X70120000Y-124025000D03*
X70120000Y-126565000D03*
%TD*%
D11*
%TO.C,J3*%
X60550000Y-118585000D03*
D12*
X60550000Y-116045000D03*
X60550000Y-113505000D03*
X60550000Y-110965000D03*
X60550000Y-108425000D03*
X60550000Y-105885000D03*
X60550000Y-103345000D03*
X60550000Y-100805000D03*
X60550000Y-98265000D03*
X60550000Y-95725000D03*
%TD*%
D11*
%TO.C,J4*%
X84725000Y-118610000D03*
D12*
X84725000Y-116070000D03*
X84725000Y-113530000D03*
X84725000Y-110990000D03*
X84725000Y-108450000D03*
X84725000Y-105910000D03*
X84725000Y-103370000D03*
X84725000Y-100830000D03*
X84725000Y-98290000D03*
X84725000Y-95750000D03*
%TD*%
M02*
