%TF.GenerationSoftware,KiCad,Pcbnew,(6.0.7)*%
%TF.CreationDate,2022-09-02T00:32:44-07:00*%
%TF.ProjectId,HARDWARE_USBC_ISP_Programmer,48415244-5741-4524-955f-555342435f49,rev?*%
%TF.SameCoordinates,Original*%
%TF.FileFunction,Copper,L3,Inr*%
%TF.FilePolarity,Positive*%
%FSLAX46Y46*%
G04 Gerber Fmt 4.6, Leading zero omitted, Abs format (unit mm)*
G04 Created by KiCad (PCBNEW (6.0.7)) date 2022-09-02 00:32:44*
%MOMM*%
%LPD*%
G01*
G04 APERTURE LIST*
%TA.AperFunction,ComponentPad*%
%ADD10R,1.700000X1.700000*%
%TD*%
%TA.AperFunction,ComponentPad*%
%ADD11O,1.700000X1.700000*%
%TD*%
%TA.AperFunction,ComponentPad*%
%ADD12C,1.200000*%
%TD*%
%TA.AperFunction,ViaPad*%
%ADD13C,0.800000*%
%TD*%
%TA.AperFunction,ViaPad*%
%ADD14C,0.450000*%
%TD*%
%TA.AperFunction,ViaPad*%
%ADD15C,0.400000*%
%TD*%
G04 APERTURE END LIST*
D10*
%TO.N,Net-(J2-Pad1)*%
%TO.C,J2*%
X75200000Y-124025000D03*
D11*
%TO.N,+5V*%
X75200000Y-126565000D03*
%TO.N,Net-(J2-Pad3)*%
X72660000Y-124025000D03*
%TO.N,Net-(J2-Pad4)*%
X72660000Y-126565000D03*
%TO.N,Net-(J2-Pad5)*%
X70120000Y-124025000D03*
%TO.N,GND*%
X70120000Y-126565000D03*
%TD*%
D12*
%TO.N,GND*%
%TO.C,J1*%
X76720000Y-92060000D03*
X68080000Y-92060000D03*
X76720000Y-86700000D03*
X68080000Y-86700000D03*
%TD*%
D10*
%TO.N,/IO10*%
%TO.C,J3*%
X60550000Y-118585000D03*
D11*
%TO.N,/IO11*%
X60550000Y-116045000D03*
%TO.N,/IO12*%
X60550000Y-113505000D03*
%TO.N,/IO13*%
X60550000Y-110965000D03*
%TO.N,/A5*%
X60550000Y-108425000D03*
%TO.N,/A4*%
X60550000Y-105885000D03*
%TO.N,/A3*%
X60550000Y-103345000D03*
%TO.N,/A2*%
X60550000Y-100805000D03*
%TO.N,/A1*%
X60550000Y-98265000D03*
%TO.N,/A0*%
X60550000Y-95725000D03*
%TD*%
D10*
%TO.N,/D0 {slash} RX*%
%TO.C,J4*%
X84725000Y-118610000D03*
D11*
%TO.N,/D1 {slash} TX*%
X84725000Y-116070000D03*
%TO.N,/D2 {slash} SDA*%
X84725000Y-113530000D03*
%TO.N,/D3 {slash} SCL*%
X84725000Y-110990000D03*
%TO.N,/D4*%
X84725000Y-108450000D03*
%TO.N,/D5*%
X84725000Y-105910000D03*
%TO.N,/D6*%
X84725000Y-103370000D03*
%TO.N,/D7*%
X84725000Y-100830000D03*
%TO.N,/IO8*%
X84725000Y-98290000D03*
%TO.N,/IO9*%
X84725000Y-95750000D03*
%TD*%
D13*
%TO.N,+5V*%
X76400000Y-96150000D03*
D14*
X61750000Y-126925000D03*
X79075000Y-95750000D03*
X68025000Y-108775000D03*
X61050000Y-92900000D03*
X79700000Y-93375000D03*
X63600000Y-113711774D03*
X79175000Y-101100000D03*
X70575000Y-114050000D03*
X66450000Y-101825000D03*
X79287500Y-93787500D03*
X64925000Y-126925000D03*
X79075000Y-96250000D03*
X81650000Y-120425000D03*
X79075000Y-95225000D03*
%TO.N,GND*%
X80025000Y-96075000D03*
X77350000Y-98625000D03*
X84175000Y-127050000D03*
X71913556Y-101836444D03*
X69425000Y-93600000D03*
X69250000Y-99050000D03*
X78675000Y-109150000D03*
X76050000Y-117400000D03*
X75700000Y-94475000D03*
D13*
X72700000Y-107325000D03*
D14*
X63075000Y-94900000D03*
X81200000Y-127050000D03*
X75500000Y-91825000D03*
X70975000Y-116975000D03*
X65725000Y-108725000D03*
X68450000Y-105850000D03*
X65700000Y-115425000D03*
X84875000Y-85900000D03*
X72125000Y-114050000D03*
X64650000Y-87525000D03*
X75174500Y-113727930D03*
X64250000Y-118875000D03*
X64650000Y-102750000D03*
D13*
X75700000Y-104850000D03*
X75700000Y-107350000D03*
X72700000Y-104775000D03*
D14*
X62450000Y-120375000D03*
%TO.N,+5VA*%
X76275000Y-97675000D03*
X79650000Y-108575000D03*
X71000000Y-100875000D03*
%TO.N,/RXLED*%
X69350000Y-107400000D03*
X81525000Y-97150000D03*
X80125000Y-104125000D03*
X81400000Y-103200000D03*
%TO.N,/USB_VBUS*%
X76150000Y-95075000D03*
X69925000Y-95225500D03*
%TO.N,/USB_D+*%
X62825000Y-95575000D03*
X64150000Y-106075000D03*
D15*
%TO.N,/USB_D-*%
X72650000Y-91725000D03*
D14*
X64200000Y-104350000D03*
X68000000Y-94075000D03*
D15*
X72300000Y-92600000D03*
D14*
X63625000Y-94175500D03*
%TO.N,/CC2*%
X71325000Y-93650000D03*
D15*
X71650000Y-91725000D03*
D14*
%TO.N,/IO10*%
X79400000Y-105275500D03*
X62050000Y-110350000D03*
%TO.N,/IO11*%
X66325000Y-111600000D03*
%TO.N,/IO12*%
X80775000Y-107750000D03*
%TO.N,/IO13*%
X79100000Y-104050000D03*
%TO.N,/A4*%
X83500000Y-122450000D03*
%TO.N,/D2 {slash} SDA*%
X82350500Y-113350000D03*
%TO.N,/D3 {slash} SCL*%
X81337548Y-112312452D03*
%TO.N,/D4*%
X76025000Y-118475000D03*
%TO.N,/D5*%
X83000000Y-110300000D03*
%TO.N,/D6*%
X83125000Y-105500000D03*
%TO.N,/D7*%
X80050000Y-102650000D03*
X69550000Y-103775000D03*
%TO.N,/IO8*%
X67175000Y-111025000D03*
X67175000Y-115475000D03*
X70075000Y-111025000D03*
X81523944Y-106275500D03*
%TO.N,/IO9*%
X82400000Y-105374500D03*
%TO.N,/NRESET*%
X64600000Y-107050000D03*
X64900000Y-93100000D03*
%TO.N,/MISO*%
X69400000Y-110450000D03*
X69425000Y-114450000D03*
%TO.N,/SCK*%
X72750000Y-119475000D03*
X68063226Y-113236774D03*
X68100000Y-110475000D03*
%TO.N,/MOSI*%
X68749503Y-110475000D03*
X68775000Y-115086274D03*
X68775000Y-112699500D03*
%TD*%
%TA.AperFunction,Conductor*%
%TO.N,GND*%
G36*
X67362367Y-85278502D02*
G01*
X67408860Y-85332158D01*
X67418964Y-85402432D01*
X67399103Y-85451314D01*
X67400225Y-85451973D01*
X67318324Y-85591481D01*
X67265215Y-85744287D01*
X67249904Y-85854403D01*
X67248430Y-85862866D01*
X67243336Y-85887159D01*
X67243335Y-85887166D01*
X67242336Y-85891931D01*
X67241681Y-85904467D01*
X67242178Y-85909309D01*
X67242178Y-85909313D01*
X67242744Y-85914825D01*
X67229801Y-85984632D01*
X67216352Y-86005694D01*
X67150349Y-86089418D01*
X67144081Y-86099069D01*
X67054649Y-86269052D01*
X67050240Y-86279695D01*
X66993281Y-86463132D01*
X66990891Y-86474376D01*
X66968313Y-86665137D01*
X66968012Y-86676638D01*
X66980575Y-86868304D01*
X66982376Y-86879674D01*
X67029657Y-87065843D01*
X67033498Y-87076690D01*
X67113915Y-87251128D01*
X67119666Y-87261089D01*
X67218886Y-87401482D01*
X67241867Y-87468656D01*
X67241839Y-87479014D01*
X67241333Y-87482985D01*
X67241681Y-87495533D01*
X67242561Y-87500309D01*
X67242562Y-87500317D01*
X67246323Y-87520727D01*
X67247208Y-87526207D01*
X67249314Y-87541350D01*
X67265215Y-87655713D01*
X67318324Y-87808519D01*
X67400225Y-87948027D01*
X67404340Y-87952651D01*
X67404342Y-87952654D01*
X67459964Y-88015158D01*
X67507768Y-88068877D01*
X67572294Y-88117650D01*
X67631879Y-88162689D01*
X67631882Y-88162691D01*
X67636821Y-88166424D01*
X67642394Y-88169122D01*
X67642397Y-88169124D01*
X67776854Y-88234222D01*
X67782425Y-88236919D01*
X67788413Y-88238477D01*
X67932991Y-88276095D01*
X67932994Y-88276095D01*
X67938984Y-88277654D01*
X68013005Y-88281966D01*
X68031528Y-88284434D01*
X68046931Y-88287664D01*
X68059467Y-88288319D01*
X68064318Y-88287821D01*
X68069040Y-88287703D01*
X68078424Y-88287818D01*
X68083163Y-88288053D01*
X68087985Y-88288667D01*
X68100533Y-88288319D01*
X68121765Y-88284406D01*
X68137263Y-88282533D01*
X68221016Y-88277654D01*
X68227006Y-88276095D01*
X68227009Y-88276095D01*
X68371587Y-88238477D01*
X68377575Y-88236919D01*
X68383146Y-88234222D01*
X68517603Y-88169124D01*
X68517606Y-88169122D01*
X68523179Y-88166424D01*
X68528118Y-88162691D01*
X68528121Y-88162689D01*
X68587705Y-88117651D01*
X68652232Y-88068877D01*
X68700036Y-88015158D01*
X68755658Y-87952654D01*
X68755660Y-87952651D01*
X68759775Y-87948027D01*
X68841676Y-87808519D01*
X68894785Y-87655713D01*
X68910096Y-87545597D01*
X68911570Y-87537134D01*
X68916664Y-87512841D01*
X68916665Y-87512834D01*
X68917664Y-87508069D01*
X68918319Y-87495533D01*
X68917821Y-87490675D01*
X68917277Y-87485379D01*
X68930221Y-87415572D01*
X68945745Y-87391946D01*
X68993357Y-87334699D01*
X68999863Y-87325233D01*
X69093726Y-87157628D01*
X69098400Y-87147131D01*
X69160144Y-86965240D01*
X69162832Y-86954045D01*
X69190689Y-86761911D01*
X69191319Y-86754528D01*
X69192650Y-86703704D01*
X69192407Y-86696305D01*
X69174643Y-86502975D01*
X69172545Y-86491654D01*
X69120408Y-86306791D01*
X69116283Y-86296044D01*
X69031328Y-86123772D01*
X69025318Y-86113964D01*
X68942931Y-86003636D01*
X68918199Y-85937087D01*
X68918044Y-85922008D01*
X68918052Y-85921841D01*
X68918667Y-85917015D01*
X68918319Y-85904467D01*
X68917439Y-85899691D01*
X68917438Y-85899683D01*
X68913677Y-85879273D01*
X68912792Y-85873793D01*
X68895638Y-85750424D01*
X68894785Y-85744287D01*
X68841676Y-85591481D01*
X68759775Y-85451973D01*
X68761192Y-85451141D01*
X68739965Y-85391786D01*
X68755994Y-85322622D01*
X68806872Y-85273105D01*
X68865754Y-85258500D01*
X75934246Y-85258500D01*
X76002367Y-85278502D01*
X76048860Y-85332158D01*
X76058964Y-85402432D01*
X76039103Y-85451314D01*
X76040225Y-85451973D01*
X75958324Y-85591481D01*
X75905215Y-85744287D01*
X75889904Y-85854403D01*
X75888430Y-85862866D01*
X75883336Y-85887159D01*
X75883335Y-85887166D01*
X75882336Y-85891931D01*
X75881681Y-85904467D01*
X75882178Y-85909309D01*
X75882178Y-85909313D01*
X75882744Y-85914825D01*
X75869801Y-85984632D01*
X75856352Y-86005694D01*
X75790349Y-86089418D01*
X75784081Y-86099069D01*
X75694649Y-86269052D01*
X75690240Y-86279695D01*
X75633281Y-86463132D01*
X75630891Y-86474376D01*
X75608313Y-86665137D01*
X75608012Y-86676638D01*
X75620575Y-86868304D01*
X75622376Y-86879674D01*
X75669657Y-87065843D01*
X75673498Y-87076690D01*
X75753915Y-87251128D01*
X75759666Y-87261089D01*
X75858886Y-87401482D01*
X75881867Y-87468656D01*
X75881839Y-87479014D01*
X75881333Y-87482985D01*
X75881681Y-87495533D01*
X75882561Y-87500309D01*
X75882562Y-87500317D01*
X75886323Y-87520727D01*
X75887208Y-87526207D01*
X75889314Y-87541350D01*
X75905215Y-87655713D01*
X75958324Y-87808519D01*
X76040225Y-87948027D01*
X76044340Y-87952651D01*
X76044342Y-87952654D01*
X76099964Y-88015158D01*
X76147768Y-88068877D01*
X76212294Y-88117650D01*
X76271879Y-88162689D01*
X76271882Y-88162691D01*
X76276821Y-88166424D01*
X76282394Y-88169122D01*
X76282397Y-88169124D01*
X76416854Y-88234222D01*
X76422425Y-88236919D01*
X76428413Y-88238477D01*
X76572991Y-88276095D01*
X76572994Y-88276095D01*
X76578984Y-88277654D01*
X76653005Y-88281966D01*
X76671528Y-88284434D01*
X76686931Y-88287664D01*
X76699467Y-88288319D01*
X76704318Y-88287821D01*
X76709040Y-88287703D01*
X76718424Y-88287818D01*
X76723163Y-88288053D01*
X76727985Y-88288667D01*
X76740533Y-88288319D01*
X76761765Y-88284406D01*
X76777263Y-88282533D01*
X76861016Y-88277654D01*
X76867006Y-88276095D01*
X76867009Y-88276095D01*
X77011587Y-88238477D01*
X77017575Y-88236919D01*
X77023146Y-88234222D01*
X77157603Y-88169124D01*
X77157606Y-88169122D01*
X77163179Y-88166424D01*
X77168118Y-88162691D01*
X77168121Y-88162689D01*
X77227705Y-88117651D01*
X77292232Y-88068877D01*
X77340036Y-88015158D01*
X77395658Y-87952654D01*
X77395660Y-87952651D01*
X77399775Y-87948027D01*
X77481676Y-87808519D01*
X77534785Y-87655713D01*
X77550096Y-87545597D01*
X77551570Y-87537134D01*
X77556664Y-87512841D01*
X77556665Y-87512834D01*
X77557664Y-87508069D01*
X77558319Y-87495533D01*
X77557821Y-87490675D01*
X77557277Y-87485379D01*
X77570221Y-87415572D01*
X77585745Y-87391946D01*
X77633357Y-87334699D01*
X77639863Y-87325233D01*
X77733726Y-87157628D01*
X77738400Y-87147131D01*
X77800144Y-86965240D01*
X77802832Y-86954045D01*
X77830689Y-86761911D01*
X77831319Y-86754528D01*
X77832650Y-86703704D01*
X77832407Y-86696305D01*
X77814643Y-86502975D01*
X77812545Y-86491654D01*
X77760408Y-86306791D01*
X77756283Y-86296044D01*
X77671328Y-86123772D01*
X77665318Y-86113964D01*
X77582931Y-86003636D01*
X77558199Y-85937087D01*
X77558044Y-85922008D01*
X77558052Y-85921841D01*
X77558667Y-85917015D01*
X77558319Y-85904467D01*
X77557439Y-85899691D01*
X77557438Y-85899683D01*
X77553677Y-85879273D01*
X77552792Y-85873793D01*
X77535638Y-85750424D01*
X77534785Y-85744287D01*
X77481676Y-85591481D01*
X77399775Y-85451973D01*
X77401192Y-85451141D01*
X77379965Y-85391786D01*
X77395994Y-85322622D01*
X77446872Y-85273105D01*
X77505754Y-85258500D01*
X85940500Y-85258500D01*
X86008621Y-85278502D01*
X86055114Y-85332158D01*
X86066500Y-85384500D01*
X86066500Y-94895737D01*
X86046498Y-94963858D01*
X85992842Y-95010351D01*
X85922568Y-95020455D01*
X85857988Y-94990961D01*
X85834708Y-94964177D01*
X85807822Y-94922617D01*
X85807820Y-94922614D01*
X85805014Y-94918277D01*
X85654670Y-94753051D01*
X85650619Y-94749852D01*
X85650615Y-94749848D01*
X85483414Y-94617800D01*
X85483410Y-94617798D01*
X85479359Y-94614598D01*
X85283789Y-94506638D01*
X85278920Y-94504914D01*
X85278916Y-94504912D01*
X85078087Y-94433795D01*
X85078083Y-94433794D01*
X85073212Y-94432069D01*
X85068119Y-94431162D01*
X85068116Y-94431161D01*
X84858373Y-94393800D01*
X84858367Y-94393799D01*
X84853284Y-94392894D01*
X84779452Y-94391992D01*
X84635081Y-94390228D01*
X84635079Y-94390228D01*
X84629911Y-94390165D01*
X84409091Y-94423955D01*
X84196756Y-94493357D01*
X83998607Y-94596507D01*
X83994474Y-94599610D01*
X83994471Y-94599612D01*
X83824100Y-94727530D01*
X83819965Y-94730635D01*
X83816393Y-94734373D01*
X83689520Y-94867138D01*
X83665629Y-94892138D01*
X83662715Y-94896410D01*
X83662714Y-94896411D01*
X83596596Y-94993337D01*
X83539743Y-95076680D01*
X83526140Y-95105985D01*
X83452471Y-95264693D01*
X83445688Y-95279305D01*
X83385989Y-95494570D01*
X83362251Y-95716695D01*
X83362548Y-95721848D01*
X83362548Y-95721851D01*
X83373874Y-95918275D01*
X83375110Y-95939715D01*
X83376247Y-95944761D01*
X83376248Y-95944767D01*
X83390485Y-96007939D01*
X83424222Y-96157639D01*
X83477464Y-96288760D01*
X83500791Y-96346206D01*
X83508266Y-96364616D01*
X83537679Y-96412613D01*
X83609002Y-96529002D01*
X83624987Y-96555088D01*
X83771250Y-96723938D01*
X83943126Y-96866632D01*
X83989805Y-96893909D01*
X84016445Y-96909476D01*
X84065169Y-96961114D01*
X84078240Y-97030897D01*
X84051509Y-97096669D01*
X84011055Y-97130027D01*
X83998607Y-97136507D01*
X83994474Y-97139610D01*
X83994471Y-97139612D01*
X83824100Y-97267530D01*
X83819965Y-97270635D01*
X83816393Y-97274373D01*
X83689520Y-97407138D01*
X83665629Y-97432138D01*
X83662715Y-97436410D01*
X83662714Y-97436411D01*
X83584990Y-97550351D01*
X83539743Y-97616680D01*
X83512672Y-97675000D01*
X83457293Y-97794305D01*
X83445688Y-97819305D01*
X83385989Y-98034570D01*
X83362251Y-98256695D01*
X83362548Y-98261848D01*
X83362548Y-98261851D01*
X83374812Y-98474547D01*
X83375110Y-98479715D01*
X83376247Y-98484761D01*
X83376248Y-98484767D01*
X83381647Y-98508722D01*
X83424222Y-98697639D01*
X83508266Y-98904616D01*
X83510965Y-98909020D01*
X83609002Y-99069002D01*
X83624987Y-99095088D01*
X83771250Y-99263938D01*
X83943126Y-99406632D01*
X83989805Y-99433909D01*
X84016445Y-99449476D01*
X84065169Y-99501114D01*
X84078240Y-99570897D01*
X84051509Y-99636669D01*
X84011055Y-99670027D01*
X83998607Y-99676507D01*
X83994474Y-99679610D01*
X83994471Y-99679612D01*
X83824100Y-99807530D01*
X83819965Y-99810635D01*
X83816393Y-99814373D01*
X83689520Y-99947138D01*
X83665629Y-99972138D01*
X83662715Y-99976410D01*
X83662714Y-99976411D01*
X83584990Y-100090351D01*
X83539743Y-100156680D01*
X83492716Y-100257992D01*
X83457293Y-100334305D01*
X83445688Y-100359305D01*
X83385989Y-100574570D01*
X83362251Y-100796695D01*
X83362548Y-100801848D01*
X83362548Y-100801851D01*
X83374812Y-101014547D01*
X83375110Y-101019715D01*
X83376247Y-101024761D01*
X83376248Y-101024767D01*
X83391641Y-101093069D01*
X83424222Y-101237639D01*
X83508266Y-101444616D01*
X83542257Y-101500084D01*
X83611439Y-101612979D01*
X83624987Y-101635088D01*
X83771250Y-101803938D01*
X83943126Y-101946632D01*
X83989805Y-101973909D01*
X84016445Y-101989476D01*
X84065169Y-102041114D01*
X84078240Y-102110897D01*
X84051509Y-102176669D01*
X84011055Y-102210027D01*
X83998607Y-102216507D01*
X83994474Y-102219610D01*
X83994471Y-102219612D01*
X83824100Y-102347530D01*
X83819965Y-102350635D01*
X83816393Y-102354373D01*
X83689520Y-102487138D01*
X83665629Y-102512138D01*
X83662715Y-102516410D01*
X83662714Y-102516411D01*
X83593185Y-102618337D01*
X83539743Y-102696680D01*
X83521256Y-102736507D01*
X83457293Y-102874305D01*
X83445688Y-102899305D01*
X83385989Y-103114570D01*
X83362251Y-103336695D01*
X83362548Y-103341848D01*
X83362548Y-103341851D01*
X83374162Y-103543275D01*
X83375110Y-103559715D01*
X83376247Y-103564761D01*
X83376248Y-103564767D01*
X83399648Y-103668597D01*
X83424222Y-103777639D01*
X83508266Y-103984616D01*
X83533065Y-104025084D01*
X83609328Y-104149534D01*
X83624987Y-104175088D01*
X83771250Y-104343938D01*
X83943126Y-104486632D01*
X83987122Y-104512341D01*
X84016445Y-104529476D01*
X84065169Y-104581114D01*
X84078240Y-104650897D01*
X84051509Y-104716669D01*
X84011055Y-104750027D01*
X83998607Y-104756507D01*
X83994474Y-104759610D01*
X83994471Y-104759612D01*
X83928729Y-104808973D01*
X83819965Y-104890635D01*
X83816396Y-104894370D01*
X83816389Y-104894376D01*
X83778726Y-104933787D01*
X83717201Y-104969217D01*
X83646289Y-104965759D01*
X83598227Y-104935519D01*
X83592486Y-104929737D01*
X83592482Y-104929734D01*
X83587522Y-104924739D01*
X83448580Y-104836563D01*
X83375735Y-104810624D01*
X83300189Y-104783723D01*
X83300187Y-104783722D01*
X83293555Y-104781361D01*
X83286569Y-104780528D01*
X83286565Y-104780527D01*
X83172071Y-104766875D01*
X83130153Y-104761877D01*
X83123150Y-104762613D01*
X83123149Y-104762613D01*
X82973503Y-104778341D01*
X82973499Y-104778342D01*
X82966495Y-104779078D01*
X82944492Y-104786568D01*
X82935292Y-104789700D01*
X82864360Y-104792716D01*
X82827175Y-104776806D01*
X82729536Y-104714842D01*
X82729530Y-104714839D01*
X82723580Y-104711063D01*
X82657135Y-104687403D01*
X82575189Y-104658223D01*
X82575187Y-104658222D01*
X82568555Y-104655861D01*
X82561569Y-104655028D01*
X82561565Y-104655027D01*
X82447071Y-104641375D01*
X82405153Y-104636377D01*
X82398150Y-104637113D01*
X82398149Y-104637113D01*
X82355097Y-104641638D01*
X82241495Y-104653578D01*
X82234827Y-104655848D01*
X82092382Y-104704340D01*
X82092379Y-104704341D01*
X82085715Y-104706610D01*
X81995880Y-104761877D01*
X81960370Y-104783723D01*
X81945555Y-104792837D01*
X81897047Y-104840340D01*
X81846783Y-104889562D01*
X81827982Y-104907973D01*
X81738838Y-105046297D01*
X81736427Y-105052920D01*
X81736426Y-105052923D01*
X81684966Y-105194309D01*
X81684965Y-105194314D01*
X81682556Y-105200932D01*
X81661931Y-105364194D01*
X81665256Y-105398107D01*
X81665436Y-105399939D01*
X81652177Y-105469687D01*
X81603314Y-105521194D01*
X81539159Y-105538232D01*
X81536088Y-105538211D01*
X81529097Y-105537377D01*
X81365439Y-105554578D01*
X81358771Y-105556848D01*
X81216326Y-105605340D01*
X81216323Y-105605341D01*
X81209659Y-105607610D01*
X81069499Y-105693837D01*
X80951926Y-105808973D01*
X80862782Y-105947297D01*
X80860371Y-105953920D01*
X80860370Y-105953923D01*
X80808910Y-106095309D01*
X80808909Y-106095314D01*
X80806500Y-106101932D01*
X80785875Y-106265194D01*
X80801933Y-106428968D01*
X80853876Y-106585115D01*
X80857525Y-106591140D01*
X80917451Y-106690088D01*
X80939123Y-106725873D01*
X80944014Y-106730938D01*
X80944015Y-106730939D01*
X81026139Y-106815981D01*
X81059071Y-106878878D01*
X81052771Y-106949594D01*
X81009239Y-107005679D01*
X80942296Y-107029325D01*
X80920585Y-107028622D01*
X80780153Y-107011877D01*
X80773150Y-107012613D01*
X80773149Y-107012613D01*
X80729935Y-107017155D01*
X80616495Y-107029078D01*
X80602106Y-107033976D01*
X80467382Y-107079840D01*
X80467379Y-107079841D01*
X80460715Y-107082110D01*
X80437952Y-107096114D01*
X80343577Y-107154174D01*
X80320555Y-107168337D01*
X80267994Y-107219809D01*
X80212031Y-107274612D01*
X80202982Y-107283473D01*
X80113838Y-107421797D01*
X80111427Y-107428420D01*
X80111426Y-107428423D01*
X80059966Y-107569809D01*
X80059965Y-107569814D01*
X80057556Y-107576432D01*
X80036931Y-107739694D01*
X80037619Y-107746708D01*
X80037520Y-107753752D01*
X80035378Y-107753722D01*
X80024051Y-107813305D01*
X79975189Y-107864812D01*
X79906236Y-107881726D01*
X79869644Y-107874553D01*
X79825189Y-107858723D01*
X79825187Y-107858722D01*
X79818555Y-107856361D01*
X79811569Y-107855528D01*
X79811565Y-107855527D01*
X79697071Y-107841875D01*
X79655153Y-107836877D01*
X79648150Y-107837613D01*
X79648149Y-107837613D01*
X79604935Y-107842155D01*
X79491495Y-107854078D01*
X79484827Y-107856348D01*
X79342382Y-107904840D01*
X79342379Y-107904841D01*
X79335715Y-107907110D01*
X79282003Y-107940154D01*
X79207966Y-107985702D01*
X79195555Y-107993337D01*
X79150342Y-108037613D01*
X79093502Y-108093275D01*
X79077982Y-108108473D01*
X78988838Y-108246797D01*
X78986427Y-108253420D01*
X78986426Y-108253423D01*
X78934966Y-108394809D01*
X78934965Y-108394814D01*
X78932556Y-108401432D01*
X78911931Y-108564694D01*
X78927989Y-108728468D01*
X78979932Y-108884615D01*
X78983581Y-108890640D01*
X79042644Y-108988163D01*
X79065179Y-109025373D01*
X79070070Y-109030438D01*
X79070071Y-109030439D01*
X79122388Y-109084615D01*
X79179491Y-109143747D01*
X79317189Y-109233854D01*
X79471428Y-109291215D01*
X79478409Y-109292146D01*
X79478411Y-109292147D01*
X79627561Y-109312048D01*
X79627565Y-109312048D01*
X79634542Y-109312979D01*
X79641553Y-109312341D01*
X79641557Y-109312341D01*
X79791403Y-109298704D01*
X79791404Y-109298704D01*
X79798424Y-109298065D01*
X79874498Y-109273347D01*
X79948230Y-109249390D01*
X79948233Y-109249389D01*
X79954929Y-109247213D01*
X80096279Y-109162951D01*
X80215449Y-109049468D01*
X80231458Y-109025373D01*
X80302614Y-108918275D01*
X80302615Y-108918273D01*
X80306515Y-108912403D01*
X80364951Y-108758568D01*
X80385625Y-108611466D01*
X80387302Y-108599534D01*
X80387303Y-108599527D01*
X80387853Y-108595610D01*
X80388141Y-108575000D01*
X80388204Y-108575001D01*
X80404593Y-108507056D01*
X80455912Y-108457997D01*
X80525609Y-108444470D01*
X80557715Y-108451818D01*
X80589823Y-108463759D01*
X80589826Y-108463760D01*
X80596428Y-108466215D01*
X80603409Y-108467146D01*
X80603411Y-108467147D01*
X80752561Y-108487048D01*
X80752565Y-108487048D01*
X80759542Y-108487979D01*
X80766553Y-108487341D01*
X80766557Y-108487341D01*
X80916403Y-108473704D01*
X80916404Y-108473704D01*
X80923424Y-108473065D01*
X80975760Y-108456060D01*
X81073230Y-108424390D01*
X81073233Y-108424389D01*
X81079929Y-108422213D01*
X81221279Y-108337951D01*
X81340449Y-108224468D01*
X81344350Y-108218597D01*
X81427614Y-108093275D01*
X81427615Y-108093273D01*
X81431515Y-108087403D01*
X81489951Y-107933568D01*
X81500802Y-107856361D01*
X81512302Y-107774534D01*
X81512303Y-107774527D01*
X81512853Y-107770610D01*
X81513141Y-107750000D01*
X81494798Y-107586466D01*
X81488998Y-107569809D01*
X81448338Y-107453051D01*
X81440680Y-107431060D01*
X81436799Y-107424848D01*
X81357209Y-107297479D01*
X81353476Y-107291505D01*
X81272339Y-107209800D01*
X81238532Y-107147370D01*
X81243844Y-107076572D01*
X81286588Y-107019885D01*
X81353195Y-106995306D01*
X81378408Y-106996123D01*
X81393786Y-106998175D01*
X81501505Y-107012548D01*
X81501509Y-107012548D01*
X81508486Y-107013479D01*
X81515497Y-107012841D01*
X81515501Y-107012841D01*
X81665347Y-106999204D01*
X81665348Y-106999204D01*
X81672368Y-106998565D01*
X81695399Y-106991082D01*
X81822174Y-106949890D01*
X81822177Y-106949889D01*
X81828873Y-106947713D01*
X81970223Y-106863451D01*
X82089393Y-106749968D01*
X82097533Y-106737717D01*
X82176558Y-106618775D01*
X82176559Y-106618773D01*
X82180459Y-106612903D01*
X82238895Y-106459068D01*
X82258099Y-106322425D01*
X82261246Y-106300034D01*
X82261247Y-106300027D01*
X82261797Y-106296110D01*
X82262085Y-106275500D01*
X82259423Y-106251768D01*
X82271707Y-106181842D01*
X82319846Y-106129658D01*
X82384536Y-106112478D01*
X82384542Y-106112479D01*
X82391553Y-106111841D01*
X82391557Y-106111841D01*
X82541403Y-106098204D01*
X82541404Y-106098204D01*
X82548424Y-106097565D01*
X82563083Y-106092802D01*
X82591312Y-106083630D01*
X82662280Y-106081603D01*
X82699238Y-106098029D01*
X82792189Y-106158854D01*
X82946428Y-106216215D01*
X82953409Y-106217146D01*
X82953411Y-106217147D01*
X83102561Y-106237048D01*
X83102565Y-106237048D01*
X83109542Y-106237979D01*
X83116553Y-106237341D01*
X83116557Y-106237341D01*
X83183771Y-106231224D01*
X83273424Y-106223065D01*
X83277163Y-106221850D01*
X83346687Y-106227646D01*
X83403018Y-106270859D01*
X83419935Y-106308167D01*
X83421540Y-106307664D01*
X83423085Y-106312594D01*
X83424222Y-106317639D01*
X83508266Y-106524616D01*
X83552916Y-106597479D01*
X83609002Y-106689002D01*
X83624987Y-106715088D01*
X83771250Y-106883938D01*
X83943126Y-107026632D01*
X83983116Y-107050000D01*
X84016445Y-107069476D01*
X84065169Y-107121114D01*
X84078240Y-107190897D01*
X84051509Y-107256669D01*
X84011055Y-107290027D01*
X83998607Y-107296507D01*
X83994474Y-107299610D01*
X83994471Y-107299612D01*
X83827358Y-107425084D01*
X83819965Y-107430635D01*
X83816393Y-107434373D01*
X83689520Y-107567138D01*
X83665629Y-107592138D01*
X83662715Y-107596410D01*
X83662714Y-107596411D01*
X83588644Y-107704994D01*
X83539743Y-107776680D01*
X83501660Y-107858723D01*
X83457293Y-107954305D01*
X83445688Y-107979305D01*
X83385989Y-108194570D01*
X83362251Y-108416695D01*
X83362548Y-108421848D01*
X83362548Y-108421851D01*
X83373885Y-108618465D01*
X83375110Y-108639715D01*
X83376247Y-108644761D01*
X83376248Y-108644767D01*
X83381647Y-108668722D01*
X83424222Y-108857639D01*
X83462461Y-108951811D01*
X83489886Y-109019350D01*
X83508266Y-109064616D01*
X83537550Y-109112403D01*
X83609002Y-109229002D01*
X83624987Y-109255088D01*
X83771250Y-109423938D01*
X83860537Y-109498065D01*
X83937399Y-109561877D01*
X83943126Y-109566632D01*
X83980388Y-109588406D01*
X84016445Y-109609476D01*
X84065169Y-109661114D01*
X84078240Y-109730897D01*
X84051509Y-109796669D01*
X84011055Y-109830027D01*
X84005717Y-109832806D01*
X83998607Y-109836507D01*
X83994474Y-109839610D01*
X83994471Y-109839612D01*
X83941302Y-109879533D01*
X83820283Y-109970397D01*
X83753799Y-109995302D01*
X83684404Y-109980310D01*
X83637777Y-109936406D01*
X83582209Y-109847479D01*
X83578476Y-109841505D01*
X83505817Y-109768337D01*
X83467486Y-109729737D01*
X83467482Y-109729734D01*
X83462522Y-109724739D01*
X83323580Y-109636563D01*
X83203794Y-109593909D01*
X83175189Y-109583723D01*
X83175187Y-109583722D01*
X83168555Y-109581361D01*
X83161569Y-109580528D01*
X83161565Y-109580527D01*
X83045031Y-109566632D01*
X83005153Y-109561877D01*
X82998150Y-109562613D01*
X82998149Y-109562613D01*
X82959912Y-109566632D01*
X82841495Y-109579078D01*
X82834827Y-109581348D01*
X82692382Y-109629840D01*
X82692379Y-109629841D01*
X82685715Y-109632110D01*
X82663924Y-109645516D01*
X82556056Y-109711877D01*
X82545555Y-109718337D01*
X82506726Y-109756361D01*
X82448953Y-109812937D01*
X82427982Y-109833473D01*
X82338838Y-109971797D01*
X82336427Y-109978420D01*
X82336426Y-109978423D01*
X82284966Y-110119809D01*
X82284965Y-110119814D01*
X82282556Y-110126432D01*
X82261931Y-110289694D01*
X82277989Y-110453468D01*
X82329932Y-110609615D01*
X82333581Y-110615640D01*
X82390468Y-110709570D01*
X82415179Y-110750373D01*
X82529491Y-110868747D01*
X82667189Y-110958854D01*
X82821428Y-111016215D01*
X82828409Y-111017146D01*
X82828411Y-111017147D01*
X82977561Y-111037048D01*
X82977565Y-111037048D01*
X82984542Y-111037979D01*
X82991553Y-111037341D01*
X82991557Y-111037341D01*
X83141403Y-111023704D01*
X83141404Y-111023704D01*
X83148424Y-111023065D01*
X83206749Y-111004114D01*
X83277716Y-111002086D01*
X83338514Y-111038749D01*
X83369840Y-111102461D01*
X83371476Y-111116693D01*
X83374190Y-111163758D01*
X83375110Y-111179715D01*
X83376247Y-111184761D01*
X83376248Y-111184767D01*
X83385278Y-111224835D01*
X83424222Y-111397639D01*
X83485673Y-111548976D01*
X83505055Y-111596707D01*
X83508266Y-111604616D01*
X83535007Y-111648253D01*
X83619151Y-111785564D01*
X83624987Y-111795088D01*
X83771250Y-111963938D01*
X83943126Y-112106632D01*
X83981810Y-112129237D01*
X84016445Y-112149476D01*
X84065169Y-112201114D01*
X84078240Y-112270897D01*
X84051509Y-112336669D01*
X84011055Y-112370027D01*
X83998607Y-112376507D01*
X83994474Y-112379610D01*
X83994471Y-112379612D01*
X83824834Y-112506979D01*
X83819965Y-112510635D01*
X83816393Y-112514373D01*
X83685429Y-112651419D01*
X83665629Y-112672138D01*
X83662715Y-112676410D01*
X83662714Y-112676411D01*
X83598214Y-112770965D01*
X83539743Y-112856680D01*
X83512143Y-112916139D01*
X83455709Y-113037717D01*
X83445688Y-113059305D01*
X83385989Y-113274570D01*
X83362251Y-113496695D01*
X83362548Y-113501848D01*
X83362548Y-113501851D01*
X83374706Y-113712711D01*
X83375110Y-113719715D01*
X83376247Y-113724761D01*
X83376248Y-113724767D01*
X83390175Y-113786563D01*
X83424222Y-113937639D01*
X83458229Y-114021389D01*
X83496594Y-114115870D01*
X83508266Y-114144616D01*
X83530177Y-114180371D01*
X83609002Y-114309002D01*
X83624987Y-114335088D01*
X83771250Y-114503938D01*
X83943126Y-114646632D01*
X83989805Y-114673909D01*
X84016445Y-114689476D01*
X84065169Y-114741114D01*
X84078240Y-114810897D01*
X84051509Y-114876669D01*
X84011055Y-114910027D01*
X83998607Y-114916507D01*
X83994474Y-114919610D01*
X83994471Y-114919612D01*
X83824100Y-115047530D01*
X83819965Y-115050635D01*
X83816393Y-115054373D01*
X83689520Y-115187138D01*
X83665629Y-115212138D01*
X83662715Y-115216410D01*
X83662714Y-115216411D01*
X83597872Y-115311466D01*
X83539743Y-115396680D01*
X83524486Y-115429549D01*
X83457293Y-115574305D01*
X83445688Y-115599305D01*
X83385989Y-115814570D01*
X83362251Y-116036695D01*
X83362548Y-116041848D01*
X83362548Y-116041851D01*
X83374812Y-116254547D01*
X83375110Y-116259715D01*
X83376247Y-116264761D01*
X83376248Y-116264767D01*
X83381647Y-116288722D01*
X83424222Y-116477639D01*
X83508266Y-116684616D01*
X83510965Y-116689020D01*
X83609002Y-116849002D01*
X83624987Y-116875088D01*
X83771250Y-117043938D01*
X83775230Y-117047242D01*
X83779981Y-117051187D01*
X83819616Y-117110090D01*
X83821113Y-117181071D01*
X83783997Y-117241593D01*
X83743724Y-117266112D01*
X83628295Y-117309385D01*
X83511739Y-117396739D01*
X83424385Y-117513295D01*
X83373255Y-117649684D01*
X83366500Y-117711866D01*
X83366500Y-119508134D01*
X83373255Y-119570316D01*
X83424385Y-119706705D01*
X83511739Y-119823261D01*
X83628295Y-119910615D01*
X83764684Y-119961745D01*
X83826866Y-119968500D01*
X85623134Y-119968500D01*
X85685316Y-119961745D01*
X85821705Y-119910615D01*
X85855063Y-119885615D01*
X85864935Y-119878216D01*
X85931442Y-119853368D01*
X86000824Y-119868421D01*
X86051054Y-119918595D01*
X86066500Y-119979042D01*
X86066500Y-127890500D01*
X86046498Y-127958621D01*
X85992842Y-128005114D01*
X85940500Y-128016500D01*
X75868810Y-128016500D01*
X75800689Y-127996498D01*
X75754196Y-127942842D01*
X75744092Y-127872568D01*
X75773586Y-127807988D01*
X75813378Y-127777349D01*
X75893346Y-127738173D01*
X75897994Y-127735896D01*
X76079860Y-127606173D01*
X76088852Y-127597213D01*
X76188808Y-127497605D01*
X76238096Y-127448489D01*
X76269830Y-127404327D01*
X76365435Y-127271277D01*
X76368453Y-127267077D01*
X76381995Y-127239678D01*
X76465136Y-127071453D01*
X76465137Y-127071451D01*
X76467430Y-127066811D01*
X76532370Y-126853069D01*
X76561529Y-126631590D01*
X76563156Y-126565000D01*
X76544852Y-126342361D01*
X76490431Y-126125702D01*
X76401354Y-125920840D01*
X76280014Y-125733277D01*
X76260405Y-125711727D01*
X76132798Y-125571488D01*
X76101746Y-125507642D01*
X76110141Y-125437143D01*
X76155317Y-125382375D01*
X76181761Y-125368706D01*
X76288297Y-125328767D01*
X76296705Y-125325615D01*
X76413261Y-125238261D01*
X76500615Y-125121705D01*
X76551745Y-124985316D01*
X76558500Y-124923134D01*
X76558500Y-123126866D01*
X76551745Y-123064684D01*
X76500615Y-122928295D01*
X76413261Y-122811739D01*
X76296705Y-122724385D01*
X76160316Y-122673255D01*
X76098134Y-122666500D01*
X74301866Y-122666500D01*
X74239684Y-122673255D01*
X74103295Y-122724385D01*
X73986739Y-122811739D01*
X73899385Y-122928295D01*
X73896233Y-122936703D01*
X73854919Y-123046907D01*
X73812277Y-123103671D01*
X73745716Y-123128371D01*
X73676367Y-123113163D01*
X73643743Y-123087476D01*
X73593151Y-123031875D01*
X73593142Y-123031866D01*
X73589670Y-123028051D01*
X73585619Y-123024852D01*
X73585615Y-123024848D01*
X73418414Y-122892800D01*
X73418410Y-122892798D01*
X73414359Y-122889598D01*
X73218789Y-122781638D01*
X73213920Y-122779914D01*
X73213916Y-122779912D01*
X73013087Y-122708795D01*
X73013083Y-122708794D01*
X73008212Y-122707069D01*
X73003119Y-122706162D01*
X73003116Y-122706161D01*
X72793373Y-122668800D01*
X72793367Y-122668799D01*
X72788284Y-122667894D01*
X72714452Y-122666992D01*
X72570081Y-122665228D01*
X72570079Y-122665228D01*
X72564911Y-122665165D01*
X72344091Y-122698955D01*
X72131756Y-122768357D01*
X71933607Y-122871507D01*
X71929474Y-122874610D01*
X71929471Y-122874612D01*
X71759100Y-123002530D01*
X71754965Y-123005635D01*
X71728723Y-123033096D01*
X71653980Y-123111310D01*
X71600629Y-123167138D01*
X71493201Y-123324621D01*
X71438293Y-123369621D01*
X71367768Y-123377792D01*
X71304021Y-123346538D01*
X71283324Y-123322054D01*
X71202822Y-123197617D01*
X71202820Y-123197614D01*
X71200014Y-123193277D01*
X71049670Y-123028051D01*
X71045619Y-123024852D01*
X71045615Y-123024848D01*
X70878414Y-122892800D01*
X70878410Y-122892798D01*
X70874359Y-122889598D01*
X70678789Y-122781638D01*
X70673920Y-122779914D01*
X70673916Y-122779912D01*
X70473087Y-122708795D01*
X70473083Y-122708794D01*
X70468212Y-122707069D01*
X70463119Y-122706162D01*
X70463116Y-122706161D01*
X70253373Y-122668800D01*
X70253367Y-122668799D01*
X70248284Y-122667894D01*
X70174452Y-122666992D01*
X70030081Y-122665228D01*
X70030079Y-122665228D01*
X70024911Y-122665165D01*
X69804091Y-122698955D01*
X69591756Y-122768357D01*
X69393607Y-122871507D01*
X69389474Y-122874610D01*
X69389471Y-122874612D01*
X69219100Y-123002530D01*
X69214965Y-123005635D01*
X69188723Y-123033096D01*
X69113980Y-123111310D01*
X69060629Y-123167138D01*
X68934743Y-123351680D01*
X68840688Y-123554305D01*
X68780989Y-123769570D01*
X68757251Y-123991695D01*
X68770110Y-124214715D01*
X68771247Y-124219761D01*
X68771248Y-124219767D01*
X68795304Y-124326508D01*
X68819222Y-124432639D01*
X68903266Y-124639616D01*
X68940685Y-124700678D01*
X69017291Y-124825688D01*
X69019987Y-124830088D01*
X69166250Y-124998938D01*
X69338126Y-125141632D01*
X69411445Y-125184476D01*
X69411955Y-125184774D01*
X69460679Y-125236412D01*
X69473750Y-125306195D01*
X69447019Y-125371967D01*
X69406562Y-125405327D01*
X69398457Y-125409546D01*
X69389738Y-125415036D01*
X69219433Y-125542905D01*
X69211726Y-125549748D01*
X69064590Y-125703717D01*
X69058104Y-125711727D01*
X68938098Y-125887649D01*
X68933000Y-125896623D01*
X68843338Y-126089783D01*
X68839775Y-126099470D01*
X68784389Y-126299183D01*
X68785912Y-126307607D01*
X68798292Y-126311000D01*
X70248000Y-126311000D01*
X70316121Y-126331002D01*
X70362614Y-126384658D01*
X70374000Y-126437000D01*
X70374000Y-126693000D01*
X70353998Y-126761121D01*
X70300342Y-126807614D01*
X70248000Y-126819000D01*
X68803225Y-126819000D01*
X68789694Y-126822973D01*
X68788257Y-126832966D01*
X68818565Y-126967446D01*
X68821645Y-126977275D01*
X68901770Y-127174603D01*
X68906413Y-127183794D01*
X69017694Y-127365388D01*
X69023777Y-127373699D01*
X69163213Y-127534667D01*
X69170580Y-127541883D01*
X69334434Y-127677916D01*
X69342881Y-127683831D01*
X69510384Y-127781712D01*
X69559108Y-127833351D01*
X69572179Y-127903134D01*
X69545448Y-127968905D01*
X69487401Y-128009784D01*
X69446814Y-128016500D01*
X59184862Y-128016500D01*
X59116741Y-127996498D01*
X59070248Y-127942842D01*
X59058862Y-127890428D01*
X59059419Y-126914694D01*
X61011931Y-126914694D01*
X61027989Y-127078468D01*
X61079932Y-127234615D01*
X61165179Y-127375373D01*
X61279491Y-127493747D01*
X61417189Y-127583854D01*
X61571428Y-127641215D01*
X61578409Y-127642146D01*
X61578411Y-127642147D01*
X61727561Y-127662048D01*
X61727565Y-127662048D01*
X61734542Y-127662979D01*
X61741553Y-127662341D01*
X61741557Y-127662341D01*
X61891403Y-127648704D01*
X61891404Y-127648704D01*
X61898424Y-127648065D01*
X61927062Y-127638760D01*
X62048230Y-127599390D01*
X62048233Y-127599389D01*
X62054929Y-127597213D01*
X62196279Y-127512951D01*
X62315449Y-127399468D01*
X62334969Y-127370088D01*
X62402614Y-127268275D01*
X62402615Y-127268273D01*
X62406515Y-127262403D01*
X62464951Y-127108568D01*
X62483403Y-126977275D01*
X62487302Y-126949534D01*
X62487303Y-126949527D01*
X62487853Y-126945610D01*
X62488141Y-126925000D01*
X62486985Y-126914694D01*
X64186931Y-126914694D01*
X64202989Y-127078468D01*
X64254932Y-127234615D01*
X64340179Y-127375373D01*
X64454491Y-127493747D01*
X64592189Y-127583854D01*
X64746428Y-127641215D01*
X64753409Y-127642146D01*
X64753411Y-127642147D01*
X64902561Y-127662048D01*
X64902565Y-127662048D01*
X64909542Y-127662979D01*
X64916553Y-127662341D01*
X64916557Y-127662341D01*
X65066403Y-127648704D01*
X65066404Y-127648704D01*
X65073424Y-127648065D01*
X65102062Y-127638760D01*
X65223230Y-127599390D01*
X65223233Y-127599389D01*
X65229929Y-127597213D01*
X65371279Y-127512951D01*
X65490449Y-127399468D01*
X65509969Y-127370088D01*
X65577614Y-127268275D01*
X65577615Y-127268273D01*
X65581515Y-127262403D01*
X65639951Y-127108568D01*
X65658403Y-126977275D01*
X65662302Y-126949534D01*
X65662303Y-126949527D01*
X65662853Y-126945610D01*
X65663141Y-126925000D01*
X65644798Y-126761466D01*
X65638998Y-126744809D01*
X65592998Y-126612717D01*
X65590680Y-126606060D01*
X65567126Y-126568365D01*
X65507209Y-126472479D01*
X65503476Y-126466505D01*
X65445499Y-126408122D01*
X65392486Y-126354737D01*
X65392482Y-126354734D01*
X65387522Y-126349739D01*
X65248580Y-126261563D01*
X65199447Y-126244068D01*
X65100189Y-126208723D01*
X65100187Y-126208722D01*
X65093555Y-126206361D01*
X65086569Y-126205528D01*
X65086565Y-126205527D01*
X64972071Y-126191875D01*
X64930153Y-126186877D01*
X64923150Y-126187613D01*
X64923149Y-126187613D01*
X64879935Y-126192155D01*
X64766495Y-126204078D01*
X64759827Y-126206348D01*
X64617382Y-126254840D01*
X64617379Y-126254841D01*
X64610715Y-126257110D01*
X64523118Y-126311000D01*
X64480300Y-126337342D01*
X64470555Y-126343337D01*
X64408066Y-126404531D01*
X64374910Y-126437000D01*
X64352982Y-126458473D01*
X64263838Y-126596797D01*
X64261427Y-126603420D01*
X64261426Y-126603423D01*
X64209966Y-126744809D01*
X64209965Y-126744814D01*
X64207556Y-126751432D01*
X64186931Y-126914694D01*
X62486985Y-126914694D01*
X62469798Y-126761466D01*
X62463998Y-126744809D01*
X62417998Y-126612717D01*
X62415680Y-126606060D01*
X62392126Y-126568365D01*
X62332209Y-126472479D01*
X62328476Y-126466505D01*
X62270499Y-126408122D01*
X62217486Y-126354737D01*
X62217482Y-126354734D01*
X62212522Y-126349739D01*
X62073580Y-126261563D01*
X62024447Y-126244068D01*
X61925189Y-126208723D01*
X61925187Y-126208722D01*
X61918555Y-126206361D01*
X61911569Y-126205528D01*
X61911565Y-126205527D01*
X61797071Y-126191875D01*
X61755153Y-126186877D01*
X61748150Y-126187613D01*
X61748149Y-126187613D01*
X61704935Y-126192155D01*
X61591495Y-126204078D01*
X61584827Y-126206348D01*
X61442382Y-126254840D01*
X61442379Y-126254841D01*
X61435715Y-126257110D01*
X61348118Y-126311000D01*
X61305300Y-126337342D01*
X61295555Y-126343337D01*
X61233066Y-126404531D01*
X61199910Y-126437000D01*
X61177982Y-126458473D01*
X61088838Y-126596797D01*
X61086427Y-126603420D01*
X61086426Y-126603423D01*
X61034966Y-126744809D01*
X61034965Y-126744814D01*
X61032556Y-126751432D01*
X61011931Y-126914694D01*
X59059419Y-126914694D01*
X59061975Y-122439694D01*
X82761931Y-122439694D01*
X82777989Y-122603468D01*
X82829932Y-122759615D01*
X82833581Y-122765640D01*
X82910593Y-122892800D01*
X82915179Y-122900373D01*
X83029491Y-123018747D01*
X83167189Y-123108854D01*
X83321428Y-123166215D01*
X83328409Y-123167146D01*
X83328411Y-123167147D01*
X83477561Y-123187048D01*
X83477565Y-123187048D01*
X83484542Y-123187979D01*
X83491553Y-123187341D01*
X83491557Y-123187341D01*
X83641403Y-123173704D01*
X83641404Y-123173704D01*
X83648424Y-123173065D01*
X83677062Y-123163760D01*
X83798230Y-123124390D01*
X83798233Y-123124389D01*
X83804929Y-123122213D01*
X83946279Y-123037951D01*
X84065449Y-122924468D01*
X84081458Y-122900373D01*
X84152614Y-122793275D01*
X84152615Y-122793273D01*
X84156515Y-122787403D01*
X84214951Y-122633568D01*
X84237853Y-122470610D01*
X84238141Y-122450000D01*
X84219798Y-122286466D01*
X84213998Y-122269809D01*
X84167998Y-122137717D01*
X84165680Y-122131060D01*
X84078476Y-121991505D01*
X84020499Y-121933122D01*
X83967486Y-121879737D01*
X83967482Y-121879734D01*
X83962522Y-121874739D01*
X83823580Y-121786563D01*
X83774447Y-121769068D01*
X83675189Y-121733723D01*
X83675187Y-121733722D01*
X83668555Y-121731361D01*
X83661569Y-121730528D01*
X83661565Y-121730527D01*
X83547071Y-121716875D01*
X83505153Y-121711877D01*
X83498150Y-121712613D01*
X83498149Y-121712613D01*
X83454935Y-121717155D01*
X83341495Y-121729078D01*
X83334827Y-121731348D01*
X83192382Y-121779840D01*
X83192379Y-121779841D01*
X83185715Y-121782110D01*
X83045555Y-121868337D01*
X82927982Y-121983473D01*
X82838838Y-122121797D01*
X82836427Y-122128420D01*
X82836426Y-122128423D01*
X82784966Y-122269809D01*
X82784965Y-122269814D01*
X82782556Y-122276432D01*
X82761931Y-122439694D01*
X59061975Y-122439694D01*
X59063132Y-120414694D01*
X80911931Y-120414694D01*
X80927989Y-120578468D01*
X80979932Y-120734615D01*
X81065179Y-120875373D01*
X81179491Y-120993747D01*
X81317189Y-121083854D01*
X81471428Y-121141215D01*
X81478409Y-121142146D01*
X81478411Y-121142147D01*
X81627561Y-121162048D01*
X81627565Y-121162048D01*
X81634542Y-121162979D01*
X81641553Y-121162341D01*
X81641557Y-121162341D01*
X81791403Y-121148704D01*
X81791404Y-121148704D01*
X81798424Y-121148065D01*
X81827062Y-121138760D01*
X81948230Y-121099390D01*
X81948233Y-121099389D01*
X81954929Y-121097213D01*
X82096279Y-121012951D01*
X82215449Y-120899468D01*
X82231458Y-120875373D01*
X82302614Y-120768275D01*
X82302615Y-120768273D01*
X82306515Y-120762403D01*
X82364951Y-120608568D01*
X82387853Y-120445610D01*
X82388141Y-120425000D01*
X82369798Y-120261466D01*
X82363998Y-120244809D01*
X82317998Y-120112717D01*
X82315680Y-120106060D01*
X82290995Y-120066555D01*
X82232209Y-119972479D01*
X82228476Y-119966505D01*
X82140801Y-119878216D01*
X82117486Y-119854737D01*
X82117482Y-119854734D01*
X82112522Y-119849739D01*
X81973580Y-119761563D01*
X81923370Y-119743684D01*
X81825189Y-119708723D01*
X81825187Y-119708722D01*
X81818555Y-119706361D01*
X81811569Y-119705528D01*
X81811565Y-119705527D01*
X81697071Y-119691875D01*
X81655153Y-119686877D01*
X81648150Y-119687613D01*
X81648149Y-119687613D01*
X81604935Y-119692155D01*
X81491495Y-119704078D01*
X81484827Y-119706348D01*
X81342382Y-119754840D01*
X81342379Y-119754841D01*
X81335715Y-119757110D01*
X81195555Y-119843337D01*
X81133066Y-119904531D01*
X81087178Y-119949468D01*
X81077982Y-119958473D01*
X80988838Y-120096797D01*
X80986427Y-120103420D01*
X80986426Y-120103423D01*
X80934966Y-120244809D01*
X80934965Y-120244814D01*
X80932556Y-120251432D01*
X80911931Y-120414694D01*
X59063132Y-120414694D01*
X59063476Y-119811793D01*
X59083517Y-119743684D01*
X59137199Y-119697221D01*
X59207479Y-119687158D01*
X59272043Y-119716688D01*
X59290301Y-119736299D01*
X59336739Y-119798261D01*
X59453295Y-119885615D01*
X59589684Y-119936745D01*
X59651866Y-119943500D01*
X61448134Y-119943500D01*
X61510316Y-119936745D01*
X61646705Y-119885615D01*
X61763261Y-119798261D01*
X61850615Y-119681705D01*
X61901745Y-119545316D01*
X61908500Y-119483134D01*
X61908500Y-119464694D01*
X72011931Y-119464694D01*
X72027989Y-119628468D01*
X72079932Y-119784615D01*
X72083581Y-119790640D01*
X72137839Y-119880229D01*
X72165179Y-119925373D01*
X72170070Y-119930438D01*
X72170071Y-119930439D01*
X72217006Y-119979042D01*
X72279491Y-120043747D01*
X72417189Y-120133854D01*
X72571428Y-120191215D01*
X72578409Y-120192146D01*
X72578411Y-120192147D01*
X72727561Y-120212048D01*
X72727565Y-120212048D01*
X72734542Y-120212979D01*
X72741553Y-120212341D01*
X72741557Y-120212341D01*
X72891403Y-120198704D01*
X72891404Y-120198704D01*
X72898424Y-120198065D01*
X72927062Y-120188760D01*
X73048230Y-120149390D01*
X73048233Y-120149389D01*
X73054929Y-120147213D01*
X73196279Y-120062951D01*
X73315449Y-119949468D01*
X73319414Y-119943500D01*
X73402614Y-119818275D01*
X73402615Y-119818273D01*
X73406515Y-119812403D01*
X73464951Y-119658568D01*
X73479828Y-119552715D01*
X73487302Y-119499534D01*
X73487303Y-119499527D01*
X73487853Y-119495610D01*
X73488141Y-119475000D01*
X73469798Y-119311466D01*
X73463998Y-119294809D01*
X73417998Y-119162717D01*
X73415680Y-119156060D01*
X73407899Y-119143607D01*
X73332209Y-119022479D01*
X73328476Y-119016505D01*
X73231997Y-118919350D01*
X73217486Y-118904737D01*
X73217482Y-118904734D01*
X73212522Y-118899739D01*
X73073580Y-118811563D01*
X73024447Y-118794068D01*
X72925189Y-118758723D01*
X72925187Y-118758722D01*
X72918555Y-118756361D01*
X72911569Y-118755528D01*
X72911565Y-118755527D01*
X72797071Y-118741875D01*
X72755153Y-118736877D01*
X72748150Y-118737613D01*
X72748149Y-118737613D01*
X72704935Y-118742155D01*
X72591495Y-118754078D01*
X72584827Y-118756348D01*
X72442382Y-118804840D01*
X72442379Y-118804841D01*
X72435715Y-118807110D01*
X72295555Y-118893337D01*
X72177982Y-119008473D01*
X72088838Y-119146797D01*
X72086427Y-119153420D01*
X72086426Y-119153423D01*
X72034966Y-119294809D01*
X72034965Y-119294814D01*
X72032556Y-119301432D01*
X72011931Y-119464694D01*
X61908500Y-119464694D01*
X61908500Y-118464694D01*
X75286931Y-118464694D01*
X75302989Y-118628468D01*
X75354932Y-118784615D01*
X75358581Y-118790640D01*
X75422369Y-118895965D01*
X75440179Y-118925373D01*
X75554491Y-119043747D01*
X75692189Y-119133854D01*
X75846428Y-119191215D01*
X75853409Y-119192146D01*
X75853411Y-119192147D01*
X76002561Y-119212048D01*
X76002565Y-119212048D01*
X76009542Y-119212979D01*
X76016553Y-119212341D01*
X76016557Y-119212341D01*
X76166403Y-119198704D01*
X76166404Y-119198704D01*
X76173424Y-119198065D01*
X76202062Y-119188760D01*
X76323230Y-119149390D01*
X76323233Y-119149389D01*
X76329929Y-119147213D01*
X76471279Y-119062951D01*
X76590449Y-118949468D01*
X76606458Y-118925373D01*
X76677614Y-118818275D01*
X76677615Y-118818273D01*
X76681515Y-118812403D01*
X76739951Y-118658568D01*
X76762853Y-118495610D01*
X76763141Y-118475000D01*
X76744798Y-118311466D01*
X76738998Y-118294809D01*
X76692998Y-118162717D01*
X76690680Y-118156060D01*
X76603476Y-118016505D01*
X76545499Y-117958122D01*
X76492486Y-117904737D01*
X76492482Y-117904734D01*
X76487522Y-117899739D01*
X76348580Y-117811563D01*
X76299447Y-117794068D01*
X76200189Y-117758723D01*
X76200187Y-117758722D01*
X76193555Y-117756361D01*
X76186569Y-117755528D01*
X76186565Y-117755527D01*
X76072071Y-117741875D01*
X76030153Y-117736877D01*
X76023150Y-117737613D01*
X76023149Y-117737613D01*
X75979935Y-117742155D01*
X75866495Y-117754078D01*
X75859827Y-117756348D01*
X75717382Y-117804840D01*
X75717379Y-117804841D01*
X75710715Y-117807110D01*
X75570555Y-117893337D01*
X75452982Y-118008473D01*
X75363838Y-118146797D01*
X75361427Y-118153420D01*
X75361426Y-118153423D01*
X75309966Y-118294809D01*
X75309965Y-118294814D01*
X75307556Y-118301432D01*
X75286931Y-118464694D01*
X61908500Y-118464694D01*
X61908500Y-117686866D01*
X61901745Y-117624684D01*
X61850615Y-117488295D01*
X61763261Y-117371739D01*
X61646705Y-117284385D01*
X61594889Y-117264960D01*
X61528203Y-117239960D01*
X61471439Y-117197318D01*
X61446739Y-117130756D01*
X61461947Y-117061408D01*
X61483493Y-117032727D01*
X61584435Y-116932137D01*
X61588096Y-116928489D01*
X61592380Y-116922528D01*
X61715435Y-116751277D01*
X61718453Y-116747077D01*
X61747147Y-116689020D01*
X61815136Y-116551453D01*
X61815137Y-116551451D01*
X61817430Y-116546811D01*
X61849900Y-116439940D01*
X61880865Y-116338023D01*
X61880865Y-116338021D01*
X61882370Y-116333069D01*
X61911529Y-116111590D01*
X61911611Y-116108240D01*
X61913074Y-116048365D01*
X61913074Y-116048361D01*
X61913156Y-116045000D01*
X61894852Y-115822361D01*
X61840431Y-115605702D01*
X61779119Y-115464694D01*
X66436931Y-115464694D01*
X66452989Y-115628468D01*
X66504932Y-115784615D01*
X66590179Y-115925373D01*
X66704491Y-116043747D01*
X66842189Y-116133854D01*
X66996428Y-116191215D01*
X67003409Y-116192146D01*
X67003411Y-116192147D01*
X67152561Y-116212048D01*
X67152565Y-116212048D01*
X67159542Y-116212979D01*
X67166553Y-116212341D01*
X67166557Y-116212341D01*
X67316403Y-116198704D01*
X67316404Y-116198704D01*
X67323424Y-116198065D01*
X67352062Y-116188760D01*
X67473230Y-116149390D01*
X67473233Y-116149389D01*
X67479929Y-116147213D01*
X67621279Y-116062951D01*
X67740449Y-115949468D01*
X67756458Y-115925373D01*
X67827614Y-115818275D01*
X67827615Y-115818273D01*
X67831515Y-115812403D01*
X67889951Y-115658568D01*
X67890931Y-115651597D01*
X67890932Y-115651592D01*
X67911160Y-115507656D01*
X67940448Y-115442981D01*
X68000052Y-115404408D01*
X68071048Y-115404183D01*
X68130896Y-115442377D01*
X68143709Y-115459919D01*
X68186526Y-115530617D01*
X68186531Y-115530623D01*
X68190179Y-115536647D01*
X68304491Y-115655021D01*
X68442189Y-115745128D01*
X68596428Y-115802489D01*
X68603409Y-115803420D01*
X68603411Y-115803421D01*
X68752561Y-115823322D01*
X68752565Y-115823322D01*
X68759542Y-115824253D01*
X68766553Y-115823615D01*
X68766557Y-115823615D01*
X68916403Y-115809978D01*
X68916404Y-115809978D01*
X68923424Y-115809339D01*
X68980973Y-115790640D01*
X69073230Y-115760664D01*
X69073233Y-115760663D01*
X69079929Y-115758487D01*
X69221279Y-115674225D01*
X69340449Y-115560742D01*
X69360464Y-115530617D01*
X69427614Y-115429549D01*
X69427615Y-115429547D01*
X69431515Y-115423677D01*
X69489951Y-115269842D01*
X69490931Y-115262868D01*
X69491353Y-115261225D01*
X69527669Y-115200219D01*
X69574458Y-115172729D01*
X69723230Y-115124390D01*
X69723233Y-115124389D01*
X69729929Y-115122213D01*
X69871279Y-115037951D01*
X69990449Y-114924468D01*
X69994350Y-114918597D01*
X70077614Y-114793275D01*
X70077615Y-114793273D01*
X70081515Y-114787403D01*
X70084018Y-114780814D01*
X70087236Y-114774552D01*
X70088981Y-114775449D01*
X70126010Y-114726606D01*
X70192680Y-114702201D01*
X70244824Y-114709834D01*
X70396428Y-114766215D01*
X70403409Y-114767146D01*
X70403411Y-114767147D01*
X70552561Y-114787048D01*
X70552565Y-114787048D01*
X70559542Y-114787979D01*
X70566553Y-114787341D01*
X70566557Y-114787341D01*
X70716403Y-114773704D01*
X70716404Y-114773704D01*
X70723424Y-114773065D01*
X70767564Y-114758723D01*
X70873230Y-114724390D01*
X70873233Y-114724389D01*
X70879929Y-114722213D01*
X71021279Y-114637951D01*
X71140449Y-114524468D01*
X71150367Y-114509540D01*
X71227614Y-114393275D01*
X71227615Y-114393273D01*
X71231515Y-114387403D01*
X71289951Y-114233568D01*
X71298507Y-114172689D01*
X71312302Y-114074534D01*
X71312303Y-114074527D01*
X71312853Y-114070610D01*
X71312995Y-114060430D01*
X71313086Y-114053962D01*
X71313086Y-114053956D01*
X71313141Y-114050000D01*
X71294798Y-113886466D01*
X71240680Y-113731060D01*
X71231105Y-113715736D01*
X71157209Y-113597479D01*
X71153476Y-113591505D01*
X71072690Y-113510153D01*
X71042486Y-113479737D01*
X71042482Y-113479734D01*
X71037522Y-113474739D01*
X70898580Y-113386563D01*
X70807026Y-113353962D01*
X70750189Y-113333723D01*
X70750187Y-113333722D01*
X70743555Y-113331361D01*
X70736569Y-113330528D01*
X70736565Y-113330527D01*
X70622071Y-113316875D01*
X70580153Y-113311877D01*
X70573150Y-113312613D01*
X70573149Y-113312613D01*
X70529935Y-113317155D01*
X70416495Y-113329078D01*
X70402850Y-113333723D01*
X70267382Y-113379840D01*
X70267379Y-113379841D01*
X70260715Y-113382110D01*
X70120555Y-113468337D01*
X70077854Y-113510153D01*
X70015117Y-113571590D01*
X70002982Y-113583473D01*
X69999165Y-113589396D01*
X69919694Y-113712711D01*
X69913838Y-113721797D01*
X69911599Y-113727947D01*
X69863528Y-113779926D01*
X69794796Y-113797713D01*
X69748682Y-113786277D01*
X69748580Y-113786563D01*
X69671067Y-113758962D01*
X69600189Y-113733723D01*
X69600187Y-113733722D01*
X69593555Y-113731361D01*
X69586569Y-113730528D01*
X69586565Y-113730527D01*
X69462516Y-113715736D01*
X69430153Y-113711877D01*
X69423150Y-113712613D01*
X69423149Y-113712613D01*
X69392095Y-113715877D01*
X69266495Y-113729078D01*
X69259827Y-113731348D01*
X69117382Y-113779840D01*
X69117379Y-113779841D01*
X69110715Y-113782110D01*
X68970555Y-113868337D01*
X68936253Y-113901928D01*
X68861887Y-113974753D01*
X68852982Y-113983473D01*
X68763838Y-114121797D01*
X68761427Y-114128420D01*
X68761426Y-114128423D01*
X68709966Y-114269809D01*
X68709965Y-114269814D01*
X68707556Y-114276432D01*
X68707368Y-114276364D01*
X68673654Y-114334844D01*
X68616475Y-114365293D01*
X68616495Y-114365352D01*
X68609827Y-114367622D01*
X68467382Y-114416114D01*
X68467379Y-114416115D01*
X68460715Y-114418384D01*
X68368637Y-114475031D01*
X68328000Y-114500031D01*
X68320555Y-114504611D01*
X68202982Y-114619747D01*
X68113838Y-114758071D01*
X68111427Y-114764694D01*
X68111426Y-114764697D01*
X68059966Y-114906083D01*
X68059965Y-114906088D01*
X68057556Y-114912706D01*
X68044443Y-115016505D01*
X68039860Y-115052783D01*
X68011478Y-115117860D01*
X67952419Y-115157261D01*
X67881432Y-115158478D01*
X67821057Y-115121123D01*
X67808000Y-115103761D01*
X67757209Y-115022479D01*
X67753476Y-115016505D01*
X67695499Y-114958122D01*
X67642486Y-114904737D01*
X67642482Y-114904734D01*
X67637522Y-114899739D01*
X67498580Y-114811563D01*
X67400946Y-114776797D01*
X67350189Y-114758723D01*
X67350187Y-114758722D01*
X67343555Y-114756361D01*
X67336569Y-114755528D01*
X67336565Y-114755527D01*
X67215686Y-114741114D01*
X67180153Y-114736877D01*
X67173150Y-114737613D01*
X67173149Y-114737613D01*
X67139840Y-114741114D01*
X67016495Y-114754078D01*
X67009827Y-114756348D01*
X66867382Y-114804840D01*
X66867379Y-114804841D01*
X66860715Y-114807110D01*
X66772526Y-114861364D01*
X66731186Y-114886797D01*
X66720555Y-114893337D01*
X66602982Y-115008473D01*
X66513838Y-115146797D01*
X66511427Y-115153420D01*
X66511426Y-115153423D01*
X66459966Y-115294809D01*
X66459965Y-115294814D01*
X66457556Y-115301432D01*
X66436931Y-115464694D01*
X61779119Y-115464694D01*
X61751354Y-115400840D01*
X61687044Y-115301432D01*
X61632822Y-115217617D01*
X61632820Y-115217614D01*
X61630014Y-115213277D01*
X61479670Y-115048051D01*
X61475619Y-115044852D01*
X61475615Y-115044848D01*
X61308414Y-114912800D01*
X61308410Y-114912798D01*
X61304359Y-114909598D01*
X61263053Y-114886796D01*
X61213084Y-114836364D01*
X61198312Y-114766921D01*
X61223428Y-114700516D01*
X61250780Y-114673909D01*
X61307998Y-114633096D01*
X61429860Y-114546173D01*
X61471568Y-114504611D01*
X61511209Y-114465107D01*
X61588096Y-114388489D01*
X61592380Y-114382528D01*
X61715435Y-114211277D01*
X61718453Y-114207077D01*
X61728751Y-114186242D01*
X61815136Y-114011453D01*
X61815137Y-114011451D01*
X61817430Y-114006811D01*
X61860442Y-113865242D01*
X61880865Y-113798023D01*
X61880865Y-113798021D01*
X61882370Y-113793069D01*
X61894430Y-113701468D01*
X62861931Y-113701468D01*
X62877989Y-113865242D01*
X62929932Y-114021389D01*
X62933581Y-114027414D01*
X63004562Y-114144616D01*
X63015179Y-114162147D01*
X63129491Y-114280521D01*
X63267189Y-114370628D01*
X63421428Y-114427989D01*
X63428409Y-114428920D01*
X63428411Y-114428921D01*
X63577561Y-114448822D01*
X63577565Y-114448822D01*
X63584542Y-114449753D01*
X63591553Y-114449115D01*
X63591557Y-114449115D01*
X63741403Y-114435478D01*
X63741404Y-114435478D01*
X63748424Y-114434839D01*
X63827049Y-114409292D01*
X63898230Y-114386164D01*
X63898233Y-114386163D01*
X63904929Y-114383987D01*
X64046279Y-114299725D01*
X64165449Y-114186242D01*
X64181458Y-114162147D01*
X64252614Y-114055049D01*
X64252615Y-114055047D01*
X64256515Y-114049177D01*
X64314951Y-113895342D01*
X64324369Y-113828329D01*
X64337302Y-113736308D01*
X64337303Y-113736301D01*
X64337853Y-113732384D01*
X64338141Y-113711774D01*
X64319798Y-113548240D01*
X64313998Y-113531583D01*
X64280829Y-113436336D01*
X64265680Y-113392834D01*
X64261762Y-113386563D01*
X64182209Y-113259253D01*
X64178476Y-113253279D01*
X64151852Y-113226468D01*
X67325157Y-113226468D01*
X67341215Y-113390242D01*
X67393158Y-113546389D01*
X67396807Y-113552414D01*
X67457682Y-113652929D01*
X67478405Y-113687147D01*
X67483296Y-113692212D01*
X67483297Y-113692213D01*
X67496004Y-113705371D01*
X67592717Y-113805521D01*
X67730415Y-113895628D01*
X67884654Y-113952989D01*
X67891635Y-113953920D01*
X67891637Y-113953921D01*
X68040787Y-113973822D01*
X68040791Y-113973822D01*
X68047768Y-113974753D01*
X68054779Y-113974115D01*
X68054783Y-113974115D01*
X68204629Y-113960478D01*
X68204630Y-113960478D01*
X68211650Y-113959839D01*
X68240288Y-113950534D01*
X68361456Y-113911164D01*
X68361459Y-113911163D01*
X68368155Y-113908987D01*
X68509505Y-113824725D01*
X68628675Y-113711242D01*
X68639816Y-113694474D01*
X68715840Y-113580049D01*
X68715841Y-113580047D01*
X68719741Y-113574177D01*
X68744143Y-113509938D01*
X68787031Y-113453359D01*
X68850508Y-113429201D01*
X68923424Y-113422565D01*
X69014926Y-113392834D01*
X69073230Y-113373890D01*
X69073233Y-113373889D01*
X69079929Y-113371713D01*
X69221279Y-113287451D01*
X69340449Y-113173968D01*
X69355570Y-113151209D01*
X69427614Y-113042775D01*
X69427615Y-113042773D01*
X69431515Y-113036903D01*
X69489951Y-112883068D01*
X69501561Y-112800455D01*
X69512302Y-112724034D01*
X69512303Y-112724027D01*
X69512853Y-112720110D01*
X69513141Y-112699500D01*
X69494798Y-112535966D01*
X69486824Y-112513066D01*
X69456073Y-112424763D01*
X69440680Y-112380560D01*
X69419583Y-112346797D01*
X69391682Y-112302146D01*
X80599479Y-112302146D01*
X80615537Y-112465920D01*
X80667480Y-112622067D01*
X80682664Y-112647138D01*
X80726858Y-112720110D01*
X80752727Y-112762825D01*
X80867039Y-112881199D01*
X81004737Y-112971306D01*
X81158976Y-113028667D01*
X81165957Y-113029598D01*
X81165959Y-113029599D01*
X81315109Y-113049500D01*
X81315113Y-113049500D01*
X81322090Y-113050431D01*
X81329101Y-113049793D01*
X81329105Y-113049793D01*
X81478954Y-113036156D01*
X81478957Y-113036155D01*
X81485972Y-113035517D01*
X81485972Y-113035519D01*
X81553938Y-113041187D01*
X81610268Y-113084401D01*
X81634292Y-113151209D01*
X81632054Y-113176305D01*
X81633056Y-113176432D01*
X81612431Y-113339694D01*
X81628489Y-113503468D01*
X81680432Y-113659615D01*
X81684081Y-113665640D01*
X81758149Y-113787939D01*
X81765679Y-113800373D01*
X81770570Y-113805438D01*
X81770571Y-113805439D01*
X81828322Y-113865242D01*
X81879991Y-113918747D01*
X82017689Y-114008854D01*
X82171928Y-114066215D01*
X82178909Y-114067146D01*
X82178911Y-114067147D01*
X82328061Y-114087048D01*
X82328065Y-114087048D01*
X82335042Y-114087979D01*
X82342053Y-114087341D01*
X82342057Y-114087341D01*
X82491903Y-114073704D01*
X82491904Y-114073704D01*
X82498924Y-114073065D01*
X82554371Y-114055049D01*
X82648730Y-114024390D01*
X82648733Y-114024389D01*
X82655429Y-114022213D01*
X82796779Y-113937951D01*
X82915949Y-113824468D01*
X82919850Y-113818597D01*
X83003114Y-113693275D01*
X83003115Y-113693273D01*
X83007015Y-113687403D01*
X83065451Y-113533568D01*
X83080962Y-113423202D01*
X83087802Y-113374534D01*
X83087803Y-113374527D01*
X83088353Y-113370610D01*
X83088641Y-113350000D01*
X83070298Y-113186466D01*
X83016180Y-113031060D01*
X82978842Y-112971306D01*
X82932709Y-112897479D01*
X82928976Y-112891505D01*
X82865318Y-112827401D01*
X82817986Y-112779737D01*
X82817982Y-112779734D01*
X82813022Y-112774739D01*
X82674080Y-112686563D01*
X82585753Y-112655111D01*
X82525689Y-112633723D01*
X82525687Y-112633722D01*
X82519055Y-112631361D01*
X82512069Y-112630528D01*
X82512065Y-112630527D01*
X82385039Y-112615381D01*
X82355653Y-112611877D01*
X82348650Y-112612613D01*
X82348649Y-112612613D01*
X82191995Y-112629078D01*
X82191661Y-112625898D01*
X82134863Y-112621958D01*
X82077937Y-112579533D01*
X82052984Y-112513066D01*
X82053869Y-112486272D01*
X82074850Y-112336986D01*
X82074851Y-112336979D01*
X82075401Y-112333062D01*
X82075543Y-112322882D01*
X82075634Y-112316414D01*
X82075634Y-112316408D01*
X82075689Y-112312452D01*
X82057346Y-112148918D01*
X82051546Y-112132261D01*
X82016343Y-112031173D01*
X82003228Y-111993512D01*
X81986812Y-111967240D01*
X81919757Y-111859931D01*
X81916024Y-111853957D01*
X81848107Y-111785564D01*
X81805034Y-111742189D01*
X81805030Y-111742186D01*
X81800070Y-111737191D01*
X81661128Y-111649015D01*
X81559849Y-111612951D01*
X81512737Y-111596175D01*
X81512735Y-111596174D01*
X81506103Y-111593813D01*
X81499117Y-111592980D01*
X81499113Y-111592979D01*
X81384619Y-111579327D01*
X81342701Y-111574329D01*
X81335698Y-111575065D01*
X81335697Y-111575065D01*
X81292483Y-111579607D01*
X81179043Y-111591530D01*
X81172375Y-111593800D01*
X81029930Y-111642292D01*
X81029927Y-111642293D01*
X81023263Y-111644562D01*
X80883103Y-111730789D01*
X80850883Y-111762341D01*
X80798798Y-111813347D01*
X80765530Y-111845925D01*
X80676386Y-111984249D01*
X80673975Y-111990872D01*
X80673974Y-111990875D01*
X80622514Y-112132261D01*
X80622513Y-112132266D01*
X80620104Y-112138884D01*
X80599479Y-112302146D01*
X69391682Y-112302146D01*
X69357209Y-112246979D01*
X69353476Y-112241005D01*
X69285552Y-112172605D01*
X69242486Y-112129237D01*
X69242482Y-112129234D01*
X69237522Y-112124239D01*
X69098580Y-112036063D01*
X69023059Y-112009171D01*
X68950189Y-111983223D01*
X68950187Y-111983222D01*
X68943555Y-111980861D01*
X68936569Y-111980028D01*
X68936565Y-111980027D01*
X68822071Y-111966375D01*
X68780153Y-111961377D01*
X68773150Y-111962113D01*
X68773149Y-111962113D01*
X68729935Y-111966655D01*
X68616495Y-111978578D01*
X68609827Y-111980848D01*
X68467382Y-112029340D01*
X68467379Y-112029341D01*
X68460715Y-112031610D01*
X68320555Y-112117837D01*
X68258066Y-112179031D01*
X68216906Y-112219338D01*
X68202982Y-112232973D01*
X68113838Y-112371297D01*
X68111427Y-112377920D01*
X68111426Y-112377923D01*
X68094378Y-112424763D01*
X68052284Y-112481935D01*
X67989148Y-112506979D01*
X67904721Y-112515852D01*
X67898053Y-112518122D01*
X67755608Y-112566614D01*
X67755605Y-112566615D01*
X67748941Y-112568884D01*
X67662493Y-112622067D01*
X67617325Y-112649855D01*
X67608781Y-112655111D01*
X67559407Y-112703462D01*
X67504938Y-112756802D01*
X67491208Y-112770247D01*
X67402064Y-112908571D01*
X67399653Y-112915194D01*
X67399652Y-112915197D01*
X67348192Y-113056583D01*
X67348191Y-113056588D01*
X67345782Y-113063206D01*
X67325157Y-113226468D01*
X64151852Y-113226468D01*
X64104542Y-113178827D01*
X64067486Y-113141511D01*
X64067482Y-113141508D01*
X64062522Y-113136513D01*
X63923580Y-113048337D01*
X63849047Y-113021797D01*
X63775189Y-112995497D01*
X63775187Y-112995496D01*
X63768555Y-112993135D01*
X63761569Y-112992302D01*
X63761565Y-112992301D01*
X63647071Y-112978649D01*
X63605153Y-112973651D01*
X63598150Y-112974387D01*
X63598149Y-112974387D01*
X63554935Y-112978929D01*
X63441495Y-112990852D01*
X63434827Y-112993122D01*
X63292382Y-113041614D01*
X63292379Y-113041615D01*
X63285715Y-113043884D01*
X63145555Y-113130111D01*
X63106765Y-113168097D01*
X63054301Y-113219474D01*
X63027982Y-113245247D01*
X62938838Y-113383571D01*
X62936427Y-113390194D01*
X62936426Y-113390197D01*
X62884966Y-113531583D01*
X62884965Y-113531588D01*
X62882556Y-113538206D01*
X62861931Y-113701468D01*
X61894430Y-113701468D01*
X61911529Y-113571590D01*
X61912458Y-113533568D01*
X61913074Y-113508365D01*
X61913074Y-113508361D01*
X61913156Y-113505000D01*
X61894852Y-113282361D01*
X61840431Y-113065702D01*
X61751354Y-112860840D01*
X61698886Y-112779737D01*
X61632822Y-112677617D01*
X61632820Y-112677614D01*
X61630014Y-112673277D01*
X61479670Y-112508051D01*
X61475619Y-112504852D01*
X61475615Y-112504848D01*
X61308414Y-112372800D01*
X61308410Y-112372798D01*
X61304359Y-112369598D01*
X61263053Y-112346796D01*
X61213084Y-112296364D01*
X61198312Y-112226921D01*
X61223428Y-112160516D01*
X61250780Y-112133909D01*
X61294603Y-112102650D01*
X61429860Y-112006173D01*
X61442566Y-111993512D01*
X61584435Y-111852137D01*
X61588096Y-111848489D01*
X61592380Y-111842528D01*
X61715435Y-111671277D01*
X61718453Y-111667077D01*
X61727757Y-111648253D01*
X61756698Y-111589694D01*
X65586931Y-111589694D01*
X65602989Y-111753468D01*
X65654932Y-111909615D01*
X65658581Y-111915640D01*
X65730367Y-112034171D01*
X65740179Y-112050373D01*
X65854491Y-112168747D01*
X65992189Y-112258854D01*
X66146428Y-112316215D01*
X66153409Y-112317146D01*
X66153411Y-112317147D01*
X66302561Y-112337048D01*
X66302565Y-112337048D01*
X66309542Y-112337979D01*
X66316553Y-112337341D01*
X66316557Y-112337341D01*
X66466403Y-112323704D01*
X66466404Y-112323704D01*
X66473424Y-112323065D01*
X66559331Y-112295152D01*
X66623230Y-112274390D01*
X66623233Y-112274389D01*
X66629929Y-112272213D01*
X66771279Y-112187951D01*
X66890449Y-112074468D01*
X66906458Y-112050373D01*
X66977614Y-111943275D01*
X66977615Y-111943273D01*
X66981515Y-111937403D01*
X67017701Y-111842142D01*
X67060590Y-111785564D01*
X67127258Y-111761155D01*
X67152151Y-111761993D01*
X67159542Y-111762979D01*
X67166553Y-111762341D01*
X67166557Y-111762341D01*
X67316403Y-111748704D01*
X67316404Y-111748704D01*
X67323424Y-111748065D01*
X67352062Y-111738760D01*
X67473230Y-111699390D01*
X67473233Y-111699389D01*
X67479929Y-111697213D01*
X67621279Y-111612951D01*
X67740449Y-111499468D01*
X67744350Y-111493597D01*
X67827614Y-111368275D01*
X67827615Y-111368273D01*
X67831515Y-111362403D01*
X67862280Y-111281413D01*
X67905168Y-111224835D01*
X67971837Y-111200425D01*
X67996732Y-111201263D01*
X68032812Y-111206077D01*
X68084542Y-111212979D01*
X68091553Y-111212341D01*
X68091557Y-111212341D01*
X68241403Y-111198704D01*
X68241404Y-111198704D01*
X68248424Y-111198065D01*
X68304899Y-111179715D01*
X68388649Y-111152503D01*
X68459616Y-111150475D01*
X68471493Y-111154234D01*
X68570931Y-111191215D01*
X68577916Y-111192147D01*
X68727064Y-111212048D01*
X68727068Y-111212048D01*
X68734045Y-111212979D01*
X68741056Y-111212341D01*
X68741060Y-111212341D01*
X68890906Y-111198704D01*
X68890907Y-111198704D01*
X68897927Y-111198065D01*
X69054432Y-111147213D01*
X69058988Y-111144497D01*
X69128606Y-111134667D01*
X69154278Y-111141242D01*
X69221428Y-111166215D01*
X69276792Y-111173602D01*
X69341669Y-111202437D01*
X69379686Y-111258723D01*
X69404932Y-111334615D01*
X69408581Y-111340640D01*
X69484994Y-111466811D01*
X69490179Y-111475373D01*
X69604491Y-111593747D01*
X69742189Y-111683854D01*
X69896428Y-111741215D01*
X69903409Y-111742146D01*
X69903411Y-111742147D01*
X70052561Y-111762048D01*
X70052565Y-111762048D01*
X70059542Y-111762979D01*
X70066553Y-111762341D01*
X70066557Y-111762341D01*
X70216403Y-111748704D01*
X70216404Y-111748704D01*
X70223424Y-111748065D01*
X70252062Y-111738760D01*
X70373230Y-111699390D01*
X70373233Y-111699389D01*
X70379929Y-111697213D01*
X70521279Y-111612951D01*
X70640449Y-111499468D01*
X70644350Y-111493597D01*
X70727614Y-111368275D01*
X70727615Y-111368273D01*
X70731515Y-111362403D01*
X70789951Y-111208568D01*
X70806829Y-111088476D01*
X70812302Y-111049534D01*
X70812303Y-111049527D01*
X70812853Y-111045610D01*
X70813141Y-111025000D01*
X70794798Y-110861466D01*
X70787090Y-110839330D01*
X70767180Y-110782159D01*
X70740680Y-110706060D01*
X70653476Y-110566505D01*
X70581778Y-110494305D01*
X70542486Y-110454737D01*
X70542482Y-110454734D01*
X70537522Y-110449739D01*
X70398580Y-110361563D01*
X70243555Y-110306361D01*
X70199844Y-110301149D01*
X70134571Y-110273222D01*
X70095772Y-110217472D01*
X70067998Y-110137717D01*
X70065680Y-110131060D01*
X69978476Y-109991505D01*
X69920499Y-109933122D01*
X69867486Y-109879737D01*
X69867482Y-109879734D01*
X69862522Y-109874739D01*
X69723580Y-109786563D01*
X69662027Y-109764645D01*
X69575189Y-109733723D01*
X69575187Y-109733722D01*
X69568555Y-109731361D01*
X69561569Y-109730528D01*
X69561565Y-109730527D01*
X69447071Y-109716875D01*
X69405153Y-109711877D01*
X69398150Y-109712613D01*
X69398149Y-109712613D01*
X69354935Y-109717155D01*
X69241495Y-109729078D01*
X69085715Y-109782110D01*
X69085285Y-109780847D01*
X69022535Y-109790605D01*
X68996772Y-109784390D01*
X68951691Y-109768337D01*
X68924692Y-109758723D01*
X68924690Y-109758723D01*
X68918058Y-109756361D01*
X68911072Y-109755528D01*
X68911068Y-109755527D01*
X68796574Y-109741875D01*
X68754656Y-109736877D01*
X68747653Y-109737613D01*
X68747652Y-109737613D01*
X68704438Y-109742155D01*
X68590998Y-109754078D01*
X68464410Y-109797172D01*
X68393480Y-109800190D01*
X68381539Y-109796593D01*
X68275189Y-109758723D01*
X68275187Y-109758722D01*
X68268555Y-109756361D01*
X68261569Y-109755528D01*
X68261565Y-109755527D01*
X68182435Y-109746092D01*
X68117162Y-109718165D01*
X68077349Y-109659382D01*
X68075637Y-109588406D01*
X68112569Y-109527771D01*
X68170482Y-109498333D01*
X68173424Y-109498065D01*
X68282792Y-109462529D01*
X68323230Y-109449390D01*
X68323233Y-109449389D01*
X68329929Y-109447213D01*
X68471279Y-109362951D01*
X68590449Y-109249468D01*
X68606458Y-109225373D01*
X68677614Y-109118275D01*
X68677615Y-109118273D01*
X68681515Y-109112403D01*
X68739951Y-108958568D01*
X68753463Y-108862425D01*
X68762302Y-108799534D01*
X68762303Y-108799527D01*
X68762853Y-108795610D01*
X68763141Y-108775000D01*
X68744798Y-108611466D01*
X68739277Y-108595610D01*
X68692998Y-108462717D01*
X68690680Y-108456060D01*
X68671272Y-108425000D01*
X68607209Y-108322479D01*
X68603476Y-108316505D01*
X68528367Y-108240870D01*
X68492486Y-108204737D01*
X68492482Y-108204734D01*
X68487522Y-108199739D01*
X68348580Y-108111563D01*
X68262224Y-108080813D01*
X68200189Y-108058723D01*
X68200187Y-108058722D01*
X68193555Y-108056361D01*
X68186569Y-108055528D01*
X68186565Y-108055527D01*
X68072071Y-108041875D01*
X68030153Y-108036877D01*
X68023150Y-108037613D01*
X68023149Y-108037613D01*
X67979935Y-108042155D01*
X67866495Y-108054078D01*
X67859827Y-108056348D01*
X67717382Y-108104840D01*
X67717379Y-108104841D01*
X67710715Y-108107110D01*
X67570555Y-108193337D01*
X67452982Y-108308473D01*
X67363838Y-108446797D01*
X67361427Y-108453420D01*
X67361426Y-108453423D01*
X67309966Y-108594809D01*
X67309965Y-108594814D01*
X67307556Y-108601432D01*
X67286931Y-108764694D01*
X67302989Y-108928468D01*
X67354932Y-109084615D01*
X67358581Y-109090640D01*
X67393081Y-109147605D01*
X67440179Y-109225373D01*
X67445070Y-109230438D01*
X67445071Y-109230439D01*
X67463372Y-109249390D01*
X67554491Y-109343747D01*
X67692189Y-109433854D01*
X67846428Y-109491215D01*
X67853407Y-109492146D01*
X67853410Y-109492147D01*
X67893914Y-109497551D01*
X67943602Y-109504181D01*
X68008477Y-109533015D01*
X68047465Y-109592348D01*
X68048187Y-109663341D01*
X68010412Y-109723454D01*
X67953994Y-109752134D01*
X67948502Y-109753342D01*
X67941495Y-109754078D01*
X67934824Y-109756349D01*
X67792382Y-109804840D01*
X67792379Y-109804841D01*
X67785715Y-109807110D01*
X67712578Y-109852104D01*
X67658556Y-109885339D01*
X67645555Y-109893337D01*
X67640522Y-109898266D01*
X67539209Y-109997479D01*
X67527982Y-110008473D01*
X67438838Y-110146797D01*
X67413370Y-110216771D01*
X67371278Y-110273940D01*
X67304957Y-110299279D01*
X67280053Y-110298789D01*
X67180153Y-110286877D01*
X67173150Y-110287613D01*
X67173149Y-110287613D01*
X67134512Y-110291674D01*
X67016495Y-110304078D01*
X67009827Y-110306348D01*
X66867382Y-110354840D01*
X66867379Y-110354841D01*
X66860715Y-110357110D01*
X66720555Y-110443337D01*
X66602982Y-110558473D01*
X66513838Y-110696797D01*
X66494338Y-110750373D01*
X66482769Y-110782159D01*
X66440675Y-110839330D01*
X66374353Y-110864668D01*
X66349451Y-110864178D01*
X66330153Y-110861877D01*
X66323150Y-110862613D01*
X66323149Y-110862613D01*
X66279935Y-110867155D01*
X66166495Y-110879078D01*
X66159827Y-110881348D01*
X66017382Y-110929840D01*
X66017379Y-110929841D01*
X66010715Y-110932110D01*
X65870555Y-111018337D01*
X65752982Y-111133473D01*
X65663838Y-111271797D01*
X65661427Y-111278420D01*
X65661426Y-111278423D01*
X65609966Y-111419809D01*
X65609965Y-111419814D01*
X65607556Y-111426432D01*
X65586931Y-111589694D01*
X61756698Y-111589694D01*
X61815136Y-111471453D01*
X61815137Y-111471451D01*
X61817430Y-111466811D01*
X61859626Y-111327929D01*
X61880865Y-111258023D01*
X61880865Y-111258021D01*
X61882370Y-111253069D01*
X61889301Y-111200425D01*
X61889882Y-111196014D01*
X61918605Y-111131087D01*
X61977871Y-111091996D01*
X62020482Y-111088476D01*
X62020515Y-111086900D01*
X62027562Y-111087048D01*
X62034542Y-111087979D01*
X62041553Y-111087341D01*
X62041557Y-111087341D01*
X62191403Y-111073704D01*
X62191404Y-111073704D01*
X62198424Y-111073065D01*
X62221455Y-111065582D01*
X62348230Y-111024390D01*
X62348233Y-111024389D01*
X62354929Y-111022213D01*
X62496279Y-110937951D01*
X62615449Y-110824468D01*
X62661312Y-110755439D01*
X62702614Y-110693275D01*
X62702615Y-110693273D01*
X62706515Y-110687403D01*
X62764951Y-110533568D01*
X62782118Y-110411417D01*
X62787302Y-110374534D01*
X62787303Y-110374527D01*
X62787853Y-110370610D01*
X62787995Y-110360430D01*
X62788086Y-110353962D01*
X62788086Y-110353956D01*
X62788141Y-110350000D01*
X62769798Y-110186466D01*
X62758290Y-110153418D01*
X62717998Y-110037717D01*
X62715680Y-110031060D01*
X62684437Y-109981060D01*
X62632209Y-109897479D01*
X62628476Y-109891505D01*
X62552118Y-109814612D01*
X62517486Y-109779737D01*
X62517482Y-109779734D01*
X62512522Y-109774739D01*
X62373580Y-109686563D01*
X62258307Y-109645516D01*
X62225189Y-109633723D01*
X62225187Y-109633722D01*
X62218555Y-109631361D01*
X62211569Y-109630528D01*
X62211565Y-109630527D01*
X62097071Y-109616875D01*
X62055153Y-109611877D01*
X62048150Y-109612613D01*
X62048149Y-109612613D01*
X62004935Y-109617155D01*
X61891495Y-109629078D01*
X61884827Y-109631348D01*
X61742382Y-109679840D01*
X61742379Y-109679841D01*
X61735715Y-109682110D01*
X61657014Y-109730527D01*
X61621893Y-109752134D01*
X61595555Y-109768337D01*
X61590525Y-109773263D01*
X61590517Y-109773269D01*
X61510153Y-109851968D01*
X61447488Y-109885339D01*
X61376729Y-109879533D01*
X61343903Y-109860827D01*
X61308422Y-109832806D01*
X61308416Y-109832802D01*
X61304359Y-109829598D01*
X61263053Y-109806796D01*
X61213084Y-109756364D01*
X61198312Y-109686921D01*
X61223428Y-109620516D01*
X61250780Y-109593909D01*
X61295687Y-109561877D01*
X61429860Y-109466173D01*
X61448887Y-109447213D01*
X61548843Y-109347605D01*
X61588096Y-109308489D01*
X61592380Y-109302528D01*
X61715435Y-109131277D01*
X61718453Y-109127077D01*
X61725706Y-109112403D01*
X61815136Y-108931453D01*
X61815137Y-108931451D01*
X61817430Y-108926811D01*
X61857292Y-108795610D01*
X61880865Y-108718023D01*
X61880865Y-108718021D01*
X61882370Y-108713069D01*
X61911529Y-108491590D01*
X61912209Y-108463759D01*
X61913074Y-108428365D01*
X61913074Y-108428361D01*
X61913156Y-108425000D01*
X61894852Y-108202361D01*
X61840431Y-107985702D01*
X61751354Y-107780840D01*
X61675675Y-107663858D01*
X61632822Y-107597617D01*
X61632820Y-107597614D01*
X61630014Y-107593277D01*
X61479670Y-107428051D01*
X61475619Y-107424852D01*
X61475615Y-107424848D01*
X61308414Y-107292800D01*
X61308410Y-107292798D01*
X61304359Y-107289598D01*
X61263053Y-107266796D01*
X61213084Y-107216364D01*
X61198312Y-107146921D01*
X61223428Y-107080516D01*
X61250780Y-107053909D01*
X61318396Y-107005679D01*
X61429860Y-106926173D01*
X61462683Y-106893465D01*
X61584435Y-106772137D01*
X61588096Y-106768489D01*
X61592380Y-106762528D01*
X61715435Y-106591277D01*
X61718453Y-106587077D01*
X61747147Y-106529020D01*
X61815136Y-106391453D01*
X61815137Y-106391451D01*
X61817430Y-106386811D01*
X61863507Y-106235153D01*
X61880865Y-106178023D01*
X61880865Y-106178021D01*
X61882370Y-106173069D01*
X61896638Y-106064694D01*
X63411931Y-106064694D01*
X63427989Y-106228468D01*
X63479932Y-106384615D01*
X63483581Y-106390640D01*
X63546681Y-106494829D01*
X63565179Y-106525373D01*
X63570070Y-106530438D01*
X63570071Y-106530439D01*
X63629042Y-106591505D01*
X63679491Y-106643747D01*
X63735697Y-106680527D01*
X63804993Y-106725873D01*
X63817189Y-106733854D01*
X63819323Y-106734648D01*
X63869731Y-106781924D01*
X63887037Y-106850779D01*
X63884029Y-106872386D01*
X63882556Y-106876432D01*
X63881673Y-106883424D01*
X63881672Y-106883427D01*
X63876272Y-106926173D01*
X63861931Y-107039694D01*
X63877989Y-107203468D01*
X63929932Y-107359615D01*
X63933581Y-107365640D01*
X63984580Y-107449848D01*
X64015179Y-107500373D01*
X64020070Y-107505438D01*
X64020071Y-107505439D01*
X64066452Y-107553468D01*
X64129491Y-107618747D01*
X64267189Y-107708854D01*
X64421428Y-107766215D01*
X64428409Y-107767146D01*
X64428411Y-107767147D01*
X64577561Y-107787048D01*
X64577565Y-107787048D01*
X64584542Y-107787979D01*
X64591553Y-107787341D01*
X64591557Y-107787341D01*
X64741403Y-107773704D01*
X64741404Y-107773704D01*
X64748424Y-107773065D01*
X64799772Y-107756381D01*
X64898230Y-107724390D01*
X64898233Y-107724389D01*
X64904929Y-107722213D01*
X65046279Y-107637951D01*
X65165449Y-107524468D01*
X65181458Y-107500373D01*
X65252614Y-107393275D01*
X65252615Y-107393273D01*
X65254993Y-107389694D01*
X68611931Y-107389694D01*
X68627989Y-107553468D01*
X68679932Y-107709615D01*
X68683581Y-107715640D01*
X68757511Y-107837711D01*
X68765179Y-107850373D01*
X68770070Y-107855438D01*
X68770071Y-107855439D01*
X68781110Y-107866870D01*
X68879491Y-107968747D01*
X69017189Y-108058854D01*
X69171428Y-108116215D01*
X69178409Y-108117146D01*
X69178411Y-108117147D01*
X69327561Y-108137048D01*
X69327565Y-108137048D01*
X69334542Y-108137979D01*
X69341553Y-108137341D01*
X69341557Y-108137341D01*
X69491403Y-108123704D01*
X69491404Y-108123704D01*
X69498424Y-108123065D01*
X69533823Y-108111563D01*
X69648230Y-108074390D01*
X69648233Y-108074389D01*
X69654929Y-108072213D01*
X69796279Y-107987951D01*
X69915449Y-107874468D01*
X69919350Y-107868597D01*
X70002614Y-107743275D01*
X70002615Y-107743273D01*
X70006515Y-107737403D01*
X70064951Y-107583568D01*
X70086271Y-107431870D01*
X70087302Y-107424534D01*
X70087303Y-107424527D01*
X70087853Y-107420610D01*
X70088010Y-107409373D01*
X70088086Y-107403962D01*
X70088086Y-107403956D01*
X70088141Y-107400000D01*
X70069798Y-107236466D01*
X70063998Y-107219809D01*
X70041130Y-107154144D01*
X70015680Y-107081060D01*
X70008442Y-107069476D01*
X69932209Y-106947479D01*
X69928476Y-106941505D01*
X69870499Y-106883122D01*
X69817486Y-106829737D01*
X69817482Y-106829734D01*
X69812522Y-106824739D01*
X69673580Y-106736563D01*
X69613271Y-106715088D01*
X69525189Y-106683723D01*
X69525187Y-106683722D01*
X69518555Y-106681361D01*
X69511569Y-106680528D01*
X69511565Y-106680527D01*
X69397071Y-106666875D01*
X69355153Y-106661877D01*
X69348150Y-106662613D01*
X69348149Y-106662613D01*
X69304935Y-106667155D01*
X69191495Y-106679078D01*
X69184827Y-106681348D01*
X69042382Y-106729840D01*
X69042379Y-106729841D01*
X69035715Y-106732110D01*
X68895555Y-106818337D01*
X68883914Y-106829737D01*
X68785437Y-106926173D01*
X68777982Y-106933473D01*
X68688838Y-107071797D01*
X68686427Y-107078420D01*
X68686426Y-107078423D01*
X68634966Y-107219809D01*
X68634965Y-107219814D01*
X68632556Y-107226432D01*
X68611931Y-107389694D01*
X65254993Y-107389694D01*
X65256515Y-107387403D01*
X65314951Y-107233568D01*
X65330755Y-107121114D01*
X65337302Y-107074534D01*
X65337303Y-107074527D01*
X65337853Y-107070610D01*
X65338141Y-107050000D01*
X65319798Y-106886466D01*
X65313039Y-106867055D01*
X65278714Y-106768489D01*
X65265680Y-106731060D01*
X65236101Y-106683723D01*
X65182209Y-106597479D01*
X65178476Y-106591505D01*
X65112052Y-106524616D01*
X65067486Y-106479737D01*
X65067482Y-106479734D01*
X65062522Y-106474739D01*
X64923580Y-106386563D01*
X64924958Y-106384392D01*
X64881259Y-106344546D01*
X64862988Y-106275940D01*
X64865398Y-106258631D01*
X64864951Y-106258568D01*
X64887302Y-106099534D01*
X64887303Y-106099527D01*
X64887853Y-106095610D01*
X64887995Y-106085430D01*
X64888086Y-106078962D01*
X64888086Y-106078956D01*
X64888141Y-106075000D01*
X64869798Y-105911466D01*
X64863998Y-105894809D01*
X64817998Y-105762717D01*
X64815680Y-105756060D01*
X64811874Y-105749968D01*
X64732209Y-105622479D01*
X64728476Y-105616505D01*
X64666249Y-105553842D01*
X64617486Y-105504737D01*
X64617482Y-105504734D01*
X64612522Y-105499739D01*
X64473580Y-105411563D01*
X64424447Y-105394068D01*
X64325189Y-105358723D01*
X64325187Y-105358722D01*
X64318555Y-105356361D01*
X64311567Y-105355528D01*
X64311564Y-105355527D01*
X64166903Y-105338278D01*
X64164431Y-105337220D01*
X64160464Y-105337510D01*
X64155153Y-105336877D01*
X64148150Y-105337613D01*
X64148147Y-105337613D01*
X64073324Y-105345478D01*
X63991495Y-105354078D01*
X63984827Y-105356348D01*
X63842382Y-105404840D01*
X63842379Y-105404841D01*
X63835715Y-105407110D01*
X63740553Y-105465654D01*
X63733998Y-105469687D01*
X63695555Y-105493337D01*
X63577982Y-105608473D01*
X63488838Y-105746797D01*
X63486427Y-105753420D01*
X63486426Y-105753423D01*
X63434966Y-105894809D01*
X63434965Y-105894814D01*
X63432556Y-105901432D01*
X63411931Y-106064694D01*
X61896638Y-106064694D01*
X61911529Y-105951590D01*
X61911950Y-105934354D01*
X61913074Y-105888365D01*
X61913074Y-105888361D01*
X61913156Y-105885000D01*
X61894852Y-105662361D01*
X61840431Y-105445702D01*
X61751354Y-105240840D01*
X61675675Y-105123858D01*
X61632822Y-105057617D01*
X61632820Y-105057614D01*
X61630014Y-105053277D01*
X61479670Y-104888051D01*
X61475619Y-104884852D01*
X61475615Y-104884848D01*
X61308414Y-104752800D01*
X61308410Y-104752798D01*
X61304359Y-104749598D01*
X61263053Y-104726796D01*
X61213084Y-104676364D01*
X61198312Y-104606921D01*
X61223428Y-104540516D01*
X61250780Y-104513909D01*
X61294603Y-104482650D01*
X61429860Y-104386173D01*
X61445478Y-104370610D01*
X61476502Y-104339694D01*
X63461931Y-104339694D01*
X63477989Y-104503468D01*
X63529932Y-104659615D01*
X63533581Y-104665640D01*
X63610542Y-104792716D01*
X63615179Y-104800373D01*
X63620070Y-104805438D01*
X63620071Y-104805439D01*
X63659131Y-104845887D01*
X63729491Y-104918747D01*
X63867189Y-105008854D01*
X64021428Y-105066215D01*
X64142013Y-105082304D01*
X64175652Y-105086793D01*
X64177667Y-105087688D01*
X64180701Y-105087466D01*
X64184542Y-105087979D01*
X64191553Y-105087341D01*
X64191557Y-105087341D01*
X64341403Y-105073704D01*
X64341404Y-105073704D01*
X64348424Y-105073065D01*
X64410414Y-105052923D01*
X64498230Y-105024390D01*
X64498233Y-105024389D01*
X64504929Y-105022213D01*
X64646279Y-104937951D01*
X64765449Y-104824468D01*
X64783190Y-104797766D01*
X64852614Y-104693275D01*
X64852615Y-104693273D01*
X64856515Y-104687403D01*
X64914951Y-104533568D01*
X64924694Y-104464242D01*
X64937302Y-104374534D01*
X64937303Y-104374527D01*
X64937853Y-104370610D01*
X64938141Y-104350000D01*
X64919798Y-104186466D01*
X64913998Y-104169809D01*
X64882001Y-104077929D01*
X64865680Y-104031060D01*
X64839411Y-103989020D01*
X64782209Y-103897479D01*
X64778476Y-103891505D01*
X64720499Y-103833122D01*
X64667486Y-103779737D01*
X64667482Y-103779734D01*
X64662522Y-103774739D01*
X64646694Y-103764694D01*
X68811931Y-103764694D01*
X68827989Y-103928468D01*
X68879932Y-104084615D01*
X68883581Y-104090640D01*
X68951913Y-104203468D01*
X68965179Y-104225373D01*
X69079491Y-104343747D01*
X69217189Y-104433854D01*
X69371428Y-104491215D01*
X69378409Y-104492146D01*
X69378411Y-104492147D01*
X69527561Y-104512048D01*
X69527565Y-104512048D01*
X69534542Y-104512979D01*
X69541553Y-104512341D01*
X69541557Y-104512341D01*
X69691403Y-104498704D01*
X69691404Y-104498704D01*
X69698424Y-104498065D01*
X69743783Y-104483327D01*
X69848230Y-104449390D01*
X69848233Y-104449389D01*
X69854929Y-104447213D01*
X69996279Y-104362951D01*
X70115449Y-104249468D01*
X70128092Y-104230439D01*
X70202614Y-104118275D01*
X70202615Y-104118273D01*
X70206515Y-104112403D01*
X70234134Y-104039694D01*
X78361931Y-104039694D01*
X78377989Y-104203468D01*
X78429932Y-104359615D01*
X78433581Y-104365640D01*
X78509633Y-104491215D01*
X78515179Y-104500373D01*
X78520070Y-104505438D01*
X78520071Y-104505439D01*
X78530169Y-104515896D01*
X78629491Y-104618747D01*
X78635383Y-104622602D01*
X78635387Y-104622606D01*
X78750634Y-104698021D01*
X78796683Y-104752058D01*
X78806206Y-104822413D01*
X78787552Y-104871708D01*
X78738838Y-104947297D01*
X78736427Y-104953920D01*
X78736426Y-104953923D01*
X78684966Y-105095309D01*
X78684965Y-105095314D01*
X78682556Y-105101932D01*
X78661931Y-105265194D01*
X78677989Y-105428968D01*
X78729932Y-105585115D01*
X78815179Y-105725873D01*
X78929491Y-105844247D01*
X79067189Y-105934354D01*
X79221428Y-105991715D01*
X79228409Y-105992646D01*
X79228411Y-105992647D01*
X79377561Y-106012548D01*
X79377565Y-106012548D01*
X79384542Y-106013479D01*
X79391553Y-106012841D01*
X79391557Y-106012841D01*
X79541403Y-105999204D01*
X79541404Y-105999204D01*
X79548424Y-105998565D01*
X79577062Y-105989260D01*
X79698230Y-105949890D01*
X79698233Y-105949889D01*
X79704929Y-105947713D01*
X79846279Y-105863451D01*
X79965449Y-105749968D01*
X79981458Y-105725873D01*
X80052614Y-105618775D01*
X80052615Y-105618773D01*
X80056515Y-105612903D01*
X80114951Y-105459068D01*
X80128285Y-105364194D01*
X80137302Y-105300034D01*
X80137303Y-105300027D01*
X80137853Y-105296110D01*
X80138141Y-105275500D01*
X80119798Y-105111966D01*
X80113998Y-105095309D01*
X80088477Y-105022024D01*
X80084963Y-104951114D01*
X80120345Y-104889562D01*
X80183387Y-104856910D01*
X80196020Y-104855109D01*
X80273424Y-104848065D01*
X80331093Y-104829327D01*
X80423230Y-104799390D01*
X80423233Y-104799389D01*
X80429929Y-104797213D01*
X80571279Y-104712951D01*
X80690449Y-104599468D01*
X80694350Y-104593597D01*
X80777614Y-104468275D01*
X80777615Y-104468273D01*
X80781515Y-104462403D01*
X80839951Y-104308568D01*
X80855707Y-104196459D01*
X80862302Y-104149534D01*
X80862303Y-104149527D01*
X80862853Y-104145610D01*
X80863141Y-104125000D01*
X80844798Y-103961466D01*
X80847490Y-103961164D01*
X80851136Y-103902624D01*
X80893158Y-103845399D01*
X80959447Y-103819977D01*
X81028957Y-103834429D01*
X81038584Y-103840135D01*
X81067189Y-103858854D01*
X81221428Y-103916215D01*
X81228409Y-103917146D01*
X81228411Y-103917147D01*
X81377561Y-103937048D01*
X81377565Y-103937048D01*
X81384542Y-103937979D01*
X81391553Y-103937341D01*
X81391557Y-103937341D01*
X81541403Y-103923704D01*
X81541404Y-103923704D01*
X81548424Y-103923065D01*
X81577062Y-103913760D01*
X81698230Y-103874390D01*
X81698233Y-103874389D01*
X81704929Y-103872213D01*
X81846279Y-103787951D01*
X81965449Y-103674468D01*
X81970740Y-103666505D01*
X82052614Y-103543275D01*
X82052615Y-103543273D01*
X82056515Y-103537403D01*
X82114951Y-103383568D01*
X82137853Y-103220610D01*
X82138141Y-103200000D01*
X82119798Y-103036466D01*
X82065680Y-102881060D01*
X81978476Y-102741505D01*
X81908074Y-102670610D01*
X81867486Y-102629737D01*
X81867482Y-102629734D01*
X81862522Y-102624739D01*
X81723580Y-102536563D01*
X81659275Y-102513665D01*
X81575189Y-102483723D01*
X81575187Y-102483722D01*
X81568555Y-102481361D01*
X81561569Y-102480528D01*
X81561565Y-102480527D01*
X81447071Y-102466875D01*
X81405153Y-102461877D01*
X81398150Y-102462613D01*
X81398149Y-102462613D01*
X81354935Y-102467155D01*
X81241495Y-102479078D01*
X81234827Y-102481348D01*
X81092382Y-102529840D01*
X81092379Y-102529841D01*
X81085715Y-102532110D01*
X81079715Y-102535801D01*
X81079709Y-102535804D01*
X80964086Y-102606936D01*
X80895585Y-102625595D01*
X80827871Y-102604256D01*
X80782443Y-102549697D01*
X80772849Y-102513665D01*
X80770583Y-102493464D01*
X80770583Y-102493463D01*
X80769798Y-102486466D01*
X80763998Y-102469809D01*
X80717998Y-102337717D01*
X80715680Y-102331060D01*
X80692271Y-102293597D01*
X80632209Y-102197479D01*
X80628476Y-102191505D01*
X80564060Y-102126638D01*
X80517486Y-102079737D01*
X80517482Y-102079734D01*
X80512522Y-102074739D01*
X80373580Y-101986563D01*
X80261441Y-101946632D01*
X80225189Y-101933723D01*
X80225187Y-101933722D01*
X80218555Y-101931361D01*
X80211569Y-101930528D01*
X80211565Y-101930527D01*
X80097071Y-101916875D01*
X80055153Y-101911877D01*
X80048150Y-101912613D01*
X80048149Y-101912613D01*
X80004935Y-101917155D01*
X79891495Y-101929078D01*
X79884827Y-101931348D01*
X79742382Y-101979840D01*
X79742379Y-101979841D01*
X79735715Y-101982110D01*
X79665160Y-102025516D01*
X79610183Y-102059338D01*
X79595555Y-102068337D01*
X79575111Y-102088357D01*
X79493502Y-102168275D01*
X79477982Y-102183473D01*
X79388838Y-102321797D01*
X79386427Y-102328420D01*
X79386426Y-102328423D01*
X79334966Y-102469809D01*
X79334965Y-102469814D01*
X79332556Y-102476432D01*
X79311931Y-102639694D01*
X79327989Y-102803468D01*
X79379932Y-102959615D01*
X79383581Y-102965640D01*
X79439955Y-103058723D01*
X79465179Y-103100373D01*
X79470070Y-103105438D01*
X79470071Y-103105439D01*
X79535017Y-103172693D01*
X79567949Y-103235590D01*
X79561649Y-103306307D01*
X79518117Y-103362391D01*
X79451173Y-103386037D01*
X79402113Y-103378919D01*
X79275189Y-103333723D01*
X79275187Y-103333722D01*
X79268555Y-103331361D01*
X79261569Y-103330528D01*
X79261565Y-103330527D01*
X79147071Y-103316875D01*
X79105153Y-103311877D01*
X79098150Y-103312613D01*
X79098149Y-103312613D01*
X79061120Y-103316505D01*
X78941495Y-103329078D01*
X78934827Y-103331348D01*
X78792382Y-103379840D01*
X78792379Y-103379841D01*
X78785715Y-103382110D01*
X78645555Y-103468337D01*
X78603403Y-103509615D01*
X78568968Y-103543337D01*
X78527982Y-103583473D01*
X78438838Y-103721797D01*
X78436427Y-103728420D01*
X78436426Y-103728423D01*
X78384966Y-103869809D01*
X78384965Y-103869814D01*
X78382556Y-103876432D01*
X78361931Y-104039694D01*
X70234134Y-104039694D01*
X70264951Y-103958568D01*
X70280856Y-103845399D01*
X70287302Y-103799534D01*
X70287303Y-103799527D01*
X70287853Y-103795610D01*
X70288141Y-103775000D01*
X70269798Y-103611466D01*
X70263998Y-103594809D01*
X70219955Y-103468337D01*
X70215680Y-103456060D01*
X70184625Y-103406361D01*
X70132209Y-103322479D01*
X70128476Y-103316505D01*
X70070499Y-103258122D01*
X70017486Y-103204737D01*
X70017482Y-103204734D01*
X70012522Y-103199739D01*
X69873580Y-103111563D01*
X69811817Y-103089570D01*
X69725189Y-103058723D01*
X69725187Y-103058722D01*
X69718555Y-103056361D01*
X69711569Y-103055528D01*
X69711565Y-103055527D01*
X69597071Y-103041875D01*
X69555153Y-103036877D01*
X69548150Y-103037613D01*
X69548149Y-103037613D01*
X69504935Y-103042155D01*
X69391495Y-103054078D01*
X69384827Y-103056348D01*
X69242382Y-103104840D01*
X69242379Y-103104841D01*
X69235715Y-103107110D01*
X69095555Y-103193337D01*
X68977982Y-103308473D01*
X68888838Y-103446797D01*
X68886427Y-103453420D01*
X68886426Y-103453423D01*
X68834966Y-103594809D01*
X68834965Y-103594814D01*
X68832556Y-103601432D01*
X68811931Y-103764694D01*
X64646694Y-103764694D01*
X64523580Y-103686563D01*
X64421947Y-103650373D01*
X64375189Y-103633723D01*
X64375187Y-103633722D01*
X64368555Y-103631361D01*
X64361569Y-103630528D01*
X64361565Y-103630527D01*
X64247071Y-103616875D01*
X64205153Y-103611877D01*
X64198150Y-103612613D01*
X64198149Y-103612613D01*
X64154935Y-103617155D01*
X64041495Y-103629078D01*
X64034827Y-103631348D01*
X63892382Y-103679840D01*
X63892379Y-103679841D01*
X63885715Y-103682110D01*
X63745555Y-103768337D01*
X63738751Y-103775000D01*
X63643163Y-103868607D01*
X63627982Y-103883473D01*
X63538838Y-104021797D01*
X63536427Y-104028420D01*
X63536426Y-104028423D01*
X63484966Y-104169809D01*
X63484965Y-104169814D01*
X63482556Y-104176432D01*
X63461931Y-104339694D01*
X61476502Y-104339694D01*
X61559348Y-104257137D01*
X61588096Y-104228489D01*
X61592380Y-104222528D01*
X61715435Y-104051277D01*
X61718453Y-104047077D01*
X61727673Y-104028423D01*
X61815136Y-103851453D01*
X61815137Y-103851451D01*
X61817430Y-103846811D01*
X61872211Y-103666505D01*
X61880865Y-103638023D01*
X61880865Y-103638021D01*
X61882370Y-103633069D01*
X61911529Y-103411590D01*
X61912133Y-103386877D01*
X61913074Y-103348365D01*
X61913074Y-103348361D01*
X61913156Y-103345000D01*
X61894852Y-103122361D01*
X61840431Y-102905702D01*
X61751354Y-102700840D01*
X61661755Y-102562341D01*
X61632822Y-102517617D01*
X61632820Y-102517614D01*
X61630014Y-102513277D01*
X61479670Y-102348051D01*
X61475619Y-102344852D01*
X61475615Y-102344848D01*
X61308414Y-102212800D01*
X61308410Y-102212798D01*
X61304359Y-102209598D01*
X61263053Y-102186796D01*
X61213084Y-102136364D01*
X61198312Y-102066921D01*
X61223428Y-102000516D01*
X61250780Y-101973909D01*
X61313631Y-101929078D01*
X61429860Y-101846173D01*
X61461450Y-101814694D01*
X65711931Y-101814694D01*
X65727989Y-101978468D01*
X65779932Y-102134615D01*
X65783581Y-102140640D01*
X65840485Y-102234598D01*
X65865179Y-102275373D01*
X65979491Y-102393747D01*
X66117189Y-102483854D01*
X66271428Y-102541215D01*
X66278409Y-102542146D01*
X66278411Y-102542147D01*
X66427561Y-102562048D01*
X66427565Y-102562048D01*
X66434542Y-102562979D01*
X66441553Y-102562341D01*
X66441557Y-102562341D01*
X66591403Y-102548704D01*
X66591404Y-102548704D01*
X66598424Y-102548065D01*
X66647528Y-102532110D01*
X66748230Y-102499390D01*
X66748233Y-102499389D01*
X66754929Y-102497213D01*
X66896279Y-102412951D01*
X67015449Y-102299468D01*
X67031458Y-102275373D01*
X67102614Y-102168275D01*
X67102615Y-102168273D01*
X67106515Y-102162403D01*
X67164951Y-102008568D01*
X67175802Y-101931361D01*
X67187302Y-101849534D01*
X67187303Y-101849527D01*
X67187853Y-101845610D01*
X67188141Y-101825000D01*
X67169798Y-101661466D01*
X67163998Y-101644809D01*
X67134084Y-101558908D01*
X67115680Y-101506060D01*
X67090995Y-101466555D01*
X67032209Y-101372479D01*
X67028476Y-101366505D01*
X66946116Y-101283568D01*
X66917486Y-101254737D01*
X66917482Y-101254734D01*
X66912522Y-101249739D01*
X66773580Y-101161563D01*
X66651435Y-101118069D01*
X66625189Y-101108723D01*
X66625187Y-101108722D01*
X66618555Y-101106361D01*
X66611569Y-101105528D01*
X66611565Y-101105527D01*
X66497071Y-101091875D01*
X66455153Y-101086877D01*
X66448150Y-101087613D01*
X66448149Y-101087613D01*
X66404935Y-101092155D01*
X66291495Y-101104078D01*
X66284827Y-101106348D01*
X66142382Y-101154840D01*
X66142379Y-101154841D01*
X66135715Y-101157110D01*
X65995555Y-101243337D01*
X65947747Y-101290154D01*
X65887178Y-101349468D01*
X65877982Y-101358473D01*
X65788838Y-101496797D01*
X65786427Y-101503420D01*
X65786426Y-101503423D01*
X65734966Y-101644809D01*
X65734965Y-101644814D01*
X65732556Y-101651432D01*
X65711931Y-101814694D01*
X61461450Y-101814694D01*
X61462387Y-101813760D01*
X61584435Y-101692137D01*
X61588096Y-101688489D01*
X61592380Y-101682528D01*
X61715435Y-101511277D01*
X61718453Y-101507077D01*
X61740262Y-101462951D01*
X61815136Y-101311453D01*
X61815137Y-101311451D01*
X61817430Y-101306811D01*
X61854556Y-101184615D01*
X61880865Y-101098023D01*
X61880865Y-101098021D01*
X61882370Y-101093069D01*
X61911529Y-100871590D01*
X61911611Y-100868240D01*
X61911698Y-100864694D01*
X70261931Y-100864694D01*
X70277989Y-101028468D01*
X70329932Y-101184615D01*
X70333581Y-101190640D01*
X70406749Y-101311453D01*
X70415179Y-101325373D01*
X70420070Y-101330438D01*
X70420071Y-101330439D01*
X70466835Y-101378865D01*
X70529491Y-101443747D01*
X70667189Y-101533854D01*
X70821428Y-101591215D01*
X70828409Y-101592146D01*
X70828411Y-101592147D01*
X70977561Y-101612048D01*
X70977565Y-101612048D01*
X70984542Y-101612979D01*
X70991553Y-101612341D01*
X70991557Y-101612341D01*
X71141403Y-101598704D01*
X71141404Y-101598704D01*
X71148424Y-101598065D01*
X71206093Y-101579327D01*
X71298230Y-101549390D01*
X71298233Y-101549389D01*
X71304929Y-101547213D01*
X71446279Y-101462951D01*
X71565449Y-101349468D01*
X71569350Y-101343597D01*
X71652614Y-101218275D01*
X71652615Y-101218273D01*
X71656515Y-101212403D01*
X71703127Y-101089694D01*
X78436931Y-101089694D01*
X78452989Y-101253468D01*
X78504932Y-101409615D01*
X78508581Y-101415640D01*
X78580175Y-101533854D01*
X78590179Y-101550373D01*
X78595070Y-101555438D01*
X78595071Y-101555439D01*
X78643597Y-101605689D01*
X78704491Y-101668747D01*
X78842189Y-101758854D01*
X78996428Y-101816215D01*
X79003409Y-101817146D01*
X79003411Y-101817147D01*
X79152561Y-101837048D01*
X79152565Y-101837048D01*
X79159542Y-101837979D01*
X79166553Y-101837341D01*
X79166557Y-101837341D01*
X79316403Y-101823704D01*
X79316404Y-101823704D01*
X79323424Y-101823065D01*
X79372128Y-101807240D01*
X79473230Y-101774390D01*
X79473233Y-101774389D01*
X79479929Y-101772213D01*
X79621279Y-101687951D01*
X79740449Y-101574468D01*
X79744350Y-101568597D01*
X79827614Y-101443275D01*
X79827615Y-101443273D01*
X79831515Y-101437403D01*
X79889951Y-101283568D01*
X79899919Y-101212639D01*
X79912302Y-101124534D01*
X79912303Y-101124527D01*
X79912853Y-101120610D01*
X79913052Y-101106361D01*
X79913086Y-101103962D01*
X79913086Y-101103956D01*
X79913141Y-101100000D01*
X79894798Y-100936466D01*
X79888998Y-100919809D01*
X79867369Y-100857700D01*
X79840680Y-100781060D01*
X79753476Y-100641505D01*
X79689759Y-100577342D01*
X79642486Y-100529737D01*
X79642482Y-100529734D01*
X79637522Y-100524739D01*
X79498580Y-100436563D01*
X79369788Y-100390702D01*
X79350189Y-100383723D01*
X79350187Y-100383722D01*
X79343555Y-100381361D01*
X79336569Y-100380528D01*
X79336565Y-100380527D01*
X79212231Y-100365702D01*
X79180153Y-100361877D01*
X79173150Y-100362613D01*
X79173149Y-100362613D01*
X79143760Y-100365702D01*
X79016495Y-100379078D01*
X79009827Y-100381348D01*
X78867382Y-100429840D01*
X78867379Y-100429841D01*
X78860715Y-100432110D01*
X78720555Y-100518337D01*
X78602982Y-100633473D01*
X78513838Y-100771797D01*
X78511427Y-100778420D01*
X78511426Y-100778423D01*
X78459966Y-100919809D01*
X78459965Y-100919814D01*
X78457556Y-100926432D01*
X78436931Y-101089694D01*
X71703127Y-101089694D01*
X71714951Y-101058568D01*
X71723925Y-100994715D01*
X71737302Y-100899534D01*
X71737303Y-100899527D01*
X71737853Y-100895610D01*
X71738141Y-100875000D01*
X71719798Y-100711466D01*
X71713998Y-100694809D01*
X71667998Y-100562717D01*
X71665680Y-100556060D01*
X71649232Y-100529737D01*
X71582209Y-100422479D01*
X71578476Y-100416505D01*
X71474548Y-100311849D01*
X71467486Y-100304737D01*
X71467482Y-100304734D01*
X71462522Y-100299739D01*
X71323580Y-100211563D01*
X71251170Y-100185779D01*
X71175189Y-100158723D01*
X71175187Y-100158722D01*
X71168555Y-100156361D01*
X71161569Y-100155528D01*
X71161565Y-100155527D01*
X71047071Y-100141875D01*
X71005153Y-100136877D01*
X70998150Y-100137613D01*
X70998149Y-100137613D01*
X70954935Y-100142155D01*
X70841495Y-100154078D01*
X70834827Y-100156348D01*
X70692382Y-100204840D01*
X70692379Y-100204841D01*
X70685715Y-100207110D01*
X70545555Y-100293337D01*
X70533914Y-100304737D01*
X70456520Y-100380527D01*
X70427982Y-100408473D01*
X70338838Y-100546797D01*
X70336427Y-100553420D01*
X70336426Y-100553423D01*
X70284966Y-100694809D01*
X70284965Y-100694814D01*
X70282556Y-100701432D01*
X70261931Y-100864694D01*
X61911698Y-100864694D01*
X61913074Y-100808365D01*
X61913074Y-100808361D01*
X61913156Y-100805000D01*
X61894852Y-100582361D01*
X61840431Y-100365702D01*
X61751354Y-100160840D01*
X61648995Y-100002617D01*
X61632822Y-99977617D01*
X61632820Y-99977614D01*
X61630014Y-99973277D01*
X61479670Y-99808051D01*
X61475619Y-99804852D01*
X61475615Y-99804848D01*
X61308414Y-99672800D01*
X61308410Y-99672798D01*
X61304359Y-99669598D01*
X61263053Y-99646796D01*
X61213084Y-99596364D01*
X61198312Y-99526921D01*
X61223428Y-99460516D01*
X61250780Y-99433909D01*
X61294603Y-99402650D01*
X61429860Y-99306173D01*
X61588096Y-99148489D01*
X61592380Y-99142528D01*
X61715435Y-98971277D01*
X61718453Y-98967077D01*
X61747147Y-98909020D01*
X61815136Y-98771453D01*
X61815137Y-98771451D01*
X61817430Y-98766811D01*
X61849900Y-98659940D01*
X61880865Y-98558023D01*
X61880865Y-98558021D01*
X61882370Y-98553069D01*
X61911529Y-98331590D01*
X61913156Y-98265000D01*
X61894852Y-98042361D01*
X61840431Y-97825702D01*
X61751354Y-97620840D01*
X61675675Y-97503858D01*
X61632822Y-97437617D01*
X61632820Y-97437614D01*
X61630014Y-97433277D01*
X61479670Y-97268051D01*
X61475619Y-97264852D01*
X61475615Y-97264848D01*
X61308414Y-97132800D01*
X61308410Y-97132798D01*
X61304359Y-97129598D01*
X61263053Y-97106796D01*
X61213084Y-97056364D01*
X61198312Y-96986921D01*
X61223428Y-96920516D01*
X61250780Y-96893909D01*
X61294603Y-96862650D01*
X61429860Y-96766173D01*
X61498795Y-96697479D01*
X61584435Y-96612137D01*
X61588096Y-96608489D01*
X61592380Y-96602528D01*
X61715435Y-96431277D01*
X61718453Y-96427077D01*
X61725966Y-96411877D01*
X61815136Y-96231453D01*
X61815137Y-96231451D01*
X61817430Y-96226811D01*
X61873694Y-96041625D01*
X61880865Y-96018023D01*
X61880865Y-96018021D01*
X61882370Y-96013069D01*
X61900249Y-95877268D01*
X61928972Y-95812341D01*
X61988237Y-95773250D01*
X62059229Y-95772405D01*
X62119407Y-95810076D01*
X62144728Y-95853941D01*
X62154932Y-95884615D01*
X62158581Y-95890640D01*
X62235728Y-96018023D01*
X62240179Y-96025373D01*
X62354491Y-96143747D01*
X62492189Y-96233854D01*
X62646428Y-96291215D01*
X62653409Y-96292146D01*
X62653411Y-96292147D01*
X62802561Y-96312048D01*
X62802565Y-96312048D01*
X62809542Y-96312979D01*
X62816553Y-96312341D01*
X62816557Y-96312341D01*
X62966403Y-96298704D01*
X62966404Y-96298704D01*
X62973424Y-96298065D01*
X63012944Y-96285224D01*
X63123230Y-96249390D01*
X63123233Y-96249389D01*
X63129929Y-96247213D01*
X63271279Y-96162951D01*
X63390449Y-96049468D01*
X63394350Y-96043597D01*
X63477614Y-95918275D01*
X63477615Y-95918273D01*
X63481515Y-95912403D01*
X63539951Y-95758568D01*
X63560149Y-95614851D01*
X63562302Y-95599534D01*
X63562303Y-95599527D01*
X63562853Y-95595610D01*
X63563141Y-95575000D01*
X63544798Y-95411466D01*
X63490680Y-95256060D01*
X63481988Y-95242149D01*
X63465144Y-95215194D01*
X69186931Y-95215194D01*
X69202989Y-95378968D01*
X69254932Y-95535115D01*
X69258581Y-95541140D01*
X69306495Y-95620254D01*
X69340179Y-95675873D01*
X69454491Y-95794247D01*
X69592189Y-95884354D01*
X69746428Y-95941715D01*
X69753409Y-95942646D01*
X69753411Y-95942647D01*
X69902561Y-95962548D01*
X69902565Y-95962548D01*
X69909542Y-95963479D01*
X69916553Y-95962841D01*
X69916557Y-95962841D01*
X70066403Y-95949204D01*
X70066404Y-95949204D01*
X70073424Y-95948565D01*
X70096455Y-95941082D01*
X70223230Y-95899890D01*
X70223233Y-95899889D01*
X70229929Y-95897713D01*
X70371279Y-95813451D01*
X70490449Y-95699968D01*
X70506458Y-95675873D01*
X70577614Y-95568775D01*
X70577615Y-95568773D01*
X70581515Y-95562903D01*
X70639951Y-95409068D01*
X70657289Y-95285702D01*
X70662302Y-95250034D01*
X70662303Y-95250027D01*
X70662853Y-95246110D01*
X70663141Y-95225500D01*
X70645104Y-95064694D01*
X75411931Y-95064694D01*
X75427989Y-95228468D01*
X75479932Y-95384615D01*
X75483581Y-95390640D01*
X75543507Y-95489588D01*
X75565179Y-95525373D01*
X75570070Y-95530438D01*
X75570071Y-95530439D01*
X75590848Y-95551954D01*
X75623780Y-95614851D01*
X75617480Y-95685567D01*
X75609330Y-95702481D01*
X75568777Y-95772721D01*
X75565473Y-95778444D01*
X75506458Y-95960072D01*
X75505768Y-95966633D01*
X75505768Y-95966635D01*
X75493174Y-96086466D01*
X75486496Y-96150000D01*
X75487186Y-96156565D01*
X75503626Y-96312979D01*
X75506458Y-96339928D01*
X75565473Y-96521556D01*
X75568776Y-96527278D01*
X75568777Y-96527279D01*
X75587446Y-96559615D01*
X75660960Y-96686944D01*
X75665378Y-96691851D01*
X75665379Y-96691852D01*
X75784325Y-96823955D01*
X75788747Y-96828866D01*
X75844320Y-96869242D01*
X75848171Y-96872040D01*
X75891524Y-96928263D01*
X75897599Y-96998999D01*
X75864467Y-97061791D01*
X75840130Y-97081294D01*
X75826560Y-97089642D01*
X75826556Y-97089645D01*
X75820555Y-97093337D01*
X75702982Y-97208473D01*
X75613838Y-97346797D01*
X75611427Y-97353420D01*
X75611426Y-97353423D01*
X75559966Y-97494809D01*
X75559965Y-97494814D01*
X75557556Y-97501432D01*
X75536931Y-97664694D01*
X75552989Y-97828468D01*
X75604932Y-97984615D01*
X75690179Y-98125373D01*
X75804491Y-98243747D01*
X75942189Y-98333854D01*
X76096428Y-98391215D01*
X76103409Y-98392146D01*
X76103411Y-98392147D01*
X76252561Y-98412048D01*
X76252565Y-98412048D01*
X76259542Y-98412979D01*
X76266553Y-98412341D01*
X76266557Y-98412341D01*
X76416403Y-98398704D01*
X76416404Y-98398704D01*
X76423424Y-98398065D01*
X76452062Y-98388760D01*
X76573230Y-98349390D01*
X76573233Y-98349389D01*
X76579929Y-98347213D01*
X76721279Y-98262951D01*
X76840449Y-98149468D01*
X76856458Y-98125373D01*
X76927614Y-98018275D01*
X76927615Y-98018273D01*
X76931515Y-98012403D01*
X76989951Y-97858568D01*
X77006396Y-97741555D01*
X77012302Y-97699534D01*
X77012303Y-97699527D01*
X77012853Y-97695610D01*
X77013141Y-97675000D01*
X76994798Y-97511466D01*
X76988998Y-97494809D01*
X76942998Y-97362717D01*
X76940680Y-97356060D01*
X76926626Y-97333568D01*
X76857209Y-97222479D01*
X76853476Y-97216505D01*
X76793550Y-97156160D01*
X76784633Y-97139694D01*
X80786931Y-97139694D01*
X80802989Y-97303468D01*
X80854932Y-97459615D01*
X80858581Y-97465640D01*
X80916004Y-97560455D01*
X80940179Y-97600373D01*
X81054491Y-97718747D01*
X81192189Y-97808854D01*
X81346428Y-97866215D01*
X81353409Y-97867146D01*
X81353411Y-97867147D01*
X81502561Y-97887048D01*
X81502565Y-97887048D01*
X81509542Y-97887979D01*
X81516553Y-97887341D01*
X81516557Y-97887341D01*
X81666403Y-97873704D01*
X81666404Y-97873704D01*
X81673424Y-97873065D01*
X81718041Y-97858568D01*
X81823230Y-97824390D01*
X81823233Y-97824389D01*
X81829929Y-97822213D01*
X81971279Y-97737951D01*
X82090449Y-97624468D01*
X82094350Y-97618597D01*
X82177614Y-97493275D01*
X82177615Y-97493273D01*
X82181515Y-97487403D01*
X82239951Y-97333568D01*
X82252309Y-97245635D01*
X82262302Y-97174534D01*
X82262303Y-97174527D01*
X82262853Y-97170610D01*
X82263141Y-97150000D01*
X82244798Y-96986466D01*
X82238998Y-96969809D01*
X82203067Y-96866632D01*
X82190680Y-96831060D01*
X82186241Y-96823955D01*
X82107209Y-96697479D01*
X82103476Y-96691505D01*
X82024660Y-96612137D01*
X81992486Y-96579737D01*
X81992482Y-96579734D01*
X81987522Y-96574739D01*
X81848580Y-96486563D01*
X81799447Y-96469068D01*
X81700189Y-96433723D01*
X81700187Y-96433722D01*
X81693555Y-96431361D01*
X81686569Y-96430528D01*
X81686565Y-96430527D01*
X81572071Y-96416875D01*
X81530153Y-96411877D01*
X81523150Y-96412613D01*
X81523149Y-96412613D01*
X81479935Y-96417155D01*
X81366495Y-96429078D01*
X81359827Y-96431348D01*
X81217382Y-96479840D01*
X81217379Y-96479841D01*
X81210715Y-96482110D01*
X81070555Y-96568337D01*
X80952982Y-96683473D01*
X80863838Y-96821797D01*
X80861427Y-96828420D01*
X80861426Y-96828423D01*
X80809966Y-96969809D01*
X80809965Y-96969814D01*
X80807556Y-96976432D01*
X80786931Y-97139694D01*
X76784633Y-97139694D01*
X76759743Y-97093730D01*
X76765054Y-97022933D01*
X76807799Y-96966245D01*
X76831706Y-96952270D01*
X76850717Y-96943806D01*
X76850725Y-96943801D01*
X76856752Y-96941118D01*
X76863640Y-96936114D01*
X76959273Y-96866632D01*
X77011253Y-96828866D01*
X77015675Y-96823955D01*
X77134621Y-96691852D01*
X77134622Y-96691851D01*
X77139040Y-96686944D01*
X77212554Y-96559615D01*
X77231223Y-96527279D01*
X77231224Y-96527278D01*
X77234527Y-96521556D01*
X77293542Y-96339928D01*
X77296375Y-96312979D01*
X77304077Y-96239694D01*
X78336931Y-96239694D01*
X78352989Y-96403468D01*
X78404932Y-96559615D01*
X78414092Y-96574739D01*
X78451882Y-96637137D01*
X78490179Y-96700373D01*
X78604491Y-96818747D01*
X78742189Y-96908854D01*
X78896428Y-96966215D01*
X78903409Y-96967146D01*
X78903411Y-96967147D01*
X79052561Y-96987048D01*
X79052565Y-96987048D01*
X79059542Y-96987979D01*
X79066553Y-96987341D01*
X79066557Y-96987341D01*
X79216403Y-96973704D01*
X79216404Y-96973704D01*
X79223424Y-96973065D01*
X79260205Y-96961114D01*
X79373230Y-96924390D01*
X79373233Y-96924389D01*
X79379929Y-96922213D01*
X79521279Y-96837951D01*
X79640449Y-96724468D01*
X79653092Y-96705439D01*
X79727614Y-96593275D01*
X79727615Y-96593273D01*
X79731515Y-96587403D01*
X79789951Y-96433568D01*
X79799023Y-96369020D01*
X79812302Y-96274534D01*
X79812303Y-96274527D01*
X79812853Y-96270610D01*
X79813141Y-96250000D01*
X79794798Y-96086466D01*
X79779783Y-96043349D01*
X79776269Y-95972440D01*
X79780986Y-95957168D01*
X79787451Y-95940150D01*
X79787452Y-95940148D01*
X79789951Y-95933568D01*
X79795984Y-95890640D01*
X79812302Y-95774534D01*
X79812303Y-95774527D01*
X79812853Y-95770610D01*
X79813141Y-95750000D01*
X79794798Y-95586466D01*
X79775241Y-95530306D01*
X79771727Y-95459397D01*
X79776444Y-95444126D01*
X79787449Y-95415155D01*
X79787449Y-95415154D01*
X79789951Y-95408568D01*
X79803705Y-95310702D01*
X79812302Y-95249534D01*
X79812303Y-95249527D01*
X79812853Y-95245610D01*
X79813141Y-95225000D01*
X79794798Y-95061466D01*
X79788998Y-95044809D01*
X79743604Y-94914457D01*
X79740680Y-94906060D01*
X79734230Y-94895737D01*
X79657209Y-94772479D01*
X79653476Y-94766505D01*
X79551628Y-94663944D01*
X79517821Y-94601514D01*
X79523133Y-94530716D01*
X79565877Y-94474029D01*
X79587402Y-94461346D01*
X79592429Y-94459713D01*
X79733779Y-94375451D01*
X79852949Y-94261968D01*
X79865592Y-94242939D01*
X79940114Y-94130775D01*
X79940115Y-94130773D01*
X79944015Y-94124903D01*
X79948944Y-94111927D01*
X79991834Y-94055350D01*
X80005125Y-94047541D01*
X80004929Y-94047213D01*
X80095410Y-93993275D01*
X80146279Y-93962951D01*
X80265449Y-93849468D01*
X80269350Y-93843597D01*
X80352614Y-93718275D01*
X80352615Y-93718273D01*
X80356515Y-93712403D01*
X80414951Y-93558568D01*
X80424647Y-93489579D01*
X80437302Y-93399534D01*
X80437303Y-93399527D01*
X80437853Y-93395610D01*
X80438141Y-93375000D01*
X80419798Y-93211466D01*
X80412159Y-93189528D01*
X80383358Y-93106825D01*
X80365680Y-93056060D01*
X80354311Y-93037865D01*
X80282209Y-92922479D01*
X80278476Y-92916505D01*
X80220499Y-92858122D01*
X80167486Y-92804737D01*
X80167482Y-92804734D01*
X80162522Y-92799739D01*
X80023580Y-92711563D01*
X79943487Y-92683043D01*
X79875189Y-92658723D01*
X79875187Y-92658722D01*
X79868555Y-92656361D01*
X79861569Y-92655528D01*
X79861565Y-92655527D01*
X79747071Y-92641875D01*
X79705153Y-92636877D01*
X79698150Y-92637613D01*
X79698149Y-92637613D01*
X79667542Y-92640830D01*
X79541495Y-92654078D01*
X79534827Y-92656348D01*
X79392382Y-92704840D01*
X79392379Y-92704841D01*
X79385715Y-92707110D01*
X79245555Y-92793337D01*
X79233914Y-92804737D01*
X79140656Y-92896062D01*
X79127982Y-92908473D01*
X79038838Y-93046797D01*
X79036427Y-93053420D01*
X79033296Y-93059728D01*
X79031161Y-93058668D01*
X78995692Y-93106825D01*
X78976393Y-93118528D01*
X78973215Y-93119610D01*
X78884401Y-93174249D01*
X78846004Y-93197871D01*
X78833055Y-93205837D01*
X78800821Y-93237403D01*
X78726898Y-93309794D01*
X78715482Y-93320973D01*
X78626338Y-93459297D01*
X78623927Y-93465920D01*
X78623926Y-93465923D01*
X78572466Y-93607309D01*
X78572465Y-93607314D01*
X78570056Y-93613932D01*
X78549431Y-93777194D01*
X78565489Y-93940968D01*
X78617432Y-94097115D01*
X78637817Y-94130775D01*
X78691096Y-94218747D01*
X78702679Y-94237873D01*
X78707570Y-94242938D01*
X78707571Y-94242939D01*
X78811127Y-94350175D01*
X78844059Y-94413072D01*
X78837759Y-94483789D01*
X78794227Y-94539873D01*
X78773232Y-94550722D01*
X78773758Y-94551840D01*
X78767383Y-94554840D01*
X78760715Y-94557110D01*
X78620555Y-94643337D01*
X78560109Y-94702530D01*
X78508519Y-94753051D01*
X78502982Y-94758473D01*
X78413838Y-94896797D01*
X78411427Y-94903420D01*
X78411426Y-94903423D01*
X78359966Y-95044809D01*
X78359965Y-95044814D01*
X78357556Y-95051432D01*
X78336931Y-95214694D01*
X78352989Y-95378468D01*
X78374831Y-95444126D01*
X78375727Y-95446820D01*
X78378250Y-95517771D01*
X78374571Y-95529683D01*
X78357556Y-95576432D01*
X78336931Y-95739694D01*
X78352989Y-95903468D01*
X78371382Y-95958759D01*
X78373905Y-96029709D01*
X78370226Y-96041620D01*
X78357556Y-96076432D01*
X78336931Y-96239694D01*
X77304077Y-96239694D01*
X77312814Y-96156565D01*
X77313504Y-96150000D01*
X77306826Y-96086466D01*
X77294232Y-95966635D01*
X77294232Y-95966633D01*
X77293542Y-95960072D01*
X77234527Y-95778444D01*
X77231041Y-95772405D01*
X77171830Y-95669850D01*
X77139040Y-95613056D01*
X77112358Y-95583422D01*
X77015675Y-95476045D01*
X77015674Y-95476044D01*
X77011253Y-95471134D01*
X76995099Y-95459397D01*
X76958265Y-95432636D01*
X76910546Y-95397966D01*
X76867193Y-95341745D01*
X76862575Y-95264823D01*
X76864951Y-95258568D01*
X76866144Y-95250084D01*
X76886570Y-95104740D01*
X76887853Y-95095610D01*
X76888052Y-95081375D01*
X76888086Y-95078962D01*
X76888086Y-95078956D01*
X76888141Y-95075000D01*
X76869798Y-94911466D01*
X76866009Y-94900584D01*
X76817998Y-94762717D01*
X76815680Y-94756060D01*
X76811799Y-94749848D01*
X76732209Y-94622479D01*
X76728476Y-94616505D01*
X76664261Y-94551840D01*
X76617486Y-94504737D01*
X76617482Y-94504734D01*
X76612522Y-94499739D01*
X76473580Y-94411563D01*
X76420975Y-94392831D01*
X76325189Y-94358723D01*
X76325187Y-94358722D01*
X76318555Y-94356361D01*
X76311569Y-94355528D01*
X76311565Y-94355527D01*
X76197071Y-94341875D01*
X76155153Y-94336877D01*
X76148150Y-94337613D01*
X76148149Y-94337613D01*
X76104935Y-94342155D01*
X75991495Y-94354078D01*
X75984827Y-94356348D01*
X75842382Y-94404840D01*
X75842379Y-94404841D01*
X75835715Y-94407110D01*
X75771925Y-94446354D01*
X75708920Y-94485115D01*
X75695555Y-94493337D01*
X75662841Y-94525373D01*
X75587031Y-94599612D01*
X75577982Y-94608473D01*
X75488838Y-94746797D01*
X75486427Y-94753420D01*
X75486426Y-94753423D01*
X75434966Y-94894809D01*
X75434965Y-94894814D01*
X75432556Y-94901432D01*
X75411931Y-95064694D01*
X70645104Y-95064694D01*
X70644798Y-95061966D01*
X70638998Y-95045309D01*
X70596577Y-94923495D01*
X70590680Y-94906560D01*
X70586634Y-94900084D01*
X70507209Y-94772979D01*
X70503476Y-94767005D01*
X70400146Y-94662951D01*
X70392486Y-94655237D01*
X70392482Y-94655234D01*
X70387522Y-94650239D01*
X70248580Y-94562063D01*
X70140710Y-94523652D01*
X70100189Y-94509223D01*
X70100187Y-94509222D01*
X70093555Y-94506861D01*
X70086569Y-94506028D01*
X70086565Y-94506027D01*
X69961711Y-94491140D01*
X69930153Y-94487377D01*
X69923150Y-94488113D01*
X69923149Y-94488113D01*
X69894350Y-94491140D01*
X69766495Y-94504578D01*
X69759827Y-94506848D01*
X69617382Y-94555340D01*
X69617379Y-94555341D01*
X69610715Y-94557610D01*
X69551372Y-94594118D01*
X69491511Y-94630945D01*
X69470555Y-94643837D01*
X69447356Y-94666555D01*
X69365416Y-94746797D01*
X69352982Y-94758973D01*
X69263838Y-94897297D01*
X69261427Y-94903920D01*
X69261426Y-94903923D01*
X69209966Y-95045309D01*
X69209965Y-95045314D01*
X69207556Y-95051932D01*
X69186931Y-95215194D01*
X63465144Y-95215194D01*
X63407209Y-95122479D01*
X63403476Y-95116505D01*
X63398512Y-95111507D01*
X63394136Y-95105985D01*
X63395707Y-95104740D01*
X63366590Y-95050984D01*
X63371896Y-94980186D01*
X63414635Y-94923495D01*
X63481239Y-94898910D01*
X63506465Y-94899726D01*
X63545863Y-94904982D01*
X63609542Y-94913479D01*
X63616553Y-94912841D01*
X63616557Y-94912841D01*
X63766403Y-94899204D01*
X63766404Y-94899204D01*
X63773424Y-94898565D01*
X63881647Y-94863401D01*
X63923230Y-94849890D01*
X63923233Y-94849889D01*
X63929929Y-94847713D01*
X64071279Y-94763451D01*
X64190449Y-94649968D01*
X64194350Y-94644097D01*
X64277614Y-94518775D01*
X64277615Y-94518773D01*
X64281515Y-94512903D01*
X64339951Y-94359068D01*
X64348507Y-94298189D01*
X64362302Y-94200034D01*
X64362303Y-94200027D01*
X64362853Y-94196110D01*
X64363141Y-94175500D01*
X64344798Y-94011966D01*
X64341304Y-94001932D01*
X64292997Y-93863213D01*
X64292996Y-93863212D01*
X64290680Y-93856560D01*
X64289603Y-93854836D01*
X64278527Y-93786717D01*
X64306828Y-93721605D01*
X64365838Y-93682130D01*
X64436823Y-93680825D01*
X64472544Y-93696920D01*
X64567189Y-93758854D01*
X64721428Y-93816215D01*
X64728409Y-93817146D01*
X64728411Y-93817147D01*
X64877561Y-93837048D01*
X64877565Y-93837048D01*
X64884542Y-93837979D01*
X64891553Y-93837341D01*
X64891557Y-93837341D01*
X65041403Y-93823704D01*
X65041404Y-93823704D01*
X65048424Y-93823065D01*
X65108737Y-93803468D01*
X65198230Y-93774390D01*
X65198233Y-93774389D01*
X65204929Y-93772213D01*
X65346279Y-93687951D01*
X65465449Y-93574468D01*
X65469350Y-93568597D01*
X65552614Y-93443275D01*
X65552615Y-93443273D01*
X65556515Y-93437403D01*
X65614951Y-93283568D01*
X65627474Y-93194459D01*
X65637302Y-93124534D01*
X65637303Y-93124527D01*
X65637853Y-93120610D01*
X65638046Y-93106825D01*
X65638086Y-93103962D01*
X65638086Y-93103956D01*
X65638141Y-93100000D01*
X65619798Y-92936466D01*
X65615408Y-92923858D01*
X65569955Y-92793337D01*
X65565680Y-92781060D01*
X65545561Y-92748862D01*
X65482209Y-92647479D01*
X65478476Y-92641505D01*
X65393575Y-92556009D01*
X65367486Y-92529737D01*
X65367482Y-92529734D01*
X65362522Y-92524739D01*
X65223580Y-92436563D01*
X65170567Y-92417686D01*
X65075189Y-92383723D01*
X65075187Y-92383722D01*
X65068555Y-92381361D01*
X65061569Y-92380528D01*
X65061565Y-92380527D01*
X64936518Y-92365617D01*
X64905153Y-92361877D01*
X64898150Y-92362613D01*
X64898149Y-92362613D01*
X64869569Y-92365617D01*
X64741495Y-92379078D01*
X64734827Y-92381348D01*
X64592382Y-92429840D01*
X64592379Y-92429841D01*
X64585715Y-92432110D01*
X64445555Y-92518337D01*
X64390963Y-92571797D01*
X64342730Y-92619031D01*
X64327982Y-92633473D01*
X64238838Y-92771797D01*
X64236427Y-92778420D01*
X64236426Y-92778423D01*
X64184966Y-92919809D01*
X64184965Y-92919814D01*
X64182556Y-92926432D01*
X64161931Y-93089694D01*
X64177989Y-93253468D01*
X64229932Y-93409615D01*
X64233579Y-93415637D01*
X64235295Y-93419351D01*
X64245710Y-93489579D01*
X64216502Y-93554290D01*
X64156946Y-93592937D01*
X64085950Y-93593251D01*
X64053399Y-93578584D01*
X63948580Y-93512063D01*
X63890987Y-93491555D01*
X63800189Y-93459223D01*
X63800187Y-93459222D01*
X63793555Y-93456861D01*
X63786569Y-93456028D01*
X63786565Y-93456027D01*
X63672071Y-93442375D01*
X63630153Y-93437377D01*
X63623150Y-93438113D01*
X63623149Y-93438113D01*
X63579935Y-93442655D01*
X63466495Y-93454578D01*
X63459827Y-93456848D01*
X63317382Y-93505340D01*
X63317379Y-93505341D01*
X63310715Y-93507610D01*
X63170555Y-93593837D01*
X63126429Y-93637048D01*
X63070769Y-93691555D01*
X63052982Y-93708973D01*
X62963838Y-93847297D01*
X62961427Y-93853920D01*
X62961426Y-93853923D01*
X62909966Y-93995309D01*
X62909965Y-93995314D01*
X62907556Y-94001932D01*
X62886931Y-94165194D01*
X62902989Y-94328968D01*
X62954932Y-94485115D01*
X62970345Y-94510565D01*
X63035290Y-94617800D01*
X63040179Y-94625873D01*
X63045072Y-94630940D01*
X63045076Y-94630945D01*
X63051988Y-94638103D01*
X63084920Y-94701000D01*
X63078618Y-94771716D01*
X63035085Y-94827800D01*
X62968142Y-94851445D01*
X62946431Y-94850742D01*
X62939286Y-94849890D01*
X62830153Y-94836877D01*
X62823150Y-94837613D01*
X62823149Y-94837613D01*
X62779935Y-94842155D01*
X62666495Y-94854078D01*
X62659827Y-94856348D01*
X62517382Y-94904840D01*
X62517379Y-94904841D01*
X62510715Y-94907110D01*
X62492258Y-94918465D01*
X62391932Y-94980186D01*
X62370555Y-94993337D01*
X62353181Y-95010351D01*
X62280654Y-95081375D01*
X62252982Y-95108473D01*
X62163838Y-95246797D01*
X62161427Y-95253420D01*
X62161426Y-95253423D01*
X62129280Y-95341745D01*
X62107556Y-95401432D01*
X62104816Y-95400435D01*
X62075886Y-95450618D01*
X62012803Y-95483191D01*
X61942123Y-95476487D01*
X61886288Y-95432636D01*
X61866674Y-95390179D01*
X61854508Y-95341745D01*
X61840431Y-95285702D01*
X61751354Y-95080840D01*
X61698887Y-94999739D01*
X61632822Y-94897617D01*
X61632820Y-94897614D01*
X61630014Y-94893277D01*
X61479670Y-94728051D01*
X61475619Y-94724852D01*
X61475615Y-94724848D01*
X61308414Y-94592800D01*
X61308410Y-94592798D01*
X61304359Y-94589598D01*
X61108789Y-94481638D01*
X61103920Y-94479914D01*
X61103916Y-94479912D01*
X60903087Y-94408795D01*
X60903083Y-94408794D01*
X60898212Y-94407069D01*
X60893119Y-94406162D01*
X60893116Y-94406161D01*
X60683373Y-94368800D01*
X60683367Y-94368799D01*
X60678284Y-94367894D01*
X60604452Y-94366992D01*
X60460081Y-94365228D01*
X60460079Y-94365228D01*
X60454911Y-94365165D01*
X60234091Y-94398955D01*
X60021756Y-94468357D01*
X59991443Y-94484137D01*
X59843213Y-94561301D01*
X59823607Y-94571507D01*
X59819474Y-94574610D01*
X59819471Y-94574612D01*
X59651138Y-94701000D01*
X59644965Y-94705635D01*
X59605630Y-94746797D01*
X59505626Y-94851445D01*
X59490629Y-94867138D01*
X59487715Y-94871410D01*
X59487714Y-94871411D01*
X59459196Y-94913217D01*
X59364743Y-95051680D01*
X59317878Y-95152643D01*
X59271054Y-95206010D01*
X59202811Y-95225591D01*
X59134815Y-95205168D01*
X59088655Y-95151226D01*
X59077590Y-95099521D01*
X59078852Y-92889694D01*
X60311931Y-92889694D01*
X60327989Y-93053468D01*
X60379932Y-93209615D01*
X60383581Y-93215640D01*
X60461454Y-93344222D01*
X60465179Y-93350373D01*
X60470070Y-93355438D01*
X60470071Y-93355439D01*
X60510064Y-93396853D01*
X60579491Y-93468747D01*
X60717189Y-93558854D01*
X60871428Y-93616215D01*
X60878409Y-93617146D01*
X60878411Y-93617147D01*
X61027561Y-93637048D01*
X61027565Y-93637048D01*
X61034542Y-93637979D01*
X61041553Y-93637341D01*
X61041557Y-93637341D01*
X61191403Y-93623704D01*
X61191404Y-93623704D01*
X61198424Y-93623065D01*
X61288378Y-93593837D01*
X61348230Y-93574390D01*
X61348233Y-93574389D01*
X61354929Y-93572213D01*
X61496279Y-93487951D01*
X61615449Y-93374468D01*
X61631458Y-93350373D01*
X61702614Y-93243275D01*
X61702615Y-93243273D01*
X61706515Y-93237403D01*
X61764951Y-93083568D01*
X61785625Y-92936466D01*
X61787302Y-92924534D01*
X61787303Y-92924527D01*
X61787853Y-92920610D01*
X61788141Y-92900000D01*
X61769798Y-92736466D01*
X61763998Y-92719809D01*
X61741612Y-92655527D01*
X61715680Y-92581060D01*
X61700027Y-92556009D01*
X61632209Y-92447479D01*
X61628476Y-92441505D01*
X61546534Y-92358989D01*
X61517486Y-92329737D01*
X61517482Y-92329734D01*
X61512522Y-92324739D01*
X61373580Y-92236563D01*
X61293616Y-92208089D01*
X61225189Y-92183723D01*
X61225187Y-92183722D01*
X61218555Y-92181361D01*
X61211569Y-92180528D01*
X61211565Y-92180527D01*
X61097071Y-92166875D01*
X61055153Y-92161877D01*
X61048150Y-92162613D01*
X61048149Y-92162613D01*
X61004935Y-92167155D01*
X60891495Y-92179078D01*
X60884827Y-92181348D01*
X60742382Y-92229840D01*
X60742379Y-92229841D01*
X60735715Y-92232110D01*
X60638858Y-92291697D01*
X60601750Y-92314526D01*
X60595555Y-92318337D01*
X60477982Y-92433473D01*
X60388838Y-92571797D01*
X60386427Y-92578420D01*
X60386426Y-92578423D01*
X60334966Y-92719809D01*
X60334965Y-92719814D01*
X60332556Y-92726432D01*
X60311931Y-92889694D01*
X59078852Y-92889694D01*
X59079339Y-92036638D01*
X66968012Y-92036638D01*
X66980575Y-92228304D01*
X66982376Y-92239674D01*
X67029657Y-92425843D01*
X67033498Y-92436690D01*
X67113916Y-92611130D01*
X67119664Y-92621086D01*
X67125788Y-92629751D01*
X67138237Y-92639615D01*
X67143802Y-92640166D01*
X67209619Y-92666788D01*
X67250594Y-92724767D01*
X67253211Y-92733424D01*
X67295396Y-92893606D01*
X67298106Y-92899161D01*
X67298108Y-92899167D01*
X67365767Y-93037865D01*
X67368479Y-93043424D01*
X67469387Y-93176105D01*
X67474016Y-93180200D01*
X67474018Y-93180202D01*
X67584829Y-93278226D01*
X67622599Y-93338342D01*
X67621871Y-93409335D01*
X67582877Y-93468665D01*
X67567368Y-93479917D01*
X67551559Y-93489643D01*
X67551557Y-93489644D01*
X67545555Y-93493337D01*
X67533298Y-93505340D01*
X67458504Y-93578584D01*
X67427982Y-93608473D01*
X67338838Y-93746797D01*
X67336427Y-93753420D01*
X67336426Y-93753423D01*
X67284966Y-93894809D01*
X67284965Y-93894814D01*
X67282556Y-93901432D01*
X67261931Y-94064694D01*
X67277989Y-94228468D01*
X67329932Y-94384615D01*
X67334908Y-94392831D01*
X67403968Y-94506861D01*
X67415179Y-94525373D01*
X67420070Y-94530438D01*
X67420071Y-94530439D01*
X67429181Y-94539873D01*
X67529491Y-94643747D01*
X67667189Y-94733854D01*
X67821428Y-94791215D01*
X67828409Y-94792146D01*
X67828411Y-94792147D01*
X67977561Y-94812048D01*
X67977565Y-94812048D01*
X67984542Y-94812979D01*
X67991553Y-94812341D01*
X67991557Y-94812341D01*
X68141403Y-94798704D01*
X68141404Y-94798704D01*
X68148424Y-94798065D01*
X68177062Y-94788760D01*
X68298230Y-94749390D01*
X68298233Y-94749389D01*
X68304929Y-94747213D01*
X68446279Y-94662951D01*
X68565449Y-94549468D01*
X68582601Y-94523652D01*
X68652614Y-94418275D01*
X68652615Y-94418273D01*
X68656515Y-94412403D01*
X68714951Y-94258568D01*
X68723729Y-94196110D01*
X68737302Y-94099534D01*
X68737303Y-94099527D01*
X68737853Y-94095610D01*
X68738141Y-94075000D01*
X68719798Y-93911466D01*
X68713998Y-93894809D01*
X68675482Y-93784207D01*
X68665680Y-93756060D01*
X68592967Y-93639694D01*
X70586931Y-93639694D01*
X70602989Y-93803468D01*
X70654932Y-93959615D01*
X70658581Y-93965640D01*
X70734896Y-94091649D01*
X70740179Y-94100373D01*
X70745070Y-94105438D01*
X70745071Y-94105439D01*
X70757505Y-94118315D01*
X70854491Y-94218747D01*
X70992189Y-94308854D01*
X71146428Y-94366215D01*
X71153409Y-94367146D01*
X71153411Y-94367147D01*
X71302561Y-94387048D01*
X71302565Y-94387048D01*
X71309542Y-94387979D01*
X71316553Y-94387341D01*
X71316557Y-94387341D01*
X71466403Y-94373704D01*
X71466404Y-94373704D01*
X71473424Y-94373065D01*
X71527400Y-94355527D01*
X71623230Y-94324390D01*
X71623233Y-94324389D01*
X71629929Y-94322213D01*
X71771279Y-94237951D01*
X71890449Y-94124468D01*
X71894537Y-94118315D01*
X71977614Y-93993275D01*
X71977615Y-93993273D01*
X71981515Y-93987403D01*
X72039951Y-93833568D01*
X72056629Y-93714896D01*
X72062302Y-93674534D01*
X72062303Y-93674527D01*
X72062853Y-93670610D01*
X72063141Y-93650000D01*
X72044798Y-93486466D01*
X72037904Y-93466669D01*
X72034390Y-93395762D01*
X72069770Y-93334209D01*
X72132812Y-93301556D01*
X72188871Y-93303358D01*
X72195787Y-93305173D01*
X72195793Y-93305174D01*
X72203139Y-93307101D01*
X72290586Y-93308474D01*
X72367003Y-93309675D01*
X72367006Y-93309675D01*
X72374602Y-93309794D01*
X72382006Y-93308098D01*
X72382008Y-93308098D01*
X72476086Y-93286551D01*
X72541759Y-93271510D01*
X72694958Y-93194459D01*
X72700729Y-93189530D01*
X72700732Y-93189528D01*
X72819578Y-93088023D01*
X72825355Y-93083089D01*
X72925424Y-92943830D01*
X72989385Y-92784720D01*
X72992963Y-92759582D01*
X73012966Y-92619031D01*
X73012966Y-92619027D01*
X73013547Y-92614947D01*
X73013704Y-92600000D01*
X73012218Y-92587717D01*
X72993815Y-92435647D01*
X73005488Y-92365617D01*
X73045362Y-92319931D01*
X73044958Y-92319459D01*
X73048163Y-92316722D01*
X73048164Y-92316721D01*
X73055584Y-92310384D01*
X73169578Y-92213023D01*
X73175355Y-92208089D01*
X73275424Y-92068830D01*
X73288365Y-92036638D01*
X75608012Y-92036638D01*
X75620575Y-92228304D01*
X75622376Y-92239674D01*
X75669657Y-92425843D01*
X75673498Y-92436690D01*
X75753916Y-92611130D01*
X75759664Y-92621086D01*
X75765788Y-92629751D01*
X75778238Y-92639615D01*
X75790499Y-92640830D01*
X75856315Y-92667453D01*
X75897290Y-92725432D01*
X75902872Y-92748862D01*
X75905215Y-92765713D01*
X75958324Y-92918519D01*
X76040225Y-93058027D01*
X76044340Y-93062651D01*
X76044342Y-93062654D01*
X76066918Y-93088023D01*
X76147768Y-93178877D01*
X76182080Y-93204812D01*
X76271879Y-93272689D01*
X76271882Y-93272691D01*
X76276821Y-93276424D01*
X76282394Y-93279122D01*
X76282397Y-93279124D01*
X76416854Y-93344222D01*
X76422425Y-93346919D01*
X76428413Y-93348477D01*
X76572991Y-93386095D01*
X76572994Y-93386095D01*
X76578984Y-93387654D01*
X76653005Y-93391966D01*
X76671528Y-93394434D01*
X76686931Y-93397664D01*
X76699467Y-93398319D01*
X76704318Y-93397821D01*
X76709040Y-93397703D01*
X76718424Y-93397818D01*
X76723163Y-93398053D01*
X76727985Y-93398667D01*
X76740533Y-93398319D01*
X76761765Y-93394406D01*
X76777263Y-93392533D01*
X76861016Y-93387654D01*
X76867006Y-93386095D01*
X76867009Y-93386095D01*
X77011587Y-93348477D01*
X77017575Y-93346919D01*
X77023146Y-93344222D01*
X77157603Y-93279124D01*
X77157606Y-93279122D01*
X77163179Y-93276424D01*
X77168118Y-93272691D01*
X77168121Y-93272689D01*
X77257920Y-93204812D01*
X77292232Y-93178877D01*
X77373082Y-93088023D01*
X77395658Y-93062654D01*
X77395660Y-93062651D01*
X77399775Y-93058027D01*
X77481676Y-92918519D01*
X77534785Y-92765713D01*
X77537282Y-92747758D01*
X77566471Y-92683043D01*
X77626017Y-92644381D01*
X77653092Y-92639431D01*
X77661188Y-92638852D01*
X77669195Y-92632858D01*
X77733726Y-92517628D01*
X77738400Y-92507131D01*
X77800144Y-92325240D01*
X77802832Y-92314045D01*
X77830689Y-92121911D01*
X77831319Y-92114528D01*
X77832650Y-92063704D01*
X77832407Y-92056305D01*
X77814643Y-91862975D01*
X77812545Y-91851654D01*
X77760408Y-91666791D01*
X77756283Y-91656044D01*
X77672163Y-91485465D01*
X77663422Y-91478904D01*
X77659070Y-91478587D01*
X77592582Y-91453691D01*
X77550109Y-91396800D01*
X77546376Y-91385009D01*
X77506181Y-91232381D01*
X77506180Y-91232378D01*
X77504604Y-91226394D01*
X77501894Y-91220839D01*
X77501892Y-91220833D01*
X77434233Y-91082135D01*
X77434232Y-91082133D01*
X77431521Y-91076576D01*
X77330613Y-90943895D01*
X77205760Y-90833449D01*
X77200418Y-90830334D01*
X77200415Y-90830332D01*
X77067108Y-90752602D01*
X77061759Y-90749483D01*
X77055904Y-90747468D01*
X77055901Y-90747466D01*
X76988707Y-90724335D01*
X76904144Y-90695224D01*
X76787413Y-90679346D01*
X76778910Y-90677891D01*
X76756323Y-90673225D01*
X76756317Y-90673224D01*
X76751552Y-90672240D01*
X76739014Y-90671623D01*
X76734181Y-90672133D01*
X76731339Y-90672213D01*
X76721206Y-90672090D01*
X76718367Y-90671941D01*
X76713535Y-90671311D01*
X76708666Y-90671432D01*
X76708665Y-90671432D01*
X76705844Y-90671502D01*
X76705841Y-90671502D01*
X76700986Y-90671623D01*
X76696209Y-90672489D01*
X76696206Y-90672489D01*
X76678482Y-90675701D01*
X76672996Y-90676570D01*
X76608288Y-90685371D01*
X76604548Y-90685823D01*
X76594167Y-90686920D01*
X76593918Y-90684568D01*
X76592403Y-90684510D01*
X76592807Y-90687478D01*
X76541994Y-90694389D01*
X76541992Y-90694389D01*
X76535856Y-90695224D01*
X76529999Y-90697240D01*
X76530000Y-90697240D01*
X76384099Y-90747466D01*
X76384096Y-90747468D01*
X76378241Y-90749483D01*
X76372892Y-90752602D01*
X76239585Y-90830332D01*
X76239582Y-90830334D01*
X76234240Y-90833449D01*
X76109387Y-90943895D01*
X76008479Y-91076576D01*
X76005768Y-91082133D01*
X76005767Y-91082135D01*
X75938108Y-91220833D01*
X75938106Y-91220839D01*
X75935396Y-91226394D01*
X75933820Y-91232378D01*
X75933819Y-91232381D01*
X75893329Y-91386128D01*
X75856638Y-91446908D01*
X75792911Y-91478204D01*
X75780474Y-91479718D01*
X75777590Y-91479924D01*
X75770196Y-91485459D01*
X75694645Y-91629058D01*
X75690242Y-91639691D01*
X75633281Y-91823132D01*
X75630891Y-91834376D01*
X75608313Y-92025137D01*
X75608012Y-92036638D01*
X73288365Y-92036638D01*
X73339385Y-91909720D01*
X73363547Y-91739947D01*
X73363704Y-91725000D01*
X73353380Y-91639691D01*
X73344015Y-91562299D01*
X73344014Y-91562296D01*
X73343102Y-91554758D01*
X73333189Y-91528522D01*
X73285171Y-91401447D01*
X73282487Y-91394344D01*
X73185357Y-91253019D01*
X73179686Y-91247966D01*
X73062993Y-91143996D01*
X73062990Y-91143994D01*
X73057321Y-91138943D01*
X73049325Y-91134709D01*
X72912481Y-91062254D01*
X72912482Y-91062254D01*
X72905769Y-91058700D01*
X72888196Y-91054286D01*
X72746822Y-91018775D01*
X72746818Y-91018775D01*
X72739451Y-91016924D01*
X72731852Y-91016884D01*
X72731850Y-91016884D01*
X72660394Y-91016510D01*
X72567969Y-91016026D01*
X72560589Y-91017798D01*
X72560587Y-91017798D01*
X72408602Y-91054286D01*
X72408598Y-91054287D01*
X72401223Y-91056058D01*
X72248839Y-91134709D01*
X72243122Y-91139696D01*
X72243115Y-91139701D01*
X72233375Y-91148198D01*
X72168892Y-91177905D01*
X72098585Y-91168035D01*
X72066730Y-91147326D01*
X72062993Y-91143996D01*
X72062990Y-91143994D01*
X72057321Y-91138943D01*
X72049325Y-91134709D01*
X71912481Y-91062254D01*
X71912482Y-91062254D01*
X71905769Y-91058700D01*
X71888196Y-91054286D01*
X71746822Y-91018775D01*
X71746818Y-91018775D01*
X71739451Y-91016924D01*
X71731852Y-91016884D01*
X71731850Y-91016884D01*
X71660394Y-91016510D01*
X71567969Y-91016026D01*
X71560589Y-91017798D01*
X71560587Y-91017798D01*
X71408602Y-91054286D01*
X71408598Y-91054287D01*
X71401223Y-91056058D01*
X71248839Y-91134709D01*
X71119615Y-91247439D01*
X71021010Y-91387739D01*
X70997941Y-91446908D01*
X70966121Y-91528522D01*
X70958718Y-91547509D01*
X70936335Y-91717526D01*
X70945744Y-91802751D01*
X70949236Y-91834376D01*
X70955153Y-91887975D01*
X70957762Y-91895106D01*
X70957763Y-91895108D01*
X70965688Y-91916764D01*
X71014085Y-92049015D01*
X71018322Y-92055321D01*
X71018324Y-92055324D01*
X71027400Y-92068830D01*
X71109730Y-92191349D01*
X71236565Y-92306760D01*
X71387268Y-92388585D01*
X71394610Y-92390511D01*
X71394612Y-92390512D01*
X71450767Y-92405244D01*
X71498195Y-92417686D01*
X71559010Y-92454320D01*
X71590365Y-92518017D01*
X71591143Y-92556006D01*
X71589829Y-92565986D01*
X71587845Y-92581060D01*
X71586335Y-92592526D01*
X71605153Y-92762975D01*
X71607762Y-92770105D01*
X71608868Y-92774820D01*
X71604949Y-92845708D01*
X71563327Y-92903225D01*
X71497217Y-92929108D01*
X71471281Y-92928705D01*
X71330153Y-92911877D01*
X71323150Y-92912613D01*
X71323149Y-92912613D01*
X71286120Y-92916505D01*
X71166495Y-92929078D01*
X71159827Y-92931348D01*
X71017382Y-92979840D01*
X71017379Y-92979841D01*
X71010715Y-92982110D01*
X71003477Y-92986563D01*
X70879793Y-93062654D01*
X70870555Y-93068337D01*
X70752982Y-93183473D01*
X70663838Y-93321797D01*
X70661427Y-93328420D01*
X70661426Y-93328423D01*
X70609966Y-93469809D01*
X70609965Y-93469814D01*
X70607556Y-93476432D01*
X70586931Y-93639694D01*
X68592967Y-93639694D01*
X68591895Y-93637979D01*
X68582209Y-93622479D01*
X68578476Y-93616505D01*
X68481085Y-93518432D01*
X68447278Y-93456001D01*
X68452590Y-93385204D01*
X68495334Y-93328517D01*
X68507023Y-93320800D01*
X68525898Y-93309794D01*
X68565760Y-93286551D01*
X68591722Y-93263585D01*
X68685982Y-93180202D01*
X68685984Y-93180200D01*
X68690613Y-93176105D01*
X68791521Y-93043424D01*
X68794233Y-93037865D01*
X68861892Y-92899167D01*
X68861894Y-92899161D01*
X68864604Y-92893606D01*
X68867476Y-92882700D01*
X68907023Y-92732536D01*
X68943714Y-92671755D01*
X69007441Y-92640460D01*
X69019879Y-92638946D01*
X69021188Y-92638852D01*
X69029195Y-92632858D01*
X69093726Y-92517628D01*
X69098400Y-92507131D01*
X69160144Y-92325240D01*
X69162832Y-92314045D01*
X69190689Y-92121911D01*
X69191319Y-92114528D01*
X69192650Y-92063704D01*
X69192407Y-92056305D01*
X69174643Y-91862975D01*
X69172545Y-91851654D01*
X69120408Y-91666791D01*
X69116283Y-91656044D01*
X69032163Y-91485465D01*
X69023422Y-91478904D01*
X69019070Y-91478587D01*
X68952582Y-91453691D01*
X68910109Y-91396800D01*
X68906376Y-91385009D01*
X68866181Y-91232381D01*
X68866180Y-91232378D01*
X68864604Y-91226394D01*
X68861894Y-91220839D01*
X68861892Y-91220833D01*
X68794233Y-91082135D01*
X68794232Y-91082133D01*
X68791521Y-91076576D01*
X68690613Y-90943895D01*
X68565760Y-90833449D01*
X68560418Y-90830334D01*
X68560415Y-90830332D01*
X68427108Y-90752602D01*
X68421759Y-90749483D01*
X68415904Y-90747468D01*
X68415901Y-90747466D01*
X68348707Y-90724335D01*
X68264144Y-90695224D01*
X68147413Y-90679346D01*
X68138910Y-90677891D01*
X68116323Y-90673225D01*
X68116317Y-90673224D01*
X68111552Y-90672240D01*
X68099014Y-90671623D01*
X68094181Y-90672133D01*
X68091339Y-90672213D01*
X68081206Y-90672090D01*
X68078367Y-90671941D01*
X68073535Y-90671311D01*
X68068666Y-90671432D01*
X68068665Y-90671432D01*
X68065844Y-90671502D01*
X68065841Y-90671502D01*
X68060986Y-90671623D01*
X68056209Y-90672489D01*
X68056206Y-90672489D01*
X68038482Y-90675701D01*
X68032996Y-90676570D01*
X67968288Y-90685371D01*
X67964548Y-90685823D01*
X67954167Y-90686920D01*
X67953918Y-90684568D01*
X67952403Y-90684510D01*
X67952807Y-90687478D01*
X67901994Y-90694389D01*
X67901992Y-90694389D01*
X67895856Y-90695224D01*
X67889999Y-90697240D01*
X67890000Y-90697240D01*
X67744099Y-90747466D01*
X67744096Y-90747468D01*
X67738241Y-90749483D01*
X67732892Y-90752602D01*
X67599585Y-90830332D01*
X67599582Y-90830334D01*
X67594240Y-90833449D01*
X67469387Y-90943895D01*
X67368479Y-91076576D01*
X67365768Y-91082133D01*
X67365767Y-91082135D01*
X67298108Y-91220833D01*
X67298106Y-91220839D01*
X67295396Y-91226394D01*
X67293820Y-91232378D01*
X67293819Y-91232381D01*
X67253329Y-91386128D01*
X67216638Y-91446908D01*
X67152911Y-91478204D01*
X67140474Y-91479718D01*
X67137590Y-91479924D01*
X67130196Y-91485459D01*
X67054645Y-91629058D01*
X67050242Y-91639691D01*
X66993281Y-91823132D01*
X66990891Y-91834376D01*
X66968313Y-92025137D01*
X66968012Y-92036638D01*
X59079339Y-92036638D01*
X59082929Y-85750415D01*
X59083138Y-85384428D01*
X59103179Y-85316319D01*
X59156861Y-85269856D01*
X59209138Y-85258500D01*
X67294246Y-85258500D01*
X67362367Y-85278502D01*
G37*
%TD.AperFunction*%
%TD*%
M02*
