%TF.GenerationSoftware,KiCad,Pcbnew,(6.0.7)*%
%TF.CreationDate,2022-09-02T00:32:44-07:00*%
%TF.ProjectId,HARDWARE_USBC_ISP_Programmer,48415244-5741-4524-955f-555342435f49,rev?*%
%TF.SameCoordinates,Original*%
%TF.FileFunction,Legend,Top*%
%TF.FilePolarity,Positive*%
%FSLAX46Y46*%
G04 Gerber Fmt 4.6, Leading zero omitted, Abs format (unit mm)*
G04 Created by KiCad (PCBNEW (6.0.7)) date 2022-09-02 00:32:44*
%MOMM*%
%LPD*%
G01*
G04 APERTURE LIST*
%ADD10C,0.150000*%
%ADD11C,0.120000*%
%ADD12C,0.127000*%
%ADD13C,0.200000*%
%ADD14C,0.152400*%
G04 APERTURE END LIST*
D10*
X66430000Y-114986774D02*
X67200000Y-114975000D01*
X65135000Y-93800000D02*
X64250000Y-93800000D01*
%TO.C,FB1*%
X75529166Y-94503571D02*
X75195833Y-94503571D01*
X75195833Y-95027380D02*
X75195833Y-94027380D01*
X75672023Y-94027380D01*
X76386309Y-94503571D02*
X76529166Y-94551190D01*
X76576785Y-94598809D01*
X76624404Y-94694047D01*
X76624404Y-94836904D01*
X76576785Y-94932142D01*
X76529166Y-94979761D01*
X76433928Y-95027380D01*
X76052976Y-95027380D01*
X76052976Y-94027380D01*
X76386309Y-94027380D01*
X76481547Y-94075000D01*
X76529166Y-94122619D01*
X76576785Y-94217857D01*
X76576785Y-94313095D01*
X76529166Y-94408333D01*
X76481547Y-94455952D01*
X76386309Y-94503571D01*
X76052976Y-94503571D01*
X77576785Y-95027380D02*
X77005357Y-95027380D01*
X77291071Y-95027380D02*
X77291071Y-94027380D01*
X77195833Y-94170238D01*
X77100595Y-94265476D01*
X77005357Y-94313095D01*
%TO.C,S3*%
X77913095Y-125579761D02*
X78055952Y-125627380D01*
X78294047Y-125627380D01*
X78389285Y-125579761D01*
X78436904Y-125532142D01*
X78484523Y-125436904D01*
X78484523Y-125341666D01*
X78436904Y-125246428D01*
X78389285Y-125198809D01*
X78294047Y-125151190D01*
X78103571Y-125103571D01*
X78008333Y-125055952D01*
X77960714Y-125008333D01*
X77913095Y-124913095D01*
X77913095Y-124817857D01*
X77960714Y-124722619D01*
X78008333Y-124675000D01*
X78103571Y-124627380D01*
X78341666Y-124627380D01*
X78484523Y-124675000D01*
X78817857Y-124627380D02*
X79436904Y-124627380D01*
X79103571Y-125008333D01*
X79246428Y-125008333D01*
X79341666Y-125055952D01*
X79389285Y-125103571D01*
X79436904Y-125198809D01*
X79436904Y-125436904D01*
X79389285Y-125532142D01*
X79341666Y-125579761D01*
X79246428Y-125627380D01*
X78960714Y-125627380D01*
X78865476Y-125579761D01*
X78817857Y-125532142D01*
%TO.C,R3*%
X64733333Y-121802380D02*
X64400000Y-121326190D01*
X64161904Y-121802380D02*
X64161904Y-120802380D01*
X64542857Y-120802380D01*
X64638095Y-120850000D01*
X64685714Y-120897619D01*
X64733333Y-120992857D01*
X64733333Y-121135714D01*
X64685714Y-121230952D01*
X64638095Y-121278571D01*
X64542857Y-121326190D01*
X64161904Y-121326190D01*
X65066666Y-120802380D02*
X65685714Y-120802380D01*
X65352380Y-121183333D01*
X65495238Y-121183333D01*
X65590476Y-121230952D01*
X65638095Y-121278571D01*
X65685714Y-121373809D01*
X65685714Y-121611904D01*
X65638095Y-121707142D01*
X65590476Y-121754761D01*
X65495238Y-121802380D01*
X65209523Y-121802380D01*
X65114285Y-121754761D01*
X65066666Y-121707142D01*
%TO.C,R18*%
X69332142Y-96407380D02*
X68998809Y-95931190D01*
X68760714Y-96407380D02*
X68760714Y-95407380D01*
X69141666Y-95407380D01*
X69236904Y-95455000D01*
X69284523Y-95502619D01*
X69332142Y-95597857D01*
X69332142Y-95740714D01*
X69284523Y-95835952D01*
X69236904Y-95883571D01*
X69141666Y-95931190D01*
X68760714Y-95931190D01*
X70284523Y-96407380D02*
X69713095Y-96407380D01*
X69998809Y-96407380D02*
X69998809Y-95407380D01*
X69903571Y-95550238D01*
X69808333Y-95645476D01*
X69713095Y-95693095D01*
X70855952Y-95835952D02*
X70760714Y-95788333D01*
X70713095Y-95740714D01*
X70665476Y-95645476D01*
X70665476Y-95597857D01*
X70713095Y-95502619D01*
X70760714Y-95455000D01*
X70855952Y-95407380D01*
X71046428Y-95407380D01*
X71141666Y-95455000D01*
X71189285Y-95502619D01*
X71236904Y-95597857D01*
X71236904Y-95645476D01*
X71189285Y-95740714D01*
X71141666Y-95788333D01*
X71046428Y-95835952D01*
X70855952Y-95835952D01*
X70760714Y-95883571D01*
X70713095Y-95931190D01*
X70665476Y-96026428D01*
X70665476Y-96216904D01*
X70713095Y-96312142D01*
X70760714Y-96359761D01*
X70855952Y-96407380D01*
X71046428Y-96407380D01*
X71141666Y-96359761D01*
X71189285Y-96312142D01*
X71236904Y-96216904D01*
X71236904Y-96026428D01*
X71189285Y-95931190D01*
X71141666Y-95883571D01*
X71046428Y-95835952D01*
%TO.C,JP1*%
X65777380Y-101033333D02*
X66491666Y-101033333D01*
X66634523Y-101080952D01*
X66729761Y-101176190D01*
X66777380Y-101319047D01*
X66777380Y-101414285D01*
X66777380Y-100557142D02*
X65777380Y-100557142D01*
X65777380Y-100176190D01*
X65825000Y-100080952D01*
X65872619Y-100033333D01*
X65967857Y-99985714D01*
X66110714Y-99985714D01*
X66205952Y-100033333D01*
X66253571Y-100080952D01*
X66301190Y-100176190D01*
X66301190Y-100557142D01*
X66777380Y-99033333D02*
X66777380Y-99604761D01*
X66777380Y-99319047D02*
X65777380Y-99319047D01*
X65920238Y-99414285D01*
X66015476Y-99509523D01*
X66063095Y-99604761D01*
%TO.C,C4*%
X70607142Y-97691666D02*
X70654761Y-97739285D01*
X70702380Y-97882142D01*
X70702380Y-97977380D01*
X70654761Y-98120238D01*
X70559523Y-98215476D01*
X70464285Y-98263095D01*
X70273809Y-98310714D01*
X70130952Y-98310714D01*
X69940476Y-98263095D01*
X69845238Y-98215476D01*
X69750000Y-98120238D01*
X69702380Y-97977380D01*
X69702380Y-97882142D01*
X69750000Y-97739285D01*
X69797619Y-97691666D01*
X70035714Y-96834523D02*
X70702380Y-96834523D01*
X69654761Y-97072619D02*
X70369047Y-97310714D01*
X70369047Y-96691666D01*
%TO.C,Y1*%
X78123809Y-111676190D02*
X78123809Y-112152380D01*
X77790476Y-111152380D02*
X78123809Y-111676190D01*
X78457142Y-111152380D01*
X79314285Y-112152380D02*
X78742857Y-112152380D01*
X79028571Y-112152380D02*
X79028571Y-111152380D01*
X78933333Y-111295238D01*
X78838095Y-111390476D01*
X78742857Y-111438095D01*
%TO.C,R10*%
X78532142Y-86077380D02*
X78198809Y-85601190D01*
X77960714Y-86077380D02*
X77960714Y-85077380D01*
X78341666Y-85077380D01*
X78436904Y-85125000D01*
X78484523Y-85172619D01*
X78532142Y-85267857D01*
X78532142Y-85410714D01*
X78484523Y-85505952D01*
X78436904Y-85553571D01*
X78341666Y-85601190D01*
X77960714Y-85601190D01*
X79484523Y-86077380D02*
X78913095Y-86077380D01*
X79198809Y-86077380D02*
X79198809Y-85077380D01*
X79103571Y-85220238D01*
X79008333Y-85315476D01*
X78913095Y-85363095D01*
X80103571Y-85077380D02*
X80198809Y-85077380D01*
X80294047Y-85125000D01*
X80341666Y-85172619D01*
X80389285Y-85267857D01*
X80436904Y-85458333D01*
X80436904Y-85696428D01*
X80389285Y-85886904D01*
X80341666Y-85982142D01*
X80294047Y-86029761D01*
X80198809Y-86077380D01*
X80103571Y-86077380D01*
X80008333Y-86029761D01*
X79960714Y-85982142D01*
X79913095Y-85886904D01*
X79865476Y-85696428D01*
X79865476Y-85458333D01*
X79913095Y-85267857D01*
X79960714Y-85172619D01*
X80008333Y-85125000D01*
X80103571Y-85077380D01*
%TO.C,J2*%
X77541666Y-127227380D02*
X77541666Y-127941666D01*
X77494047Y-128084523D01*
X77398809Y-128179761D01*
X77255952Y-128227380D01*
X77160714Y-128227380D01*
X77970238Y-127322619D02*
X78017857Y-127275000D01*
X78113095Y-127227380D01*
X78351190Y-127227380D01*
X78446428Y-127275000D01*
X78494047Y-127322619D01*
X78541666Y-127417857D01*
X78541666Y-127513095D01*
X78494047Y-127655952D01*
X77922619Y-128227380D01*
X78541666Y-128227380D01*
%TO.C,U1*%
X73413095Y-100957380D02*
X73413095Y-101766904D01*
X73460714Y-101862142D01*
X73508333Y-101909761D01*
X73603571Y-101957380D01*
X73794047Y-101957380D01*
X73889285Y-101909761D01*
X73936904Y-101862142D01*
X73984523Y-101766904D01*
X73984523Y-100957380D01*
X74984523Y-101957380D02*
X74413095Y-101957380D01*
X74698809Y-101957380D02*
X74698809Y-100957380D01*
X74603571Y-101100238D01*
X74508333Y-101195476D01*
X74413095Y-101243095D01*
%TO.C,R1*%
X68783333Y-106602380D02*
X68450000Y-106126190D01*
X68211904Y-106602380D02*
X68211904Y-105602380D01*
X68592857Y-105602380D01*
X68688095Y-105650000D01*
X68735714Y-105697619D01*
X68783333Y-105792857D01*
X68783333Y-105935714D01*
X68735714Y-106030952D01*
X68688095Y-106078571D01*
X68592857Y-106126190D01*
X68211904Y-106126190D01*
X69735714Y-106602380D02*
X69164285Y-106602380D01*
X69450000Y-106602380D02*
X69450000Y-105602380D01*
X69354761Y-105745238D01*
X69259523Y-105840476D01*
X69164285Y-105888095D01*
%TO.C,S1*%
X66513095Y-125479761D02*
X66655952Y-125527380D01*
X66894047Y-125527380D01*
X66989285Y-125479761D01*
X67036904Y-125432142D01*
X67084523Y-125336904D01*
X67084523Y-125241666D01*
X67036904Y-125146428D01*
X66989285Y-125098809D01*
X66894047Y-125051190D01*
X66703571Y-125003571D01*
X66608333Y-124955952D01*
X66560714Y-124908333D01*
X66513095Y-124813095D01*
X66513095Y-124717857D01*
X66560714Y-124622619D01*
X66608333Y-124575000D01*
X66703571Y-124527380D01*
X66941666Y-124527380D01*
X67084523Y-124575000D01*
X68036904Y-125527380D02*
X67465476Y-125527380D01*
X67751190Y-125527380D02*
X67751190Y-124527380D01*
X67655952Y-124670238D01*
X67560714Y-124765476D01*
X67465476Y-124813095D01*
%TO.C,C8*%
X71858333Y-115382142D02*
X71810714Y-115429761D01*
X71667857Y-115477380D01*
X71572619Y-115477380D01*
X71429761Y-115429761D01*
X71334523Y-115334523D01*
X71286904Y-115239285D01*
X71239285Y-115048809D01*
X71239285Y-114905952D01*
X71286904Y-114715476D01*
X71334523Y-114620238D01*
X71429761Y-114525000D01*
X71572619Y-114477380D01*
X71667857Y-114477380D01*
X71810714Y-114525000D01*
X71858333Y-114572619D01*
X72429761Y-114905952D02*
X72334523Y-114858333D01*
X72286904Y-114810714D01*
X72239285Y-114715476D01*
X72239285Y-114667857D01*
X72286904Y-114572619D01*
X72334523Y-114525000D01*
X72429761Y-114477380D01*
X72620238Y-114477380D01*
X72715476Y-114525000D01*
X72763095Y-114572619D01*
X72810714Y-114667857D01*
X72810714Y-114715476D01*
X72763095Y-114810714D01*
X72715476Y-114858333D01*
X72620238Y-114905952D01*
X72429761Y-114905952D01*
X72334523Y-114953571D01*
X72286904Y-115001190D01*
X72239285Y-115096428D01*
X72239285Y-115286904D01*
X72286904Y-115382142D01*
X72334523Y-115429761D01*
X72429761Y-115477380D01*
X72620238Y-115477380D01*
X72715476Y-115429761D01*
X72763095Y-115382142D01*
X72810714Y-115286904D01*
X72810714Y-115096428D01*
X72763095Y-115001190D01*
X72715476Y-114953571D01*
X72620238Y-114905952D01*
%TO.C,R16*%
X69902380Y-121067857D02*
X69426190Y-121401190D01*
X69902380Y-121639285D02*
X68902380Y-121639285D01*
X68902380Y-121258333D01*
X68950000Y-121163095D01*
X68997619Y-121115476D01*
X69092857Y-121067857D01*
X69235714Y-121067857D01*
X69330952Y-121115476D01*
X69378571Y-121163095D01*
X69426190Y-121258333D01*
X69426190Y-121639285D01*
X69902380Y-120115476D02*
X69902380Y-120686904D01*
X69902380Y-120401190D02*
X68902380Y-120401190D01*
X69045238Y-120496428D01*
X69140476Y-120591666D01*
X69188095Y-120686904D01*
X68902380Y-119258333D02*
X68902380Y-119448809D01*
X68950000Y-119544047D01*
X68997619Y-119591666D01*
X69140476Y-119686904D01*
X69330952Y-119734523D01*
X69711904Y-119734523D01*
X69807142Y-119686904D01*
X69854761Y-119639285D01*
X69902380Y-119544047D01*
X69902380Y-119353571D01*
X69854761Y-119258333D01*
X69807142Y-119210714D01*
X69711904Y-119163095D01*
X69473809Y-119163095D01*
X69378571Y-119210714D01*
X69330952Y-119258333D01*
X69283333Y-119353571D01*
X69283333Y-119544047D01*
X69330952Y-119639285D01*
X69378571Y-119686904D01*
X69473809Y-119734523D01*
%TO.C,R11*%
X66782142Y-116927380D02*
X66448809Y-116451190D01*
X66210714Y-116927380D02*
X66210714Y-115927380D01*
X66591666Y-115927380D01*
X66686904Y-115975000D01*
X66734523Y-116022619D01*
X66782142Y-116117857D01*
X66782142Y-116260714D01*
X66734523Y-116355952D01*
X66686904Y-116403571D01*
X66591666Y-116451190D01*
X66210714Y-116451190D01*
X67734523Y-116927380D02*
X67163095Y-116927380D01*
X67448809Y-116927380D02*
X67448809Y-115927380D01*
X67353571Y-116070238D01*
X67258333Y-116165476D01*
X67163095Y-116213095D01*
X68686904Y-116927380D02*
X68115476Y-116927380D01*
X68401190Y-116927380D02*
X68401190Y-115927380D01*
X68305952Y-116070238D01*
X68210714Y-116165476D01*
X68115476Y-116213095D01*
%TO.C,R5*%
X79908333Y-122002380D02*
X79575000Y-121526190D01*
X79336904Y-122002380D02*
X79336904Y-121002380D01*
X79717857Y-121002380D01*
X79813095Y-121050000D01*
X79860714Y-121097619D01*
X79908333Y-121192857D01*
X79908333Y-121335714D01*
X79860714Y-121430952D01*
X79813095Y-121478571D01*
X79717857Y-121526190D01*
X79336904Y-121526190D01*
X80813095Y-121002380D02*
X80336904Y-121002380D01*
X80289285Y-121478571D01*
X80336904Y-121430952D01*
X80432142Y-121383333D01*
X80670238Y-121383333D01*
X80765476Y-121430952D01*
X80813095Y-121478571D01*
X80860714Y-121573809D01*
X80860714Y-121811904D01*
X80813095Y-121907142D01*
X80765476Y-121954761D01*
X80670238Y-122002380D01*
X80432142Y-122002380D01*
X80336904Y-121954761D01*
X80289285Y-121907142D01*
%TO.C,D6*%
X63536904Y-116947380D02*
X63536904Y-115947380D01*
X63775000Y-115947380D01*
X63917857Y-115995000D01*
X64013095Y-116090238D01*
X64060714Y-116185476D01*
X64108333Y-116375952D01*
X64108333Y-116518809D01*
X64060714Y-116709285D01*
X64013095Y-116804523D01*
X63917857Y-116899761D01*
X63775000Y-116947380D01*
X63536904Y-116947380D01*
X64965476Y-115947380D02*
X64775000Y-115947380D01*
X64679761Y-115995000D01*
X64632142Y-116042619D01*
X64536904Y-116185476D01*
X64489285Y-116375952D01*
X64489285Y-116756904D01*
X64536904Y-116852142D01*
X64584523Y-116899761D01*
X64679761Y-116947380D01*
X64870238Y-116947380D01*
X64965476Y-116899761D01*
X65013095Y-116852142D01*
X65060714Y-116756904D01*
X65060714Y-116518809D01*
X65013095Y-116423571D01*
X64965476Y-116375952D01*
X64870238Y-116328333D01*
X64679761Y-116328333D01*
X64584523Y-116375952D01*
X64536904Y-116423571D01*
X64489285Y-116518809D01*
%TO.C,C3*%
X68733333Y-103232142D02*
X68685714Y-103279761D01*
X68542857Y-103327380D01*
X68447619Y-103327380D01*
X68304761Y-103279761D01*
X68209523Y-103184523D01*
X68161904Y-103089285D01*
X68114285Y-102898809D01*
X68114285Y-102755952D01*
X68161904Y-102565476D01*
X68209523Y-102470238D01*
X68304761Y-102375000D01*
X68447619Y-102327380D01*
X68542857Y-102327380D01*
X68685714Y-102375000D01*
X68733333Y-102422619D01*
X69066666Y-102327380D02*
X69685714Y-102327380D01*
X69352380Y-102708333D01*
X69495238Y-102708333D01*
X69590476Y-102755952D01*
X69638095Y-102803571D01*
X69685714Y-102898809D01*
X69685714Y-103136904D01*
X69638095Y-103232142D01*
X69590476Y-103279761D01*
X69495238Y-103327380D01*
X69209523Y-103327380D01*
X69114285Y-103279761D01*
X69066666Y-103232142D01*
%TO.C,R2*%
X68783333Y-104802380D02*
X68450000Y-104326190D01*
X68211904Y-104802380D02*
X68211904Y-103802380D01*
X68592857Y-103802380D01*
X68688095Y-103850000D01*
X68735714Y-103897619D01*
X68783333Y-103992857D01*
X68783333Y-104135714D01*
X68735714Y-104230952D01*
X68688095Y-104278571D01*
X68592857Y-104326190D01*
X68211904Y-104326190D01*
X69164285Y-103897619D02*
X69211904Y-103850000D01*
X69307142Y-103802380D01*
X69545238Y-103802380D01*
X69640476Y-103850000D01*
X69688095Y-103897619D01*
X69735714Y-103992857D01*
X69735714Y-104088095D01*
X69688095Y-104230952D01*
X69116666Y-104802380D01*
X69735714Y-104802380D01*
%TO.C,R8*%
X78458333Y-91877380D02*
X78125000Y-91401190D01*
X77886904Y-91877380D02*
X77886904Y-90877380D01*
X78267857Y-90877380D01*
X78363095Y-90925000D01*
X78410714Y-90972619D01*
X78458333Y-91067857D01*
X78458333Y-91210714D01*
X78410714Y-91305952D01*
X78363095Y-91353571D01*
X78267857Y-91401190D01*
X77886904Y-91401190D01*
X79029761Y-91305952D02*
X78934523Y-91258333D01*
X78886904Y-91210714D01*
X78839285Y-91115476D01*
X78839285Y-91067857D01*
X78886904Y-90972619D01*
X78934523Y-90925000D01*
X79029761Y-90877380D01*
X79220238Y-90877380D01*
X79315476Y-90925000D01*
X79363095Y-90972619D01*
X79410714Y-91067857D01*
X79410714Y-91115476D01*
X79363095Y-91210714D01*
X79315476Y-91258333D01*
X79220238Y-91305952D01*
X79029761Y-91305952D01*
X78934523Y-91353571D01*
X78886904Y-91401190D01*
X78839285Y-91496428D01*
X78839285Y-91686904D01*
X78886904Y-91782142D01*
X78934523Y-91829761D01*
X79029761Y-91877380D01*
X79220238Y-91877380D01*
X79315476Y-91829761D01*
X79363095Y-91782142D01*
X79410714Y-91686904D01*
X79410714Y-91496428D01*
X79363095Y-91401190D01*
X79315476Y-91353571D01*
X79220238Y-91305952D01*
%TO.C,C1*%
X77327142Y-100516666D02*
X77374761Y-100564285D01*
X77422380Y-100707142D01*
X77422380Y-100802380D01*
X77374761Y-100945238D01*
X77279523Y-101040476D01*
X77184285Y-101088095D01*
X76993809Y-101135714D01*
X76850952Y-101135714D01*
X76660476Y-101088095D01*
X76565238Y-101040476D01*
X76470000Y-100945238D01*
X76422380Y-100802380D01*
X76422380Y-100707142D01*
X76470000Y-100564285D01*
X76517619Y-100516666D01*
X77422380Y-99564285D02*
X77422380Y-100135714D01*
X77422380Y-99850000D02*
X76422380Y-99850000D01*
X76565238Y-99945238D01*
X76660476Y-100040476D01*
X76708095Y-100135714D01*
%TO.C,J1*%
X65915467Y-85050410D02*
X65915467Y-85767266D01*
X65867676Y-85910637D01*
X65772096Y-86006218D01*
X65628725Y-86054008D01*
X65533144Y-86054008D01*
X66919065Y-86054008D02*
X66345580Y-86054008D01*
X66632323Y-86054008D02*
X66632323Y-85050410D01*
X66536742Y-85193781D01*
X66441161Y-85289362D01*
X66345580Y-85337152D01*
%TO.C,C9*%
X63858333Y-109882142D02*
X63810714Y-109929761D01*
X63667857Y-109977380D01*
X63572619Y-109977380D01*
X63429761Y-109929761D01*
X63334523Y-109834523D01*
X63286904Y-109739285D01*
X63239285Y-109548809D01*
X63239285Y-109405952D01*
X63286904Y-109215476D01*
X63334523Y-109120238D01*
X63429761Y-109025000D01*
X63572619Y-108977380D01*
X63667857Y-108977380D01*
X63810714Y-109025000D01*
X63858333Y-109072619D01*
X64334523Y-109977380D02*
X64525000Y-109977380D01*
X64620238Y-109929761D01*
X64667857Y-109882142D01*
X64763095Y-109739285D01*
X64810714Y-109548809D01*
X64810714Y-109167857D01*
X64763095Y-109072619D01*
X64715476Y-109025000D01*
X64620238Y-108977380D01*
X64429761Y-108977380D01*
X64334523Y-109025000D01*
X64286904Y-109072619D01*
X64239285Y-109167857D01*
X64239285Y-109405952D01*
X64286904Y-109501190D01*
X64334523Y-109548809D01*
X64429761Y-109596428D01*
X64620238Y-109596428D01*
X64715476Y-109548809D01*
X64763095Y-109501190D01*
X64810714Y-109405952D01*
%TO.C,R9*%
X80883333Y-117027380D02*
X80550000Y-116551190D01*
X80311904Y-117027380D02*
X80311904Y-116027380D01*
X80692857Y-116027380D01*
X80788095Y-116075000D01*
X80835714Y-116122619D01*
X80883333Y-116217857D01*
X80883333Y-116360714D01*
X80835714Y-116455952D01*
X80788095Y-116503571D01*
X80692857Y-116551190D01*
X80311904Y-116551190D01*
X81359523Y-117027380D02*
X81550000Y-117027380D01*
X81645238Y-116979761D01*
X81692857Y-116932142D01*
X81788095Y-116789285D01*
X81835714Y-116598809D01*
X81835714Y-116217857D01*
X81788095Y-116122619D01*
X81740476Y-116075000D01*
X81645238Y-116027380D01*
X81454761Y-116027380D01*
X81359523Y-116075000D01*
X81311904Y-116122619D01*
X81264285Y-116217857D01*
X81264285Y-116455952D01*
X81311904Y-116551190D01*
X81359523Y-116598809D01*
X81454761Y-116646428D01*
X81645238Y-116646428D01*
X81740476Y-116598809D01*
X81788095Y-116551190D01*
X81835714Y-116455952D01*
%TO.C,D4*%
X77136904Y-116947380D02*
X77136904Y-115947380D01*
X77375000Y-115947380D01*
X77517857Y-115995000D01*
X77613095Y-116090238D01*
X77660714Y-116185476D01*
X77708333Y-116375952D01*
X77708333Y-116518809D01*
X77660714Y-116709285D01*
X77613095Y-116804523D01*
X77517857Y-116899761D01*
X77375000Y-116947380D01*
X77136904Y-116947380D01*
X78565476Y-116280714D02*
X78565476Y-116947380D01*
X78327380Y-115899761D02*
X78089285Y-116614047D01*
X78708333Y-116614047D01*
%TO.C,R13*%
X81952380Y-100092857D02*
X81476190Y-100426190D01*
X81952380Y-100664285D02*
X80952380Y-100664285D01*
X80952380Y-100283333D01*
X81000000Y-100188095D01*
X81047619Y-100140476D01*
X81142857Y-100092857D01*
X81285714Y-100092857D01*
X81380952Y-100140476D01*
X81428571Y-100188095D01*
X81476190Y-100283333D01*
X81476190Y-100664285D01*
X81952380Y-99140476D02*
X81952380Y-99711904D01*
X81952380Y-99426190D02*
X80952380Y-99426190D01*
X81095238Y-99521428D01*
X81190476Y-99616666D01*
X81238095Y-99711904D01*
X80952380Y-98807142D02*
X80952380Y-98188095D01*
X81333333Y-98521428D01*
X81333333Y-98378571D01*
X81380952Y-98283333D01*
X81428571Y-98235714D01*
X81523809Y-98188095D01*
X81761904Y-98188095D01*
X81857142Y-98235714D01*
X81904761Y-98283333D01*
X81952380Y-98378571D01*
X81952380Y-98664285D01*
X81904761Y-98759523D01*
X81857142Y-98807142D01*
%TO.C,D2*%
X70299404Y-116947380D02*
X70299404Y-115947380D01*
X70537500Y-115947380D01*
X70680357Y-115995000D01*
X70775595Y-116090238D01*
X70823214Y-116185476D01*
X70870833Y-116375952D01*
X70870833Y-116518809D01*
X70823214Y-116709285D01*
X70775595Y-116804523D01*
X70680357Y-116899761D01*
X70537500Y-116947380D01*
X70299404Y-116947380D01*
X71251785Y-116042619D02*
X71299404Y-115995000D01*
X71394642Y-115947380D01*
X71632738Y-115947380D01*
X71727976Y-115995000D01*
X71775595Y-116042619D01*
X71823214Y-116137857D01*
X71823214Y-116233095D01*
X71775595Y-116375952D01*
X71204166Y-116947380D01*
X71823214Y-116947380D01*
%TO.C,D5*%
X82336904Y-85977380D02*
X82336904Y-84977380D01*
X82575000Y-84977380D01*
X82717857Y-85025000D01*
X82813095Y-85120238D01*
X82860714Y-85215476D01*
X82908333Y-85405952D01*
X82908333Y-85548809D01*
X82860714Y-85739285D01*
X82813095Y-85834523D01*
X82717857Y-85929761D01*
X82575000Y-85977380D01*
X82336904Y-85977380D01*
X83813095Y-84977380D02*
X83336904Y-84977380D01*
X83289285Y-85453571D01*
X83336904Y-85405952D01*
X83432142Y-85358333D01*
X83670238Y-85358333D01*
X83765476Y-85405952D01*
X83813095Y-85453571D01*
X83860714Y-85548809D01*
X83860714Y-85786904D01*
X83813095Y-85882142D01*
X83765476Y-85929761D01*
X83670238Y-85977380D01*
X83432142Y-85977380D01*
X83336904Y-85929761D01*
X83289285Y-85882142D01*
%TO.C,R17*%
X72832380Y-121042857D02*
X72356190Y-121376190D01*
X72832380Y-121614285D02*
X71832380Y-121614285D01*
X71832380Y-121233333D01*
X71880000Y-121138095D01*
X71927619Y-121090476D01*
X72022857Y-121042857D01*
X72165714Y-121042857D01*
X72260952Y-121090476D01*
X72308571Y-121138095D01*
X72356190Y-121233333D01*
X72356190Y-121614285D01*
X72832380Y-120090476D02*
X72832380Y-120661904D01*
X72832380Y-120376190D02*
X71832380Y-120376190D01*
X71975238Y-120471428D01*
X72070476Y-120566666D01*
X72118095Y-120661904D01*
X71832380Y-119757142D02*
X71832380Y-119090476D01*
X72832380Y-119519047D01*
%TO.C,R7*%
X74058333Y-117002380D02*
X73725000Y-116526190D01*
X73486904Y-117002380D02*
X73486904Y-116002380D01*
X73867857Y-116002380D01*
X73963095Y-116050000D01*
X74010714Y-116097619D01*
X74058333Y-116192857D01*
X74058333Y-116335714D01*
X74010714Y-116430952D01*
X73963095Y-116478571D01*
X73867857Y-116526190D01*
X73486904Y-116526190D01*
X74391666Y-116002380D02*
X75058333Y-116002380D01*
X74629761Y-117002380D01*
%TO.C,U3*%
X64988095Y-111289154D02*
X64988095Y-112098678D01*
X65035714Y-112193916D01*
X65083333Y-112241535D01*
X65178571Y-112289154D01*
X65369047Y-112289154D01*
X65464285Y-112241535D01*
X65511904Y-112193916D01*
X65559523Y-112098678D01*
X65559523Y-111289154D01*
X65940476Y-111289154D02*
X66559523Y-111289154D01*
X66226190Y-111670107D01*
X66369047Y-111670107D01*
X66464285Y-111717726D01*
X66511904Y-111765345D01*
X66559523Y-111860583D01*
X66559523Y-112098678D01*
X66511904Y-112193916D01*
X66464285Y-112241535D01*
X66369047Y-112289154D01*
X66083333Y-112289154D01*
X65988095Y-112241535D01*
X65940476Y-112193916D01*
%TO.C,J3*%
X59191666Y-120652380D02*
X59191666Y-121366666D01*
X59144047Y-121509523D01*
X59048809Y-121604761D01*
X58905952Y-121652380D01*
X58810714Y-121652380D01*
X59572619Y-120652380D02*
X60191666Y-120652380D01*
X59858333Y-121033333D01*
X60001190Y-121033333D01*
X60096428Y-121080952D01*
X60144047Y-121128571D01*
X60191666Y-121223809D01*
X60191666Y-121461904D01*
X60144047Y-121557142D01*
X60096428Y-121604761D01*
X60001190Y-121652380D01*
X59715476Y-121652380D01*
X59620238Y-121604761D01*
X59572619Y-121557142D01*
%TO.C,F1*%
X80516666Y-94453571D02*
X80183333Y-94453571D01*
X80183333Y-94977380D02*
X80183333Y-93977380D01*
X80659523Y-93977380D01*
X81564285Y-94977380D02*
X80992857Y-94977380D01*
X81278571Y-94977380D02*
X81278571Y-93977380D01*
X81183333Y-94120238D01*
X81088095Y-94215476D01*
X80992857Y-94263095D01*
%TO.C,S2*%
X65038095Y-93304761D02*
X65180952Y-93352380D01*
X65419047Y-93352380D01*
X65514285Y-93304761D01*
X65561904Y-93257142D01*
X65609523Y-93161904D01*
X65609523Y-93066666D01*
X65561904Y-92971428D01*
X65514285Y-92923809D01*
X65419047Y-92876190D01*
X65228571Y-92828571D01*
X65133333Y-92780952D01*
X65085714Y-92733333D01*
X65038095Y-92638095D01*
X65038095Y-92542857D01*
X65085714Y-92447619D01*
X65133333Y-92400000D01*
X65228571Y-92352380D01*
X65466666Y-92352380D01*
X65609523Y-92400000D01*
X65990476Y-92447619D02*
X66038095Y-92400000D01*
X66133333Y-92352380D01*
X66371428Y-92352380D01*
X66466666Y-92400000D01*
X66514285Y-92447619D01*
X66561904Y-92542857D01*
X66561904Y-92638095D01*
X66514285Y-92780952D01*
X65942857Y-93352380D01*
X66561904Y-93352380D01*
%TO.C,R12*%
X78632380Y-121067857D02*
X78156190Y-121401190D01*
X78632380Y-121639285D02*
X77632380Y-121639285D01*
X77632380Y-121258333D01*
X77680000Y-121163095D01*
X77727619Y-121115476D01*
X77822857Y-121067857D01*
X77965714Y-121067857D01*
X78060952Y-121115476D01*
X78108571Y-121163095D01*
X78156190Y-121258333D01*
X78156190Y-121639285D01*
X78632380Y-120115476D02*
X78632380Y-120686904D01*
X78632380Y-120401190D02*
X77632380Y-120401190D01*
X77775238Y-120496428D01*
X77870476Y-120591666D01*
X77918095Y-120686904D01*
X77727619Y-119734523D02*
X77680000Y-119686904D01*
X77632380Y-119591666D01*
X77632380Y-119353571D01*
X77680000Y-119258333D01*
X77727619Y-119210714D01*
X77822857Y-119163095D01*
X77918095Y-119163095D01*
X78060952Y-119210714D01*
X78632380Y-119782142D01*
X78632380Y-119163095D01*
%TO.C,C10*%
X62857142Y-108257142D02*
X62809523Y-108304761D01*
X62666666Y-108352380D01*
X62571428Y-108352380D01*
X62428571Y-108304761D01*
X62333333Y-108209523D01*
X62285714Y-108114285D01*
X62238095Y-107923809D01*
X62238095Y-107780952D01*
X62285714Y-107590476D01*
X62333333Y-107495238D01*
X62428571Y-107400000D01*
X62571428Y-107352380D01*
X62666666Y-107352380D01*
X62809523Y-107400000D01*
X62857142Y-107447619D01*
X63809523Y-108352380D02*
X63238095Y-108352380D01*
X63523809Y-108352380D02*
X63523809Y-107352380D01*
X63428571Y-107495238D01*
X63333333Y-107590476D01*
X63238095Y-107638095D01*
X64428571Y-107352380D02*
X64523809Y-107352380D01*
X64619047Y-107400000D01*
X64666666Y-107447619D01*
X64714285Y-107542857D01*
X64761904Y-107733333D01*
X64761904Y-107971428D01*
X64714285Y-108161904D01*
X64666666Y-108257142D01*
X64619047Y-108304761D01*
X64523809Y-108352380D01*
X64428571Y-108352380D01*
X64333333Y-108304761D01*
X64285714Y-108257142D01*
X64238095Y-108161904D01*
X64190476Y-107971428D01*
X64190476Y-107733333D01*
X64238095Y-107542857D01*
X64285714Y-107447619D01*
X64333333Y-107400000D01*
X64428571Y-107352380D01*
%TO.C,C7*%
X82287142Y-114091666D02*
X82334761Y-114139285D01*
X82382380Y-114282142D01*
X82382380Y-114377380D01*
X82334761Y-114520238D01*
X82239523Y-114615476D01*
X82144285Y-114663095D01*
X81953809Y-114710714D01*
X81810952Y-114710714D01*
X81620476Y-114663095D01*
X81525238Y-114615476D01*
X81430000Y-114520238D01*
X81382380Y-114377380D01*
X81382380Y-114282142D01*
X81430000Y-114139285D01*
X81477619Y-114091666D01*
X81382380Y-113758333D02*
X81382380Y-113091666D01*
X82382380Y-113520238D01*
%TO.C,C2*%
X71183333Y-112052142D02*
X71135714Y-112099761D01*
X70992857Y-112147380D01*
X70897619Y-112147380D01*
X70754761Y-112099761D01*
X70659523Y-112004523D01*
X70611904Y-111909285D01*
X70564285Y-111718809D01*
X70564285Y-111575952D01*
X70611904Y-111385476D01*
X70659523Y-111290238D01*
X70754761Y-111195000D01*
X70897619Y-111147380D01*
X70992857Y-111147380D01*
X71135714Y-111195000D01*
X71183333Y-111242619D01*
X71564285Y-111242619D02*
X71611904Y-111195000D01*
X71707142Y-111147380D01*
X71945238Y-111147380D01*
X72040476Y-111195000D01*
X72088095Y-111242619D01*
X72135714Y-111337857D01*
X72135714Y-111433095D01*
X72088095Y-111575952D01*
X71516666Y-112147380D01*
X72135714Y-112147380D01*
%TO.C,R6*%
X78483333Y-89002380D02*
X78150000Y-88526190D01*
X77911904Y-89002380D02*
X77911904Y-88002380D01*
X78292857Y-88002380D01*
X78388095Y-88050000D01*
X78435714Y-88097619D01*
X78483333Y-88192857D01*
X78483333Y-88335714D01*
X78435714Y-88430952D01*
X78388095Y-88478571D01*
X78292857Y-88526190D01*
X77911904Y-88526190D01*
X79340476Y-88002380D02*
X79150000Y-88002380D01*
X79054761Y-88050000D01*
X79007142Y-88097619D01*
X78911904Y-88240476D01*
X78864285Y-88430952D01*
X78864285Y-88811904D01*
X78911904Y-88907142D01*
X78959523Y-88954761D01*
X79054761Y-89002380D01*
X79245238Y-89002380D01*
X79340476Y-88954761D01*
X79388095Y-88907142D01*
X79435714Y-88811904D01*
X79435714Y-88573809D01*
X79388095Y-88478571D01*
X79340476Y-88430952D01*
X79245238Y-88383333D01*
X79054761Y-88383333D01*
X78959523Y-88430952D01*
X78911904Y-88478571D01*
X78864285Y-88573809D01*
%TO.C,U2*%
X65053095Y-96477380D02*
X65053095Y-97286904D01*
X65100714Y-97382142D01*
X65148333Y-97429761D01*
X65243571Y-97477380D01*
X65434047Y-97477380D01*
X65529285Y-97429761D01*
X65576904Y-97382142D01*
X65624523Y-97286904D01*
X65624523Y-96477380D01*
X66053095Y-96572619D02*
X66100714Y-96525000D01*
X66195952Y-96477380D01*
X66434047Y-96477380D01*
X66529285Y-96525000D01*
X66576904Y-96572619D01*
X66624523Y-96667857D01*
X66624523Y-96763095D01*
X66576904Y-96905952D01*
X66005476Y-97477380D01*
X66624523Y-97477380D01*
%TO.C,C5*%
X72157142Y-97666666D02*
X72204761Y-97714285D01*
X72252380Y-97857142D01*
X72252380Y-97952380D01*
X72204761Y-98095238D01*
X72109523Y-98190476D01*
X72014285Y-98238095D01*
X71823809Y-98285714D01*
X71680952Y-98285714D01*
X71490476Y-98238095D01*
X71395238Y-98190476D01*
X71300000Y-98095238D01*
X71252380Y-97952380D01*
X71252380Y-97857142D01*
X71300000Y-97714285D01*
X71347619Y-97666666D01*
X71252380Y-96761904D02*
X71252380Y-97238095D01*
X71728571Y-97285714D01*
X71680952Y-97238095D01*
X71633333Y-97142857D01*
X71633333Y-96904761D01*
X71680952Y-96809523D01*
X71728571Y-96761904D01*
X71823809Y-96714285D01*
X72061904Y-96714285D01*
X72157142Y-96761904D01*
X72204761Y-96809523D01*
X72252380Y-96904761D01*
X72252380Y-97142857D01*
X72204761Y-97238095D01*
X72157142Y-97285714D01*
%TO.C,R14*%
X72607142Y-96352380D02*
X72273809Y-95876190D01*
X72035714Y-96352380D02*
X72035714Y-95352380D01*
X72416666Y-95352380D01*
X72511904Y-95400000D01*
X72559523Y-95447619D01*
X72607142Y-95542857D01*
X72607142Y-95685714D01*
X72559523Y-95780952D01*
X72511904Y-95828571D01*
X72416666Y-95876190D01*
X72035714Y-95876190D01*
X73559523Y-96352380D02*
X72988095Y-96352380D01*
X73273809Y-96352380D02*
X73273809Y-95352380D01*
X73178571Y-95495238D01*
X73083333Y-95590476D01*
X72988095Y-95638095D01*
X74416666Y-95685714D02*
X74416666Y-96352380D01*
X74178571Y-95304761D02*
X73940476Y-96019047D01*
X74559523Y-96019047D01*
%TO.C,D1*%
X82386904Y-88877380D02*
X82386904Y-87877380D01*
X82625000Y-87877380D01*
X82767857Y-87925000D01*
X82863095Y-88020238D01*
X82910714Y-88115476D01*
X82958333Y-88305952D01*
X82958333Y-88448809D01*
X82910714Y-88639285D01*
X82863095Y-88734523D01*
X82767857Y-88829761D01*
X82625000Y-88877380D01*
X82386904Y-88877380D01*
X83910714Y-88877380D02*
X83339285Y-88877380D01*
X83625000Y-88877380D02*
X83625000Y-87877380D01*
X83529761Y-88020238D01*
X83434523Y-88115476D01*
X83339285Y-88163095D01*
%TO.C,D3*%
X82311904Y-91877380D02*
X82311904Y-90877380D01*
X82550000Y-90877380D01*
X82692857Y-90925000D01*
X82788095Y-91020238D01*
X82835714Y-91115476D01*
X82883333Y-91305952D01*
X82883333Y-91448809D01*
X82835714Y-91639285D01*
X82788095Y-91734523D01*
X82692857Y-91829761D01*
X82550000Y-91877380D01*
X82311904Y-91877380D01*
X83216666Y-90877380D02*
X83835714Y-90877380D01*
X83502380Y-91258333D01*
X83645238Y-91258333D01*
X83740476Y-91305952D01*
X83788095Y-91353571D01*
X83835714Y-91448809D01*
X83835714Y-91686904D01*
X83788095Y-91782142D01*
X83740476Y-91829761D01*
X83645238Y-91877380D01*
X83359523Y-91877380D01*
X83264285Y-91829761D01*
X83216666Y-91782142D01*
%TO.C,C6*%
X81458333Y-97182142D02*
X81410714Y-97229761D01*
X81267857Y-97277380D01*
X81172619Y-97277380D01*
X81029761Y-97229761D01*
X80934523Y-97134523D01*
X80886904Y-97039285D01*
X80839285Y-96848809D01*
X80839285Y-96705952D01*
X80886904Y-96515476D01*
X80934523Y-96420238D01*
X81029761Y-96325000D01*
X81172619Y-96277380D01*
X81267857Y-96277380D01*
X81410714Y-96325000D01*
X81458333Y-96372619D01*
X82315476Y-96277380D02*
X82125000Y-96277380D01*
X82029761Y-96325000D01*
X81982142Y-96372619D01*
X81886904Y-96515476D01*
X81839285Y-96705952D01*
X81839285Y-97086904D01*
X81886904Y-97182142D01*
X81934523Y-97229761D01*
X82029761Y-97277380D01*
X82220238Y-97277380D01*
X82315476Y-97229761D01*
X82363095Y-97182142D01*
X82410714Y-97086904D01*
X82410714Y-96848809D01*
X82363095Y-96753571D01*
X82315476Y-96705952D01*
X82220238Y-96658333D01*
X82029761Y-96658333D01*
X81934523Y-96705952D01*
X81886904Y-96753571D01*
X81839285Y-96848809D01*
%TO.C,R15*%
X75732380Y-121067857D02*
X75256190Y-121401190D01*
X75732380Y-121639285D02*
X74732380Y-121639285D01*
X74732380Y-121258333D01*
X74780000Y-121163095D01*
X74827619Y-121115476D01*
X74922857Y-121067857D01*
X75065714Y-121067857D01*
X75160952Y-121115476D01*
X75208571Y-121163095D01*
X75256190Y-121258333D01*
X75256190Y-121639285D01*
X75732380Y-120115476D02*
X75732380Y-120686904D01*
X75732380Y-120401190D02*
X74732380Y-120401190D01*
X74875238Y-120496428D01*
X74970476Y-120591666D01*
X75018095Y-120686904D01*
X74732380Y-119210714D02*
X74732380Y-119686904D01*
X75208571Y-119734523D01*
X75160952Y-119686904D01*
X75113333Y-119591666D01*
X75113333Y-119353571D01*
X75160952Y-119258333D01*
X75208571Y-119210714D01*
X75303809Y-119163095D01*
X75541904Y-119163095D01*
X75637142Y-119210714D01*
X75684761Y-119258333D01*
X75732380Y-119353571D01*
X75732380Y-119591666D01*
X75684761Y-119686904D01*
X75637142Y-119734523D01*
%TO.C,J4*%
X85216666Y-120577380D02*
X85216666Y-121291666D01*
X85169047Y-121434523D01*
X85073809Y-121529761D01*
X84930952Y-121577380D01*
X84835714Y-121577380D01*
X86121428Y-120910714D02*
X86121428Y-121577380D01*
X85883333Y-120529761D02*
X85645238Y-121244047D01*
X86264285Y-121244047D01*
%TO.C,R4*%
X60283333Y-93377380D02*
X59950000Y-92901190D01*
X59711904Y-93377380D02*
X59711904Y-92377380D01*
X60092857Y-92377380D01*
X60188095Y-92425000D01*
X60235714Y-92472619D01*
X60283333Y-92567857D01*
X60283333Y-92710714D01*
X60235714Y-92805952D01*
X60188095Y-92853571D01*
X60092857Y-92901190D01*
X59711904Y-92901190D01*
X61140476Y-92710714D02*
X61140476Y-93377380D01*
X60902380Y-92329761D02*
X60664285Y-93044047D01*
X61283333Y-93044047D01*
D11*
%TO.C,FB1*%
X75962878Y-95565000D02*
X76762122Y-95565000D01*
X75962878Y-96685000D02*
X76762122Y-96685000D01*
D12*
%TO.C,S3*%
X84825000Y-122625000D02*
X80325000Y-122625000D01*
X84825000Y-127725000D02*
X80325000Y-127725000D01*
X85125000Y-126355000D02*
X85125000Y-123995000D01*
X80025000Y-123995000D02*
X80025000Y-126355000D01*
D13*
X78425000Y-123300000D02*
G75*
G03*
X78425000Y-123300000I-100000J0D01*
G01*
D11*
%TO.C,R3*%
X62212742Y-121822500D02*
X62687258Y-121822500D01*
X62212742Y-120777500D02*
X62687258Y-120777500D01*
%TO.C,R18*%
X70212258Y-95047500D02*
X69737742Y-95047500D01*
X70212258Y-94002500D02*
X69737742Y-94002500D01*
%TO.C,JP1*%
X67825000Y-98800000D02*
X68425000Y-98800000D01*
X69125000Y-99500000D02*
X69125000Y-100900000D01*
X68425000Y-101600000D02*
X67825000Y-101600000D01*
X67125000Y-100900000D02*
X67125000Y-99500000D01*
X69125000Y-99500000D02*
G75*
G03*
X68425000Y-98800000I-700000J0D01*
G01*
X67125000Y-100900000D02*
G75*
G03*
X67825000Y-101600000I699999J-1D01*
G01*
X68425000Y-101600000D02*
G75*
G03*
X69125000Y-100900000I1J699999D01*
G01*
X67825000Y-98800000D02*
G75*
G03*
X67125000Y-99500000I0J-700000D01*
G01*
%TO.C,C4*%
X69740000Y-100240580D02*
X69740000Y-99959420D01*
X70760000Y-100240580D02*
X70760000Y-99959420D01*
%TO.C,Y1*%
X79200000Y-115750000D02*
X79200000Y-112450000D01*
X79200000Y-112450000D02*
X75200000Y-112450000D01*
%TO.C,R10*%
X80937742Y-87497500D02*
X81412258Y-87497500D01*
X80937742Y-86452500D02*
X81412258Y-86452500D01*
%TO.C,J2*%
X73930000Y-125295000D02*
X76530000Y-125295000D01*
X73930000Y-122695000D02*
X73930000Y-125295000D01*
X73930000Y-122695000D02*
X68790000Y-122695000D01*
X75200000Y-122695000D02*
X76530000Y-122695000D01*
X76530000Y-125295000D02*
X76530000Y-127895000D01*
X76530000Y-122695000D02*
X76530000Y-124025000D01*
X68790000Y-122695000D02*
X68790000Y-127895000D01*
X76530000Y-127895000D02*
X68790000Y-127895000D01*
%TO.C,U1*%
X77060000Y-102715000D02*
X77785000Y-102715000D01*
X71290000Y-102715000D02*
X70565000Y-102715000D01*
X77785000Y-102715000D02*
X77785000Y-103440000D01*
X77060000Y-109935000D02*
X77785000Y-109935000D01*
X77785000Y-109935000D02*
X77785000Y-109210000D01*
X70565000Y-109935000D02*
X70565000Y-109210000D01*
X71290000Y-109935000D02*
X70565000Y-109935000D01*
%TO.C,R1*%
X66237742Y-105649500D02*
X66712258Y-105649500D01*
X66237742Y-106694500D02*
X66712258Y-106694500D01*
D12*
%TO.C,S1*%
X60825000Y-123870000D02*
X60825000Y-126230000D01*
X65925000Y-126230000D02*
X65925000Y-123870000D01*
X65625000Y-122500000D02*
X61125000Y-122500000D01*
X65625000Y-127600000D02*
X61125000Y-127600000D01*
D13*
X59225000Y-123175000D02*
G75*
G03*
X59225000Y-123175000I-100000J0D01*
G01*
D11*
%TO.C,C8*%
X73315000Y-114040580D02*
X73315000Y-113759420D01*
X74335000Y-114040580D02*
X74335000Y-113759420D01*
%TO.C,R16*%
X67477500Y-120662258D02*
X67477500Y-120187742D01*
X68522500Y-120662258D02*
X68522500Y-120187742D01*
%TO.C,R11*%
X67662258Y-118447500D02*
X67187742Y-118447500D01*
X67662258Y-117402500D02*
X67187742Y-117402500D01*
%TO.C,R5*%
X82987258Y-122047500D02*
X82512742Y-122047500D01*
X82987258Y-121002500D02*
X82512742Y-121002500D01*
%TO.C,D6*%
X62790000Y-118660000D02*
X65075000Y-118660000D01*
X62790000Y-117190000D02*
X62790000Y-118660000D01*
X65075000Y-117190000D02*
X62790000Y-117190000D01*
%TO.C,C3*%
X66615580Y-103285000D02*
X66334420Y-103285000D01*
X66615580Y-102265000D02*
X66334420Y-102265000D01*
%TO.C,R2*%
X66237742Y-103827500D02*
X66712258Y-103827500D01*
X66237742Y-104872500D02*
X66712258Y-104872500D01*
%TO.C,R8*%
X80887742Y-92252500D02*
X81362258Y-92252500D01*
X80887742Y-93297500D02*
X81362258Y-93297500D01*
%TO.C,C1*%
X77890000Y-99590580D02*
X77890000Y-99309420D01*
X78910000Y-99590580D02*
X78910000Y-99309420D01*
D12*
%TO.C,J1*%
X67930000Y-88400000D02*
X67930000Y-90600000D01*
X76870000Y-88400000D02*
X76870000Y-90600000D01*
X76870000Y-84930000D02*
X67930000Y-84930000D01*
D13*
X75548000Y-93780000D02*
G75*
G03*
X75548000Y-93780000I-100000J0D01*
G01*
D11*
%TO.C,C9*%
X66640580Y-109015000D02*
X66359420Y-109015000D01*
X66640580Y-110035000D02*
X66359420Y-110035000D01*
%TO.C,R9*%
X81287258Y-117402500D02*
X80812742Y-117402500D01*
X81287258Y-118447500D02*
X80812742Y-118447500D01*
%TO.C,D4*%
X78675000Y-117190000D02*
X76390000Y-117190000D01*
X76390000Y-118660000D02*
X78675000Y-118660000D01*
X76390000Y-117190000D02*
X76390000Y-118660000D01*
%TO.C,R13*%
X79477500Y-99687258D02*
X79477500Y-99212742D01*
X80522500Y-99687258D02*
X80522500Y-99212742D01*
%TO.C,D2*%
X71837500Y-117190000D02*
X69552500Y-117190000D01*
X69552500Y-118660000D02*
X71837500Y-118660000D01*
X69552500Y-117190000D02*
X69552500Y-118660000D01*
%TO.C,D5*%
X86172500Y-86240000D02*
X83887500Y-86240000D01*
X83887500Y-87710000D02*
X86172500Y-87710000D01*
X86172500Y-87710000D02*
X86172500Y-86240000D01*
%TO.C,R17*%
X71472500Y-120162742D02*
X71472500Y-120637258D01*
X70427500Y-120162742D02*
X70427500Y-120637258D01*
%TO.C,R7*%
X74462258Y-118447500D02*
X73987742Y-118447500D01*
X74462258Y-117402500D02*
X73987742Y-117402500D01*
D14*
%TO.C,U3*%
X65070000Y-114986774D02*
X66430000Y-114986774D01*
X66430000Y-112786774D02*
X65070000Y-112786774D01*
D11*
%TO.C,J3*%
X61880000Y-117315000D02*
X61880000Y-94395000D01*
X60550000Y-119915000D02*
X59220000Y-119915000D01*
X59220000Y-117315000D02*
X59220000Y-94395000D01*
X61880000Y-94395000D02*
X59220000Y-94395000D01*
X61880000Y-117315000D02*
X59220000Y-117315000D01*
X59220000Y-119915000D02*
X59220000Y-118585000D01*
%TO.C,F1*%
X78371267Y-93990000D02*
X78028733Y-93990000D01*
X78371267Y-95010000D02*
X78028733Y-95010000D01*
D12*
%TO.C,S2*%
X65325000Y-86575000D02*
X60825000Y-86575000D01*
X65325000Y-91675000D02*
X60825000Y-91675000D01*
X65625000Y-90305000D02*
X65625000Y-87945000D01*
X60525000Y-87945000D02*
X60525000Y-90305000D01*
D13*
X58925000Y-87250000D02*
G75*
G03*
X58925000Y-87250000I-100000J0D01*
G01*
D11*
%TO.C,R12*%
X76227500Y-120187742D02*
X76227500Y-120662258D01*
X77272500Y-120187742D02*
X77272500Y-120662258D01*
%TO.C,C10*%
X66640580Y-107390000D02*
X66359420Y-107390000D01*
X66640580Y-108410000D02*
X66359420Y-108410000D01*
%TO.C,C7*%
X81010000Y-113784420D02*
X81010000Y-114065580D01*
X79990000Y-113784420D02*
X79990000Y-114065580D01*
%TO.C,C2*%
X71209420Y-113635000D02*
X71490580Y-113635000D01*
X71209420Y-112615000D02*
X71490580Y-112615000D01*
%TO.C,R6*%
X80862742Y-89352500D02*
X81337258Y-89352500D01*
X80862742Y-90397500D02*
X81337258Y-90397500D01*
D14*
%TO.C,U2*%
X65135000Y-96000000D02*
X66495000Y-96000000D01*
X66495000Y-93800000D02*
X65135000Y-93800000D01*
D11*
%TO.C,C5*%
X72310000Y-100240580D02*
X72310000Y-99959420D01*
X71290000Y-100240580D02*
X71290000Y-99959420D01*
%TO.C,R14*%
X73787742Y-93977500D02*
X74262258Y-93977500D01*
X73787742Y-95022500D02*
X74262258Y-95022500D01*
%TO.C,D1*%
X86147500Y-90585000D02*
X86147500Y-89115000D01*
X83862500Y-90585000D02*
X86147500Y-90585000D01*
X86147500Y-89115000D02*
X83862500Y-89115000D01*
%TO.C,D3*%
X83837500Y-93485000D02*
X86122500Y-93485000D01*
X86122500Y-93485000D02*
X86122500Y-92015000D01*
X86122500Y-92015000D02*
X83837500Y-92015000D01*
%TO.C,C6*%
X79109420Y-97535000D02*
X79390580Y-97535000D01*
X79109420Y-96515000D02*
X79390580Y-96515000D01*
%TO.C,R15*%
X73327500Y-120187742D02*
X73327500Y-120662258D01*
X74372500Y-120187742D02*
X74372500Y-120662258D01*
%TO.C,J4*%
X84725000Y-119940000D02*
X83395000Y-119940000D01*
X86055000Y-94420000D02*
X83395000Y-94420000D01*
X86055000Y-117340000D02*
X83395000Y-117340000D01*
X86055000Y-117340000D02*
X86055000Y-94420000D01*
X83395000Y-119940000D02*
X83395000Y-118610000D01*
X83395000Y-117340000D02*
X83395000Y-94420000D01*
%TO.C,R4*%
X63137258Y-92402500D02*
X62662742Y-92402500D01*
X63137258Y-93447500D02*
X62662742Y-93447500D01*
%TD*%
M02*
