%TF.GenerationSoftware,KiCad,Pcbnew,(6.0.7)*%
%TF.CreationDate,2022-09-02T00:32:44-07:00*%
%TF.ProjectId,HARDWARE_USBC_ISP_Programmer,48415244-5741-4524-955f-555342435f49,rev?*%
%TF.SameCoordinates,Original*%
%TF.FileFunction,Profile,NP*%
%FSLAX46Y46*%
G04 Gerber Fmt 4.6, Leading zero omitted, Abs format (unit mm)*
G04 Created by KiCad (PCBNEW (6.0.7)) date 2022-09-02 00:32:44*
%MOMM*%
%LPD*%
G01*
G04 APERTURE LIST*
%TA.AperFunction,Profile*%
%ADD10C,0.100000*%
%TD*%
%TA.AperFunction,Profile*%
%ADD11C,0.010000*%
%TD*%
G04 APERTURE END LIST*
D10*
X86575000Y-128525000D02*
X58550000Y-128525000D01*
X86575000Y-84750000D02*
X86575000Y-128525000D01*
X58575000Y-84750000D02*
X86575000Y-84750000D01*
X58550000Y-128525000D02*
X58575000Y-84750000D01*
D11*
%TO.C,J1*%
X76395000Y-87475000D02*
X76395000Y-85925000D01*
X68405000Y-85925000D02*
X68405000Y-87475000D01*
X76395000Y-92585000D02*
X76395000Y-91535000D01*
X67755000Y-92585000D02*
X67755000Y-91535000D01*
X77045000Y-85925000D02*
X77045000Y-87475000D01*
X68405000Y-91535000D02*
X68405000Y-92585000D01*
X67755000Y-87475000D02*
X67755000Y-85925000D01*
X77045000Y-91535000D02*
X77045000Y-92585000D01*
X77045000Y-85925000D02*
G75*
G03*
X76720000Y-85625000I-312500J-12500D01*
G01*
X68080000Y-87775000D02*
G75*
G03*
X68405000Y-87475000I12500J312500D01*
G01*
X76720000Y-92885000D02*
G75*
G03*
X77045000Y-92585000I12500J312500D01*
G01*
X67755000Y-87475000D02*
G75*
G03*
X68080000Y-87775000I312500J12500D01*
G01*
X68080000Y-85625000D02*
G75*
G03*
X67755000Y-85925000I-12500J-312500D01*
G01*
X68080000Y-91185000D02*
G75*
G03*
X67755000Y-91535000I12500J-337500D01*
G01*
X77045000Y-91535000D02*
G75*
G03*
X76720000Y-91185000I-337500J12500D01*
G01*
X76720000Y-91185000D02*
G75*
G03*
X76395000Y-91535000I12500J-337500D01*
G01*
X76720000Y-87775000D02*
G75*
G03*
X77045000Y-87475000I12500J312500D01*
G01*
X68080000Y-92935000D02*
G75*
G03*
X68405000Y-92585000I-12500J337500D01*
G01*
X76720000Y-85625000D02*
G75*
G03*
X76395000Y-85925000I-12500J-312500D01*
G01*
X68405000Y-91535000D02*
G75*
G03*
X68080000Y-91185000I-337500J12500D01*
G01*
X67755000Y-92585000D02*
G75*
G03*
X68080000Y-92935000I337500J-12500D01*
G01*
X76395000Y-87475000D02*
G75*
G03*
X76720000Y-87775000I312500J12500D01*
G01*
X76395000Y-92585000D02*
G75*
G03*
X76720000Y-92885000I312500J12500D01*
G01*
X68405000Y-85925000D02*
G75*
G03*
X68080000Y-85625000I-312500J-12500D01*
G01*
%TD*%
M02*
