%TF.GenerationSoftware,KiCad,Pcbnew,(6.0.7)*%
%TF.CreationDate,2022-09-02T00:32:44-07:00*%
%TF.ProjectId,HARDWARE_USBC_ISP_Programmer,48415244-5741-4524-955f-555342435f49,rev?*%
%TF.SameCoordinates,Original*%
%TF.FileFunction,Copper,L2,Inr*%
%TF.FilePolarity,Positive*%
%FSLAX46Y46*%
G04 Gerber Fmt 4.6, Leading zero omitted, Abs format (unit mm)*
G04 Created by KiCad (PCBNEW (6.0.7)) date 2022-09-02 00:32:44*
%MOMM*%
%LPD*%
G01*
G04 APERTURE LIST*
%TA.AperFunction,ComponentPad*%
%ADD10R,1.700000X1.700000*%
%TD*%
%TA.AperFunction,ComponentPad*%
%ADD11O,1.700000X1.700000*%
%TD*%
%TA.AperFunction,ComponentPad*%
%ADD12C,1.200000*%
%TD*%
%TA.AperFunction,ViaPad*%
%ADD13C,0.800000*%
%TD*%
%TA.AperFunction,ViaPad*%
%ADD14C,0.450000*%
%TD*%
%TA.AperFunction,ViaPad*%
%ADD15C,0.400000*%
%TD*%
G04 APERTURE END LIST*
D10*
%TO.N,Net-(J2-Pad1)*%
%TO.C,J2*%
X75200000Y-124025000D03*
D11*
%TO.N,+5V*%
X75200000Y-126565000D03*
%TO.N,Net-(J2-Pad3)*%
X72660000Y-124025000D03*
%TO.N,Net-(J2-Pad4)*%
X72660000Y-126565000D03*
%TO.N,Net-(J2-Pad5)*%
X70120000Y-124025000D03*
%TO.N,GND*%
X70120000Y-126565000D03*
%TD*%
D12*
%TO.N,GND*%
%TO.C,J1*%
X76720000Y-92060000D03*
X68080000Y-92060000D03*
X76720000Y-86700000D03*
X68080000Y-86700000D03*
%TD*%
D10*
%TO.N,/IO10*%
%TO.C,J3*%
X60550000Y-118585000D03*
D11*
%TO.N,/IO11*%
X60550000Y-116045000D03*
%TO.N,/IO12*%
X60550000Y-113505000D03*
%TO.N,/IO13*%
X60550000Y-110965000D03*
%TO.N,/A5*%
X60550000Y-108425000D03*
%TO.N,/A4*%
X60550000Y-105885000D03*
%TO.N,/A3*%
X60550000Y-103345000D03*
%TO.N,/A2*%
X60550000Y-100805000D03*
%TO.N,/A1*%
X60550000Y-98265000D03*
%TO.N,/A0*%
X60550000Y-95725000D03*
%TD*%
D10*
%TO.N,/D0 {slash} RX*%
%TO.C,J4*%
X84725000Y-118610000D03*
D11*
%TO.N,/D1 {slash} TX*%
X84725000Y-116070000D03*
%TO.N,/D2 {slash} SDA*%
X84725000Y-113530000D03*
%TO.N,/D3 {slash} SCL*%
X84725000Y-110990000D03*
%TO.N,/D4*%
X84725000Y-108450000D03*
%TO.N,/D5*%
X84725000Y-105910000D03*
%TO.N,/D6*%
X84725000Y-103370000D03*
%TO.N,/D7*%
X84725000Y-100830000D03*
%TO.N,/IO8*%
X84725000Y-98290000D03*
%TO.N,/IO9*%
X84725000Y-95750000D03*
%TD*%
D13*
%TO.N,+5V*%
X76400000Y-96150000D03*
D14*
X61750000Y-126925000D03*
X79075000Y-95750000D03*
X68025000Y-108775000D03*
X61050000Y-92900000D03*
X79700000Y-93375000D03*
X63600000Y-113711774D03*
X79175000Y-101100000D03*
X70575000Y-114050000D03*
X66450000Y-101825000D03*
X79287500Y-93787500D03*
X64925000Y-126925000D03*
X79075000Y-96250000D03*
X81650000Y-120425000D03*
X79075000Y-95225000D03*
%TO.N,GND*%
X80025000Y-96075000D03*
X77350000Y-98625000D03*
X84175000Y-127050000D03*
X71913556Y-101836444D03*
X69425000Y-93600000D03*
X69250000Y-99050000D03*
X78675000Y-109150000D03*
X76050000Y-117400000D03*
X75700000Y-94475000D03*
D13*
X72700000Y-107325000D03*
D14*
X63075000Y-94900000D03*
X81200000Y-127050000D03*
X75500000Y-91825000D03*
X70975000Y-116975000D03*
X65725000Y-108725000D03*
X68450000Y-105850000D03*
X65700000Y-115425000D03*
X84875000Y-85900000D03*
X72125000Y-114050000D03*
X64650000Y-87525000D03*
X75174500Y-113727930D03*
X64250000Y-118875000D03*
X64650000Y-102750000D03*
D13*
X75700000Y-104850000D03*
X75700000Y-107350000D03*
X72700000Y-104775000D03*
D14*
X62450000Y-120375000D03*
%TO.N,+5VA*%
X76275000Y-97675000D03*
X79650000Y-108575000D03*
X71000000Y-100875000D03*
%TO.N,/RXLED*%
X69350000Y-107400000D03*
X81525000Y-97150000D03*
X80125000Y-104125000D03*
X81400000Y-103200000D03*
%TO.N,/USB_VBUS*%
X76150000Y-95075000D03*
X69925000Y-95225500D03*
%TO.N,/USB_D+*%
X62825000Y-95575000D03*
X64150000Y-106075000D03*
D15*
%TO.N,/USB_D-*%
X72650000Y-91725000D03*
D14*
X64200000Y-104350000D03*
X68000000Y-94075000D03*
D15*
X72300000Y-92600000D03*
D14*
X63625000Y-94175500D03*
%TO.N,/CC2*%
X71325000Y-93650000D03*
D15*
X71650000Y-91725000D03*
D14*
%TO.N,/IO10*%
X79400000Y-105275500D03*
X62050000Y-110350000D03*
%TO.N,/IO11*%
X66325000Y-111600000D03*
%TO.N,/IO12*%
X80775000Y-107750000D03*
%TO.N,/IO13*%
X79100000Y-104050000D03*
%TO.N,/A4*%
X83500000Y-122450000D03*
%TO.N,/D2 {slash} SDA*%
X82350500Y-113350000D03*
%TO.N,/D3 {slash} SCL*%
X81337548Y-112312452D03*
%TO.N,/D4*%
X76025000Y-118475000D03*
%TO.N,/D5*%
X83000000Y-110300000D03*
%TO.N,/D6*%
X83125000Y-105500000D03*
%TO.N,/D7*%
X80050000Y-102650000D03*
X69550000Y-103775000D03*
%TO.N,/IO8*%
X67175000Y-111025000D03*
X67175000Y-115475000D03*
X70075000Y-111025000D03*
X81523944Y-106275500D03*
%TO.N,/IO9*%
X82400000Y-105374500D03*
%TO.N,/NRESET*%
X64600000Y-107050000D03*
X64900000Y-93100000D03*
%TO.N,/MISO*%
X69400000Y-110450000D03*
X69425000Y-114450000D03*
%TO.N,/SCK*%
X72750000Y-119475000D03*
X68063226Y-113236774D03*
X68100000Y-110475000D03*
%TO.N,/MOSI*%
X68749503Y-110475000D03*
X68775000Y-115086274D03*
X68775000Y-112699500D03*
%TD*%
%TA.AperFunction,Conductor*%
%TO.N,+5V*%
G36*
X67362367Y-85278502D02*
G01*
X67408860Y-85332158D01*
X67418964Y-85402432D01*
X67399103Y-85451314D01*
X67400225Y-85451973D01*
X67318324Y-85591481D01*
X67265215Y-85744287D01*
X67249904Y-85854403D01*
X67248430Y-85862866D01*
X67243336Y-85887159D01*
X67243335Y-85887166D01*
X67242336Y-85891931D01*
X67241681Y-85904467D01*
X67242178Y-85909308D01*
X67242178Y-85909317D01*
X67242670Y-85914105D01*
X67229730Y-85983912D01*
X67216280Y-86004976D01*
X67146351Y-86093681D01*
X67051492Y-86273978D01*
X66991078Y-86468543D01*
X66967132Y-86670859D01*
X66980457Y-86874151D01*
X67030605Y-87071610D01*
X67115898Y-87256624D01*
X67119231Y-87261340D01*
X67218846Y-87402292D01*
X67241827Y-87469466D01*
X67241800Y-87479317D01*
X67241333Y-87482985D01*
X67241681Y-87495533D01*
X67242561Y-87500309D01*
X67242562Y-87500317D01*
X67246323Y-87520727D01*
X67247208Y-87526207D01*
X67249314Y-87541350D01*
X67265215Y-87655713D01*
X67318324Y-87808519D01*
X67400225Y-87948027D01*
X67404340Y-87952651D01*
X67404342Y-87952654D01*
X67419200Y-87969350D01*
X67507768Y-88068877D01*
X67533966Y-88088679D01*
X67631879Y-88162689D01*
X67631882Y-88162691D01*
X67636821Y-88166424D01*
X67642394Y-88169122D01*
X67642397Y-88169124D01*
X67776854Y-88234222D01*
X67782425Y-88236919D01*
X67788413Y-88238477D01*
X67932991Y-88276095D01*
X67932994Y-88276095D01*
X67938984Y-88277654D01*
X68013005Y-88281966D01*
X68031528Y-88284434D01*
X68046931Y-88287664D01*
X68059467Y-88288319D01*
X68064318Y-88287821D01*
X68069040Y-88287703D01*
X68078424Y-88287818D01*
X68083163Y-88288053D01*
X68087985Y-88288667D01*
X68100533Y-88288319D01*
X68121765Y-88284406D01*
X68137263Y-88282533D01*
X68221016Y-88277654D01*
X68227006Y-88276095D01*
X68227009Y-88276095D01*
X68371587Y-88238477D01*
X68377575Y-88236919D01*
X68383146Y-88234222D01*
X68517603Y-88169124D01*
X68517606Y-88169122D01*
X68523179Y-88166424D01*
X68528118Y-88162691D01*
X68528121Y-88162689D01*
X68626034Y-88088679D01*
X68652232Y-88068877D01*
X68740800Y-87969350D01*
X68755658Y-87952654D01*
X68755660Y-87952651D01*
X68759775Y-87948027D01*
X68841676Y-87808519D01*
X68894785Y-87655713D01*
X68910096Y-87545597D01*
X68911570Y-87537134D01*
X68916664Y-87512841D01*
X68916665Y-87512834D01*
X68917664Y-87508069D01*
X68918319Y-87495533D01*
X68917822Y-87490692D01*
X68917822Y-87490685D01*
X68917349Y-87486082D01*
X68930289Y-87416275D01*
X68945816Y-87392643D01*
X68993764Y-87334993D01*
X68993766Y-87334990D01*
X68997458Y-87330551D01*
X69097004Y-87152799D01*
X69098860Y-87147332D01*
X69098862Y-87147327D01*
X69160634Y-86965352D01*
X69160635Y-86965347D01*
X69162490Y-86959883D01*
X69191723Y-86758263D01*
X69193249Y-86700000D01*
X69174608Y-86497126D01*
X69140014Y-86374468D01*
X69120875Y-86306606D01*
X69120874Y-86306604D01*
X69119307Y-86301047D01*
X69108680Y-86279496D01*
X69031756Y-86123510D01*
X69029201Y-86118329D01*
X69010796Y-86093681D01*
X68942970Y-86002852D01*
X68918238Y-85936302D01*
X68918086Y-85921579D01*
X68918667Y-85917015D01*
X68918319Y-85904467D01*
X68917439Y-85899691D01*
X68917438Y-85899683D01*
X68913677Y-85879273D01*
X68912792Y-85873793D01*
X68895638Y-85750424D01*
X68894785Y-85744287D01*
X68841676Y-85591481D01*
X68759775Y-85451973D01*
X68761192Y-85451141D01*
X68739965Y-85391786D01*
X68755994Y-85322622D01*
X68806872Y-85273105D01*
X68865754Y-85258500D01*
X75934246Y-85258500D01*
X76002367Y-85278502D01*
X76048860Y-85332158D01*
X76058964Y-85402432D01*
X76039103Y-85451314D01*
X76040225Y-85451973D01*
X75958324Y-85591481D01*
X75905215Y-85744287D01*
X75889904Y-85854403D01*
X75888430Y-85862866D01*
X75883336Y-85887159D01*
X75883335Y-85887166D01*
X75882336Y-85891931D01*
X75881681Y-85904467D01*
X75882178Y-85909308D01*
X75882178Y-85909317D01*
X75882670Y-85914105D01*
X75869730Y-85983912D01*
X75856280Y-86004976D01*
X75786351Y-86093681D01*
X75691492Y-86273978D01*
X75631078Y-86468543D01*
X75607132Y-86670859D01*
X75620457Y-86874151D01*
X75670605Y-87071610D01*
X75755898Y-87256624D01*
X75759231Y-87261340D01*
X75858846Y-87402292D01*
X75881827Y-87469466D01*
X75881800Y-87479317D01*
X75881333Y-87482985D01*
X75881681Y-87495533D01*
X75882561Y-87500309D01*
X75882562Y-87500317D01*
X75886323Y-87520727D01*
X75887208Y-87526207D01*
X75889314Y-87541350D01*
X75905215Y-87655713D01*
X75958324Y-87808519D01*
X76040225Y-87948027D01*
X76044340Y-87952651D01*
X76044342Y-87952654D01*
X76059200Y-87969350D01*
X76147768Y-88068877D01*
X76173966Y-88088679D01*
X76271879Y-88162689D01*
X76271882Y-88162691D01*
X76276821Y-88166424D01*
X76282394Y-88169122D01*
X76282397Y-88169124D01*
X76416854Y-88234222D01*
X76422425Y-88236919D01*
X76428413Y-88238477D01*
X76572991Y-88276095D01*
X76572994Y-88276095D01*
X76578984Y-88277654D01*
X76653005Y-88281966D01*
X76671528Y-88284434D01*
X76686931Y-88287664D01*
X76699467Y-88288319D01*
X76704318Y-88287821D01*
X76709040Y-88287703D01*
X76718424Y-88287818D01*
X76723163Y-88288053D01*
X76727985Y-88288667D01*
X76740533Y-88288319D01*
X76761765Y-88284406D01*
X76777263Y-88282533D01*
X76861016Y-88277654D01*
X76867006Y-88276095D01*
X76867009Y-88276095D01*
X77011587Y-88238477D01*
X77017575Y-88236919D01*
X77023146Y-88234222D01*
X77157603Y-88169124D01*
X77157606Y-88169122D01*
X77163179Y-88166424D01*
X77168118Y-88162691D01*
X77168121Y-88162689D01*
X77266034Y-88088679D01*
X77292232Y-88068877D01*
X77380800Y-87969350D01*
X77395658Y-87952654D01*
X77395660Y-87952651D01*
X77399775Y-87948027D01*
X77481676Y-87808519D01*
X77534785Y-87655713D01*
X77550096Y-87545597D01*
X77551570Y-87537134D01*
X77556664Y-87512841D01*
X77556665Y-87512834D01*
X77557664Y-87508069D01*
X77558319Y-87495533D01*
X77557822Y-87490692D01*
X77557822Y-87490685D01*
X77557349Y-87486082D01*
X77570289Y-87416275D01*
X77585816Y-87392643D01*
X77633764Y-87334993D01*
X77633766Y-87334990D01*
X77637458Y-87330551D01*
X77737004Y-87152799D01*
X77738860Y-87147332D01*
X77738862Y-87147327D01*
X77800634Y-86965352D01*
X77800635Y-86965347D01*
X77802490Y-86959883D01*
X77831723Y-86758263D01*
X77833249Y-86700000D01*
X77814608Y-86497126D01*
X77780014Y-86374468D01*
X77760875Y-86306606D01*
X77760874Y-86306604D01*
X77759307Y-86301047D01*
X77748680Y-86279496D01*
X77671756Y-86123510D01*
X77669201Y-86118329D01*
X77650796Y-86093681D01*
X77582970Y-86002852D01*
X77558238Y-85936302D01*
X77558086Y-85921579D01*
X77558667Y-85917015D01*
X77558319Y-85904467D01*
X77557439Y-85899691D01*
X77557438Y-85899683D01*
X77553677Y-85879273D01*
X77552792Y-85873793D01*
X77535638Y-85750424D01*
X77534785Y-85744287D01*
X77481676Y-85591481D01*
X77399775Y-85451973D01*
X77401192Y-85451141D01*
X77379965Y-85391786D01*
X77395994Y-85322622D01*
X77446872Y-85273105D01*
X77505754Y-85258500D01*
X84184645Y-85258500D01*
X84252766Y-85278502D01*
X84299259Y-85332158D01*
X84309363Y-85402432D01*
X84290557Y-85452752D01*
X84213838Y-85571797D01*
X84211427Y-85578420D01*
X84211426Y-85578423D01*
X84159966Y-85719809D01*
X84159965Y-85719814D01*
X84157556Y-85726432D01*
X84136931Y-85889694D01*
X84152989Y-86053468D01*
X84204932Y-86209615D01*
X84208581Y-86215640D01*
X84257169Y-86295867D01*
X84290179Y-86350373D01*
X84404491Y-86468747D01*
X84542189Y-86558854D01*
X84696428Y-86616215D01*
X84703409Y-86617146D01*
X84703411Y-86617147D01*
X84852561Y-86637048D01*
X84852565Y-86637048D01*
X84859542Y-86637979D01*
X84866553Y-86637341D01*
X84866557Y-86637341D01*
X85016403Y-86623704D01*
X85016404Y-86623704D01*
X85023424Y-86623065D01*
X85052062Y-86613760D01*
X85173230Y-86574390D01*
X85173233Y-86574389D01*
X85179929Y-86572213D01*
X85321279Y-86487951D01*
X85440449Y-86374468D01*
X85456458Y-86350373D01*
X85527614Y-86243275D01*
X85527615Y-86243273D01*
X85531515Y-86237403D01*
X85589951Y-86083568D01*
X85606841Y-85963387D01*
X85612302Y-85924534D01*
X85612303Y-85924527D01*
X85612853Y-85920610D01*
X85613141Y-85900000D01*
X85594798Y-85736466D01*
X85588998Y-85719809D01*
X85542998Y-85587717D01*
X85540680Y-85581060D01*
X85531192Y-85565875D01*
X85459578Y-85451270D01*
X85440442Y-85382901D01*
X85461307Y-85315039D01*
X85515549Y-85269231D01*
X85566432Y-85258500D01*
X85940500Y-85258500D01*
X86008621Y-85278502D01*
X86055114Y-85332158D01*
X86066500Y-85384500D01*
X86066500Y-94895737D01*
X86046498Y-94963858D01*
X85992842Y-95010351D01*
X85922568Y-95020455D01*
X85857988Y-94990961D01*
X85834708Y-94964177D01*
X85807822Y-94922617D01*
X85807820Y-94922614D01*
X85805014Y-94918277D01*
X85654670Y-94753051D01*
X85650619Y-94749852D01*
X85650615Y-94749848D01*
X85483414Y-94617800D01*
X85483410Y-94617798D01*
X85479359Y-94614598D01*
X85283789Y-94506638D01*
X85278920Y-94504914D01*
X85278916Y-94504912D01*
X85078087Y-94433795D01*
X85078083Y-94433794D01*
X85073212Y-94432069D01*
X85068119Y-94431162D01*
X85068116Y-94431161D01*
X84858373Y-94393800D01*
X84858367Y-94393799D01*
X84853284Y-94392894D01*
X84779452Y-94391992D01*
X84635081Y-94390228D01*
X84635079Y-94390228D01*
X84629911Y-94390165D01*
X84409091Y-94423955D01*
X84196756Y-94493357D01*
X83998607Y-94596507D01*
X83994474Y-94599610D01*
X83994471Y-94599612D01*
X83824100Y-94727530D01*
X83819965Y-94730635D01*
X83816393Y-94734373D01*
X83689520Y-94867138D01*
X83665629Y-94892138D01*
X83662715Y-94896410D01*
X83662714Y-94896411D01*
X83584990Y-95010351D01*
X83539743Y-95076680D01*
X83524985Y-95108473D01*
X83452257Y-95265154D01*
X83445688Y-95279305D01*
X83385989Y-95494570D01*
X83362251Y-95716695D01*
X83362548Y-95721848D01*
X83362548Y-95721851D01*
X83373874Y-95918275D01*
X83375110Y-95939715D01*
X83376247Y-95944761D01*
X83376248Y-95944767D01*
X83381647Y-95968722D01*
X83424222Y-96157639D01*
X83477464Y-96288760D01*
X83486921Y-96312048D01*
X83508266Y-96364616D01*
X83537550Y-96412403D01*
X83609002Y-96529002D01*
X83624987Y-96555088D01*
X83771250Y-96723938D01*
X83943126Y-96866632D01*
X83989805Y-96893909D01*
X84016445Y-96909476D01*
X84065169Y-96961114D01*
X84078240Y-97030897D01*
X84051509Y-97096669D01*
X84011055Y-97130027D01*
X83998607Y-97136507D01*
X83994474Y-97139610D01*
X83994471Y-97139612D01*
X83824100Y-97267530D01*
X83819965Y-97270635D01*
X83816393Y-97274373D01*
X83689520Y-97407138D01*
X83665629Y-97432138D01*
X83662715Y-97436410D01*
X83662714Y-97436411D01*
X83584990Y-97550351D01*
X83539743Y-97616680D01*
X83512672Y-97675000D01*
X83457293Y-97794305D01*
X83445688Y-97819305D01*
X83385989Y-98034570D01*
X83362251Y-98256695D01*
X83362548Y-98261848D01*
X83362548Y-98261851D01*
X83373674Y-98454812D01*
X83375110Y-98479715D01*
X83376247Y-98484761D01*
X83376248Y-98484767D01*
X83390485Y-98547939D01*
X83424222Y-98697639D01*
X83508266Y-98904616D01*
X83543678Y-98962403D01*
X83612906Y-99075373D01*
X83624987Y-99095088D01*
X83771250Y-99263938D01*
X83943126Y-99406632D01*
X83989805Y-99433909D01*
X84016445Y-99449476D01*
X84065169Y-99501114D01*
X84078240Y-99570897D01*
X84051509Y-99636669D01*
X84011055Y-99670027D01*
X83998607Y-99676507D01*
X83994474Y-99679610D01*
X83994471Y-99679612D01*
X83824100Y-99807530D01*
X83819965Y-99810635D01*
X83816393Y-99814373D01*
X83689520Y-99947138D01*
X83665629Y-99972138D01*
X83662715Y-99976410D01*
X83662714Y-99976411D01*
X83584990Y-100090351D01*
X83539743Y-100156680D01*
X83492716Y-100257992D01*
X83457293Y-100334305D01*
X83445688Y-100359305D01*
X83385989Y-100574570D01*
X83362251Y-100796695D01*
X83362548Y-100801848D01*
X83362548Y-100801851D01*
X83374812Y-101014547D01*
X83375110Y-101019715D01*
X83376247Y-101024761D01*
X83376248Y-101024767D01*
X83381647Y-101048722D01*
X83424222Y-101237639D01*
X83508266Y-101444616D01*
X83510965Y-101449020D01*
X83611439Y-101612979D01*
X83624987Y-101635088D01*
X83771250Y-101803938D01*
X83943126Y-101946632D01*
X83989805Y-101973909D01*
X84016445Y-101989476D01*
X84065169Y-102041114D01*
X84078240Y-102110897D01*
X84051509Y-102176669D01*
X84011055Y-102210027D01*
X83998607Y-102216507D01*
X83994474Y-102219610D01*
X83994471Y-102219612D01*
X83824100Y-102347530D01*
X83819965Y-102350635D01*
X83816393Y-102354373D01*
X83672402Y-102505051D01*
X83665629Y-102512138D01*
X83662715Y-102516410D01*
X83662714Y-102516411D01*
X83593185Y-102618337D01*
X83539743Y-102696680D01*
X83516163Y-102747479D01*
X83457293Y-102874305D01*
X83445688Y-102899305D01*
X83385989Y-103114570D01*
X83362251Y-103336695D01*
X83362548Y-103341848D01*
X83362548Y-103341851D01*
X83374162Y-103543275D01*
X83375110Y-103559715D01*
X83376247Y-103564761D01*
X83376248Y-103564767D01*
X83399648Y-103668597D01*
X83424222Y-103777639D01*
X83480870Y-103917147D01*
X83490759Y-103941500D01*
X83508266Y-103984616D01*
X83533065Y-104025084D01*
X83609328Y-104149534D01*
X83624987Y-104175088D01*
X83771250Y-104343938D01*
X83943126Y-104486632D01*
X83987122Y-104512341D01*
X84016445Y-104529476D01*
X84065169Y-104581114D01*
X84078240Y-104650897D01*
X84051509Y-104716669D01*
X84011055Y-104750027D01*
X83998607Y-104756507D01*
X83994474Y-104759610D01*
X83994471Y-104759612D01*
X83928729Y-104808973D01*
X83819965Y-104890635D01*
X83816396Y-104894370D01*
X83816389Y-104894376D01*
X83778726Y-104933787D01*
X83717201Y-104969217D01*
X83646289Y-104965759D01*
X83598227Y-104935519D01*
X83592486Y-104929737D01*
X83592482Y-104929734D01*
X83587522Y-104924739D01*
X83448580Y-104836563D01*
X83375735Y-104810624D01*
X83300189Y-104783723D01*
X83300187Y-104783722D01*
X83293555Y-104781361D01*
X83286569Y-104780528D01*
X83286565Y-104780527D01*
X83172071Y-104766875D01*
X83130153Y-104761877D01*
X83123150Y-104762613D01*
X83123149Y-104762613D01*
X82973503Y-104778341D01*
X82973499Y-104778342D01*
X82966495Y-104779078D01*
X82944492Y-104786568D01*
X82935292Y-104789700D01*
X82864360Y-104792716D01*
X82827175Y-104776806D01*
X82729536Y-104714842D01*
X82729530Y-104714839D01*
X82723580Y-104711063D01*
X82657135Y-104687403D01*
X82575189Y-104658223D01*
X82575187Y-104658222D01*
X82568555Y-104655861D01*
X82561569Y-104655028D01*
X82561565Y-104655027D01*
X82447071Y-104641375D01*
X82405153Y-104636377D01*
X82398150Y-104637113D01*
X82398149Y-104637113D01*
X82355097Y-104641638D01*
X82241495Y-104653578D01*
X82234827Y-104655848D01*
X82092382Y-104704340D01*
X82092379Y-104704341D01*
X82085715Y-104706610D01*
X81995880Y-104761877D01*
X81960370Y-104783723D01*
X81945555Y-104792837D01*
X81897047Y-104840340D01*
X81846783Y-104889562D01*
X81827982Y-104907973D01*
X81738838Y-105046297D01*
X81736427Y-105052920D01*
X81736426Y-105052923D01*
X81684966Y-105194309D01*
X81684965Y-105194314D01*
X81682556Y-105200932D01*
X81661931Y-105364194D01*
X81664119Y-105386507D01*
X81665436Y-105399939D01*
X81652177Y-105469687D01*
X81603314Y-105521194D01*
X81539159Y-105538232D01*
X81536088Y-105538211D01*
X81529097Y-105537377D01*
X81365439Y-105554578D01*
X81358771Y-105556848D01*
X81216326Y-105605340D01*
X81216323Y-105605341D01*
X81209659Y-105607610D01*
X81191511Y-105618775D01*
X81086302Y-105683500D01*
X81069499Y-105693837D01*
X80951926Y-105808973D01*
X80862782Y-105947297D01*
X80860371Y-105953920D01*
X80860370Y-105953923D01*
X80808910Y-106095309D01*
X80808909Y-106095314D01*
X80806500Y-106101932D01*
X80785875Y-106265194D01*
X80801933Y-106428968D01*
X80853876Y-106585115D01*
X80857525Y-106591140D01*
X80917451Y-106690088D01*
X80939123Y-106725873D01*
X80944014Y-106730938D01*
X80944015Y-106730939D01*
X81026139Y-106815981D01*
X81059071Y-106878878D01*
X81052771Y-106949594D01*
X81009239Y-107005679D01*
X80942296Y-107029325D01*
X80920585Y-107028622D01*
X80780153Y-107011877D01*
X80773150Y-107012613D01*
X80773149Y-107012613D01*
X80729935Y-107017155D01*
X80616495Y-107029078D01*
X80602106Y-107033976D01*
X80467382Y-107079840D01*
X80467379Y-107079841D01*
X80460715Y-107082110D01*
X80367692Y-107139338D01*
X80333990Y-107160072D01*
X80320555Y-107168337D01*
X80267994Y-107219809D01*
X80212031Y-107274612D01*
X80202982Y-107283473D01*
X80113838Y-107421797D01*
X80111427Y-107428420D01*
X80111426Y-107428423D01*
X80059966Y-107569809D01*
X80059965Y-107569814D01*
X80057556Y-107576432D01*
X80036931Y-107739694D01*
X80037619Y-107746708D01*
X80037520Y-107753752D01*
X80035378Y-107753722D01*
X80024051Y-107813305D01*
X79975189Y-107864812D01*
X79906236Y-107881726D01*
X79869644Y-107874553D01*
X79825189Y-107858723D01*
X79825187Y-107858722D01*
X79818555Y-107856361D01*
X79811569Y-107855528D01*
X79811565Y-107855527D01*
X79697071Y-107841875D01*
X79655153Y-107836877D01*
X79648150Y-107837613D01*
X79648149Y-107837613D01*
X79604935Y-107842155D01*
X79491495Y-107854078D01*
X79484827Y-107856348D01*
X79342382Y-107904840D01*
X79342379Y-107904841D01*
X79335715Y-107907110D01*
X79282003Y-107940154D01*
X79206056Y-107986877D01*
X79195555Y-107993337D01*
X79164289Y-108023955D01*
X79093502Y-108093275D01*
X79077982Y-108108473D01*
X78988838Y-108246797D01*
X78986427Y-108253420D01*
X78986426Y-108253423D01*
X78952570Y-108346443D01*
X78910476Y-108403615D01*
X78844155Y-108428953D01*
X78819251Y-108428463D01*
X78680153Y-108411877D01*
X78673150Y-108412613D01*
X78673149Y-108412613D01*
X78634312Y-108416695D01*
X78516495Y-108429078D01*
X78509827Y-108431348D01*
X78367382Y-108479840D01*
X78367379Y-108479841D01*
X78360715Y-108482110D01*
X78320166Y-108507056D01*
X78231724Y-108561466D01*
X78220555Y-108568337D01*
X78102982Y-108683473D01*
X78013838Y-108821797D01*
X78011427Y-108828420D01*
X78011426Y-108828423D01*
X77959966Y-108969809D01*
X77959965Y-108969814D01*
X77957556Y-108976432D01*
X77936931Y-109139694D01*
X77952989Y-109303468D01*
X78004932Y-109459615D01*
X78008581Y-109465640D01*
X78078160Y-109580527D01*
X78090179Y-109600373D01*
X78095070Y-109605438D01*
X78095071Y-109605439D01*
X78133773Y-109645516D01*
X78204491Y-109718747D01*
X78342189Y-109808854D01*
X78496428Y-109866215D01*
X78503409Y-109867146D01*
X78503411Y-109867147D01*
X78652561Y-109887048D01*
X78652565Y-109887048D01*
X78659542Y-109887979D01*
X78666553Y-109887341D01*
X78666557Y-109887341D01*
X78816403Y-109873704D01*
X78816404Y-109873704D01*
X78823424Y-109873065D01*
X78861088Y-109860827D01*
X78973230Y-109824390D01*
X78973233Y-109824389D01*
X78979929Y-109822213D01*
X79121279Y-109737951D01*
X79240449Y-109624468D01*
X79244350Y-109618597D01*
X79327614Y-109493275D01*
X79327615Y-109493273D01*
X79331515Y-109487403D01*
X79366604Y-109395031D01*
X79373731Y-109376268D01*
X79416620Y-109319690D01*
X79483288Y-109295281D01*
X79508181Y-109296119D01*
X79527556Y-109298704D01*
X79627561Y-109312048D01*
X79627565Y-109312048D01*
X79634542Y-109312979D01*
X79641553Y-109312341D01*
X79641557Y-109312341D01*
X79791403Y-109298704D01*
X79791404Y-109298704D01*
X79798424Y-109298065D01*
X79901655Y-109264523D01*
X79948230Y-109249390D01*
X79948233Y-109249389D01*
X79954929Y-109247213D01*
X80096279Y-109162951D01*
X80215449Y-109049468D01*
X80219350Y-109043597D01*
X80302614Y-108918275D01*
X80302615Y-108918273D01*
X80306515Y-108912403D01*
X80364951Y-108758568D01*
X80387853Y-108595610D01*
X80388141Y-108575000D01*
X80388204Y-108575001D01*
X80404593Y-108507056D01*
X80455912Y-108457997D01*
X80525609Y-108444470D01*
X80557715Y-108451818D01*
X80589823Y-108463759D01*
X80589826Y-108463760D01*
X80596428Y-108466215D01*
X80603409Y-108467146D01*
X80603411Y-108467147D01*
X80752561Y-108487048D01*
X80752565Y-108487048D01*
X80759542Y-108487979D01*
X80766553Y-108487341D01*
X80766557Y-108487341D01*
X80916403Y-108473704D01*
X80916404Y-108473704D01*
X80923424Y-108473065D01*
X81051815Y-108431348D01*
X81073230Y-108424390D01*
X81073233Y-108424389D01*
X81079929Y-108422213D01*
X81221279Y-108337951D01*
X81340449Y-108224468D01*
X81346003Y-108216109D01*
X81427614Y-108093275D01*
X81427615Y-108093273D01*
X81431515Y-108087403D01*
X81489951Y-107933568D01*
X81500802Y-107856361D01*
X81512302Y-107774534D01*
X81512303Y-107774527D01*
X81512853Y-107770610D01*
X81513141Y-107750000D01*
X81494798Y-107586466D01*
X81488998Y-107569809D01*
X81448338Y-107453051D01*
X81440680Y-107431060D01*
X81436799Y-107424848D01*
X81357209Y-107297479D01*
X81353476Y-107291505D01*
X81272339Y-107209800D01*
X81238532Y-107147370D01*
X81243844Y-107076572D01*
X81286588Y-107019885D01*
X81353195Y-106995306D01*
X81378408Y-106996123D01*
X81393786Y-106998175D01*
X81501505Y-107012548D01*
X81501509Y-107012548D01*
X81508486Y-107013479D01*
X81515497Y-107012841D01*
X81515501Y-107012841D01*
X81665347Y-106999204D01*
X81665348Y-106999204D01*
X81672368Y-106998565D01*
X81695399Y-106991082D01*
X81822174Y-106949890D01*
X81822177Y-106949889D01*
X81828873Y-106947713D01*
X81970223Y-106863451D01*
X82089393Y-106749968D01*
X82097533Y-106737717D01*
X82176558Y-106618775D01*
X82176559Y-106618773D01*
X82180459Y-106612903D01*
X82238895Y-106459068D01*
X82258637Y-106318597D01*
X82261246Y-106300034D01*
X82261247Y-106300027D01*
X82261797Y-106296110D01*
X82262085Y-106275500D01*
X82259423Y-106251768D01*
X82271707Y-106181842D01*
X82319846Y-106129658D01*
X82384536Y-106112478D01*
X82384542Y-106112479D01*
X82391553Y-106111841D01*
X82391557Y-106111841D01*
X82541403Y-106098204D01*
X82541404Y-106098204D01*
X82548424Y-106097565D01*
X82563083Y-106092802D01*
X82591312Y-106083630D01*
X82662280Y-106081603D01*
X82699238Y-106098029D01*
X82792189Y-106158854D01*
X82946428Y-106216215D01*
X82953409Y-106217146D01*
X82953411Y-106217147D01*
X83102561Y-106237048D01*
X83102565Y-106237048D01*
X83109542Y-106237979D01*
X83116553Y-106237341D01*
X83116557Y-106237341D01*
X83183771Y-106231224D01*
X83273424Y-106223065D01*
X83277163Y-106221850D01*
X83346687Y-106227646D01*
X83403018Y-106270859D01*
X83419935Y-106308167D01*
X83421540Y-106307664D01*
X83423085Y-106312594D01*
X83424222Y-106317639D01*
X83508266Y-106524616D01*
X83552916Y-106597479D01*
X83609002Y-106689002D01*
X83624987Y-106715088D01*
X83771250Y-106883938D01*
X83943126Y-107026632D01*
X83983116Y-107050000D01*
X84016445Y-107069476D01*
X84065169Y-107121114D01*
X84078240Y-107190897D01*
X84051509Y-107256669D01*
X84011055Y-107290027D01*
X83998607Y-107296507D01*
X83994474Y-107299610D01*
X83994471Y-107299612D01*
X83827358Y-107425084D01*
X83819965Y-107430635D01*
X83816393Y-107434373D01*
X83689520Y-107567138D01*
X83665629Y-107592138D01*
X83662715Y-107596410D01*
X83662714Y-107596411D01*
X83588644Y-107704994D01*
X83539743Y-107776680D01*
X83501660Y-107858723D01*
X83457293Y-107954305D01*
X83445688Y-107979305D01*
X83385989Y-108194570D01*
X83362251Y-108416695D01*
X83362548Y-108421848D01*
X83362548Y-108421851D01*
X83374812Y-108634547D01*
X83375110Y-108639715D01*
X83376247Y-108644761D01*
X83376248Y-108644767D01*
X83393588Y-108721707D01*
X83424222Y-108857639D01*
X83508266Y-109064616D01*
X83510965Y-109069020D01*
X83609002Y-109229002D01*
X83624987Y-109255088D01*
X83771250Y-109423938D01*
X83839760Y-109480816D01*
X83937399Y-109561877D01*
X83943126Y-109566632D01*
X84013595Y-109607811D01*
X84016445Y-109609476D01*
X84065169Y-109661114D01*
X84078240Y-109730897D01*
X84051509Y-109796669D01*
X84011055Y-109830027D01*
X84005717Y-109832806D01*
X83998607Y-109836507D01*
X83994474Y-109839610D01*
X83994471Y-109839612D01*
X83941302Y-109879533D01*
X83820283Y-109970397D01*
X83753799Y-109995302D01*
X83684404Y-109980310D01*
X83637777Y-109936406D01*
X83582209Y-109847479D01*
X83578476Y-109841505D01*
X83505817Y-109768337D01*
X83467486Y-109729737D01*
X83467482Y-109729734D01*
X83462522Y-109724739D01*
X83323580Y-109636563D01*
X83209374Y-109595896D01*
X83175189Y-109583723D01*
X83175187Y-109583722D01*
X83168555Y-109581361D01*
X83161569Y-109580528D01*
X83161565Y-109580527D01*
X83045031Y-109566632D01*
X83005153Y-109561877D01*
X82998150Y-109562613D01*
X82998149Y-109562613D01*
X82959912Y-109566632D01*
X82841495Y-109579078D01*
X82834827Y-109581348D01*
X82692382Y-109629840D01*
X82692379Y-109629841D01*
X82685715Y-109632110D01*
X82663924Y-109645516D01*
X82556056Y-109711877D01*
X82545555Y-109718337D01*
X82506726Y-109756361D01*
X82443163Y-109818607D01*
X82427982Y-109833473D01*
X82338838Y-109971797D01*
X82336427Y-109978420D01*
X82336426Y-109978423D01*
X82284966Y-110119809D01*
X82284965Y-110119814D01*
X82282556Y-110126432D01*
X82261931Y-110289694D01*
X82277989Y-110453468D01*
X82329932Y-110609615D01*
X82333581Y-110615640D01*
X82390468Y-110709570D01*
X82415179Y-110750373D01*
X82529491Y-110868747D01*
X82667189Y-110958854D01*
X82821428Y-111016215D01*
X82828409Y-111017146D01*
X82828411Y-111017147D01*
X82977561Y-111037048D01*
X82977565Y-111037048D01*
X82984542Y-111037979D01*
X82991553Y-111037341D01*
X82991557Y-111037341D01*
X83141403Y-111023704D01*
X83141404Y-111023704D01*
X83148424Y-111023065D01*
X83206749Y-111004114D01*
X83277716Y-111002086D01*
X83338514Y-111038749D01*
X83369840Y-111102461D01*
X83371476Y-111116693D01*
X83374190Y-111163758D01*
X83375110Y-111179715D01*
X83376247Y-111184761D01*
X83376248Y-111184767D01*
X83385278Y-111224835D01*
X83424222Y-111397639D01*
X83485673Y-111548976D01*
X83505055Y-111596707D01*
X83508266Y-111604616D01*
X83535007Y-111648253D01*
X83619151Y-111785564D01*
X83624987Y-111795088D01*
X83771250Y-111963938D01*
X83943126Y-112106632D01*
X83981810Y-112129237D01*
X84016445Y-112149476D01*
X84065169Y-112201114D01*
X84078240Y-112270897D01*
X84051509Y-112336669D01*
X84011055Y-112370027D01*
X83998607Y-112376507D01*
X83994474Y-112379610D01*
X83994471Y-112379612D01*
X83824834Y-112506979D01*
X83819965Y-112510635D01*
X83816393Y-112514373D01*
X83685429Y-112651419D01*
X83665629Y-112672138D01*
X83662715Y-112676410D01*
X83662714Y-112676411D01*
X83598214Y-112770965D01*
X83539743Y-112856680D01*
X83512143Y-112916139D01*
X83455709Y-113037717D01*
X83445688Y-113059305D01*
X83385989Y-113274570D01*
X83362251Y-113496695D01*
X83362548Y-113501848D01*
X83362548Y-113501851D01*
X83374706Y-113712711D01*
X83375110Y-113719715D01*
X83376247Y-113724761D01*
X83376248Y-113724767D01*
X83389642Y-113784198D01*
X83424222Y-113937639D01*
X83465662Y-114039694D01*
X83505465Y-114137717D01*
X83508266Y-114144616D01*
X83546542Y-114207077D01*
X83615426Y-114319485D01*
X83624987Y-114335088D01*
X83771250Y-114503938D01*
X83943126Y-114646632D01*
X83989805Y-114673909D01*
X84016445Y-114689476D01*
X84065169Y-114741114D01*
X84078240Y-114810897D01*
X84051509Y-114876669D01*
X84011055Y-114910027D01*
X83998607Y-114916507D01*
X83994474Y-114919610D01*
X83994471Y-114919612D01*
X83824100Y-115047530D01*
X83819965Y-115050635D01*
X83816393Y-115054373D01*
X83689520Y-115187138D01*
X83665629Y-115212138D01*
X83662715Y-115216410D01*
X83662714Y-115216411D01*
X83597872Y-115311466D01*
X83539743Y-115396680D01*
X83524486Y-115429549D01*
X83457293Y-115574305D01*
X83445688Y-115599305D01*
X83385989Y-115814570D01*
X83362251Y-116036695D01*
X83362548Y-116041848D01*
X83362548Y-116041851D01*
X83373793Y-116236877D01*
X83375110Y-116259715D01*
X83376247Y-116264761D01*
X83376248Y-116264767D01*
X83387646Y-116315340D01*
X83424222Y-116477639D01*
X83450298Y-116541857D01*
X83499332Y-116662613D01*
X83508266Y-116684616D01*
X83510965Y-116689020D01*
X83609002Y-116849002D01*
X83624987Y-116875088D01*
X83771250Y-117043938D01*
X83775230Y-117047242D01*
X83779981Y-117051187D01*
X83819616Y-117110090D01*
X83821113Y-117181071D01*
X83783997Y-117241593D01*
X83743725Y-117266112D01*
X83703390Y-117281233D01*
X83628295Y-117309385D01*
X83511739Y-117396739D01*
X83424385Y-117513295D01*
X83373255Y-117649684D01*
X83366500Y-117711866D01*
X83366500Y-119508134D01*
X83373255Y-119570316D01*
X83424385Y-119706705D01*
X83511739Y-119823261D01*
X83628295Y-119910615D01*
X83764684Y-119961745D01*
X83826866Y-119968500D01*
X85623134Y-119968500D01*
X85685316Y-119961745D01*
X85821705Y-119910615D01*
X85843212Y-119894497D01*
X85864935Y-119878216D01*
X85931442Y-119853368D01*
X86000824Y-119868421D01*
X86051054Y-119918595D01*
X86066500Y-119979042D01*
X86066500Y-127890500D01*
X86046498Y-127958621D01*
X85992842Y-128005114D01*
X85940500Y-128016500D01*
X84369740Y-128016500D01*
X84301619Y-127996498D01*
X84255126Y-127942842D01*
X84245022Y-127872568D01*
X84274516Y-127807988D01*
X84330804Y-127770667D01*
X84338268Y-127768242D01*
X84432155Y-127737736D01*
X84473230Y-127724390D01*
X84473233Y-127724389D01*
X84479929Y-127722213D01*
X84621279Y-127637951D01*
X84740449Y-127524468D01*
X84756458Y-127500373D01*
X84827614Y-127393275D01*
X84827615Y-127393273D01*
X84831515Y-127387403D01*
X84889951Y-127233568D01*
X84912853Y-127070610D01*
X84913141Y-127050000D01*
X84894798Y-126886466D01*
X84888998Y-126869809D01*
X84850677Y-126759767D01*
X84840680Y-126731060D01*
X84816898Y-126693000D01*
X84757209Y-126597479D01*
X84753476Y-126591505D01*
X84688985Y-126526562D01*
X84642486Y-126479737D01*
X84642482Y-126479734D01*
X84637522Y-126474739D01*
X84498580Y-126386563D01*
X84374447Y-126342361D01*
X84350189Y-126333723D01*
X84350187Y-126333722D01*
X84343555Y-126331361D01*
X84336569Y-126330528D01*
X84336565Y-126330527D01*
X84222071Y-126316875D01*
X84180153Y-126311877D01*
X84173150Y-126312613D01*
X84173149Y-126312613D01*
X84129935Y-126317155D01*
X84016495Y-126329078D01*
X84009827Y-126331348D01*
X83867382Y-126379840D01*
X83867379Y-126379841D01*
X83860715Y-126382110D01*
X83720555Y-126468337D01*
X83602982Y-126583473D01*
X83513838Y-126721797D01*
X83511427Y-126728420D01*
X83511426Y-126728423D01*
X83459966Y-126869809D01*
X83459965Y-126869814D01*
X83457556Y-126876432D01*
X83436931Y-127039694D01*
X83452989Y-127203468D01*
X83504932Y-127359615D01*
X83508581Y-127365640D01*
X83558757Y-127448489D01*
X83590179Y-127500373D01*
X83704491Y-127618747D01*
X83842189Y-127708854D01*
X83848793Y-127711310D01*
X83989826Y-127763760D01*
X83989828Y-127763761D01*
X83996428Y-127766215D01*
X84003412Y-127767147D01*
X84007805Y-127768242D01*
X84069064Y-127804129D01*
X84101196Y-127867437D01*
X84094001Y-127938068D01*
X84049762Y-127993597D01*
X83977325Y-128016500D01*
X81394740Y-128016500D01*
X81326619Y-127996498D01*
X81280126Y-127942842D01*
X81270022Y-127872568D01*
X81299516Y-127807988D01*
X81355804Y-127770667D01*
X81363268Y-127768242D01*
X81457155Y-127737736D01*
X81498230Y-127724390D01*
X81498233Y-127724389D01*
X81504929Y-127722213D01*
X81646279Y-127637951D01*
X81765449Y-127524468D01*
X81781458Y-127500373D01*
X81852614Y-127393275D01*
X81852615Y-127393273D01*
X81856515Y-127387403D01*
X81914951Y-127233568D01*
X81937853Y-127070610D01*
X81938141Y-127050000D01*
X81919798Y-126886466D01*
X81913998Y-126869809D01*
X81875677Y-126759767D01*
X81865680Y-126731060D01*
X81841898Y-126693000D01*
X81782209Y-126597479D01*
X81778476Y-126591505D01*
X81713985Y-126526562D01*
X81667486Y-126479737D01*
X81667482Y-126479734D01*
X81662522Y-126474739D01*
X81523580Y-126386563D01*
X81399447Y-126342361D01*
X81375189Y-126333723D01*
X81375187Y-126333722D01*
X81368555Y-126331361D01*
X81361569Y-126330528D01*
X81361565Y-126330527D01*
X81247071Y-126316875D01*
X81205153Y-126311877D01*
X81198150Y-126312613D01*
X81198149Y-126312613D01*
X81154935Y-126317155D01*
X81041495Y-126329078D01*
X81034827Y-126331348D01*
X80892382Y-126379840D01*
X80892379Y-126379841D01*
X80885715Y-126382110D01*
X80745555Y-126468337D01*
X80627982Y-126583473D01*
X80538838Y-126721797D01*
X80536427Y-126728420D01*
X80536426Y-126728423D01*
X80484966Y-126869809D01*
X80484965Y-126869814D01*
X80482556Y-126876432D01*
X80461931Y-127039694D01*
X80477989Y-127203468D01*
X80529932Y-127359615D01*
X80533581Y-127365640D01*
X80583757Y-127448489D01*
X80615179Y-127500373D01*
X80729491Y-127618747D01*
X80867189Y-127708854D01*
X80873793Y-127711310D01*
X81014826Y-127763760D01*
X81014828Y-127763761D01*
X81021428Y-127766215D01*
X81028412Y-127767147D01*
X81032805Y-127768242D01*
X81094064Y-127804129D01*
X81126196Y-127867437D01*
X81119001Y-127938068D01*
X81074762Y-127993597D01*
X81002325Y-128016500D01*
X75867674Y-128016500D01*
X75799553Y-127996498D01*
X75753060Y-127942842D01*
X75742956Y-127872568D01*
X75772450Y-127807988D01*
X75812242Y-127777348D01*
X75893100Y-127737736D01*
X75901945Y-127732464D01*
X76075328Y-127608792D01*
X76083200Y-127602139D01*
X76234052Y-127451812D01*
X76240730Y-127443965D01*
X76365003Y-127271020D01*
X76370313Y-127262183D01*
X76464670Y-127071267D01*
X76468469Y-127061672D01*
X76530377Y-126857910D01*
X76532555Y-126847837D01*
X76533986Y-126836962D01*
X76531775Y-126822778D01*
X76518617Y-126819000D01*
X75072000Y-126819000D01*
X75003879Y-126798998D01*
X74957386Y-126745342D01*
X74946000Y-126693000D01*
X74946000Y-126437000D01*
X74966002Y-126368879D01*
X75019658Y-126322386D01*
X75072000Y-126311000D01*
X76518344Y-126311000D01*
X76531875Y-126307027D01*
X76533180Y-126297947D01*
X76491214Y-126130875D01*
X76487894Y-126121124D01*
X76402972Y-125925814D01*
X76398105Y-125916739D01*
X76282426Y-125737926D01*
X76276136Y-125729757D01*
X76132293Y-125571677D01*
X76101241Y-125507831D01*
X76109635Y-125437333D01*
X76154812Y-125382564D01*
X76181256Y-125368895D01*
X76288297Y-125328767D01*
X76296705Y-125325615D01*
X76413261Y-125238261D01*
X76500615Y-125121705D01*
X76551745Y-124985316D01*
X76558500Y-124923134D01*
X76558500Y-123126866D01*
X76551745Y-123064684D01*
X76500615Y-122928295D01*
X76413261Y-122811739D01*
X76296705Y-122724385D01*
X76160316Y-122673255D01*
X76098134Y-122666500D01*
X74301866Y-122666500D01*
X74239684Y-122673255D01*
X74103295Y-122724385D01*
X73986739Y-122811739D01*
X73899385Y-122928295D01*
X73896233Y-122936703D01*
X73854919Y-123046907D01*
X73812277Y-123103671D01*
X73745716Y-123128371D01*
X73676367Y-123113163D01*
X73643743Y-123087476D01*
X73593151Y-123031875D01*
X73593142Y-123031866D01*
X73589670Y-123028051D01*
X73585619Y-123024852D01*
X73585615Y-123024848D01*
X73418414Y-122892800D01*
X73418410Y-122892798D01*
X73414359Y-122889598D01*
X73218789Y-122781638D01*
X73213920Y-122779914D01*
X73213916Y-122779912D01*
X73013087Y-122708795D01*
X73013083Y-122708794D01*
X73008212Y-122707069D01*
X73003119Y-122706162D01*
X73003116Y-122706161D01*
X72793373Y-122668800D01*
X72793367Y-122668799D01*
X72788284Y-122667894D01*
X72714452Y-122666992D01*
X72570081Y-122665228D01*
X72570079Y-122665228D01*
X72564911Y-122665165D01*
X72344091Y-122698955D01*
X72131756Y-122768357D01*
X71933607Y-122871507D01*
X71929474Y-122874610D01*
X71929471Y-122874612D01*
X71759100Y-123002530D01*
X71754965Y-123005635D01*
X71728723Y-123033096D01*
X71653980Y-123111310D01*
X71600629Y-123167138D01*
X71493201Y-123324621D01*
X71438293Y-123369621D01*
X71367768Y-123377792D01*
X71304021Y-123346538D01*
X71283324Y-123322054D01*
X71202822Y-123197617D01*
X71202820Y-123197614D01*
X71200014Y-123193277D01*
X71049670Y-123028051D01*
X71045619Y-123024852D01*
X71045615Y-123024848D01*
X70878414Y-122892800D01*
X70878410Y-122892798D01*
X70874359Y-122889598D01*
X70678789Y-122781638D01*
X70673920Y-122779914D01*
X70673916Y-122779912D01*
X70473087Y-122708795D01*
X70473083Y-122708794D01*
X70468212Y-122707069D01*
X70463119Y-122706162D01*
X70463116Y-122706161D01*
X70253373Y-122668800D01*
X70253367Y-122668799D01*
X70248284Y-122667894D01*
X70174452Y-122666992D01*
X70030081Y-122665228D01*
X70030079Y-122665228D01*
X70024911Y-122665165D01*
X69804091Y-122698955D01*
X69591756Y-122768357D01*
X69393607Y-122871507D01*
X69389474Y-122874610D01*
X69389471Y-122874612D01*
X69219100Y-123002530D01*
X69214965Y-123005635D01*
X69188723Y-123033096D01*
X69113980Y-123111310D01*
X69060629Y-123167138D01*
X68934743Y-123351680D01*
X68840688Y-123554305D01*
X68780989Y-123769570D01*
X68757251Y-123991695D01*
X68770110Y-124214715D01*
X68771247Y-124219761D01*
X68771248Y-124219767D01*
X68795304Y-124326508D01*
X68819222Y-124432639D01*
X68903266Y-124639616D01*
X68940685Y-124700678D01*
X69017291Y-124825688D01*
X69019987Y-124830088D01*
X69166250Y-124998938D01*
X69338126Y-125141632D01*
X69408595Y-125182811D01*
X69411445Y-125184476D01*
X69460169Y-125236114D01*
X69473240Y-125305897D01*
X69446509Y-125371669D01*
X69406055Y-125405027D01*
X69393607Y-125411507D01*
X69389474Y-125414610D01*
X69389471Y-125414612D01*
X69303809Y-125478929D01*
X69214965Y-125545635D01*
X69060629Y-125707138D01*
X68934743Y-125891680D01*
X68840688Y-126094305D01*
X68780989Y-126309570D01*
X68757251Y-126531695D01*
X68757548Y-126536848D01*
X68757548Y-126536851D01*
X68768594Y-126728423D01*
X68770110Y-126754715D01*
X68771247Y-126759761D01*
X68771248Y-126759767D01*
X68784597Y-126819000D01*
X68819222Y-126972639D01*
X68903266Y-127179616D01*
X68940364Y-127240154D01*
X69017291Y-127365688D01*
X69019987Y-127370088D01*
X69166250Y-127538938D01*
X69338126Y-127681632D01*
X69430988Y-127735896D01*
X69509393Y-127781712D01*
X69558117Y-127833350D01*
X69571188Y-127903133D01*
X69544457Y-127968905D01*
X69486410Y-128009784D01*
X69445823Y-128016500D01*
X59184862Y-128016500D01*
X59116741Y-127996498D01*
X59070248Y-127942842D01*
X59058862Y-127890428D01*
X59061975Y-122439694D01*
X82761931Y-122439694D01*
X82777989Y-122603468D01*
X82829932Y-122759615D01*
X82833581Y-122765640D01*
X82910593Y-122892800D01*
X82915179Y-122900373D01*
X83029491Y-123018747D01*
X83167189Y-123108854D01*
X83321428Y-123166215D01*
X83328409Y-123167146D01*
X83328411Y-123167147D01*
X83477561Y-123187048D01*
X83477565Y-123187048D01*
X83484542Y-123187979D01*
X83491553Y-123187341D01*
X83491557Y-123187341D01*
X83641403Y-123173704D01*
X83641404Y-123173704D01*
X83648424Y-123173065D01*
X83677062Y-123163760D01*
X83798230Y-123124390D01*
X83798233Y-123124389D01*
X83804929Y-123122213D01*
X83946279Y-123037951D01*
X84065449Y-122924468D01*
X84081458Y-122900373D01*
X84152614Y-122793275D01*
X84152615Y-122793273D01*
X84156515Y-122787403D01*
X84214951Y-122633568D01*
X84237853Y-122470610D01*
X84238141Y-122450000D01*
X84219798Y-122286466D01*
X84213998Y-122269809D01*
X84167998Y-122137717D01*
X84165680Y-122131060D01*
X84078476Y-121991505D01*
X84020499Y-121933122D01*
X83967486Y-121879737D01*
X83967482Y-121879734D01*
X83962522Y-121874739D01*
X83823580Y-121786563D01*
X83774447Y-121769068D01*
X83675189Y-121733723D01*
X83675187Y-121733722D01*
X83668555Y-121731361D01*
X83661569Y-121730528D01*
X83661565Y-121730527D01*
X83547071Y-121716875D01*
X83505153Y-121711877D01*
X83498150Y-121712613D01*
X83498149Y-121712613D01*
X83454935Y-121717155D01*
X83341495Y-121729078D01*
X83334827Y-121731348D01*
X83192382Y-121779840D01*
X83192379Y-121779841D01*
X83185715Y-121782110D01*
X83045555Y-121868337D01*
X82927982Y-121983473D01*
X82838838Y-122121797D01*
X82836427Y-122128420D01*
X82836426Y-122128423D01*
X82784966Y-122269809D01*
X82784965Y-122269814D01*
X82782556Y-122276432D01*
X82761931Y-122439694D01*
X59061975Y-122439694D01*
X59063476Y-119811793D01*
X59083517Y-119743684D01*
X59137199Y-119697221D01*
X59207479Y-119687158D01*
X59272043Y-119716688D01*
X59290301Y-119736299D01*
X59336739Y-119798261D01*
X59453295Y-119885615D01*
X59589684Y-119936745D01*
X59651866Y-119943500D01*
X61448134Y-119943500D01*
X61510316Y-119936745D01*
X61517712Y-119933973D01*
X61517718Y-119933971D01*
X61623014Y-119894497D01*
X61693821Y-119889314D01*
X61756190Y-119923235D01*
X61790319Y-119985491D01*
X61785644Y-120055572D01*
X61781647Y-120066555D01*
X61734966Y-120194809D01*
X61734965Y-120194814D01*
X61732556Y-120201432D01*
X61711931Y-120364694D01*
X61727989Y-120528468D01*
X61779932Y-120684615D01*
X61865179Y-120825373D01*
X61979491Y-120943747D01*
X62117189Y-121033854D01*
X62271428Y-121091215D01*
X62278409Y-121092146D01*
X62278411Y-121092147D01*
X62427561Y-121112048D01*
X62427565Y-121112048D01*
X62434542Y-121112979D01*
X62441553Y-121112341D01*
X62441557Y-121112341D01*
X62591403Y-121098704D01*
X62591404Y-121098704D01*
X62598424Y-121098065D01*
X62627062Y-121088760D01*
X62748230Y-121049390D01*
X62748233Y-121049389D01*
X62754929Y-121047213D01*
X62896279Y-120962951D01*
X63015449Y-120849468D01*
X63031458Y-120825373D01*
X63102614Y-120718275D01*
X63102615Y-120718273D01*
X63106515Y-120712403D01*
X63164951Y-120558568D01*
X63187853Y-120395610D01*
X63188141Y-120375000D01*
X63169798Y-120211466D01*
X63163998Y-120194809D01*
X63119335Y-120066555D01*
X63115680Y-120056060D01*
X63071584Y-119985491D01*
X63032209Y-119922479D01*
X63028476Y-119916505D01*
X62941224Y-119828642D01*
X62917486Y-119804737D01*
X62917482Y-119804734D01*
X62912522Y-119799739D01*
X62773580Y-119711563D01*
X62643249Y-119665154D01*
X62625189Y-119658723D01*
X62625187Y-119658722D01*
X62618555Y-119656361D01*
X62611569Y-119655528D01*
X62611565Y-119655527D01*
X62497071Y-119641875D01*
X62455153Y-119636877D01*
X62448150Y-119637613D01*
X62448149Y-119637613D01*
X62404935Y-119642155D01*
X62291495Y-119654078D01*
X62284827Y-119656348D01*
X62142382Y-119704840D01*
X62142379Y-119704841D01*
X62135715Y-119707110D01*
X62102453Y-119727573D01*
X62065778Y-119750135D01*
X61997276Y-119768793D01*
X61929563Y-119747454D01*
X61884135Y-119692894D01*
X61875416Y-119622435D01*
X61881772Y-119598595D01*
X61901745Y-119545316D01*
X61908500Y-119483134D01*
X61908500Y-118864694D01*
X63511931Y-118864694D01*
X63527989Y-119028468D01*
X63579932Y-119184615D01*
X63583581Y-119190640D01*
X63656757Y-119311466D01*
X63665179Y-119325373D01*
X63779491Y-119443747D01*
X63917189Y-119533854D01*
X64071428Y-119591215D01*
X64078409Y-119592146D01*
X64078411Y-119592147D01*
X64227561Y-119612048D01*
X64227565Y-119612048D01*
X64234542Y-119612979D01*
X64241553Y-119612341D01*
X64241557Y-119612341D01*
X64391403Y-119598704D01*
X64391404Y-119598704D01*
X64398424Y-119598065D01*
X64427062Y-119588760D01*
X64548230Y-119549390D01*
X64548233Y-119549389D01*
X64554929Y-119547213D01*
X64693355Y-119464694D01*
X72011931Y-119464694D01*
X72027989Y-119628468D01*
X72079932Y-119784615D01*
X72083581Y-119790640D01*
X72146480Y-119894497D01*
X72165179Y-119925373D01*
X72279491Y-120043747D01*
X72417189Y-120133854D01*
X72571428Y-120191215D01*
X72578409Y-120192146D01*
X72578411Y-120192147D01*
X72727561Y-120212048D01*
X72727565Y-120212048D01*
X72734542Y-120212979D01*
X72741553Y-120212341D01*
X72741557Y-120212341D01*
X72891403Y-120198704D01*
X72891404Y-120198704D01*
X72898424Y-120198065D01*
X72927062Y-120188760D01*
X73048230Y-120149390D01*
X73048233Y-120149389D01*
X73054929Y-120147213D01*
X73196279Y-120062951D01*
X73315449Y-119949468D01*
X73319414Y-119943500D01*
X73402614Y-119818275D01*
X73402615Y-119818273D01*
X73406515Y-119812403D01*
X73464951Y-119658568D01*
X73480601Y-119547213D01*
X73487302Y-119499534D01*
X73487303Y-119499527D01*
X73487853Y-119495610D01*
X73488141Y-119475000D01*
X73469798Y-119311466D01*
X73463998Y-119294809D01*
X73445709Y-119242292D01*
X73415680Y-119156060D01*
X73407899Y-119143607D01*
X73332209Y-119022479D01*
X73328476Y-119016505D01*
X73231997Y-118919350D01*
X73217486Y-118904737D01*
X73217482Y-118904734D01*
X73212522Y-118899739D01*
X73073580Y-118811563D01*
X73024447Y-118794068D01*
X72925189Y-118758723D01*
X72925187Y-118758722D01*
X72918555Y-118756361D01*
X72911569Y-118755528D01*
X72911565Y-118755527D01*
X72797071Y-118741875D01*
X72755153Y-118736877D01*
X72748150Y-118737613D01*
X72748149Y-118737613D01*
X72704935Y-118742155D01*
X72591495Y-118754078D01*
X72584827Y-118756348D01*
X72442382Y-118804840D01*
X72442379Y-118804841D01*
X72435715Y-118807110D01*
X72295555Y-118893337D01*
X72177982Y-119008473D01*
X72088838Y-119146797D01*
X72086427Y-119153420D01*
X72086426Y-119153423D01*
X72034966Y-119294809D01*
X72034965Y-119294814D01*
X72032556Y-119301432D01*
X72011931Y-119464694D01*
X64693355Y-119464694D01*
X64696279Y-119462951D01*
X64815449Y-119349468D01*
X64831458Y-119325373D01*
X64902614Y-119218275D01*
X64902615Y-119218273D01*
X64906515Y-119212403D01*
X64964951Y-119058568D01*
X64984517Y-118919350D01*
X64987302Y-118899534D01*
X64987303Y-118899527D01*
X64987853Y-118895610D01*
X64988141Y-118875000D01*
X64969798Y-118711466D01*
X64963998Y-118694809D01*
X64917998Y-118562717D01*
X64915680Y-118556060D01*
X64880359Y-118499534D01*
X64858588Y-118464694D01*
X75286931Y-118464694D01*
X75302989Y-118628468D01*
X75354932Y-118784615D01*
X75358581Y-118790640D01*
X75422369Y-118895965D01*
X75440179Y-118925373D01*
X75554491Y-119043747D01*
X75692189Y-119133854D01*
X75846428Y-119191215D01*
X75853409Y-119192146D01*
X75853411Y-119192147D01*
X76002561Y-119212048D01*
X76002565Y-119212048D01*
X76009542Y-119212979D01*
X76016553Y-119212341D01*
X76016557Y-119212341D01*
X76166403Y-119198704D01*
X76166404Y-119198704D01*
X76173424Y-119198065D01*
X76202062Y-119188760D01*
X76323230Y-119149390D01*
X76323233Y-119149389D01*
X76329929Y-119147213D01*
X76471279Y-119062951D01*
X76590449Y-118949468D01*
X76606458Y-118925373D01*
X76677614Y-118818275D01*
X76677615Y-118818273D01*
X76681515Y-118812403D01*
X76739951Y-118658568D01*
X76753422Y-118562717D01*
X76762302Y-118499534D01*
X76762303Y-118499527D01*
X76762853Y-118495610D01*
X76763141Y-118475000D01*
X76744798Y-118311466D01*
X76738998Y-118294809D01*
X76709743Y-118210801D01*
X76690680Y-118156060D01*
X76605789Y-118020206D01*
X76586653Y-117951837D01*
X76607518Y-117883975D01*
X76612556Y-117877223D01*
X76615449Y-117874468D01*
X76706515Y-117737403D01*
X76764951Y-117583568D01*
X76780301Y-117474344D01*
X76787302Y-117424534D01*
X76787303Y-117424527D01*
X76787853Y-117420610D01*
X76788141Y-117400000D01*
X76769798Y-117236466D01*
X76766328Y-117226500D01*
X76717998Y-117087717D01*
X76715680Y-117081060D01*
X76681392Y-117026187D01*
X76632209Y-116947479D01*
X76628476Y-116941505D01*
X76562521Y-116875088D01*
X76517486Y-116829737D01*
X76517482Y-116829734D01*
X76512522Y-116824739D01*
X76373580Y-116736563D01*
X76324447Y-116719068D01*
X76225189Y-116683723D01*
X76225187Y-116683722D01*
X76218555Y-116681361D01*
X76211569Y-116680528D01*
X76211565Y-116680527D01*
X76097071Y-116666875D01*
X76055153Y-116661877D01*
X76048150Y-116662613D01*
X76048149Y-116662613D01*
X76004935Y-116667155D01*
X75891495Y-116679078D01*
X75884827Y-116681348D01*
X75742382Y-116729840D01*
X75742379Y-116729841D01*
X75735715Y-116732110D01*
X75670750Y-116772077D01*
X75606724Y-116811466D01*
X75595555Y-116818337D01*
X75542095Y-116870689D01*
X75489159Y-116922528D01*
X75477982Y-116933473D01*
X75388838Y-117071797D01*
X75386427Y-117078420D01*
X75386426Y-117078423D01*
X75334966Y-117219809D01*
X75334965Y-117219814D01*
X75332556Y-117226432D01*
X75311931Y-117389694D01*
X75327989Y-117553468D01*
X75379932Y-117709615D01*
X75462108Y-117845302D01*
X75465179Y-117850373D01*
X75464288Y-117850913D01*
X75487663Y-117911070D01*
X75473517Y-117980643D01*
X75459762Y-118001402D01*
X75458014Y-118003545D01*
X75452982Y-118008473D01*
X75363838Y-118146797D01*
X75361427Y-118153420D01*
X75361426Y-118153423D01*
X75309966Y-118294809D01*
X75309965Y-118294814D01*
X75307556Y-118301432D01*
X75286931Y-118464694D01*
X64858588Y-118464694D01*
X64832209Y-118422479D01*
X64828476Y-118416505D01*
X64731118Y-118318465D01*
X64717486Y-118304737D01*
X64717482Y-118304734D01*
X64712522Y-118299739D01*
X64573580Y-118211563D01*
X64436405Y-118162717D01*
X64425189Y-118158723D01*
X64425187Y-118158722D01*
X64418555Y-118156361D01*
X64411569Y-118155528D01*
X64411565Y-118155527D01*
X64288640Y-118140870D01*
X64255153Y-118136877D01*
X64248150Y-118137613D01*
X64248149Y-118137613D01*
X64204935Y-118142155D01*
X64091495Y-118154078D01*
X64084827Y-118156348D01*
X63942382Y-118204840D01*
X63942379Y-118204841D01*
X63935715Y-118207110D01*
X63795555Y-118293337D01*
X63677982Y-118408473D01*
X63588838Y-118546797D01*
X63586427Y-118553420D01*
X63586426Y-118553423D01*
X63534966Y-118694809D01*
X63534965Y-118694814D01*
X63532556Y-118701432D01*
X63511931Y-118864694D01*
X61908500Y-118864694D01*
X61908500Y-117686866D01*
X61901745Y-117624684D01*
X61850615Y-117488295D01*
X61763261Y-117371739D01*
X61646705Y-117284385D01*
X61594889Y-117264960D01*
X61528203Y-117239960D01*
X61471439Y-117197318D01*
X61446739Y-117130756D01*
X61461947Y-117061408D01*
X61483493Y-117032727D01*
X61551764Y-116964694D01*
X70236931Y-116964694D01*
X70252989Y-117128468D01*
X70304932Y-117284615D01*
X70319748Y-117309079D01*
X70384896Y-117416649D01*
X70390179Y-117425373D01*
X70504491Y-117543747D01*
X70642189Y-117633854D01*
X70796428Y-117691215D01*
X70803409Y-117692146D01*
X70803411Y-117692147D01*
X70952561Y-117712048D01*
X70952565Y-117712048D01*
X70959542Y-117712979D01*
X70966553Y-117712341D01*
X70966557Y-117712341D01*
X71116403Y-117698704D01*
X71116404Y-117698704D01*
X71123424Y-117698065D01*
X71157891Y-117686866D01*
X71273230Y-117649390D01*
X71273233Y-117649389D01*
X71279929Y-117647213D01*
X71421279Y-117562951D01*
X71540449Y-117449468D01*
X71544350Y-117443597D01*
X71627614Y-117318275D01*
X71627615Y-117318273D01*
X71631515Y-117312403D01*
X71689951Y-117158568D01*
X71708556Y-117026187D01*
X71712302Y-116999534D01*
X71712303Y-116999527D01*
X71712853Y-116995610D01*
X71713141Y-116975000D01*
X71694798Y-116811466D01*
X71688998Y-116794809D01*
X71642998Y-116662717D01*
X71640680Y-116656060D01*
X71553476Y-116516505D01*
X71490054Y-116452639D01*
X71442486Y-116404737D01*
X71442482Y-116404734D01*
X71437522Y-116399739D01*
X71298580Y-116311563D01*
X71167162Y-116264767D01*
X71150189Y-116258723D01*
X71150187Y-116258722D01*
X71143555Y-116256361D01*
X71136569Y-116255528D01*
X71136565Y-116255527D01*
X71022071Y-116241875D01*
X70980153Y-116236877D01*
X70973150Y-116237613D01*
X70973149Y-116237613D01*
X70929935Y-116242155D01*
X70816495Y-116254078D01*
X70809827Y-116256348D01*
X70667382Y-116304840D01*
X70667379Y-116304841D01*
X70660715Y-116307110D01*
X70520555Y-116393337D01*
X70402982Y-116508473D01*
X70313838Y-116646797D01*
X70311427Y-116653420D01*
X70311426Y-116653423D01*
X70259966Y-116794809D01*
X70259965Y-116794814D01*
X70257556Y-116801432D01*
X70236931Y-116964694D01*
X61551764Y-116964694D01*
X61567220Y-116949292D01*
X61588096Y-116928489D01*
X61592380Y-116922528D01*
X61715435Y-116751277D01*
X61718453Y-116747077D01*
X61723650Y-116736563D01*
X61815136Y-116551453D01*
X61815137Y-116551451D01*
X61817430Y-116546811D01*
X61865181Y-116389645D01*
X61880865Y-116338023D01*
X61880865Y-116338021D01*
X61882370Y-116333069D01*
X61911529Y-116111590D01*
X61911880Y-116097213D01*
X61913074Y-116048365D01*
X61913074Y-116048361D01*
X61913156Y-116045000D01*
X61894852Y-115822361D01*
X61840431Y-115605702D01*
X61757378Y-115414694D01*
X64961931Y-115414694D01*
X64977989Y-115578468D01*
X65029932Y-115734615D01*
X65033581Y-115740640D01*
X65077043Y-115812403D01*
X65115179Y-115875373D01*
X65120070Y-115880438D01*
X65120071Y-115880439D01*
X65138447Y-115899468D01*
X65229491Y-115993747D01*
X65367189Y-116083854D01*
X65521428Y-116141215D01*
X65528409Y-116142146D01*
X65528411Y-116142147D01*
X65677561Y-116162048D01*
X65677565Y-116162048D01*
X65684542Y-116162979D01*
X65691553Y-116162341D01*
X65691557Y-116162341D01*
X65841403Y-116148704D01*
X65841404Y-116148704D01*
X65848424Y-116148065D01*
X65892161Y-116133854D01*
X65998230Y-116099390D01*
X65998233Y-116099389D01*
X66004929Y-116097213D01*
X66146279Y-116012951D01*
X66265449Y-115899468D01*
X66317249Y-115821503D01*
X66371606Y-115775834D01*
X66442026Y-115766802D01*
X66506150Y-115797276D01*
X66529971Y-115825959D01*
X66590179Y-115925373D01*
X66704491Y-116043747D01*
X66842189Y-116133854D01*
X66996428Y-116191215D01*
X67003409Y-116192146D01*
X67003411Y-116192147D01*
X67152561Y-116212048D01*
X67152565Y-116212048D01*
X67159542Y-116212979D01*
X67166553Y-116212341D01*
X67166557Y-116212341D01*
X67316403Y-116198704D01*
X67316404Y-116198704D01*
X67323424Y-116198065D01*
X67431407Y-116162979D01*
X67473230Y-116149390D01*
X67473233Y-116149389D01*
X67479929Y-116147213D01*
X67621279Y-116062951D01*
X67740449Y-115949468D01*
X67756458Y-115925373D01*
X67827614Y-115818275D01*
X67827615Y-115818273D01*
X67831515Y-115812403D01*
X67889951Y-115658568D01*
X67890931Y-115651597D01*
X67890932Y-115651592D01*
X67911160Y-115507656D01*
X67940448Y-115442981D01*
X68000052Y-115404408D01*
X68071048Y-115404183D01*
X68130896Y-115442377D01*
X68143709Y-115459919D01*
X68186526Y-115530617D01*
X68186531Y-115530623D01*
X68190179Y-115536647D01*
X68195070Y-115541712D01*
X68195071Y-115541713D01*
X68246153Y-115594610D01*
X68304491Y-115655021D01*
X68442189Y-115745128D01*
X68596428Y-115802489D01*
X68603409Y-115803420D01*
X68603411Y-115803421D01*
X68752561Y-115823322D01*
X68752565Y-115823322D01*
X68759542Y-115824253D01*
X68766553Y-115823615D01*
X68766557Y-115823615D01*
X68916403Y-115809978D01*
X68916404Y-115809978D01*
X68923424Y-115809339D01*
X68960550Y-115797276D01*
X69073230Y-115760664D01*
X69073233Y-115760663D01*
X69079929Y-115758487D01*
X69221279Y-115674225D01*
X69340449Y-115560742D01*
X69360464Y-115530617D01*
X69427614Y-115429549D01*
X69427615Y-115429547D01*
X69431515Y-115423677D01*
X69489951Y-115269842D01*
X69490931Y-115262868D01*
X69491353Y-115261225D01*
X69527669Y-115200219D01*
X69574458Y-115172729D01*
X69723230Y-115124390D01*
X69723233Y-115124389D01*
X69729929Y-115122213D01*
X69871279Y-115037951D01*
X69990449Y-114924468D01*
X69994350Y-114918597D01*
X70077614Y-114793275D01*
X70077615Y-114793273D01*
X70081515Y-114787403D01*
X70139951Y-114633568D01*
X70151812Y-114549171D01*
X70162302Y-114474534D01*
X70162303Y-114474527D01*
X70162853Y-114470610D01*
X70163141Y-114450000D01*
X70144798Y-114286466D01*
X70138998Y-114269809D01*
X70096934Y-114149020D01*
X70090680Y-114131060D01*
X70076496Y-114108360D01*
X70033588Y-114039694D01*
X71386931Y-114039694D01*
X71402989Y-114203468D01*
X71454932Y-114359615D01*
X71458581Y-114365640D01*
X71522154Y-114470610D01*
X71540179Y-114500373D01*
X71545070Y-114505438D01*
X71545071Y-114505439D01*
X71611445Y-114574171D01*
X71654491Y-114618747D01*
X71792189Y-114708854D01*
X71946428Y-114766215D01*
X71953409Y-114767146D01*
X71953411Y-114767147D01*
X72102561Y-114787048D01*
X72102565Y-114787048D01*
X72109542Y-114787979D01*
X72116553Y-114787341D01*
X72116557Y-114787341D01*
X72266403Y-114773704D01*
X72266404Y-114773704D01*
X72273424Y-114773065D01*
X72308823Y-114761563D01*
X72423230Y-114724390D01*
X72423233Y-114724389D01*
X72429929Y-114722213D01*
X72571279Y-114637951D01*
X72690449Y-114524468D01*
X72700367Y-114509540D01*
X72777614Y-114393275D01*
X72777615Y-114393273D01*
X72781515Y-114387403D01*
X72839951Y-114233568D01*
X72853422Y-114137717D01*
X72862302Y-114074534D01*
X72862303Y-114074527D01*
X72862853Y-114070610D01*
X72863141Y-114050000D01*
X72844798Y-113886466D01*
X72840593Y-113874389D01*
X72820709Y-113817292D01*
X72790680Y-113731060D01*
X72786667Y-113724637D01*
X72782285Y-113717624D01*
X74436431Y-113717624D01*
X74452489Y-113881398D01*
X74504432Y-114037545D01*
X74508081Y-114043570D01*
X74554137Y-114119616D01*
X74589679Y-114178303D01*
X74703991Y-114296677D01*
X74841689Y-114386784D01*
X74995928Y-114444145D01*
X75002909Y-114445076D01*
X75002911Y-114445077D01*
X75152061Y-114464978D01*
X75152065Y-114464978D01*
X75159042Y-114465909D01*
X75166053Y-114465271D01*
X75166057Y-114465271D01*
X75315903Y-114451634D01*
X75315904Y-114451634D01*
X75322924Y-114450995D01*
X75411930Y-114422075D01*
X75472730Y-114402320D01*
X75472733Y-114402319D01*
X75479429Y-114400143D01*
X75620779Y-114315881D01*
X75739949Y-114202398D01*
X75755958Y-114178303D01*
X75827114Y-114071205D01*
X75827115Y-114071203D01*
X75831015Y-114065333D01*
X75889451Y-113911498D01*
X75902507Y-113818597D01*
X75911802Y-113752464D01*
X75911803Y-113752457D01*
X75912353Y-113748540D01*
X75912641Y-113727930D01*
X75894298Y-113564396D01*
X75890126Y-113552414D01*
X75849703Y-113436336D01*
X75840180Y-113408990D01*
X75823384Y-113382110D01*
X75756709Y-113275409D01*
X75752976Y-113269435D01*
X75694999Y-113211052D01*
X75641986Y-113157667D01*
X75641982Y-113157664D01*
X75637022Y-113152669D01*
X75498080Y-113064493D01*
X75432629Y-113041187D01*
X75349689Y-113011653D01*
X75349687Y-113011652D01*
X75343055Y-113009291D01*
X75336069Y-113008458D01*
X75336065Y-113008457D01*
X75221571Y-112994805D01*
X75179653Y-112989807D01*
X75172650Y-112990543D01*
X75172649Y-112990543D01*
X75129435Y-112995085D01*
X75015995Y-113007008D01*
X75009327Y-113009278D01*
X74866882Y-113057770D01*
X74866879Y-113057771D01*
X74860215Y-113060040D01*
X74720055Y-113146267D01*
X74602482Y-113261403D01*
X74513338Y-113399727D01*
X74510927Y-113406350D01*
X74510926Y-113406353D01*
X74459466Y-113547739D01*
X74459465Y-113547744D01*
X74457056Y-113554362D01*
X74436431Y-113717624D01*
X72782285Y-113717624D01*
X72707209Y-113597479D01*
X72703476Y-113591505D01*
X72622690Y-113510153D01*
X72592486Y-113479737D01*
X72592482Y-113479734D01*
X72587522Y-113474739D01*
X72448580Y-113386563D01*
X72357026Y-113353962D01*
X72300189Y-113333723D01*
X72300187Y-113333722D01*
X72293555Y-113331361D01*
X72286569Y-113330528D01*
X72286565Y-113330527D01*
X72172071Y-113316875D01*
X72130153Y-113311877D01*
X72123150Y-113312613D01*
X72123149Y-113312613D01*
X72079935Y-113317155D01*
X71966495Y-113329078D01*
X71952850Y-113333723D01*
X71817382Y-113379840D01*
X71817379Y-113379841D01*
X71810715Y-113382110D01*
X71670555Y-113468337D01*
X71627854Y-113510153D01*
X71565117Y-113571590D01*
X71552982Y-113583473D01*
X71463838Y-113721797D01*
X71461427Y-113728420D01*
X71461426Y-113728423D01*
X71409966Y-113869809D01*
X71409965Y-113869814D01*
X71407556Y-113876432D01*
X71386931Y-114039694D01*
X70033588Y-114039694D01*
X70007209Y-113997479D01*
X70003476Y-113991505D01*
X69926191Y-113913679D01*
X69892486Y-113879737D01*
X69892482Y-113879734D01*
X69887522Y-113874739D01*
X69748580Y-113786563D01*
X69652819Y-113752464D01*
X69600189Y-113733723D01*
X69600187Y-113733722D01*
X69593555Y-113731361D01*
X69586569Y-113730528D01*
X69586565Y-113730527D01*
X69463640Y-113715870D01*
X69430153Y-113711877D01*
X69423150Y-113712613D01*
X69423149Y-113712613D01*
X69389964Y-113716101D01*
X69266495Y-113729078D01*
X69259827Y-113731348D01*
X69117382Y-113779840D01*
X69117379Y-113779841D01*
X69110715Y-113782110D01*
X68970555Y-113868337D01*
X68925315Y-113912639D01*
X68861887Y-113974753D01*
X68852982Y-113983473D01*
X68763838Y-114121797D01*
X68761427Y-114128420D01*
X68761426Y-114128423D01*
X68709966Y-114269809D01*
X68709965Y-114269814D01*
X68707556Y-114276432D01*
X68707368Y-114276364D01*
X68673654Y-114334844D01*
X68616475Y-114365293D01*
X68616495Y-114365352D01*
X68609827Y-114367622D01*
X68467382Y-114416114D01*
X68467379Y-114416115D01*
X68460715Y-114418384D01*
X68368637Y-114475031D01*
X68328000Y-114500031D01*
X68320555Y-114504611D01*
X68202982Y-114619747D01*
X68113838Y-114758071D01*
X68111427Y-114764694D01*
X68111426Y-114764697D01*
X68059966Y-114906083D01*
X68059965Y-114906088D01*
X68057556Y-114912706D01*
X68044710Y-115014392D01*
X68039860Y-115052783D01*
X68011478Y-115117860D01*
X67952419Y-115157261D01*
X67881432Y-115158478D01*
X67821057Y-115121123D01*
X67808000Y-115103761D01*
X67757209Y-115022479D01*
X67753476Y-115016505D01*
X67690955Y-114953546D01*
X67642486Y-114904737D01*
X67642482Y-114904734D01*
X67637522Y-114899739D01*
X67498580Y-114811563D01*
X67393580Y-114774174D01*
X67350189Y-114758723D01*
X67350187Y-114758722D01*
X67343555Y-114756361D01*
X67336569Y-114755528D01*
X67336565Y-114755527D01*
X67215686Y-114741114D01*
X67180153Y-114736877D01*
X67173150Y-114737613D01*
X67173149Y-114737613D01*
X67139840Y-114741114D01*
X67016495Y-114754078D01*
X67009827Y-114756348D01*
X66867382Y-114804840D01*
X66867379Y-114804841D01*
X66860715Y-114807110D01*
X66772526Y-114861364D01*
X66731186Y-114886797D01*
X66720555Y-114893337D01*
X66602982Y-115008473D01*
X66559092Y-115076577D01*
X66505378Y-115123000D01*
X66435092Y-115133015D01*
X66370548Y-115103439D01*
X66346328Y-115075090D01*
X66282209Y-114972479D01*
X66278476Y-114966505D01*
X66204000Y-114891507D01*
X66167486Y-114854737D01*
X66167482Y-114854734D01*
X66162522Y-114849739D01*
X66023580Y-114761563D01*
X65954254Y-114736877D01*
X65875189Y-114708723D01*
X65875187Y-114708722D01*
X65868555Y-114706361D01*
X65861569Y-114705528D01*
X65861565Y-114705527D01*
X65726949Y-114689476D01*
X65705153Y-114686877D01*
X65698150Y-114687613D01*
X65698149Y-114687613D01*
X65654935Y-114692155D01*
X65541495Y-114704078D01*
X65534827Y-114706348D01*
X65392382Y-114754840D01*
X65392379Y-114754841D01*
X65385715Y-114757110D01*
X65245555Y-114843337D01*
X65202983Y-114885027D01*
X65149093Y-114937800D01*
X65127982Y-114958473D01*
X65038838Y-115096797D01*
X65036427Y-115103420D01*
X65036426Y-115103423D01*
X64984966Y-115244809D01*
X64984965Y-115244814D01*
X64982556Y-115251432D01*
X64961931Y-115414694D01*
X61757378Y-115414694D01*
X61751354Y-115400840D01*
X61647135Y-115239742D01*
X61632822Y-115217617D01*
X61632820Y-115217614D01*
X61630014Y-115213277D01*
X61479670Y-115048051D01*
X61475619Y-115044852D01*
X61475615Y-115044848D01*
X61308414Y-114912800D01*
X61308410Y-114912798D01*
X61304359Y-114909598D01*
X61263053Y-114886796D01*
X61213084Y-114836364D01*
X61198312Y-114766921D01*
X61223428Y-114700516D01*
X61250780Y-114673909D01*
X61307998Y-114633096D01*
X61429860Y-114546173D01*
X61471568Y-114504611D01*
X61567220Y-114409292D01*
X61588096Y-114388489D01*
X61592380Y-114382528D01*
X61715435Y-114211277D01*
X61718453Y-114207077D01*
X61720766Y-114202398D01*
X61815136Y-114011453D01*
X61815137Y-114011451D01*
X61817430Y-114006811D01*
X61859502Y-113868337D01*
X61880865Y-113798023D01*
X61880865Y-113798021D01*
X61882370Y-113793069D01*
X61911529Y-113571590D01*
X61911779Y-113561354D01*
X61913074Y-113508365D01*
X61913074Y-113508361D01*
X61913156Y-113505000D01*
X61894852Y-113282361D01*
X61880813Y-113226468D01*
X67325157Y-113226468D01*
X67341215Y-113390242D01*
X67393158Y-113546389D01*
X67396807Y-113552414D01*
X67457682Y-113652929D01*
X67478405Y-113687147D01*
X67483296Y-113692212D01*
X67483297Y-113692213D01*
X67518186Y-113728342D01*
X67592717Y-113805521D01*
X67730415Y-113895628D01*
X67884654Y-113952989D01*
X67891635Y-113953920D01*
X67891637Y-113953921D01*
X68040787Y-113973822D01*
X68040791Y-113973822D01*
X68047768Y-113974753D01*
X68054779Y-113974115D01*
X68054783Y-113974115D01*
X68204629Y-113960478D01*
X68204630Y-113960478D01*
X68211650Y-113959839D01*
X68240288Y-113950534D01*
X68361456Y-113911164D01*
X68361459Y-113911163D01*
X68368155Y-113908987D01*
X68509505Y-113824725D01*
X68628675Y-113711242D01*
X68639656Y-113694715D01*
X68715840Y-113580049D01*
X68715841Y-113580047D01*
X68719741Y-113574177D01*
X68744143Y-113509938D01*
X68787031Y-113453359D01*
X68850508Y-113429201D01*
X68923424Y-113422565D01*
X68973319Y-113406353D01*
X69073230Y-113373890D01*
X69073233Y-113373889D01*
X69079929Y-113371713D01*
X69221279Y-113287451D01*
X69340449Y-113173968D01*
X69344350Y-113168097D01*
X69427614Y-113042775D01*
X69427615Y-113042773D01*
X69431515Y-113036903D01*
X69489951Y-112883068D01*
X69501561Y-112800455D01*
X69512302Y-112724034D01*
X69512303Y-112724027D01*
X69512853Y-112720110D01*
X69513141Y-112699500D01*
X69494798Y-112535966D01*
X69486824Y-112513066D01*
X69456073Y-112424763D01*
X69440680Y-112380560D01*
X69419583Y-112346797D01*
X69391682Y-112302146D01*
X80599479Y-112302146D01*
X80615537Y-112465920D01*
X80667480Y-112622067D01*
X80682664Y-112647138D01*
X80726858Y-112720110D01*
X80752727Y-112762825D01*
X80867039Y-112881199D01*
X81004737Y-112971306D01*
X81158976Y-113028667D01*
X81165957Y-113029598D01*
X81165959Y-113029599D01*
X81315109Y-113049500D01*
X81315113Y-113049500D01*
X81322090Y-113050431D01*
X81329101Y-113049793D01*
X81329105Y-113049793D01*
X81478954Y-113036156D01*
X81478957Y-113036155D01*
X81485972Y-113035517D01*
X81485972Y-113035519D01*
X81553938Y-113041187D01*
X81610268Y-113084401D01*
X81634292Y-113151209D01*
X81632054Y-113176305D01*
X81633056Y-113176432D01*
X81612431Y-113339694D01*
X81628489Y-113503468D01*
X81680432Y-113659615D01*
X81684081Y-113665640D01*
X81759603Y-113790340D01*
X81765679Y-113800373D01*
X81770570Y-113805438D01*
X81770571Y-113805439D01*
X81831311Y-113868337D01*
X81879991Y-113918747D01*
X82017689Y-114008854D01*
X82171928Y-114066215D01*
X82178909Y-114067146D01*
X82178911Y-114067147D01*
X82328061Y-114087048D01*
X82328065Y-114087048D01*
X82335042Y-114087979D01*
X82342053Y-114087341D01*
X82342057Y-114087341D01*
X82491903Y-114073704D01*
X82491904Y-114073704D01*
X82498924Y-114073065D01*
X82543002Y-114058743D01*
X82648730Y-114024390D01*
X82648733Y-114024389D01*
X82655429Y-114022213D01*
X82796779Y-113937951D01*
X82915949Y-113824468D01*
X82919850Y-113818597D01*
X83003114Y-113693275D01*
X83003115Y-113693273D01*
X83007015Y-113687403D01*
X83065451Y-113533568D01*
X83080962Y-113423202D01*
X83087802Y-113374534D01*
X83087803Y-113374527D01*
X83088353Y-113370610D01*
X83088641Y-113350000D01*
X83070298Y-113186466D01*
X83016180Y-113031060D01*
X82978842Y-112971306D01*
X82932709Y-112897479D01*
X82928976Y-112891505D01*
X82865318Y-112827401D01*
X82817986Y-112779737D01*
X82817982Y-112779734D01*
X82813022Y-112774739D01*
X82674080Y-112686563D01*
X82585753Y-112655111D01*
X82525689Y-112633723D01*
X82525687Y-112633722D01*
X82519055Y-112631361D01*
X82512069Y-112630528D01*
X82512065Y-112630527D01*
X82385039Y-112615381D01*
X82355653Y-112611877D01*
X82348650Y-112612613D01*
X82348649Y-112612613D01*
X82191995Y-112629078D01*
X82191661Y-112625898D01*
X82134863Y-112621958D01*
X82077937Y-112579533D01*
X82052984Y-112513066D01*
X82053869Y-112486272D01*
X82074850Y-112336986D01*
X82074851Y-112336979D01*
X82075401Y-112333062D01*
X82075543Y-112322882D01*
X82075634Y-112316414D01*
X82075634Y-112316408D01*
X82075689Y-112312452D01*
X82057346Y-112148918D01*
X82051546Y-112132261D01*
X82016343Y-112031173D01*
X82003228Y-111993512D01*
X81986812Y-111967240D01*
X81919757Y-111859931D01*
X81916024Y-111853957D01*
X81848107Y-111785564D01*
X81805034Y-111742189D01*
X81805030Y-111742186D01*
X81800070Y-111737191D01*
X81661128Y-111649015D01*
X81559849Y-111612951D01*
X81512737Y-111596175D01*
X81512735Y-111596174D01*
X81506103Y-111593813D01*
X81499117Y-111592980D01*
X81499113Y-111592979D01*
X81384619Y-111579327D01*
X81342701Y-111574329D01*
X81335698Y-111575065D01*
X81335697Y-111575065D01*
X81292483Y-111579607D01*
X81179043Y-111591530D01*
X81172375Y-111593800D01*
X81029930Y-111642292D01*
X81029927Y-111642293D01*
X81023263Y-111644562D01*
X80883103Y-111730789D01*
X80850883Y-111762341D01*
X80798798Y-111813347D01*
X80765530Y-111845925D01*
X80676386Y-111984249D01*
X80673975Y-111990872D01*
X80673974Y-111990875D01*
X80622514Y-112132261D01*
X80622513Y-112132266D01*
X80620104Y-112138884D01*
X80599479Y-112302146D01*
X69391682Y-112302146D01*
X69357209Y-112246979D01*
X69353476Y-112241005D01*
X69285552Y-112172605D01*
X69242486Y-112129237D01*
X69242482Y-112129234D01*
X69237522Y-112124239D01*
X69098580Y-112036063D01*
X69023059Y-112009171D01*
X68950189Y-111983223D01*
X68950187Y-111983222D01*
X68943555Y-111980861D01*
X68936569Y-111980028D01*
X68936565Y-111980027D01*
X68822071Y-111966375D01*
X68780153Y-111961377D01*
X68773150Y-111962113D01*
X68773149Y-111962113D01*
X68729935Y-111966655D01*
X68616495Y-111978578D01*
X68609827Y-111980848D01*
X68467382Y-112029340D01*
X68467379Y-112029341D01*
X68460715Y-112031610D01*
X68320555Y-112117837D01*
X68258066Y-112179031D01*
X68216906Y-112219338D01*
X68202982Y-112232973D01*
X68113838Y-112371297D01*
X68111427Y-112377920D01*
X68111426Y-112377923D01*
X68094378Y-112424763D01*
X68052284Y-112481935D01*
X67989148Y-112506979D01*
X67904721Y-112515852D01*
X67898053Y-112518122D01*
X67755608Y-112566614D01*
X67755605Y-112566615D01*
X67748941Y-112568884D01*
X67662493Y-112622067D01*
X67617325Y-112649855D01*
X67608781Y-112655111D01*
X67559407Y-112703462D01*
X67504938Y-112756802D01*
X67491208Y-112770247D01*
X67402064Y-112908571D01*
X67399653Y-112915194D01*
X67399652Y-112915197D01*
X67348192Y-113056583D01*
X67348191Y-113056588D01*
X67345782Y-113063206D01*
X67325157Y-113226468D01*
X61880813Y-113226468D01*
X61840431Y-113065702D01*
X61751354Y-112860840D01*
X61698886Y-112779737D01*
X61632822Y-112677617D01*
X61632820Y-112677614D01*
X61630014Y-112673277D01*
X61479670Y-112508051D01*
X61475619Y-112504852D01*
X61475615Y-112504848D01*
X61308414Y-112372800D01*
X61308410Y-112372798D01*
X61304359Y-112369598D01*
X61263053Y-112346796D01*
X61213084Y-112296364D01*
X61198312Y-112226921D01*
X61223428Y-112160516D01*
X61250780Y-112133909D01*
X61294603Y-112102650D01*
X61429860Y-112006173D01*
X61442566Y-111993512D01*
X61584435Y-111852137D01*
X61588096Y-111848489D01*
X61592380Y-111842528D01*
X61715435Y-111671277D01*
X61718453Y-111667077D01*
X61727757Y-111648253D01*
X61756698Y-111589694D01*
X65586931Y-111589694D01*
X65602989Y-111753468D01*
X65654932Y-111909615D01*
X65658581Y-111915640D01*
X65730367Y-112034171D01*
X65740179Y-112050373D01*
X65854491Y-112168747D01*
X65992189Y-112258854D01*
X66146428Y-112316215D01*
X66153409Y-112317146D01*
X66153411Y-112317147D01*
X66302561Y-112337048D01*
X66302565Y-112337048D01*
X66309542Y-112337979D01*
X66316553Y-112337341D01*
X66316557Y-112337341D01*
X66466403Y-112323704D01*
X66466404Y-112323704D01*
X66473424Y-112323065D01*
X66559331Y-112295152D01*
X66623230Y-112274390D01*
X66623233Y-112274389D01*
X66629929Y-112272213D01*
X66771279Y-112187951D01*
X66890449Y-112074468D01*
X66906458Y-112050373D01*
X66977614Y-111943275D01*
X66977615Y-111943273D01*
X66981515Y-111937403D01*
X67017701Y-111842142D01*
X67060590Y-111785564D01*
X67127258Y-111761155D01*
X67152151Y-111761993D01*
X67159542Y-111762979D01*
X67166553Y-111762341D01*
X67166557Y-111762341D01*
X67316403Y-111748704D01*
X67316404Y-111748704D01*
X67323424Y-111748065D01*
X67352062Y-111738760D01*
X67473230Y-111699390D01*
X67473233Y-111699389D01*
X67479929Y-111697213D01*
X67621279Y-111612951D01*
X67740449Y-111499468D01*
X67744350Y-111493597D01*
X67827614Y-111368275D01*
X67827615Y-111368273D01*
X67831515Y-111362403D01*
X67862280Y-111281413D01*
X67905168Y-111224835D01*
X67971837Y-111200425D01*
X67996732Y-111201263D01*
X68032812Y-111206077D01*
X68084542Y-111212979D01*
X68091553Y-111212341D01*
X68091557Y-111212341D01*
X68241403Y-111198704D01*
X68241404Y-111198704D01*
X68248424Y-111198065D01*
X68304899Y-111179715D01*
X68388649Y-111152503D01*
X68459616Y-111150475D01*
X68471493Y-111154234D01*
X68570931Y-111191215D01*
X68577916Y-111192147D01*
X68727064Y-111212048D01*
X68727068Y-111212048D01*
X68734045Y-111212979D01*
X68741056Y-111212341D01*
X68741060Y-111212341D01*
X68890906Y-111198704D01*
X68890907Y-111198704D01*
X68897927Y-111198065D01*
X69054432Y-111147213D01*
X69058988Y-111144497D01*
X69128606Y-111134667D01*
X69154278Y-111141242D01*
X69221428Y-111166215D01*
X69276792Y-111173602D01*
X69341669Y-111202437D01*
X69379686Y-111258723D01*
X69404932Y-111334615D01*
X69408581Y-111340640D01*
X69484994Y-111466811D01*
X69490179Y-111475373D01*
X69604491Y-111593747D01*
X69742189Y-111683854D01*
X69896428Y-111741215D01*
X69903409Y-111742146D01*
X69903411Y-111742147D01*
X70052561Y-111762048D01*
X70052565Y-111762048D01*
X70059542Y-111762979D01*
X70066553Y-111762341D01*
X70066557Y-111762341D01*
X70216403Y-111748704D01*
X70216404Y-111748704D01*
X70223424Y-111748065D01*
X70252062Y-111738760D01*
X70373230Y-111699390D01*
X70373233Y-111699389D01*
X70379929Y-111697213D01*
X70521279Y-111612951D01*
X70640449Y-111499468D01*
X70644350Y-111493597D01*
X70727614Y-111368275D01*
X70727615Y-111368273D01*
X70731515Y-111362403D01*
X70789951Y-111208568D01*
X70806829Y-111088476D01*
X70812302Y-111049534D01*
X70812303Y-111049527D01*
X70812853Y-111045610D01*
X70813141Y-111025000D01*
X70794798Y-110861466D01*
X70787090Y-110839330D01*
X70767180Y-110782159D01*
X70740680Y-110706060D01*
X70653476Y-110566505D01*
X70581778Y-110494305D01*
X70542486Y-110454737D01*
X70542482Y-110454734D01*
X70537522Y-110449739D01*
X70398580Y-110361563D01*
X70243555Y-110306361D01*
X70199844Y-110301149D01*
X70134571Y-110273222D01*
X70095772Y-110217472D01*
X70067998Y-110137717D01*
X70065680Y-110131060D01*
X69978476Y-109991505D01*
X69920499Y-109933122D01*
X69867486Y-109879737D01*
X69867482Y-109879734D01*
X69862522Y-109874739D01*
X69723580Y-109786563D01*
X69662027Y-109764645D01*
X69575189Y-109733723D01*
X69575187Y-109733722D01*
X69568555Y-109731361D01*
X69561569Y-109730528D01*
X69561565Y-109730527D01*
X69447071Y-109716875D01*
X69405153Y-109711877D01*
X69398150Y-109712613D01*
X69398149Y-109712613D01*
X69354935Y-109717155D01*
X69241495Y-109729078D01*
X69085715Y-109782110D01*
X69085285Y-109780847D01*
X69022535Y-109790605D01*
X68996772Y-109784390D01*
X68951691Y-109768337D01*
X68924692Y-109758723D01*
X68924690Y-109758723D01*
X68918058Y-109756361D01*
X68911072Y-109755528D01*
X68911068Y-109755527D01*
X68793888Y-109741555D01*
X68754656Y-109736877D01*
X68747653Y-109737613D01*
X68747652Y-109737613D01*
X68710147Y-109741555D01*
X68590998Y-109754078D01*
X68464410Y-109797172D01*
X68393480Y-109800190D01*
X68381539Y-109796593D01*
X68275189Y-109758723D01*
X68275187Y-109758722D01*
X68268555Y-109756361D01*
X68261569Y-109755528D01*
X68261565Y-109755527D01*
X68144385Y-109741555D01*
X68105153Y-109736877D01*
X68098150Y-109737613D01*
X68098149Y-109737613D01*
X68060644Y-109741555D01*
X67941495Y-109754078D01*
X67934827Y-109756348D01*
X67792382Y-109804840D01*
X67792379Y-109804841D01*
X67785715Y-109807110D01*
X67712578Y-109852104D01*
X67655778Y-109887048D01*
X67645555Y-109893337D01*
X67640522Y-109898266D01*
X67539209Y-109997479D01*
X67527982Y-110008473D01*
X67438838Y-110146797D01*
X67413370Y-110216771D01*
X67371278Y-110273940D01*
X67304957Y-110299279D01*
X67280053Y-110298789D01*
X67180153Y-110286877D01*
X67173150Y-110287613D01*
X67173149Y-110287613D01*
X67134512Y-110291674D01*
X67016495Y-110304078D01*
X67009827Y-110306348D01*
X66867382Y-110354840D01*
X66867379Y-110354841D01*
X66860715Y-110357110D01*
X66720555Y-110443337D01*
X66602982Y-110558473D01*
X66513838Y-110696797D01*
X66494338Y-110750373D01*
X66482769Y-110782159D01*
X66440675Y-110839330D01*
X66374353Y-110864668D01*
X66349451Y-110864178D01*
X66330153Y-110861877D01*
X66323150Y-110862613D01*
X66323149Y-110862613D01*
X66279935Y-110867155D01*
X66166495Y-110879078D01*
X66159827Y-110881348D01*
X66017382Y-110929840D01*
X66017379Y-110929841D01*
X66010715Y-110932110D01*
X65870555Y-111018337D01*
X65752982Y-111133473D01*
X65663838Y-111271797D01*
X65661427Y-111278420D01*
X65661426Y-111278423D01*
X65609966Y-111419809D01*
X65609965Y-111419814D01*
X65607556Y-111426432D01*
X65586931Y-111589694D01*
X61756698Y-111589694D01*
X61815136Y-111471453D01*
X61815137Y-111471451D01*
X61817430Y-111466811D01*
X61859626Y-111327929D01*
X61880865Y-111258023D01*
X61880865Y-111258021D01*
X61882370Y-111253069D01*
X61889301Y-111200425D01*
X61889882Y-111196014D01*
X61918605Y-111131087D01*
X61977871Y-111091996D01*
X62020482Y-111088476D01*
X62020515Y-111086900D01*
X62027562Y-111087048D01*
X62034542Y-111087979D01*
X62041553Y-111087341D01*
X62041557Y-111087341D01*
X62191403Y-111073704D01*
X62191404Y-111073704D01*
X62198424Y-111073065D01*
X62221455Y-111065582D01*
X62348230Y-111024390D01*
X62348233Y-111024389D01*
X62354929Y-111022213D01*
X62496279Y-110937951D01*
X62615449Y-110824468D01*
X62661312Y-110755439D01*
X62702614Y-110693275D01*
X62702615Y-110693273D01*
X62706515Y-110687403D01*
X62764951Y-110533568D01*
X62782118Y-110411417D01*
X62787302Y-110374534D01*
X62787303Y-110374527D01*
X62787853Y-110370610D01*
X62787995Y-110360430D01*
X62788086Y-110353962D01*
X62788086Y-110353956D01*
X62788141Y-110350000D01*
X62769798Y-110186466D01*
X62758290Y-110153418D01*
X62717998Y-110037717D01*
X62715680Y-110031060D01*
X62684437Y-109981060D01*
X62632209Y-109897479D01*
X62628476Y-109891505D01*
X62552118Y-109814612D01*
X62517486Y-109779737D01*
X62517482Y-109779734D01*
X62512522Y-109774739D01*
X62373580Y-109686563D01*
X62258307Y-109645516D01*
X62225189Y-109633723D01*
X62225187Y-109633722D01*
X62218555Y-109631361D01*
X62211569Y-109630528D01*
X62211565Y-109630527D01*
X62097071Y-109616875D01*
X62055153Y-109611877D01*
X62048150Y-109612613D01*
X62048149Y-109612613D01*
X62004935Y-109617155D01*
X61891495Y-109629078D01*
X61884827Y-109631348D01*
X61742382Y-109679840D01*
X61742379Y-109679841D01*
X61735715Y-109682110D01*
X61595555Y-109768337D01*
X61590525Y-109773263D01*
X61590517Y-109773269D01*
X61510153Y-109851968D01*
X61447488Y-109885339D01*
X61376729Y-109879533D01*
X61343903Y-109860827D01*
X61308422Y-109832806D01*
X61308416Y-109832802D01*
X61304359Y-109829598D01*
X61263053Y-109806796D01*
X61213084Y-109756364D01*
X61198312Y-109686921D01*
X61223428Y-109620516D01*
X61250780Y-109593909D01*
X61295687Y-109561877D01*
X61429860Y-109466173D01*
X61433706Y-109462341D01*
X61583618Y-109312951D01*
X61588096Y-109308489D01*
X61592380Y-109302528D01*
X61715435Y-109131277D01*
X61718453Y-109127077D01*
X61747147Y-109069020D01*
X61815136Y-108931453D01*
X61815137Y-108931451D01*
X61817430Y-108926811D01*
X61868546Y-108758568D01*
X61880865Y-108718023D01*
X61880865Y-108718021D01*
X61881876Y-108714694D01*
X64986931Y-108714694D01*
X65002989Y-108878468D01*
X65054932Y-109034615D01*
X65058581Y-109040640D01*
X65134839Y-109166555D01*
X65140179Y-109175373D01*
X65145070Y-109180438D01*
X65145071Y-109180439D01*
X65157778Y-109193597D01*
X65254491Y-109293747D01*
X65392189Y-109383854D01*
X65546428Y-109441215D01*
X65553409Y-109442146D01*
X65553411Y-109442147D01*
X65702561Y-109462048D01*
X65702565Y-109462048D01*
X65709542Y-109462979D01*
X65716553Y-109462341D01*
X65716557Y-109462341D01*
X65866403Y-109448704D01*
X65866404Y-109448704D01*
X65873424Y-109448065D01*
X65902062Y-109438760D01*
X66023230Y-109399390D01*
X66023233Y-109399389D01*
X66029929Y-109397213D01*
X66171279Y-109312951D01*
X66290449Y-109199468D01*
X66294350Y-109193597D01*
X66377614Y-109068275D01*
X66377615Y-109068273D01*
X66381515Y-109062403D01*
X66439951Y-108908568D01*
X66452979Y-108815870D01*
X66462302Y-108749534D01*
X66462303Y-108749527D01*
X66462853Y-108745610D01*
X66463141Y-108725000D01*
X66444798Y-108561466D01*
X66438998Y-108544809D01*
X66408766Y-108457997D01*
X66390680Y-108406060D01*
X66303476Y-108266505D01*
X66231271Y-108193794D01*
X66192486Y-108154737D01*
X66192482Y-108154734D01*
X66187522Y-108149739D01*
X66048580Y-108061563D01*
X65967661Y-108032749D01*
X65900189Y-108008723D01*
X65900187Y-108008722D01*
X65893555Y-108006361D01*
X65886569Y-108005528D01*
X65886565Y-108005527D01*
X65762382Y-107990720D01*
X65730153Y-107986877D01*
X65723150Y-107987613D01*
X65723149Y-107987613D01*
X65693589Y-107990720D01*
X65566495Y-108004078D01*
X65559827Y-108006348D01*
X65417382Y-108054840D01*
X65417379Y-108054841D01*
X65410715Y-108057110D01*
X65327226Y-108108473D01*
X65280778Y-108137048D01*
X65270555Y-108143337D01*
X65258914Y-108154737D01*
X65170958Y-108240870D01*
X65152982Y-108258473D01*
X65063838Y-108396797D01*
X65061427Y-108403420D01*
X65061426Y-108403423D01*
X65009966Y-108544809D01*
X65009965Y-108544814D01*
X65007556Y-108551432D01*
X64986931Y-108714694D01*
X61881876Y-108714694D01*
X61882370Y-108713069D01*
X61911529Y-108491590D01*
X61911640Y-108487048D01*
X61913074Y-108428365D01*
X61913074Y-108428361D01*
X61913156Y-108425000D01*
X61894852Y-108202361D01*
X61840431Y-107985702D01*
X61751354Y-107780840D01*
X61709174Y-107715640D01*
X61632822Y-107597617D01*
X61632820Y-107597614D01*
X61630014Y-107593277D01*
X61479670Y-107428051D01*
X61475619Y-107424852D01*
X61475615Y-107424848D01*
X61308414Y-107292800D01*
X61308410Y-107292798D01*
X61304359Y-107289598D01*
X61263053Y-107266796D01*
X61213084Y-107216364D01*
X61198312Y-107146921D01*
X61223428Y-107080516D01*
X61250780Y-107053909D01*
X61318396Y-107005679D01*
X61429860Y-106926173D01*
X61462683Y-106893465D01*
X61567220Y-106789292D01*
X61588096Y-106768489D01*
X61592380Y-106762528D01*
X61715435Y-106591277D01*
X61718453Y-106587077D01*
X61725063Y-106573704D01*
X61815136Y-106391453D01*
X61815137Y-106391451D01*
X61817430Y-106386811D01*
X61863507Y-106235153D01*
X61880865Y-106178023D01*
X61880865Y-106178021D01*
X61882370Y-106173069D01*
X61896638Y-106064694D01*
X63411931Y-106064694D01*
X63427989Y-106228468D01*
X63479932Y-106384615D01*
X63483581Y-106390640D01*
X63555175Y-106508854D01*
X63565179Y-106525373D01*
X63570070Y-106530438D01*
X63570071Y-106530439D01*
X63629042Y-106591505D01*
X63679491Y-106643747D01*
X63735697Y-106680527D01*
X63804993Y-106725873D01*
X63817189Y-106733854D01*
X63819323Y-106734648D01*
X63869731Y-106781924D01*
X63887037Y-106850779D01*
X63884029Y-106872386D01*
X63882556Y-106876432D01*
X63881673Y-106883424D01*
X63881672Y-106883427D01*
X63876272Y-106926173D01*
X63861931Y-107039694D01*
X63877989Y-107203468D01*
X63929932Y-107359615D01*
X63933581Y-107365640D01*
X63984580Y-107449848D01*
X64015179Y-107500373D01*
X64020070Y-107505438D01*
X64020071Y-107505439D01*
X64066452Y-107553468D01*
X64129491Y-107618747D01*
X64267189Y-107708854D01*
X64421428Y-107766215D01*
X64428409Y-107767146D01*
X64428411Y-107767147D01*
X64577561Y-107787048D01*
X64577565Y-107787048D01*
X64584542Y-107787979D01*
X64591553Y-107787341D01*
X64591557Y-107787341D01*
X64741403Y-107773704D01*
X64741404Y-107773704D01*
X64748424Y-107773065D01*
X64799772Y-107756381D01*
X64898230Y-107724390D01*
X64898233Y-107724389D01*
X64904929Y-107722213D01*
X65046279Y-107637951D01*
X65165449Y-107524468D01*
X65169350Y-107518597D01*
X65252614Y-107393275D01*
X65252615Y-107393273D01*
X65254993Y-107389694D01*
X68611931Y-107389694D01*
X68627989Y-107553468D01*
X68679932Y-107709615D01*
X68683581Y-107715640D01*
X68757511Y-107837711D01*
X68765179Y-107850373D01*
X68770070Y-107855438D01*
X68770071Y-107855439D01*
X68781110Y-107866870D01*
X68879491Y-107968747D01*
X69017189Y-108058854D01*
X69171428Y-108116215D01*
X69178409Y-108117146D01*
X69178411Y-108117147D01*
X69327561Y-108137048D01*
X69327565Y-108137048D01*
X69334542Y-108137979D01*
X69341553Y-108137341D01*
X69341557Y-108137341D01*
X69491403Y-108123704D01*
X69491404Y-108123704D01*
X69498424Y-108123065D01*
X69558497Y-108103546D01*
X69648230Y-108074390D01*
X69648233Y-108074389D01*
X69654929Y-108072213D01*
X69796279Y-107987951D01*
X69915449Y-107874468D01*
X69919350Y-107868597D01*
X70002614Y-107743275D01*
X70002615Y-107743273D01*
X70006515Y-107737403D01*
X70064951Y-107583568D01*
X70086271Y-107431870D01*
X70087302Y-107424534D01*
X70087303Y-107424527D01*
X70087853Y-107420610D01*
X70088010Y-107409373D01*
X70088086Y-107403962D01*
X70088086Y-107403956D01*
X70088141Y-107400000D01*
X70079729Y-107325000D01*
X71786496Y-107325000D01*
X71787186Y-107331565D01*
X71805461Y-107505439D01*
X71806458Y-107514928D01*
X71865473Y-107696556D01*
X71868776Y-107702278D01*
X71868777Y-107702279D01*
X71873991Y-107711310D01*
X71960960Y-107861944D01*
X71965378Y-107866851D01*
X71965379Y-107866852D01*
X72062405Y-107974610D01*
X72088747Y-108003866D01*
X72162031Y-108057110D01*
X72232726Y-108108473D01*
X72243248Y-108116118D01*
X72249276Y-108118802D01*
X72249278Y-108118803D01*
X72408265Y-108189588D01*
X72417712Y-108193794D01*
X72511112Y-108213647D01*
X72598056Y-108232128D01*
X72598061Y-108232128D01*
X72604513Y-108233500D01*
X72795487Y-108233500D01*
X72801939Y-108232128D01*
X72801944Y-108232128D01*
X72888887Y-108213647D01*
X72982288Y-108193794D01*
X72991735Y-108189588D01*
X73150722Y-108118803D01*
X73150724Y-108118802D01*
X73156752Y-108116118D01*
X73167275Y-108108473D01*
X73237969Y-108057110D01*
X73311253Y-108003866D01*
X73337595Y-107974610D01*
X73434621Y-107866852D01*
X73434622Y-107866851D01*
X73439040Y-107861944D01*
X73526009Y-107711310D01*
X73531223Y-107702279D01*
X73531224Y-107702278D01*
X73534527Y-107696556D01*
X73593542Y-107514928D01*
X73594540Y-107505439D01*
X73610876Y-107350000D01*
X74786496Y-107350000D01*
X74787186Y-107356565D01*
X74803141Y-107508365D01*
X74806458Y-107539928D01*
X74865473Y-107721556D01*
X74868776Y-107727278D01*
X74868777Y-107727279D01*
X74891795Y-107767147D01*
X74960960Y-107886944D01*
X74965378Y-107891851D01*
X74965379Y-107891852D01*
X75061195Y-107998266D01*
X75088747Y-108028866D01*
X75138949Y-108065340D01*
X75215403Y-108120887D01*
X75243248Y-108141118D01*
X75249276Y-108143802D01*
X75249278Y-108143803D01*
X75406980Y-108214016D01*
X75417712Y-108218794D01*
X75511113Y-108238647D01*
X75598056Y-108257128D01*
X75598061Y-108257128D01*
X75604513Y-108258500D01*
X75795487Y-108258500D01*
X75801939Y-108257128D01*
X75801944Y-108257128D01*
X75888887Y-108238647D01*
X75982288Y-108218794D01*
X75993020Y-108214016D01*
X76150722Y-108143803D01*
X76150724Y-108143802D01*
X76156752Y-108141118D01*
X76184598Y-108120887D01*
X76261051Y-108065340D01*
X76311253Y-108028866D01*
X76338805Y-107998266D01*
X76434621Y-107891852D01*
X76434622Y-107891851D01*
X76439040Y-107886944D01*
X76508205Y-107767147D01*
X76531223Y-107727279D01*
X76531224Y-107727278D01*
X76534527Y-107721556D01*
X76593542Y-107539928D01*
X76596860Y-107508365D01*
X76612814Y-107356565D01*
X76613504Y-107350000D01*
X76607134Y-107289396D01*
X76594232Y-107166635D01*
X76594232Y-107166633D01*
X76593542Y-107160072D01*
X76534527Y-106978444D01*
X76517871Y-106949594D01*
X76470216Y-106867055D01*
X76439040Y-106813056D01*
X76424707Y-106797137D01*
X76315675Y-106676045D01*
X76315674Y-106676044D01*
X76311253Y-106671134D01*
X76201151Y-106591140D01*
X76162094Y-106562763D01*
X76162093Y-106562762D01*
X76156752Y-106558882D01*
X76150724Y-106556198D01*
X76150722Y-106556197D01*
X75988319Y-106483891D01*
X75988318Y-106483891D01*
X75982288Y-106481206D01*
X75888888Y-106461353D01*
X75801944Y-106442872D01*
X75801939Y-106442872D01*
X75795487Y-106441500D01*
X75604513Y-106441500D01*
X75598061Y-106442872D01*
X75598056Y-106442872D01*
X75511112Y-106461353D01*
X75417712Y-106481206D01*
X75411682Y-106483891D01*
X75411681Y-106483891D01*
X75249278Y-106556197D01*
X75249276Y-106556198D01*
X75243248Y-106558882D01*
X75237907Y-106562762D01*
X75237906Y-106562763D01*
X75198849Y-106591140D01*
X75088747Y-106671134D01*
X75084326Y-106676044D01*
X75084325Y-106676045D01*
X74975294Y-106797137D01*
X74960960Y-106813056D01*
X74929784Y-106867055D01*
X74882130Y-106949594D01*
X74865473Y-106978444D01*
X74806458Y-107160072D01*
X74805768Y-107166633D01*
X74805768Y-107166635D01*
X74792866Y-107289396D01*
X74786496Y-107350000D01*
X73610876Y-107350000D01*
X73612814Y-107331565D01*
X73613504Y-107325000D01*
X73606322Y-107256669D01*
X73594232Y-107141635D01*
X73594232Y-107141633D01*
X73593542Y-107135072D01*
X73534527Y-106953444D01*
X73526417Y-106939396D01*
X73471482Y-106844247D01*
X73439040Y-106788056D01*
X73424707Y-106772137D01*
X73315675Y-106651045D01*
X73315674Y-106651044D01*
X73311253Y-106646134D01*
X73196503Y-106562763D01*
X73162094Y-106537763D01*
X73162093Y-106537762D01*
X73156752Y-106533882D01*
X73150724Y-106531198D01*
X73150722Y-106531197D01*
X72988319Y-106458891D01*
X72988318Y-106458891D01*
X72982288Y-106456206D01*
X72873565Y-106433096D01*
X72801944Y-106417872D01*
X72801939Y-106417872D01*
X72795487Y-106416500D01*
X72604513Y-106416500D01*
X72598061Y-106417872D01*
X72598056Y-106417872D01*
X72526435Y-106433096D01*
X72417712Y-106456206D01*
X72411682Y-106458891D01*
X72411681Y-106458891D01*
X72249278Y-106531197D01*
X72249276Y-106531198D01*
X72243248Y-106533882D01*
X72237907Y-106537762D01*
X72237906Y-106537763D01*
X72203497Y-106562763D01*
X72088747Y-106646134D01*
X72084326Y-106651044D01*
X72084325Y-106651045D01*
X71975294Y-106772137D01*
X71960960Y-106788056D01*
X71928518Y-106844247D01*
X71873584Y-106939396D01*
X71865473Y-106953444D01*
X71806458Y-107135072D01*
X71805768Y-107141633D01*
X71805768Y-107141635D01*
X71793678Y-107256669D01*
X71786496Y-107325000D01*
X70079729Y-107325000D01*
X70069798Y-107236466D01*
X70063998Y-107219809D01*
X70041009Y-107153794D01*
X70015680Y-107081060D01*
X70008442Y-107069476D01*
X69932209Y-106947479D01*
X69928476Y-106941505D01*
X69870499Y-106883122D01*
X69817486Y-106829737D01*
X69817482Y-106829734D01*
X69812522Y-106824739D01*
X69673580Y-106736563D01*
X69613271Y-106715088D01*
X69525189Y-106683723D01*
X69525187Y-106683722D01*
X69518555Y-106681361D01*
X69511569Y-106680528D01*
X69511565Y-106680527D01*
X69397071Y-106666875D01*
X69355153Y-106661877D01*
X69348150Y-106662613D01*
X69348149Y-106662613D01*
X69304935Y-106667155D01*
X69191495Y-106679078D01*
X69184827Y-106681348D01*
X69042382Y-106729840D01*
X69042379Y-106729841D01*
X69035715Y-106732110D01*
X68895555Y-106818337D01*
X68883914Y-106829737D01*
X68785437Y-106926173D01*
X68777982Y-106933473D01*
X68688838Y-107071797D01*
X68686427Y-107078420D01*
X68686426Y-107078423D01*
X68634966Y-107219809D01*
X68634965Y-107219814D01*
X68632556Y-107226432D01*
X68611931Y-107389694D01*
X65254993Y-107389694D01*
X65256515Y-107387403D01*
X65314951Y-107233568D01*
X65330755Y-107121114D01*
X65337302Y-107074534D01*
X65337303Y-107074527D01*
X65337853Y-107070610D01*
X65338141Y-107050000D01*
X65319798Y-106886466D01*
X65313039Y-106867055D01*
X65278714Y-106768489D01*
X65265680Y-106731060D01*
X65236101Y-106683723D01*
X65182209Y-106597479D01*
X65178476Y-106591505D01*
X65109666Y-106522213D01*
X65067486Y-106479737D01*
X65067482Y-106479734D01*
X65062522Y-106474739D01*
X64923580Y-106386563D01*
X64924958Y-106384392D01*
X64881259Y-106344546D01*
X64862988Y-106275940D01*
X64865398Y-106258631D01*
X64864951Y-106258568D01*
X64887302Y-106099534D01*
X64887303Y-106099527D01*
X64887853Y-106095610D01*
X64887995Y-106085430D01*
X64888086Y-106078962D01*
X64888086Y-106078956D01*
X64888141Y-106075000D01*
X64869798Y-105911466D01*
X64863998Y-105894809D01*
X64844805Y-105839694D01*
X67711931Y-105839694D01*
X67727989Y-106003468D01*
X67779932Y-106159615D01*
X67783581Y-106165640D01*
X67852515Y-106279462D01*
X67865179Y-106300373D01*
X67870070Y-106305438D01*
X67870071Y-106305439D01*
X67882778Y-106318597D01*
X67979491Y-106418747D01*
X68117189Y-106508854D01*
X68271428Y-106566215D01*
X68278409Y-106567146D01*
X68278411Y-106567147D01*
X68427561Y-106587048D01*
X68427565Y-106587048D01*
X68434542Y-106587979D01*
X68441553Y-106587341D01*
X68441557Y-106587341D01*
X68591403Y-106573704D01*
X68591404Y-106573704D01*
X68598424Y-106573065D01*
X68630130Y-106562763D01*
X68748230Y-106524390D01*
X68748233Y-106524389D01*
X68754929Y-106522213D01*
X68896279Y-106437951D01*
X69015449Y-106324468D01*
X69019986Y-106317639D01*
X69102614Y-106193275D01*
X69102615Y-106193273D01*
X69106515Y-106187403D01*
X69164951Y-106033568D01*
X69177017Y-105947713D01*
X69187302Y-105874534D01*
X69187303Y-105874527D01*
X69187853Y-105870610D01*
X69188141Y-105850000D01*
X69169798Y-105686466D01*
X69165463Y-105674016D01*
X69123870Y-105554578D01*
X69115680Y-105531060D01*
X69111241Y-105523955D01*
X69032209Y-105397479D01*
X69028476Y-105391505D01*
X68954342Y-105316852D01*
X68917486Y-105279737D01*
X68917482Y-105279734D01*
X68912522Y-105274739D01*
X68773580Y-105186563D01*
X68724447Y-105169068D01*
X68625189Y-105133723D01*
X68625187Y-105133722D01*
X68618555Y-105131361D01*
X68611569Y-105130528D01*
X68611565Y-105130527D01*
X68497071Y-105116875D01*
X68455153Y-105111877D01*
X68448150Y-105112613D01*
X68448149Y-105112613D01*
X68404935Y-105117155D01*
X68291495Y-105129078D01*
X68284827Y-105131348D01*
X68142382Y-105179840D01*
X68142379Y-105179841D01*
X68135715Y-105182110D01*
X67995555Y-105268337D01*
X67984195Y-105279462D01*
X67883034Y-105378526D01*
X67877982Y-105383473D01*
X67788838Y-105521797D01*
X67786427Y-105528420D01*
X67786426Y-105528423D01*
X67734966Y-105669809D01*
X67734965Y-105669814D01*
X67732556Y-105676432D01*
X67711931Y-105839694D01*
X64844805Y-105839694D01*
X64817998Y-105762717D01*
X64815680Y-105756060D01*
X64811874Y-105749968D01*
X64732209Y-105622479D01*
X64728476Y-105616505D01*
X64666249Y-105553842D01*
X64617486Y-105504737D01*
X64617482Y-105504734D01*
X64612522Y-105499739D01*
X64473580Y-105411563D01*
X64380858Y-105378546D01*
X64325189Y-105358723D01*
X64325187Y-105358722D01*
X64318555Y-105356361D01*
X64311567Y-105355528D01*
X64311564Y-105355527D01*
X64166903Y-105338278D01*
X64164431Y-105337220D01*
X64160464Y-105337510D01*
X64155153Y-105336877D01*
X64148150Y-105337613D01*
X64148147Y-105337613D01*
X64073324Y-105345478D01*
X63991495Y-105354078D01*
X63984827Y-105356348D01*
X63842382Y-105404840D01*
X63842379Y-105404841D01*
X63835715Y-105407110D01*
X63740553Y-105465654D01*
X63733998Y-105469687D01*
X63695555Y-105493337D01*
X63577982Y-105608473D01*
X63488838Y-105746797D01*
X63486427Y-105753420D01*
X63486426Y-105753423D01*
X63434966Y-105894809D01*
X63434965Y-105894814D01*
X63432556Y-105901432D01*
X63411931Y-106064694D01*
X61896638Y-106064694D01*
X61911529Y-105951590D01*
X61911950Y-105934354D01*
X61913074Y-105888365D01*
X61913074Y-105888361D01*
X61913156Y-105885000D01*
X61894852Y-105662361D01*
X61840431Y-105445702D01*
X61751354Y-105240840D01*
X61680529Y-105131361D01*
X61632822Y-105057617D01*
X61632820Y-105057614D01*
X61630014Y-105053277D01*
X61479670Y-104888051D01*
X61475619Y-104884852D01*
X61475615Y-104884848D01*
X61308414Y-104752800D01*
X61308410Y-104752798D01*
X61304359Y-104749598D01*
X61263053Y-104726796D01*
X61213084Y-104676364D01*
X61198312Y-104606921D01*
X61223428Y-104540516D01*
X61250780Y-104513909D01*
X61308523Y-104472721D01*
X61429860Y-104386173D01*
X61445478Y-104370610D01*
X61476502Y-104339694D01*
X63461931Y-104339694D01*
X63477989Y-104503468D01*
X63529932Y-104659615D01*
X63533581Y-104665640D01*
X63610542Y-104792716D01*
X63615179Y-104800373D01*
X63620070Y-104805438D01*
X63620071Y-104805439D01*
X63656763Y-104843435D01*
X63729491Y-104918747D01*
X63867189Y-105008854D01*
X64021428Y-105066215D01*
X64142013Y-105082304D01*
X64175652Y-105086793D01*
X64177667Y-105087688D01*
X64180701Y-105087466D01*
X64184542Y-105087979D01*
X64191553Y-105087341D01*
X64191557Y-105087341D01*
X64341403Y-105073704D01*
X64341404Y-105073704D01*
X64348424Y-105073065D01*
X64410414Y-105052923D01*
X64498230Y-105024390D01*
X64498233Y-105024389D01*
X64504929Y-105022213D01*
X64646279Y-104937951D01*
X64765449Y-104824468D01*
X64783190Y-104797766D01*
X64798316Y-104775000D01*
X71786496Y-104775000D01*
X71787186Y-104781565D01*
X71803623Y-104937951D01*
X71806458Y-104964928D01*
X71865473Y-105146556D01*
X71868776Y-105152278D01*
X71868777Y-105152279D01*
X71885045Y-105180455D01*
X71960960Y-105311944D01*
X71965378Y-105316851D01*
X71965379Y-105316852D01*
X72023342Y-105381226D01*
X72088747Y-105453866D01*
X72143074Y-105493337D01*
X72227365Y-105554578D01*
X72243248Y-105566118D01*
X72249276Y-105568802D01*
X72249278Y-105568803D01*
X72411681Y-105641109D01*
X72417712Y-105643794D01*
X72511113Y-105663647D01*
X72598056Y-105682128D01*
X72598061Y-105682128D01*
X72604513Y-105683500D01*
X72795487Y-105683500D01*
X72801939Y-105682128D01*
X72801944Y-105682128D01*
X72888887Y-105663647D01*
X72982288Y-105643794D01*
X72988319Y-105641109D01*
X73150722Y-105568803D01*
X73150724Y-105568802D01*
X73156752Y-105566118D01*
X73172636Y-105554578D01*
X73256926Y-105493337D01*
X73311253Y-105453866D01*
X73376658Y-105381226D01*
X73434621Y-105316852D01*
X73434622Y-105316851D01*
X73439040Y-105311944D01*
X73514955Y-105180455D01*
X73531223Y-105152279D01*
X73531224Y-105152278D01*
X73534527Y-105146556D01*
X73593542Y-104964928D01*
X73596378Y-104937951D01*
X73605622Y-104850000D01*
X74786496Y-104850000D01*
X74787186Y-104856565D01*
X74798663Y-104965759D01*
X74806458Y-105039928D01*
X74865473Y-105221556D01*
X74960960Y-105386944D01*
X74965378Y-105391851D01*
X74965379Y-105391852D01*
X75059123Y-105495965D01*
X75088747Y-105528866D01*
X75187843Y-105600864D01*
X75227354Y-105629570D01*
X75243248Y-105641118D01*
X75249276Y-105643802D01*
X75249278Y-105643803D01*
X75361657Y-105693837D01*
X75417712Y-105718794D01*
X75511112Y-105738647D01*
X75598056Y-105757128D01*
X75598061Y-105757128D01*
X75604513Y-105758500D01*
X75795487Y-105758500D01*
X75801939Y-105757128D01*
X75801944Y-105757128D01*
X75888888Y-105738647D01*
X75982288Y-105718794D01*
X76038343Y-105693837D01*
X76150722Y-105643803D01*
X76150724Y-105643802D01*
X76156752Y-105641118D01*
X76172647Y-105629570D01*
X76212157Y-105600864D01*
X76311253Y-105528866D01*
X76340877Y-105495965D01*
X76434621Y-105391852D01*
X76434622Y-105391851D01*
X76439040Y-105386944D01*
X76534527Y-105221556D01*
X76593542Y-105039928D01*
X76601338Y-104965759D01*
X76612814Y-104856565D01*
X76613504Y-104850000D01*
X76610203Y-104818597D01*
X76594232Y-104666635D01*
X76594232Y-104666633D01*
X76593542Y-104660072D01*
X76534527Y-104478444D01*
X76526328Y-104464242D01*
X76462061Y-104352929D01*
X76439040Y-104313056D01*
X76388691Y-104257137D01*
X76315675Y-104176045D01*
X76315674Y-104176044D01*
X76311253Y-104171134D01*
X76156752Y-104058882D01*
X76150724Y-104056198D01*
X76150722Y-104056197D01*
X76113655Y-104039694D01*
X78361931Y-104039694D01*
X78377989Y-104203468D01*
X78429932Y-104359615D01*
X78433581Y-104365640D01*
X78509633Y-104491215D01*
X78515179Y-104500373D01*
X78520070Y-104505438D01*
X78520071Y-104505439D01*
X78530169Y-104515896D01*
X78629491Y-104618747D01*
X78635383Y-104622602D01*
X78635387Y-104622606D01*
X78750634Y-104698021D01*
X78796683Y-104752058D01*
X78806206Y-104822413D01*
X78787552Y-104871708D01*
X78738838Y-104947297D01*
X78736427Y-104953920D01*
X78736426Y-104953923D01*
X78684966Y-105095309D01*
X78684965Y-105095314D01*
X78682556Y-105101932D01*
X78661931Y-105265194D01*
X78677989Y-105428968D01*
X78729932Y-105585115D01*
X78733581Y-105591140D01*
X78810892Y-105718794D01*
X78815179Y-105725873D01*
X78929491Y-105844247D01*
X79067189Y-105934354D01*
X79221428Y-105991715D01*
X79228409Y-105992646D01*
X79228411Y-105992647D01*
X79377561Y-106012548D01*
X79377565Y-106012548D01*
X79384542Y-106013479D01*
X79391553Y-106012841D01*
X79391557Y-106012841D01*
X79541403Y-105999204D01*
X79541404Y-105999204D01*
X79548424Y-105998565D01*
X79577062Y-105989260D01*
X79698230Y-105949890D01*
X79698233Y-105949889D01*
X79704929Y-105947713D01*
X79846279Y-105863451D01*
X79965449Y-105749968D01*
X79981458Y-105725873D01*
X80052614Y-105618775D01*
X80052615Y-105618773D01*
X80056515Y-105612903D01*
X80114951Y-105459068D01*
X80123607Y-105397479D01*
X80137302Y-105300034D01*
X80137303Y-105300027D01*
X80137853Y-105296110D01*
X80138141Y-105275500D01*
X80119798Y-105111966D01*
X80113998Y-105095309D01*
X80088477Y-105022024D01*
X80084963Y-104951114D01*
X80120345Y-104889562D01*
X80183387Y-104856910D01*
X80196020Y-104855109D01*
X80273424Y-104848065D01*
X80331093Y-104829327D01*
X80423230Y-104799390D01*
X80423233Y-104799389D01*
X80429929Y-104797213D01*
X80571279Y-104712951D01*
X80690449Y-104599468D01*
X80694350Y-104593597D01*
X80777614Y-104468275D01*
X80777615Y-104468273D01*
X80781515Y-104462403D01*
X80839951Y-104308568D01*
X80849861Y-104238056D01*
X80862302Y-104149534D01*
X80862303Y-104149527D01*
X80862853Y-104145610D01*
X80863141Y-104125000D01*
X80844798Y-103961466D01*
X80847490Y-103961164D01*
X80851136Y-103902624D01*
X80893158Y-103845399D01*
X80959447Y-103819977D01*
X81028957Y-103834429D01*
X81038584Y-103840135D01*
X81067189Y-103858854D01*
X81221428Y-103916215D01*
X81228409Y-103917146D01*
X81228411Y-103917147D01*
X81377561Y-103937048D01*
X81377565Y-103937048D01*
X81384542Y-103937979D01*
X81391553Y-103937341D01*
X81391557Y-103937341D01*
X81541403Y-103923704D01*
X81541404Y-103923704D01*
X81548424Y-103923065D01*
X81604533Y-103904834D01*
X81698230Y-103874390D01*
X81698233Y-103874389D01*
X81704929Y-103872213D01*
X81846279Y-103787951D01*
X81965449Y-103674468D01*
X81970807Y-103666404D01*
X82052614Y-103543275D01*
X82052615Y-103543273D01*
X82056515Y-103537403D01*
X82114951Y-103383568D01*
X82137853Y-103220610D01*
X82138141Y-103200000D01*
X82119798Y-103036466D01*
X82065680Y-102881060D01*
X81978476Y-102741505D01*
X81908074Y-102670610D01*
X81867486Y-102629737D01*
X81867482Y-102629734D01*
X81862522Y-102624739D01*
X81723580Y-102536563D01*
X81659275Y-102513665D01*
X81575189Y-102483723D01*
X81575187Y-102483722D01*
X81568555Y-102481361D01*
X81561569Y-102480528D01*
X81561565Y-102480527D01*
X81447071Y-102466875D01*
X81405153Y-102461877D01*
X81398150Y-102462613D01*
X81398149Y-102462613D01*
X81354935Y-102467155D01*
X81241495Y-102479078D01*
X81234827Y-102481348D01*
X81092382Y-102529840D01*
X81092379Y-102529841D01*
X81085715Y-102532110D01*
X81079715Y-102535801D01*
X81079709Y-102535804D01*
X80964086Y-102606936D01*
X80895585Y-102625595D01*
X80827871Y-102604256D01*
X80782443Y-102549697D01*
X80772849Y-102513665D01*
X80770583Y-102493464D01*
X80770583Y-102493463D01*
X80769798Y-102486466D01*
X80763998Y-102469809D01*
X80717998Y-102337717D01*
X80715680Y-102331060D01*
X80706127Y-102315771D01*
X80632209Y-102197479D01*
X80628476Y-102191505D01*
X80564060Y-102126638D01*
X80517486Y-102079737D01*
X80517482Y-102079734D01*
X80512522Y-102074739D01*
X80373580Y-101986563D01*
X80261441Y-101946632D01*
X80225189Y-101933723D01*
X80225187Y-101933722D01*
X80218555Y-101931361D01*
X80211569Y-101930528D01*
X80211565Y-101930527D01*
X80097071Y-101916875D01*
X80055153Y-101911877D01*
X80048150Y-101912613D01*
X80048149Y-101912613D01*
X80004935Y-101917155D01*
X79891495Y-101929078D01*
X79884827Y-101931348D01*
X79742382Y-101979840D01*
X79742379Y-101979841D01*
X79735715Y-101982110D01*
X79674106Y-102020012D01*
X79610183Y-102059338D01*
X79595555Y-102068337D01*
X79571472Y-102091921D01*
X79487812Y-102173847D01*
X79477982Y-102183473D01*
X79388838Y-102321797D01*
X79386427Y-102328420D01*
X79386426Y-102328423D01*
X79334966Y-102469809D01*
X79334965Y-102469814D01*
X79332556Y-102476432D01*
X79311931Y-102639694D01*
X79327989Y-102803468D01*
X79379932Y-102959615D01*
X79383581Y-102965640D01*
X79439955Y-103058723D01*
X79465179Y-103100373D01*
X79470070Y-103105438D01*
X79470071Y-103105439D01*
X79535017Y-103172693D01*
X79567949Y-103235590D01*
X79561649Y-103306307D01*
X79518117Y-103362391D01*
X79451173Y-103386037D01*
X79402113Y-103378919D01*
X79275189Y-103333723D01*
X79275187Y-103333722D01*
X79268555Y-103331361D01*
X79261569Y-103330528D01*
X79261565Y-103330527D01*
X79147071Y-103316875D01*
X79105153Y-103311877D01*
X79098150Y-103312613D01*
X79098149Y-103312613D01*
X79061120Y-103316505D01*
X78941495Y-103329078D01*
X78934827Y-103331348D01*
X78792382Y-103379840D01*
X78792379Y-103379841D01*
X78785715Y-103382110D01*
X78645555Y-103468337D01*
X78625497Y-103487979D01*
X78568968Y-103543337D01*
X78527982Y-103583473D01*
X78438838Y-103721797D01*
X78436427Y-103728420D01*
X78436426Y-103728423D01*
X78384966Y-103869809D01*
X78384965Y-103869814D01*
X78382556Y-103876432D01*
X78361931Y-104039694D01*
X76113655Y-104039694D01*
X75988319Y-103983891D01*
X75988318Y-103983891D01*
X75982288Y-103981206D01*
X75880716Y-103959616D01*
X75801944Y-103942872D01*
X75801939Y-103942872D01*
X75795487Y-103941500D01*
X75604513Y-103941500D01*
X75598061Y-103942872D01*
X75598056Y-103942872D01*
X75519284Y-103959616D01*
X75417712Y-103981206D01*
X75411682Y-103983891D01*
X75411681Y-103983891D01*
X75249278Y-104056197D01*
X75249276Y-104056198D01*
X75243248Y-104058882D01*
X75088747Y-104171134D01*
X75084326Y-104176044D01*
X75084325Y-104176045D01*
X75011310Y-104257137D01*
X74960960Y-104313056D01*
X74937939Y-104352929D01*
X74873673Y-104464242D01*
X74865473Y-104478444D01*
X74806458Y-104660072D01*
X74805768Y-104666633D01*
X74805768Y-104666635D01*
X74789797Y-104818597D01*
X74786496Y-104850000D01*
X73605622Y-104850000D01*
X73612814Y-104781565D01*
X73613504Y-104775000D01*
X73607181Y-104714842D01*
X73594232Y-104591635D01*
X73594232Y-104591633D01*
X73593542Y-104585072D01*
X73534527Y-104403444D01*
X73526287Y-104389171D01*
X73447950Y-104253489D01*
X73439040Y-104238056D01*
X73382344Y-104175088D01*
X73315675Y-104101045D01*
X73315674Y-104101044D01*
X73311253Y-104096134D01*
X73156752Y-103983882D01*
X73150724Y-103981198D01*
X73150722Y-103981197D01*
X72988319Y-103908891D01*
X72988318Y-103908891D01*
X72982288Y-103906206D01*
X72888887Y-103886353D01*
X72801944Y-103867872D01*
X72801939Y-103867872D01*
X72795487Y-103866500D01*
X72604513Y-103866500D01*
X72598061Y-103867872D01*
X72598056Y-103867872D01*
X72511112Y-103886353D01*
X72417712Y-103906206D01*
X72411682Y-103908891D01*
X72411681Y-103908891D01*
X72249278Y-103981197D01*
X72249276Y-103981198D01*
X72243248Y-103983882D01*
X72088747Y-104096134D01*
X72084326Y-104101044D01*
X72084325Y-104101045D01*
X72017657Y-104175088D01*
X71960960Y-104238056D01*
X71952050Y-104253489D01*
X71873714Y-104389171D01*
X71865473Y-104403444D01*
X71806458Y-104585072D01*
X71805768Y-104591633D01*
X71805768Y-104591635D01*
X71792819Y-104714842D01*
X71786496Y-104775000D01*
X64798316Y-104775000D01*
X64852614Y-104693275D01*
X64852615Y-104693273D01*
X64856515Y-104687403D01*
X64914951Y-104533568D01*
X64924694Y-104464242D01*
X64937302Y-104374534D01*
X64937303Y-104374527D01*
X64937853Y-104370610D01*
X64938141Y-104350000D01*
X64919798Y-104186466D01*
X64913998Y-104169809D01*
X64882001Y-104077929D01*
X64865680Y-104031060D01*
X64839411Y-103989020D01*
X64782209Y-103897479D01*
X64778476Y-103891505D01*
X64720499Y-103833122D01*
X64667486Y-103779737D01*
X64667482Y-103779734D01*
X64662522Y-103774739D01*
X64656573Y-103770964D01*
X64656571Y-103770962D01*
X64646694Y-103764694D01*
X68811931Y-103764694D01*
X68827989Y-103928468D01*
X68879932Y-104084615D01*
X68892492Y-104105354D01*
X68951913Y-104203468D01*
X68965179Y-104225373D01*
X68970070Y-104230438D01*
X68970071Y-104230439D01*
X68988277Y-104249292D01*
X69079491Y-104343747D01*
X69217189Y-104433854D01*
X69371428Y-104491215D01*
X69378409Y-104492146D01*
X69378411Y-104492147D01*
X69527561Y-104512048D01*
X69527565Y-104512048D01*
X69534542Y-104512979D01*
X69541553Y-104512341D01*
X69541557Y-104512341D01*
X69691403Y-104498704D01*
X69691404Y-104498704D01*
X69698424Y-104498065D01*
X69758811Y-104478444D01*
X69848230Y-104449390D01*
X69848233Y-104449389D01*
X69854929Y-104447213D01*
X69996279Y-104362951D01*
X70115449Y-104249468D01*
X70128092Y-104230439D01*
X70202614Y-104118275D01*
X70202615Y-104118273D01*
X70206515Y-104112403D01*
X70264951Y-103958568D01*
X70280856Y-103845399D01*
X70287302Y-103799534D01*
X70287303Y-103799527D01*
X70287853Y-103795610D01*
X70288141Y-103775000D01*
X70269798Y-103611466D01*
X70263998Y-103594809D01*
X70219216Y-103466215D01*
X70215680Y-103456060D01*
X70184625Y-103406361D01*
X70132209Y-103322479D01*
X70128476Y-103316505D01*
X70070499Y-103258122D01*
X70017486Y-103204737D01*
X70017482Y-103204734D01*
X70012522Y-103199739D01*
X69873580Y-103111563D01*
X69787224Y-103080813D01*
X69725189Y-103058723D01*
X69725187Y-103058722D01*
X69718555Y-103056361D01*
X69711569Y-103055528D01*
X69711565Y-103055527D01*
X69597071Y-103041875D01*
X69555153Y-103036877D01*
X69548150Y-103037613D01*
X69548149Y-103037613D01*
X69504935Y-103042155D01*
X69391495Y-103054078D01*
X69384827Y-103056348D01*
X69242382Y-103104840D01*
X69242379Y-103104841D01*
X69235715Y-103107110D01*
X69095555Y-103193337D01*
X68977982Y-103308473D01*
X68888838Y-103446797D01*
X68886427Y-103453420D01*
X68886426Y-103453423D01*
X68834966Y-103594809D01*
X68834965Y-103594814D01*
X68832556Y-103601432D01*
X68811931Y-103764694D01*
X64646694Y-103764694D01*
X64575942Y-103719793D01*
X64529143Y-103666404D01*
X64518638Y-103596189D01*
X64547762Y-103531441D01*
X64607268Y-103492717D01*
X64634634Y-103488992D01*
X64634542Y-103487979D01*
X64791403Y-103473704D01*
X64791404Y-103473704D01*
X64798424Y-103473065D01*
X64850760Y-103456060D01*
X64948230Y-103424390D01*
X64948233Y-103424389D01*
X64954929Y-103422213D01*
X65096279Y-103337951D01*
X65215449Y-103224468D01*
X65228092Y-103205439D01*
X65302614Y-103093275D01*
X65302615Y-103093273D01*
X65306515Y-103087403D01*
X65364951Y-102933568D01*
X65378748Y-102835398D01*
X65387302Y-102774534D01*
X65387303Y-102774527D01*
X65387853Y-102770610D01*
X65388141Y-102750000D01*
X65369798Y-102586466D01*
X65363998Y-102569809D01*
X65326668Y-102462613D01*
X65315680Y-102431060D01*
X65308482Y-102419540D01*
X65232209Y-102297479D01*
X65228476Y-102291505D01*
X65151627Y-102214118D01*
X65117486Y-102179737D01*
X65117482Y-102179734D01*
X65112522Y-102174739D01*
X64973580Y-102086563D01*
X64912027Y-102064645D01*
X64825189Y-102033723D01*
X64825187Y-102033722D01*
X64818555Y-102031361D01*
X64811569Y-102030528D01*
X64811565Y-102030527D01*
X64690686Y-102016114D01*
X64655153Y-102011877D01*
X64648150Y-102012613D01*
X64648149Y-102012613D01*
X64614840Y-102016114D01*
X64491495Y-102029078D01*
X64484827Y-102031348D01*
X64342382Y-102079840D01*
X64342379Y-102079841D01*
X64335715Y-102082110D01*
X64195555Y-102168337D01*
X64153421Y-102209598D01*
X64127892Y-102234598D01*
X64077982Y-102283473D01*
X63988838Y-102421797D01*
X63986427Y-102428420D01*
X63986426Y-102428423D01*
X63934966Y-102569809D01*
X63934965Y-102569814D01*
X63932556Y-102576432D01*
X63911931Y-102739694D01*
X63927989Y-102903468D01*
X63979932Y-103059615D01*
X64065179Y-103200373D01*
X64070070Y-103205438D01*
X64070071Y-103205439D01*
X64136561Y-103274291D01*
X64179491Y-103318747D01*
X64185387Y-103322605D01*
X64185388Y-103322606D01*
X64274979Y-103381233D01*
X64321028Y-103435270D01*
X64330551Y-103505625D01*
X64300526Y-103569961D01*
X64240485Y-103607850D01*
X64208202Y-103612241D01*
X64205153Y-103611877D01*
X64198150Y-103612613D01*
X64198147Y-103612613D01*
X64123324Y-103620478D01*
X64041495Y-103629078D01*
X64034827Y-103631348D01*
X63892382Y-103679840D01*
X63892379Y-103679841D01*
X63885715Y-103682110D01*
X63745555Y-103768337D01*
X63738751Y-103775000D01*
X63643163Y-103868607D01*
X63627982Y-103883473D01*
X63538838Y-104021797D01*
X63536427Y-104028420D01*
X63536426Y-104028423D01*
X63484966Y-104169809D01*
X63484965Y-104169814D01*
X63482556Y-104176432D01*
X63461931Y-104339694D01*
X61476502Y-104339694D01*
X61559348Y-104257137D01*
X61588096Y-104228489D01*
X61592380Y-104222528D01*
X61715435Y-104051277D01*
X61718453Y-104047077D01*
X61727673Y-104028423D01*
X61815136Y-103851453D01*
X61815137Y-103851451D01*
X61817430Y-103846811D01*
X61872242Y-103666404D01*
X61880865Y-103638023D01*
X61880865Y-103638021D01*
X61882370Y-103633069D01*
X61911529Y-103411590D01*
X61912133Y-103386877D01*
X61913074Y-103348365D01*
X61913074Y-103348361D01*
X61913156Y-103345000D01*
X61894852Y-103122361D01*
X61840431Y-102905702D01*
X61751354Y-102700840D01*
X61675394Y-102583424D01*
X61632822Y-102517617D01*
X61632820Y-102517614D01*
X61630014Y-102513277D01*
X61479670Y-102348051D01*
X61475619Y-102344852D01*
X61475615Y-102344848D01*
X61308414Y-102212800D01*
X61308410Y-102212798D01*
X61304359Y-102209598D01*
X61263053Y-102186796D01*
X61213084Y-102136364D01*
X61198312Y-102066921D01*
X61223428Y-102000516D01*
X61250780Y-101973909D01*
X61313631Y-101929078D01*
X61429860Y-101846173D01*
X61588096Y-101688489D01*
X61592380Y-101682528D01*
X61715435Y-101511277D01*
X61718453Y-101507077D01*
X61747147Y-101449020D01*
X61815136Y-101311453D01*
X61815137Y-101311451D01*
X61817430Y-101306811D01*
X61854556Y-101184615D01*
X61880865Y-101098023D01*
X61880865Y-101098021D01*
X61882370Y-101093069D01*
X61911529Y-100871590D01*
X61911611Y-100868240D01*
X61911698Y-100864694D01*
X70261931Y-100864694D01*
X70277989Y-101028468D01*
X70329932Y-101184615D01*
X70333581Y-101190640D01*
X70406749Y-101311453D01*
X70415179Y-101325373D01*
X70529491Y-101443747D01*
X70667189Y-101533854D01*
X70821428Y-101591215D01*
X70828409Y-101592146D01*
X70828411Y-101592147D01*
X70977561Y-101612048D01*
X70977565Y-101612048D01*
X70984542Y-101612979D01*
X71048885Y-101607123D01*
X71118536Y-101620870D01*
X71169700Y-101670091D01*
X71186131Y-101739160D01*
X71185308Y-101748397D01*
X71175487Y-101826138D01*
X71191545Y-101989912D01*
X71243488Y-102146059D01*
X71247137Y-102152084D01*
X71280459Y-102207104D01*
X71328735Y-102286817D01*
X71333626Y-102291882D01*
X71333627Y-102291883D01*
X71365689Y-102325084D01*
X71443047Y-102405191D01*
X71580745Y-102495298D01*
X71734984Y-102552659D01*
X71741965Y-102553590D01*
X71741967Y-102553591D01*
X71891117Y-102573492D01*
X71891121Y-102573492D01*
X71898098Y-102574423D01*
X71905109Y-102573785D01*
X71905113Y-102573785D01*
X72054959Y-102560148D01*
X72054960Y-102560148D01*
X72061980Y-102559509D01*
X72134936Y-102535804D01*
X72211786Y-102510834D01*
X72211789Y-102510833D01*
X72218485Y-102508657D01*
X72359835Y-102424395D01*
X72479005Y-102310912D01*
X72491899Y-102291505D01*
X72566170Y-102179719D01*
X72566171Y-102179717D01*
X72570071Y-102173847D01*
X72628507Y-102020012D01*
X72641390Y-101928342D01*
X72650858Y-101860978D01*
X72650859Y-101860971D01*
X72651409Y-101857054D01*
X72651697Y-101836444D01*
X72633354Y-101672910D01*
X72626542Y-101653347D01*
X72585785Y-101536310D01*
X72579236Y-101517504D01*
X72572721Y-101507077D01*
X72495765Y-101383923D01*
X72492032Y-101377949D01*
X72426170Y-101311626D01*
X72381042Y-101266181D01*
X72381038Y-101266178D01*
X72376078Y-101261183D01*
X72237136Y-101173007D01*
X72143487Y-101139660D01*
X72088745Y-101120167D01*
X72088743Y-101120166D01*
X72082111Y-101117805D01*
X72075125Y-101116972D01*
X72075121Y-101116971D01*
X71960627Y-101103319D01*
X71918709Y-101098321D01*
X71911706Y-101099057D01*
X71911704Y-101099057D01*
X71866614Y-101103796D01*
X71796775Y-101091023D01*
X71744929Y-101042521D01*
X71727535Y-100973688D01*
X71728670Y-100960950D01*
X71737302Y-100899534D01*
X71737303Y-100899527D01*
X71737853Y-100895610D01*
X71738141Y-100875000D01*
X71719798Y-100711466D01*
X71713998Y-100694809D01*
X71667998Y-100562717D01*
X71665680Y-100556060D01*
X71578476Y-100416505D01*
X71474548Y-100311849D01*
X71467486Y-100304737D01*
X71467482Y-100304734D01*
X71462522Y-100299739D01*
X71323580Y-100211563D01*
X71251170Y-100185779D01*
X71175189Y-100158723D01*
X71175187Y-100158722D01*
X71168555Y-100156361D01*
X71161569Y-100155528D01*
X71161565Y-100155527D01*
X71047071Y-100141875D01*
X71005153Y-100136877D01*
X70998150Y-100137613D01*
X70998149Y-100137613D01*
X70954935Y-100142155D01*
X70841495Y-100154078D01*
X70834827Y-100156348D01*
X70692382Y-100204840D01*
X70692379Y-100204841D01*
X70685715Y-100207110D01*
X70545555Y-100293337D01*
X70427982Y-100408473D01*
X70338838Y-100546797D01*
X70336427Y-100553420D01*
X70336426Y-100553423D01*
X70284966Y-100694809D01*
X70284965Y-100694814D01*
X70282556Y-100701432D01*
X70261931Y-100864694D01*
X61911698Y-100864694D01*
X61913074Y-100808365D01*
X61913074Y-100808361D01*
X61913156Y-100805000D01*
X61894852Y-100582361D01*
X61840431Y-100365702D01*
X61751354Y-100160840D01*
X61648995Y-100002617D01*
X61632822Y-99977617D01*
X61632820Y-99977614D01*
X61630014Y-99973277D01*
X61479670Y-99808051D01*
X61475619Y-99804852D01*
X61475615Y-99804848D01*
X61308414Y-99672800D01*
X61308410Y-99672798D01*
X61304359Y-99669598D01*
X61263053Y-99646796D01*
X61213084Y-99596364D01*
X61198312Y-99526921D01*
X61223428Y-99460516D01*
X61250780Y-99433909D01*
X61315979Y-99387403D01*
X61429860Y-99306173D01*
X61438852Y-99297213D01*
X61528280Y-99208096D01*
X61588096Y-99148489D01*
X61592380Y-99142528D01*
X61666273Y-99039694D01*
X68511931Y-99039694D01*
X68527989Y-99203468D01*
X68579932Y-99359615D01*
X68583581Y-99365640D01*
X68641271Y-99460896D01*
X68665179Y-99500373D01*
X68779491Y-99618747D01*
X68917189Y-99708854D01*
X69071428Y-99766215D01*
X69078409Y-99767146D01*
X69078411Y-99767147D01*
X69227561Y-99787048D01*
X69227565Y-99787048D01*
X69234542Y-99787979D01*
X69241553Y-99787341D01*
X69241557Y-99787341D01*
X69391403Y-99773704D01*
X69391404Y-99773704D01*
X69398424Y-99773065D01*
X69427062Y-99763760D01*
X69548230Y-99724390D01*
X69548233Y-99724389D01*
X69554929Y-99722213D01*
X69696279Y-99637951D01*
X69815449Y-99524468D01*
X69828092Y-99505439D01*
X69902614Y-99393275D01*
X69902615Y-99393273D01*
X69906515Y-99387403D01*
X69964951Y-99233568D01*
X69981847Y-99113347D01*
X69987302Y-99074534D01*
X69987303Y-99074527D01*
X69987853Y-99070610D01*
X69988141Y-99050000D01*
X69969798Y-98886466D01*
X69963998Y-98869809D01*
X69927545Y-98765131D01*
X69915680Y-98731060D01*
X69879175Y-98672639D01*
X69832209Y-98597479D01*
X69828476Y-98591505D01*
X69746269Y-98508722D01*
X69717486Y-98479737D01*
X69717482Y-98479734D01*
X69712522Y-98474739D01*
X69573580Y-98386563D01*
X69463073Y-98347213D01*
X69425189Y-98333723D01*
X69425187Y-98333722D01*
X69418555Y-98331361D01*
X69411569Y-98330528D01*
X69411565Y-98330527D01*
X69297071Y-98316875D01*
X69255153Y-98311877D01*
X69248150Y-98312613D01*
X69248149Y-98312613D01*
X69204935Y-98317155D01*
X69091495Y-98329078D01*
X69084827Y-98331348D01*
X68942382Y-98379840D01*
X68942379Y-98379841D01*
X68935715Y-98382110D01*
X68885538Y-98412979D01*
X68806724Y-98461466D01*
X68795555Y-98468337D01*
X68778777Y-98484767D01*
X68709030Y-98553069D01*
X68677982Y-98583473D01*
X68588838Y-98721797D01*
X68586427Y-98728420D01*
X68586426Y-98728423D01*
X68534966Y-98869809D01*
X68534965Y-98869814D01*
X68532556Y-98876432D01*
X68511931Y-99039694D01*
X61666273Y-99039694D01*
X61715435Y-98971277D01*
X61718453Y-98967077D01*
X61747147Y-98909020D01*
X61815136Y-98771453D01*
X61815137Y-98771451D01*
X61817430Y-98766811D01*
X61873133Y-98583473D01*
X61880865Y-98558023D01*
X61880865Y-98558021D01*
X61882370Y-98553069D01*
X61911529Y-98331590D01*
X61913156Y-98265000D01*
X61894852Y-98042361D01*
X61840431Y-97825702D01*
X61770422Y-97664694D01*
X75536931Y-97664694D01*
X75552989Y-97828468D01*
X75604932Y-97984615D01*
X75690179Y-98125373D01*
X75695070Y-98130438D01*
X75695071Y-98130439D01*
X75761561Y-98199291D01*
X75804491Y-98243747D01*
X75942189Y-98333854D01*
X76096428Y-98391215D01*
X76103409Y-98392146D01*
X76103411Y-98392147D01*
X76252561Y-98412048D01*
X76252565Y-98412048D01*
X76259542Y-98412979D01*
X76266553Y-98412341D01*
X76266557Y-98412341D01*
X76416403Y-98398704D01*
X76416404Y-98398704D01*
X76423424Y-98398065D01*
X76459713Y-98386274D01*
X76530679Y-98384246D01*
X76591477Y-98420908D01*
X76622802Y-98484620D01*
X76623654Y-98521898D01*
X76611931Y-98614694D01*
X76627989Y-98778468D01*
X76679932Y-98934615D01*
X76683581Y-98940640D01*
X76761321Y-99069002D01*
X76765179Y-99075373D01*
X76770070Y-99080438D01*
X76770071Y-99080439D01*
X76788447Y-99099468D01*
X76879491Y-99193747D01*
X77017189Y-99283854D01*
X77171428Y-99341215D01*
X77178409Y-99342146D01*
X77178411Y-99342147D01*
X77327561Y-99362048D01*
X77327565Y-99362048D01*
X77334542Y-99362979D01*
X77341553Y-99362341D01*
X77341557Y-99362341D01*
X77491403Y-99348704D01*
X77491404Y-99348704D01*
X77498424Y-99348065D01*
X77561627Y-99327529D01*
X77648230Y-99299390D01*
X77648233Y-99299389D01*
X77654929Y-99297213D01*
X77796279Y-99212951D01*
X77915449Y-99099468D01*
X77932377Y-99073990D01*
X78002614Y-98968275D01*
X78002615Y-98968273D01*
X78006515Y-98962403D01*
X78064951Y-98808568D01*
X78081250Y-98692596D01*
X78087302Y-98649534D01*
X78087303Y-98649527D01*
X78087853Y-98645610D01*
X78088141Y-98625000D01*
X78069798Y-98461466D01*
X78015680Y-98306060D01*
X77992126Y-98268365D01*
X77932209Y-98172479D01*
X77928476Y-98166505D01*
X77870499Y-98108122D01*
X77817486Y-98054737D01*
X77817482Y-98054734D01*
X77812522Y-98049739D01*
X77673580Y-97961563D01*
X77624447Y-97944068D01*
X77525189Y-97908723D01*
X77525187Y-97908722D01*
X77518555Y-97906361D01*
X77511569Y-97905528D01*
X77511565Y-97905527D01*
X77397071Y-97891875D01*
X77355153Y-97886877D01*
X77348150Y-97887613D01*
X77348149Y-97887613D01*
X77304935Y-97892155D01*
X77191495Y-97904078D01*
X77184824Y-97906349D01*
X77166989Y-97912420D01*
X77096056Y-97915438D01*
X77034753Y-97879627D01*
X77002541Y-97816358D01*
X77001610Y-97775606D01*
X77005449Y-97748296D01*
X77009059Y-97722605D01*
X77012302Y-97699534D01*
X77012303Y-97699527D01*
X77012853Y-97695610D01*
X77013141Y-97675000D01*
X76994798Y-97511466D01*
X76988998Y-97494809D01*
X76942998Y-97362717D01*
X76940680Y-97356060D01*
X76926626Y-97333568D01*
X76857209Y-97222479D01*
X76853476Y-97216505D01*
X76789523Y-97152104D01*
X76777199Y-97139694D01*
X80786931Y-97139694D01*
X80802989Y-97303468D01*
X80854932Y-97459615D01*
X80858581Y-97465640D01*
X80916004Y-97560455D01*
X80940179Y-97600373D01*
X81054491Y-97718747D01*
X81192189Y-97808854D01*
X81346428Y-97866215D01*
X81353409Y-97867146D01*
X81353411Y-97867147D01*
X81502561Y-97887048D01*
X81502565Y-97887048D01*
X81509542Y-97887979D01*
X81516553Y-97887341D01*
X81516557Y-97887341D01*
X81666403Y-97873704D01*
X81666404Y-97873704D01*
X81673424Y-97873065D01*
X81742250Y-97850702D01*
X81823230Y-97824390D01*
X81823233Y-97824389D01*
X81829929Y-97822213D01*
X81971279Y-97737951D01*
X82090449Y-97624468D01*
X82094350Y-97618597D01*
X82177614Y-97493275D01*
X82177615Y-97493273D01*
X82181515Y-97487403D01*
X82239951Y-97333568D01*
X82252309Y-97245635D01*
X82262302Y-97174534D01*
X82262303Y-97174527D01*
X82262853Y-97170610D01*
X82263141Y-97150000D01*
X82244798Y-96986466D01*
X82238998Y-96969809D01*
X82203067Y-96866632D01*
X82190680Y-96831060D01*
X82170063Y-96798065D01*
X82107209Y-96697479D01*
X82103476Y-96691505D01*
X82024660Y-96612137D01*
X81992486Y-96579737D01*
X81992482Y-96579734D01*
X81987522Y-96574739D01*
X81848580Y-96486563D01*
X81799447Y-96469068D01*
X81700189Y-96433723D01*
X81700187Y-96433722D01*
X81693555Y-96431361D01*
X81686569Y-96430528D01*
X81686565Y-96430527D01*
X81572071Y-96416875D01*
X81530153Y-96411877D01*
X81523150Y-96412613D01*
X81523149Y-96412613D01*
X81479935Y-96417155D01*
X81366495Y-96429078D01*
X81359827Y-96431348D01*
X81217382Y-96479840D01*
X81217379Y-96479841D01*
X81210715Y-96482110D01*
X81070555Y-96568337D01*
X80952982Y-96683473D01*
X80863838Y-96821797D01*
X80861427Y-96828420D01*
X80861426Y-96828423D01*
X80809966Y-96969809D01*
X80809965Y-96969814D01*
X80807556Y-96976432D01*
X80786931Y-97139694D01*
X76777199Y-97139694D01*
X76742486Y-97104737D01*
X76742482Y-97104734D01*
X76737522Y-97099739D01*
X76598580Y-97011563D01*
X76499921Y-96976432D01*
X76450189Y-96958723D01*
X76450187Y-96958722D01*
X76443555Y-96956361D01*
X76436569Y-96955528D01*
X76436565Y-96955527D01*
X76322071Y-96941875D01*
X76280153Y-96936877D01*
X76273150Y-96937613D01*
X76273149Y-96937613D01*
X76229935Y-96942155D01*
X76116495Y-96954078D01*
X76109827Y-96956348D01*
X75967382Y-97004840D01*
X75967379Y-97004841D01*
X75960715Y-97007110D01*
X75820555Y-97093337D01*
X75702982Y-97208473D01*
X75613838Y-97346797D01*
X75611427Y-97353420D01*
X75611426Y-97353423D01*
X75559966Y-97494809D01*
X75559965Y-97494814D01*
X75557556Y-97501432D01*
X75536931Y-97664694D01*
X61770422Y-97664694D01*
X61751354Y-97620840D01*
X61675675Y-97503858D01*
X61632822Y-97437617D01*
X61632820Y-97437614D01*
X61630014Y-97433277D01*
X61479670Y-97268051D01*
X61475619Y-97264852D01*
X61475615Y-97264848D01*
X61308414Y-97132800D01*
X61308410Y-97132798D01*
X61304359Y-97129598D01*
X61263053Y-97106796D01*
X61213084Y-97056364D01*
X61198312Y-96986921D01*
X61223428Y-96920516D01*
X61250780Y-96893909D01*
X61294603Y-96862650D01*
X61429860Y-96766173D01*
X61448887Y-96747213D01*
X61548843Y-96647605D01*
X61588096Y-96608489D01*
X61592380Y-96602528D01*
X61715435Y-96431277D01*
X61718453Y-96427077D01*
X61725706Y-96412403D01*
X61815136Y-96231453D01*
X61815137Y-96231451D01*
X61817430Y-96226811D01*
X61857292Y-96095610D01*
X61880865Y-96018023D01*
X61880865Y-96018021D01*
X61882370Y-96013069D01*
X61900249Y-95877268D01*
X61928972Y-95812341D01*
X61988237Y-95773250D01*
X62059229Y-95772405D01*
X62119407Y-95810076D01*
X62144728Y-95853941D01*
X62154932Y-95884615D01*
X62158581Y-95890640D01*
X62235728Y-96018023D01*
X62240179Y-96025373D01*
X62354491Y-96143747D01*
X62492189Y-96233854D01*
X62646428Y-96291215D01*
X62653409Y-96292146D01*
X62653411Y-96292147D01*
X62802561Y-96312048D01*
X62802565Y-96312048D01*
X62809542Y-96312979D01*
X62816553Y-96312341D01*
X62816557Y-96312341D01*
X62966403Y-96298704D01*
X62966404Y-96298704D01*
X62973424Y-96298065D01*
X63074713Y-96265154D01*
X63123230Y-96249390D01*
X63123233Y-96249389D01*
X63129929Y-96247213D01*
X63271279Y-96162951D01*
X63374460Y-96064694D01*
X79286931Y-96064694D01*
X79302989Y-96228468D01*
X79354932Y-96384615D01*
X79358581Y-96390640D01*
X79416675Y-96486563D01*
X79440179Y-96525373D01*
X79445070Y-96530438D01*
X79445071Y-96530439D01*
X79511561Y-96599291D01*
X79554491Y-96643747D01*
X79692189Y-96733854D01*
X79846428Y-96791215D01*
X79853409Y-96792146D01*
X79853411Y-96792147D01*
X80002561Y-96812048D01*
X80002565Y-96812048D01*
X80009542Y-96812979D01*
X80016553Y-96812341D01*
X80016557Y-96812341D01*
X80166403Y-96798704D01*
X80166404Y-96798704D01*
X80173424Y-96798065D01*
X80282792Y-96762529D01*
X80323230Y-96749390D01*
X80323233Y-96749389D01*
X80329929Y-96747213D01*
X80471279Y-96662951D01*
X80590449Y-96549468D01*
X80606458Y-96525373D01*
X80677614Y-96418275D01*
X80677615Y-96418273D01*
X80681515Y-96412403D01*
X80739951Y-96258568D01*
X80748507Y-96197689D01*
X80762302Y-96099534D01*
X80762303Y-96099527D01*
X80762853Y-96095610D01*
X80763141Y-96075000D01*
X80744798Y-95911466D01*
X80738998Y-95894809D01*
X80705530Y-95798704D01*
X80690680Y-95756060D01*
X80682899Y-95743607D01*
X80607209Y-95622479D01*
X80603476Y-95616505D01*
X80518009Y-95530439D01*
X80492486Y-95504737D01*
X80492482Y-95504734D01*
X80487522Y-95499739D01*
X80348580Y-95411563D01*
X80299447Y-95394068D01*
X80200189Y-95358723D01*
X80200187Y-95358722D01*
X80193555Y-95356361D01*
X80186569Y-95355528D01*
X80186565Y-95355527D01*
X80072071Y-95341875D01*
X80030153Y-95336877D01*
X80023150Y-95337613D01*
X80023149Y-95337613D01*
X79979935Y-95342155D01*
X79866495Y-95354078D01*
X79859827Y-95356348D01*
X79717382Y-95404840D01*
X79717379Y-95404841D01*
X79710715Y-95407110D01*
X79570555Y-95493337D01*
X79540782Y-95522493D01*
X79483118Y-95578962D01*
X79452982Y-95608473D01*
X79363838Y-95746797D01*
X79361427Y-95753420D01*
X79361426Y-95753423D01*
X79309966Y-95894809D01*
X79309965Y-95894814D01*
X79307556Y-95901432D01*
X79286931Y-96064694D01*
X63374460Y-96064694D01*
X63390449Y-96049468D01*
X63394350Y-96043597D01*
X63477614Y-95918275D01*
X63477615Y-95918273D01*
X63481515Y-95912403D01*
X63539951Y-95758568D01*
X63552419Y-95669850D01*
X63562302Y-95599534D01*
X63562303Y-95599527D01*
X63562853Y-95595610D01*
X63563141Y-95575000D01*
X63557251Y-95522492D01*
X63569535Y-95452567D01*
X63595574Y-95417202D01*
X63623951Y-95390179D01*
X63635347Y-95379327D01*
X63635349Y-95379325D01*
X63640449Y-95374468D01*
X63650910Y-95358723D01*
X63727614Y-95243275D01*
X63727615Y-95243273D01*
X63731515Y-95237403D01*
X63789951Y-95083568D01*
X63807029Y-94962052D01*
X63836317Y-94897378D01*
X63892866Y-94859755D01*
X63902739Y-94856548D01*
X63923230Y-94849890D01*
X63923233Y-94849889D01*
X63929929Y-94847713D01*
X64071279Y-94763451D01*
X64190449Y-94649968D01*
X64194350Y-94644097D01*
X64277614Y-94518775D01*
X64277615Y-94518773D01*
X64281515Y-94512903D01*
X64339951Y-94359068D01*
X64354075Y-94258568D01*
X64362302Y-94200034D01*
X64362303Y-94200027D01*
X64362853Y-94196110D01*
X64363141Y-94175500D01*
X64344798Y-94011966D01*
X64341304Y-94001932D01*
X64292997Y-93863213D01*
X64292996Y-93863212D01*
X64290680Y-93856560D01*
X64289603Y-93854836D01*
X64278527Y-93786717D01*
X64306828Y-93721605D01*
X64365838Y-93682130D01*
X64436823Y-93680825D01*
X64472544Y-93696920D01*
X64567189Y-93758854D01*
X64721428Y-93816215D01*
X64728409Y-93817146D01*
X64728411Y-93817147D01*
X64877561Y-93837048D01*
X64877565Y-93837048D01*
X64884542Y-93837979D01*
X64891553Y-93837341D01*
X64891557Y-93837341D01*
X65041403Y-93823704D01*
X65041404Y-93823704D01*
X65048424Y-93823065D01*
X65083823Y-93811563D01*
X65198230Y-93774390D01*
X65198233Y-93774389D01*
X65204929Y-93772213D01*
X65346279Y-93687951D01*
X65465449Y-93574468D01*
X65469350Y-93568597D01*
X65552614Y-93443275D01*
X65552615Y-93443273D01*
X65556515Y-93437403D01*
X65614951Y-93283568D01*
X65627474Y-93194459D01*
X65637302Y-93124534D01*
X65637303Y-93124527D01*
X65637853Y-93120610D01*
X65638141Y-93100000D01*
X65619798Y-92936466D01*
X65615407Y-92923855D01*
X65572825Y-92801578D01*
X65565680Y-92781060D01*
X65509124Y-92690551D01*
X65482209Y-92647479D01*
X65478476Y-92641505D01*
X65393575Y-92556009D01*
X65367486Y-92529737D01*
X65367482Y-92529734D01*
X65362522Y-92524739D01*
X65223580Y-92436563D01*
X65170567Y-92417686D01*
X65075189Y-92383723D01*
X65075187Y-92383722D01*
X65068555Y-92381361D01*
X65061569Y-92380528D01*
X65061565Y-92380527D01*
X64936518Y-92365617D01*
X64905153Y-92361877D01*
X64898150Y-92362613D01*
X64898149Y-92362613D01*
X64869569Y-92365617D01*
X64741495Y-92379078D01*
X64734827Y-92381348D01*
X64592382Y-92429840D01*
X64592379Y-92429841D01*
X64585715Y-92432110D01*
X64507881Y-92479994D01*
X64463452Y-92507327D01*
X64445555Y-92518337D01*
X64437092Y-92526625D01*
X64340368Y-92621344D01*
X64327982Y-92633473D01*
X64238838Y-92771797D01*
X64236427Y-92778420D01*
X64236426Y-92778423D01*
X64184966Y-92919809D01*
X64184965Y-92919814D01*
X64182556Y-92926432D01*
X64161931Y-93089694D01*
X64177989Y-93253468D01*
X64229932Y-93409615D01*
X64233579Y-93415637D01*
X64235295Y-93419351D01*
X64245710Y-93489579D01*
X64216502Y-93554290D01*
X64156946Y-93592937D01*
X64085950Y-93593251D01*
X64053399Y-93578584D01*
X63948580Y-93512063D01*
X63895991Y-93493337D01*
X63800189Y-93459223D01*
X63800187Y-93459222D01*
X63793555Y-93456861D01*
X63786569Y-93456028D01*
X63786565Y-93456027D01*
X63672071Y-93442375D01*
X63630153Y-93437377D01*
X63623150Y-93438113D01*
X63623149Y-93438113D01*
X63579935Y-93442655D01*
X63466495Y-93454578D01*
X63459827Y-93456848D01*
X63317382Y-93505340D01*
X63317379Y-93505341D01*
X63310715Y-93507610D01*
X63170555Y-93593837D01*
X63123727Y-93639694D01*
X63070769Y-93691555D01*
X63052982Y-93708973D01*
X62963838Y-93847297D01*
X62961427Y-93853920D01*
X62961426Y-93853923D01*
X62909966Y-93995309D01*
X62909965Y-93995314D01*
X62907556Y-94001932D01*
X62897779Y-94079327D01*
X62893638Y-94112105D01*
X62865256Y-94177182D01*
X62809238Y-94215590D01*
X62767390Y-94229837D01*
X62767385Y-94229839D01*
X62760715Y-94232110D01*
X62663858Y-94291697D01*
X62631724Y-94311466D01*
X62620555Y-94318337D01*
X62571936Y-94365948D01*
X62518502Y-94418275D01*
X62502982Y-94433473D01*
X62413838Y-94571797D01*
X62411427Y-94578420D01*
X62411426Y-94578423D01*
X62359966Y-94719809D01*
X62359965Y-94719814D01*
X62357556Y-94726432D01*
X62336931Y-94889694D01*
X62340926Y-94930439D01*
X62343258Y-94954219D01*
X62329999Y-95023967D01*
X62306016Y-95056539D01*
X62262124Y-95099521D01*
X62252982Y-95108473D01*
X62249163Y-95114398D01*
X62249162Y-95114400D01*
X62225429Y-95151226D01*
X62163838Y-95246797D01*
X62161427Y-95253420D01*
X62161426Y-95253423D01*
X62131052Y-95336877D01*
X62107556Y-95401432D01*
X62104816Y-95400435D01*
X62075886Y-95450618D01*
X62012803Y-95483191D01*
X61942123Y-95476487D01*
X61886288Y-95432636D01*
X61866674Y-95390179D01*
X61853285Y-95336877D01*
X61840431Y-95285702D01*
X61751354Y-95080840D01*
X61647697Y-94920610D01*
X61632822Y-94897617D01*
X61632820Y-94897614D01*
X61630014Y-94893277D01*
X61479670Y-94728051D01*
X61475619Y-94724852D01*
X61475615Y-94724848D01*
X61308414Y-94592800D01*
X61308410Y-94592798D01*
X61304359Y-94589598D01*
X61284116Y-94578423D01*
X61177104Y-94519350D01*
X61108789Y-94481638D01*
X61103920Y-94479914D01*
X61103916Y-94479912D01*
X60903087Y-94408795D01*
X60903083Y-94408794D01*
X60898212Y-94407069D01*
X60893119Y-94406162D01*
X60893116Y-94406161D01*
X60683373Y-94368800D01*
X60683367Y-94368799D01*
X60678284Y-94367894D01*
X60604452Y-94366992D01*
X60460081Y-94365228D01*
X60460079Y-94365228D01*
X60454911Y-94365165D01*
X60234091Y-94398955D01*
X60021756Y-94468357D01*
X59991443Y-94484137D01*
X59834436Y-94565870D01*
X59823607Y-94571507D01*
X59819474Y-94574610D01*
X59819471Y-94574612D01*
X59649100Y-94702530D01*
X59644965Y-94705635D01*
X59619894Y-94731870D01*
X59507112Y-94849890D01*
X59490629Y-94867138D01*
X59487715Y-94871410D01*
X59487714Y-94871411D01*
X59463737Y-94906560D01*
X59364743Y-95051680D01*
X59317878Y-95152643D01*
X59271054Y-95206010D01*
X59202811Y-95225591D01*
X59134815Y-95205168D01*
X59088655Y-95151226D01*
X59077590Y-95099521D01*
X59079342Y-92030859D01*
X66967132Y-92030859D01*
X66980457Y-92234151D01*
X67030605Y-92431610D01*
X67115898Y-92616624D01*
X67119231Y-92621340D01*
X67227887Y-92775084D01*
X67233479Y-92782997D01*
X67237621Y-92787032D01*
X67252553Y-92801578D01*
X67286477Y-92859742D01*
X67293818Y-92887618D01*
X67293822Y-92887628D01*
X67295396Y-92893606D01*
X67298107Y-92899164D01*
X67298108Y-92899166D01*
X67340742Y-92986563D01*
X67368479Y-93043424D01*
X67469387Y-93176105D01*
X67474016Y-93180200D01*
X67474018Y-93180202D01*
X67584829Y-93278226D01*
X67622599Y-93338342D01*
X67621871Y-93409335D01*
X67582877Y-93468665D01*
X67567368Y-93479917D01*
X67551559Y-93489643D01*
X67551557Y-93489644D01*
X67545555Y-93493337D01*
X67533298Y-93505340D01*
X67440656Y-93596062D01*
X67427982Y-93608473D01*
X67338838Y-93746797D01*
X67336427Y-93753420D01*
X67336426Y-93753423D01*
X67284966Y-93894809D01*
X67284965Y-93894814D01*
X67282556Y-93901432D01*
X67261931Y-94064694D01*
X67277989Y-94228468D01*
X67329932Y-94384615D01*
X67334908Y-94392831D01*
X67403968Y-94506861D01*
X67415179Y-94525373D01*
X67529491Y-94643747D01*
X67667189Y-94733854D01*
X67821428Y-94791215D01*
X67828409Y-94792146D01*
X67828411Y-94792147D01*
X67977561Y-94812048D01*
X67977565Y-94812048D01*
X67984542Y-94812979D01*
X67991553Y-94812341D01*
X67991557Y-94812341D01*
X68141403Y-94798704D01*
X68141404Y-94798704D01*
X68148424Y-94798065D01*
X68177062Y-94788760D01*
X68298230Y-94749390D01*
X68298233Y-94749389D01*
X68304929Y-94747213D01*
X68446279Y-94662951D01*
X68565449Y-94549468D01*
X68581458Y-94525373D01*
X68652614Y-94418275D01*
X68652615Y-94418273D01*
X68656515Y-94412403D01*
X68714951Y-94258568D01*
X68720449Y-94219445D01*
X68749736Y-94154772D01*
X68809340Y-94116198D01*
X68880336Y-94115973D01*
X68935860Y-94149454D01*
X68954491Y-94168747D01*
X69092189Y-94258854D01*
X69246428Y-94316215D01*
X69253409Y-94317146D01*
X69253411Y-94317147D01*
X69402561Y-94337048D01*
X69402565Y-94337048D01*
X69409542Y-94337979D01*
X69416553Y-94337341D01*
X69416557Y-94337341D01*
X69509253Y-94328905D01*
X69529634Y-94327050D01*
X69599287Y-94340795D01*
X69650451Y-94390017D01*
X69666882Y-94459086D01*
X69643364Y-94526074D01*
X69607075Y-94559848D01*
X69476562Y-94640140D01*
X69476553Y-94640147D01*
X69470555Y-94643837D01*
X69447356Y-94666555D01*
X69384559Y-94728051D01*
X69352982Y-94758973D01*
X69263838Y-94897297D01*
X69261427Y-94903920D01*
X69261426Y-94903923D01*
X69209966Y-95045309D01*
X69209965Y-95045314D01*
X69207556Y-95051932D01*
X69186931Y-95215194D01*
X69202989Y-95378968D01*
X69254932Y-95535115D01*
X69258581Y-95541140D01*
X69334536Y-95666555D01*
X69340179Y-95675873D01*
X69454491Y-95794247D01*
X69592189Y-95884354D01*
X69746428Y-95941715D01*
X69753409Y-95942646D01*
X69753411Y-95942647D01*
X69902561Y-95962548D01*
X69902565Y-95962548D01*
X69909542Y-95963479D01*
X69916553Y-95962841D01*
X69916557Y-95962841D01*
X70066403Y-95949204D01*
X70066404Y-95949204D01*
X70073424Y-95948565D01*
X70116567Y-95934547D01*
X70223230Y-95899890D01*
X70223233Y-95899889D01*
X70229929Y-95897713D01*
X70371279Y-95813451D01*
X70490449Y-95699968D01*
X70506458Y-95675873D01*
X70577614Y-95568775D01*
X70577615Y-95568773D01*
X70581515Y-95562903D01*
X70639951Y-95409068D01*
X70648507Y-95348189D01*
X70662302Y-95250034D01*
X70662303Y-95250027D01*
X70662853Y-95246110D01*
X70663141Y-95225500D01*
X70644798Y-95061966D01*
X70638998Y-95045309D01*
X70610004Y-94962052D01*
X70590680Y-94906560D01*
X70584943Y-94897378D01*
X70507209Y-94772979D01*
X70503476Y-94767005D01*
X70400146Y-94662951D01*
X70392486Y-94655237D01*
X70392482Y-94655234D01*
X70387522Y-94650239D01*
X70248580Y-94562063D01*
X70159770Y-94530439D01*
X70100189Y-94509223D01*
X70100187Y-94509222D01*
X70093555Y-94506861D01*
X70086569Y-94506028D01*
X70086565Y-94506027D01*
X69966827Y-94491750D01*
X69930153Y-94487377D01*
X69818809Y-94499080D01*
X69748973Y-94486308D01*
X69725868Y-94464694D01*
X74961931Y-94464694D01*
X74977989Y-94628468D01*
X75029932Y-94784615D01*
X75033581Y-94790640D01*
X75106757Y-94911466D01*
X75115179Y-94925373D01*
X75229491Y-95043747D01*
X75302693Y-95091649D01*
X75367189Y-95133854D01*
X75366210Y-95135349D01*
X75411363Y-95177697D01*
X75426013Y-95215396D01*
X75427302Y-95221458D01*
X75427989Y-95228468D01*
X75479932Y-95384615D01*
X75483581Y-95390640D01*
X75547369Y-95495965D01*
X75565179Y-95525373D01*
X75679491Y-95643747D01*
X75817189Y-95733854D01*
X75971428Y-95791215D01*
X75978409Y-95792146D01*
X75978411Y-95792147D01*
X76127561Y-95812048D01*
X76127565Y-95812048D01*
X76134542Y-95812979D01*
X76141553Y-95812341D01*
X76141557Y-95812341D01*
X76291403Y-95798704D01*
X76291404Y-95798704D01*
X76298424Y-95798065D01*
X76399713Y-95765154D01*
X76448230Y-95749390D01*
X76448233Y-95749389D01*
X76454929Y-95747213D01*
X76596279Y-95662951D01*
X76715449Y-95549468D01*
X76728092Y-95530439D01*
X76802614Y-95418275D01*
X76802615Y-95418273D01*
X76806515Y-95412403D01*
X76864951Y-95258568D01*
X76887853Y-95095610D01*
X76888052Y-95081375D01*
X76888086Y-95078962D01*
X76888086Y-95078956D01*
X76888141Y-95075000D01*
X76869798Y-94911466D01*
X76866009Y-94900584D01*
X76825624Y-94784615D01*
X76815680Y-94756060D01*
X76811799Y-94749848D01*
X76732209Y-94622479D01*
X76728476Y-94616505D01*
X76631426Y-94518775D01*
X76617486Y-94504737D01*
X76617482Y-94504734D01*
X76612522Y-94499739D01*
X76560540Y-94466750D01*
X76478735Y-94414834D01*
X76431937Y-94361444D01*
X76421035Y-94322494D01*
X76420583Y-94318465D01*
X76419798Y-94311466D01*
X76413998Y-94294809D01*
X76387510Y-94218747D01*
X76365680Y-94156060D01*
X76342271Y-94118597D01*
X76282209Y-94022479D01*
X76278476Y-94016505D01*
X76193380Y-93930813D01*
X76167486Y-93904737D01*
X76167482Y-93904734D01*
X76162522Y-93899739D01*
X76023580Y-93811563D01*
X75963457Y-93790154D01*
X75875189Y-93758723D01*
X75875187Y-93758722D01*
X75868555Y-93756361D01*
X75861569Y-93755528D01*
X75861565Y-93755527D01*
X75738640Y-93740870D01*
X75705153Y-93736877D01*
X75698150Y-93737613D01*
X75698149Y-93737613D01*
X75654935Y-93742155D01*
X75541495Y-93754078D01*
X75534827Y-93756348D01*
X75392382Y-93804840D01*
X75392379Y-93804841D01*
X75385715Y-93807110D01*
X75245555Y-93893337D01*
X75207286Y-93930813D01*
X75141425Y-93995309D01*
X75127982Y-94008473D01*
X75038838Y-94146797D01*
X75036427Y-94153420D01*
X75036426Y-94153423D01*
X74984966Y-94294809D01*
X74984965Y-94294814D01*
X74982556Y-94301432D01*
X74961931Y-94464694D01*
X69725868Y-94464694D01*
X69697126Y-94437806D01*
X69679731Y-94368974D01*
X69702312Y-94301664D01*
X69741122Y-94265541D01*
X69865233Y-94191555D01*
X69871279Y-94187951D01*
X69990449Y-94074468D01*
X70006458Y-94050373D01*
X70077614Y-93943275D01*
X70077615Y-93943273D01*
X70081515Y-93937403D01*
X70139951Y-93783568D01*
X70152128Y-93696921D01*
X70160171Y-93639694D01*
X70586931Y-93639694D01*
X70602989Y-93803468D01*
X70654932Y-93959615D01*
X70658581Y-93965640D01*
X70720935Y-94068597D01*
X70740179Y-94100373D01*
X70854491Y-94218747D01*
X70992189Y-94308854D01*
X71146428Y-94366215D01*
X71153409Y-94367146D01*
X71153411Y-94367147D01*
X71302561Y-94387048D01*
X71302565Y-94387048D01*
X71309542Y-94387979D01*
X71316553Y-94387341D01*
X71316557Y-94387341D01*
X71466403Y-94373704D01*
X71466404Y-94373704D01*
X71473424Y-94373065D01*
X71502062Y-94363760D01*
X71623230Y-94324390D01*
X71623233Y-94324389D01*
X71629929Y-94322213D01*
X71771279Y-94237951D01*
X71890449Y-94124468D01*
X71906458Y-94100373D01*
X71977614Y-93993275D01*
X71977615Y-93993273D01*
X71981515Y-93987403D01*
X72039951Y-93833568D01*
X72050802Y-93756361D01*
X72062302Y-93674534D01*
X72062303Y-93674527D01*
X72062853Y-93670610D01*
X72063141Y-93650000D01*
X72044798Y-93486466D01*
X72037904Y-93466669D01*
X72034390Y-93395762D01*
X72069770Y-93334209D01*
X72132812Y-93301556D01*
X72188871Y-93303358D01*
X72195787Y-93305173D01*
X72195793Y-93305174D01*
X72203139Y-93307101D01*
X72290586Y-93308474D01*
X72367003Y-93309675D01*
X72367006Y-93309675D01*
X72374602Y-93309794D01*
X72382006Y-93308098D01*
X72382008Y-93308098D01*
X72476086Y-93286551D01*
X72541759Y-93271510D01*
X72694958Y-93194459D01*
X72700729Y-93189530D01*
X72700732Y-93189528D01*
X72819578Y-93088023D01*
X72825355Y-93083089D01*
X72925424Y-92943830D01*
X72989385Y-92784720D01*
X73002787Y-92690551D01*
X73012966Y-92619031D01*
X73012966Y-92619027D01*
X73013547Y-92614947D01*
X73013704Y-92600000D01*
X73012800Y-92592526D01*
X72993815Y-92435647D01*
X73005488Y-92365617D01*
X73045362Y-92319931D01*
X73044958Y-92319459D01*
X73048163Y-92316722D01*
X73048164Y-92316721D01*
X73055584Y-92310384D01*
X73169578Y-92213023D01*
X73175355Y-92208089D01*
X73275424Y-92068830D01*
X73339385Y-91909720D01*
X73346870Y-91857126D01*
X73352909Y-91814694D01*
X74761931Y-91814694D01*
X74777989Y-91978468D01*
X74829932Y-92134615D01*
X74833581Y-92140640D01*
X74893607Y-92239753D01*
X74915179Y-92275373D01*
X75029491Y-92393747D01*
X75167189Y-92483854D01*
X75321428Y-92541215D01*
X75328409Y-92542146D01*
X75328411Y-92542147D01*
X75477561Y-92562048D01*
X75477565Y-92562048D01*
X75484542Y-92562979D01*
X75491553Y-92562341D01*
X75491557Y-92562341D01*
X75576460Y-92554614D01*
X75633258Y-92549445D01*
X75702911Y-92563190D01*
X75753682Y-92611817D01*
X75755898Y-92616624D01*
X75759234Y-92621344D01*
X75867887Y-92775084D01*
X75873479Y-92782997D01*
X75909221Y-92817815D01*
X75940315Y-92866703D01*
X75956292Y-92912675D01*
X75956296Y-92912683D01*
X75958324Y-92918519D01*
X76040225Y-93058027D01*
X76044340Y-93062651D01*
X76044342Y-93062654D01*
X76062181Y-93082700D01*
X76147768Y-93178877D01*
X76162858Y-93190283D01*
X76271879Y-93272689D01*
X76271882Y-93272691D01*
X76276821Y-93276424D01*
X76282394Y-93279122D01*
X76282397Y-93279124D01*
X76416854Y-93344222D01*
X76422425Y-93346919D01*
X76428413Y-93348477D01*
X76572991Y-93386095D01*
X76572994Y-93386095D01*
X76578984Y-93387654D01*
X76653005Y-93391966D01*
X76671528Y-93394434D01*
X76686931Y-93397664D01*
X76699467Y-93398319D01*
X76704318Y-93397821D01*
X76709040Y-93397703D01*
X76718424Y-93397818D01*
X76723163Y-93398053D01*
X76727985Y-93398667D01*
X76740533Y-93398319D01*
X76761765Y-93394406D01*
X76777263Y-93392533D01*
X76861016Y-93387654D01*
X76867006Y-93386095D01*
X76867009Y-93386095D01*
X77011587Y-93348477D01*
X77017575Y-93346919D01*
X77023146Y-93344222D01*
X77157603Y-93279124D01*
X77157606Y-93279122D01*
X77163179Y-93276424D01*
X77168118Y-93272691D01*
X77168121Y-93272689D01*
X77277142Y-93190283D01*
X77292232Y-93178877D01*
X77377819Y-93082700D01*
X77395658Y-93062654D01*
X77395660Y-93062651D01*
X77399775Y-93058027D01*
X77481676Y-92918519D01*
X77498443Y-92870278D01*
X77520585Y-92831076D01*
X77633760Y-92694997D01*
X77637458Y-92690551D01*
X77737004Y-92512799D01*
X77738860Y-92507332D01*
X77738862Y-92507327D01*
X77800634Y-92325352D01*
X77800635Y-92325347D01*
X77802490Y-92319883D01*
X77831723Y-92118263D01*
X77833249Y-92060000D01*
X77814608Y-91857126D01*
X77778510Y-91729133D01*
X77760875Y-91666606D01*
X77760874Y-91666604D01*
X77759307Y-91661047D01*
X77754566Y-91651432D01*
X77671756Y-91483510D01*
X77669201Y-91478329D01*
X77650796Y-91453681D01*
X77550758Y-91319715D01*
X77550758Y-91319714D01*
X77547305Y-91315091D01*
X77543070Y-91311176D01*
X77540691Y-91308534D01*
X77512484Y-91256315D01*
X77506181Y-91232381D01*
X77506180Y-91232378D01*
X77504604Y-91226394D01*
X77501894Y-91220839D01*
X77501892Y-91220833D01*
X77434233Y-91082135D01*
X77434232Y-91082133D01*
X77431521Y-91076576D01*
X77330613Y-90943895D01*
X77205760Y-90833449D01*
X77200418Y-90830334D01*
X77200415Y-90830332D01*
X77067108Y-90752602D01*
X77061759Y-90749483D01*
X77055904Y-90747468D01*
X77055901Y-90747466D01*
X76988707Y-90724335D01*
X76904144Y-90695224D01*
X76787413Y-90679346D01*
X76778910Y-90677891D01*
X76756323Y-90673225D01*
X76756317Y-90673224D01*
X76751552Y-90672240D01*
X76739014Y-90671623D01*
X76734181Y-90672133D01*
X76731339Y-90672213D01*
X76721206Y-90672090D01*
X76718367Y-90671941D01*
X76713535Y-90671311D01*
X76708666Y-90671432D01*
X76708665Y-90671432D01*
X76705844Y-90671502D01*
X76705841Y-90671502D01*
X76700986Y-90671623D01*
X76696209Y-90672489D01*
X76696206Y-90672489D01*
X76678482Y-90675701D01*
X76672996Y-90676570D01*
X76608288Y-90685371D01*
X76604548Y-90685823D01*
X76594167Y-90686920D01*
X76593918Y-90684568D01*
X76592403Y-90684510D01*
X76592807Y-90687478D01*
X76541994Y-90694389D01*
X76541992Y-90694389D01*
X76535856Y-90695224D01*
X76529999Y-90697240D01*
X76530000Y-90697240D01*
X76384099Y-90747466D01*
X76384096Y-90747468D01*
X76378241Y-90749483D01*
X76372892Y-90752602D01*
X76239585Y-90830332D01*
X76239582Y-90830334D01*
X76234240Y-90833449D01*
X76109387Y-90943895D01*
X76008479Y-91076576D01*
X76005765Y-91082140D01*
X76005763Y-91082143D01*
X75994346Y-91105546D01*
X75946503Y-91158001D01*
X75877895Y-91176263D01*
X75827246Y-91163889D01*
X75823580Y-91161563D01*
X75737969Y-91131078D01*
X75675189Y-91108723D01*
X75675187Y-91108722D01*
X75668555Y-91106361D01*
X75661569Y-91105528D01*
X75661565Y-91105527D01*
X75547071Y-91091875D01*
X75505153Y-91086877D01*
X75498150Y-91087613D01*
X75498149Y-91087613D01*
X75454935Y-91092155D01*
X75341495Y-91104078D01*
X75334827Y-91106348D01*
X75192382Y-91154840D01*
X75192379Y-91154841D01*
X75185715Y-91157110D01*
X75045555Y-91243337D01*
X74927982Y-91358473D01*
X74838838Y-91496797D01*
X74836427Y-91503420D01*
X74836426Y-91503423D01*
X74784966Y-91644809D01*
X74784965Y-91644814D01*
X74782556Y-91651432D01*
X74761931Y-91814694D01*
X73352909Y-91814694D01*
X73362966Y-91744031D01*
X73362966Y-91744027D01*
X73363547Y-91739947D01*
X73363704Y-91725000D01*
X73343102Y-91554758D01*
X73323705Y-91503423D01*
X73285171Y-91401447D01*
X73282487Y-91394344D01*
X73228018Y-91315091D01*
X73189659Y-91259278D01*
X73189658Y-91259276D01*
X73185357Y-91253019D01*
X73179686Y-91247966D01*
X73062993Y-91143996D01*
X73062990Y-91143994D01*
X73057321Y-91138943D01*
X73049325Y-91134709D01*
X72912481Y-91062254D01*
X72912482Y-91062254D01*
X72905769Y-91058700D01*
X72888196Y-91054286D01*
X72746822Y-91018775D01*
X72746818Y-91018775D01*
X72739451Y-91016924D01*
X72731852Y-91016884D01*
X72731850Y-91016884D01*
X72660394Y-91016510D01*
X72567969Y-91016026D01*
X72560589Y-91017798D01*
X72560587Y-91017798D01*
X72408602Y-91054286D01*
X72408598Y-91054287D01*
X72401223Y-91056058D01*
X72248839Y-91134709D01*
X72243122Y-91139696D01*
X72243115Y-91139701D01*
X72233375Y-91148198D01*
X72168892Y-91177905D01*
X72098585Y-91168035D01*
X72066730Y-91147326D01*
X72062993Y-91143996D01*
X72062990Y-91143994D01*
X72057321Y-91138943D01*
X72049325Y-91134709D01*
X71912481Y-91062254D01*
X71912482Y-91062254D01*
X71905769Y-91058700D01*
X71888196Y-91054286D01*
X71746822Y-91018775D01*
X71746818Y-91018775D01*
X71739451Y-91016924D01*
X71731852Y-91016884D01*
X71731850Y-91016884D01*
X71660394Y-91016510D01*
X71567969Y-91016026D01*
X71560589Y-91017798D01*
X71560587Y-91017798D01*
X71408602Y-91054286D01*
X71408598Y-91054287D01*
X71401223Y-91056058D01*
X71248839Y-91134709D01*
X71119615Y-91247439D01*
X71021010Y-91387739D01*
X70958718Y-91547509D01*
X70957726Y-91555042D01*
X70957726Y-91555043D01*
X70943039Y-91666606D01*
X70936335Y-91717526D01*
X70945744Y-91802751D01*
X70948592Y-91828543D01*
X70955153Y-91887975D01*
X70957762Y-91895106D01*
X70957763Y-91895108D01*
X70965688Y-91916764D01*
X71014085Y-92049015D01*
X71018322Y-92055321D01*
X71018324Y-92055324D01*
X71027400Y-92068830D01*
X71109730Y-92191349D01*
X71150430Y-92228383D01*
X71207639Y-92280439D01*
X71236565Y-92306760D01*
X71387268Y-92388585D01*
X71394610Y-92390511D01*
X71394612Y-92390512D01*
X71450767Y-92405244D01*
X71498195Y-92417686D01*
X71559010Y-92454320D01*
X71590365Y-92518017D01*
X71591143Y-92556006D01*
X71586335Y-92592526D01*
X71605153Y-92762975D01*
X71607762Y-92770105D01*
X71608868Y-92774820D01*
X71604949Y-92845708D01*
X71563327Y-92903225D01*
X71497217Y-92929108D01*
X71471281Y-92928705D01*
X71330153Y-92911877D01*
X71323150Y-92912613D01*
X71323149Y-92912613D01*
X71280573Y-92917088D01*
X71166495Y-92929078D01*
X71159827Y-92931348D01*
X71017382Y-92979840D01*
X71017379Y-92979841D01*
X71010715Y-92982110D01*
X70920087Y-93037865D01*
X70879793Y-93062654D01*
X70870555Y-93068337D01*
X70752982Y-93183473D01*
X70663838Y-93321797D01*
X70661427Y-93328420D01*
X70661426Y-93328423D01*
X70609966Y-93469809D01*
X70609965Y-93469814D01*
X70607556Y-93476432D01*
X70586931Y-93639694D01*
X70160171Y-93639694D01*
X70162302Y-93624534D01*
X70162303Y-93624527D01*
X70162853Y-93620610D01*
X70163141Y-93600000D01*
X70144798Y-93436466D01*
X70129302Y-93391966D01*
X70108092Y-93331060D01*
X70090680Y-93281060D01*
X70084713Y-93271510D01*
X70007209Y-93147479D01*
X70003476Y-93141505D01*
X69930817Y-93068337D01*
X69892486Y-93029737D01*
X69892482Y-93029734D01*
X69887522Y-93024739D01*
X69748580Y-92936563D01*
X69654956Y-92903225D01*
X69600189Y-92883723D01*
X69600187Y-92883722D01*
X69593555Y-92881361D01*
X69586569Y-92880528D01*
X69586565Y-92880527D01*
X69470626Y-92866703D01*
X69430153Y-92861877D01*
X69423150Y-92862613D01*
X69423149Y-92862613D01*
X69384236Y-92866703D01*
X69266495Y-92879078D01*
X69110715Y-92932110D01*
X69105980Y-92935023D01*
X69036405Y-92945840D01*
X68971491Y-92917088D01*
X68932427Y-92857805D01*
X68931615Y-92786813D01*
X68956035Y-92740357D01*
X68993760Y-92694997D01*
X68997458Y-92690551D01*
X69097004Y-92512799D01*
X69098860Y-92507332D01*
X69098862Y-92507327D01*
X69160634Y-92325352D01*
X69160635Y-92325347D01*
X69162490Y-92319883D01*
X69191723Y-92118263D01*
X69193249Y-92060000D01*
X69174608Y-91857126D01*
X69138510Y-91729133D01*
X69120875Y-91666606D01*
X69120874Y-91666604D01*
X69119307Y-91661047D01*
X69114566Y-91651432D01*
X69031756Y-91483510D01*
X69029201Y-91478329D01*
X69010796Y-91453681D01*
X68910758Y-91319715D01*
X68910758Y-91319714D01*
X68907305Y-91315091D01*
X68903070Y-91311176D01*
X68900691Y-91308534D01*
X68872484Y-91256315D01*
X68866181Y-91232381D01*
X68866180Y-91232378D01*
X68864604Y-91226394D01*
X68861894Y-91220839D01*
X68861892Y-91220833D01*
X68794233Y-91082135D01*
X68794232Y-91082133D01*
X68791521Y-91076576D01*
X68690613Y-90943895D01*
X68565760Y-90833449D01*
X68560418Y-90830334D01*
X68560415Y-90830332D01*
X68427108Y-90752602D01*
X68421759Y-90749483D01*
X68415904Y-90747468D01*
X68415901Y-90747466D01*
X68348707Y-90724335D01*
X68264144Y-90695224D01*
X68147413Y-90679346D01*
X68138910Y-90677891D01*
X68116323Y-90673225D01*
X68116317Y-90673224D01*
X68111552Y-90672240D01*
X68099014Y-90671623D01*
X68094181Y-90672133D01*
X68091339Y-90672213D01*
X68081206Y-90672090D01*
X68078367Y-90671941D01*
X68073535Y-90671311D01*
X68068666Y-90671432D01*
X68068665Y-90671432D01*
X68065844Y-90671502D01*
X68065841Y-90671502D01*
X68060986Y-90671623D01*
X68056209Y-90672489D01*
X68056206Y-90672489D01*
X68038482Y-90675701D01*
X68032996Y-90676570D01*
X67968288Y-90685371D01*
X67964548Y-90685823D01*
X67954167Y-90686920D01*
X67953918Y-90684568D01*
X67952403Y-90684510D01*
X67952807Y-90687478D01*
X67901994Y-90694389D01*
X67901992Y-90694389D01*
X67895856Y-90695224D01*
X67889999Y-90697240D01*
X67890000Y-90697240D01*
X67744099Y-90747466D01*
X67744096Y-90747468D01*
X67738241Y-90749483D01*
X67732892Y-90752602D01*
X67599585Y-90830332D01*
X67599582Y-90830334D01*
X67594240Y-90833449D01*
X67469387Y-90943895D01*
X67368479Y-91076576D01*
X67365768Y-91082133D01*
X67365767Y-91082135D01*
X67298108Y-91220833D01*
X67298106Y-91220839D01*
X67295396Y-91226394D01*
X67286952Y-91258458D01*
X67264058Y-91304370D01*
X67146351Y-91453681D01*
X67143662Y-91458792D01*
X67143660Y-91458795D01*
X67120180Y-91503423D01*
X67051492Y-91633978D01*
X66991078Y-91828543D01*
X66967132Y-92030859D01*
X59079342Y-92030859D01*
X59081921Y-87514694D01*
X63911931Y-87514694D01*
X63927989Y-87678468D01*
X63979932Y-87834615D01*
X63983581Y-87840640D01*
X64051420Y-87952654D01*
X64065179Y-87975373D01*
X64179491Y-88093747D01*
X64317189Y-88183854D01*
X64471428Y-88241215D01*
X64478409Y-88242146D01*
X64478411Y-88242147D01*
X64627561Y-88262048D01*
X64627565Y-88262048D01*
X64634542Y-88262979D01*
X64641553Y-88262341D01*
X64641557Y-88262341D01*
X64791403Y-88248704D01*
X64791404Y-88248704D01*
X64798424Y-88248065D01*
X64841028Y-88234222D01*
X64948230Y-88199390D01*
X64948233Y-88199389D01*
X64954929Y-88197213D01*
X65096279Y-88112951D01*
X65215449Y-87999468D01*
X65231458Y-87975373D01*
X65302614Y-87868275D01*
X65302615Y-87868273D01*
X65306515Y-87862403D01*
X65364951Y-87708568D01*
X65387853Y-87545610D01*
X65388141Y-87525000D01*
X65369798Y-87361466D01*
X65363998Y-87344809D01*
X65317998Y-87212717D01*
X65315680Y-87206060D01*
X65278980Y-87147327D01*
X65232209Y-87072479D01*
X65228476Y-87066505D01*
X65170499Y-87008122D01*
X65117486Y-86954737D01*
X65117482Y-86954734D01*
X65112522Y-86949739D01*
X64973580Y-86861563D01*
X64924447Y-86844068D01*
X64825189Y-86808723D01*
X64825187Y-86808722D01*
X64818555Y-86806361D01*
X64811569Y-86805528D01*
X64811565Y-86805527D01*
X64697071Y-86791875D01*
X64655153Y-86786877D01*
X64648150Y-86787613D01*
X64648149Y-86787613D01*
X64604935Y-86792155D01*
X64491495Y-86804078D01*
X64484827Y-86806348D01*
X64342382Y-86854840D01*
X64342379Y-86854841D01*
X64335715Y-86857110D01*
X64195555Y-86943337D01*
X64077982Y-87058473D01*
X63988838Y-87196797D01*
X63986427Y-87203420D01*
X63986426Y-87203423D01*
X63934966Y-87344809D01*
X63934965Y-87344814D01*
X63932556Y-87351432D01*
X63911931Y-87514694D01*
X59081921Y-87514694D01*
X59082422Y-86637979D01*
X59083138Y-85384428D01*
X59103179Y-85316319D01*
X59156861Y-85269856D01*
X59209138Y-85258500D01*
X67294246Y-85258500D01*
X67362367Y-85278502D01*
G37*
%TD.AperFunction*%
%TD*%
M02*
