%TF.GenerationSoftware,KiCad,Pcbnew,(6.0.7)*%
%TF.CreationDate,2022-09-02T00:32:44-07:00*%
%TF.ProjectId,HARDWARE_USBC_ISP_Programmer,48415244-5741-4524-955f-555342435f49,rev?*%
%TF.SameCoordinates,Original*%
%TF.FileFunction,Copper,L4,Bot*%
%TF.FilePolarity,Positive*%
%FSLAX46Y46*%
G04 Gerber Fmt 4.6, Leading zero omitted, Abs format (unit mm)*
G04 Created by KiCad (PCBNEW (6.0.7)) date 2022-09-02 00:32:44*
%MOMM*%
%LPD*%
G01*
G04 APERTURE LIST*
%TA.AperFunction,EtchedComponent*%
%ADD10C,0.010000*%
%TD*%
%TA.AperFunction,ComponentPad*%
%ADD11R,1.700000X1.700000*%
%TD*%
%TA.AperFunction,ComponentPad*%
%ADD12O,1.700000X1.700000*%
%TD*%
%TA.AperFunction,ComponentPad*%
%ADD13C,1.200000*%
%TD*%
%TA.AperFunction,ViaPad*%
%ADD14C,0.800000*%
%TD*%
%TA.AperFunction,ViaPad*%
%ADD15C,0.450000*%
%TD*%
%TA.AperFunction,ViaPad*%
%ADD16C,0.400000*%
%TD*%
%TA.AperFunction,Conductor*%
%ADD17C,0.250000*%
%TD*%
%TA.AperFunction,Conductor*%
%ADD18C,0.200000*%
%TD*%
G04 APERTURE END LIST*
%TO.C,J1*%
G36*
X76750000Y-85352000D02*
G01*
X76782000Y-85356000D01*
X76814000Y-85361000D01*
X76846000Y-85368000D01*
X76878000Y-85377000D01*
X76909000Y-85387000D01*
X76939000Y-85399000D01*
X76969000Y-85413000D01*
X76998000Y-85428000D01*
X77026000Y-85445000D01*
X77054000Y-85463000D01*
X77080000Y-85482000D01*
X77105000Y-85503000D01*
X77130000Y-85525000D01*
X77152000Y-85548000D01*
X77174000Y-85573000D01*
X77195000Y-85599000D01*
X77214000Y-85625000D01*
X77231000Y-85653000D01*
X77247000Y-85681000D01*
X77262000Y-85711000D01*
X77275000Y-85741000D01*
X77286000Y-85771000D01*
X77296000Y-85803000D01*
X77304000Y-85834000D01*
X77311000Y-85866000D01*
X77316000Y-85899000D01*
X77319000Y-85931000D01*
X77320000Y-85964000D01*
X77320000Y-87436000D01*
X77319000Y-87469000D01*
X77316000Y-87501000D01*
X77311000Y-87534000D01*
X77304000Y-87566000D01*
X77296000Y-87597000D01*
X77286000Y-87629000D01*
X77275000Y-87659000D01*
X77262000Y-87689000D01*
X77247000Y-87719000D01*
X77231000Y-87747000D01*
X77214000Y-87775000D01*
X77195000Y-87801000D01*
X77174000Y-87827000D01*
X77152000Y-87852000D01*
X77130000Y-87875000D01*
X77105000Y-87897000D01*
X77080000Y-87918000D01*
X77054000Y-87937000D01*
X77026000Y-87955000D01*
X76998000Y-87972000D01*
X76969000Y-87987000D01*
X76939000Y-88001000D01*
X76909000Y-88013000D01*
X76878000Y-88023000D01*
X76846000Y-88032000D01*
X76814000Y-88039000D01*
X76782000Y-88044000D01*
X76750000Y-88048000D01*
X76720000Y-88050000D01*
X76690000Y-88048000D01*
X76658000Y-88044000D01*
X76626000Y-88039000D01*
X76594000Y-88032000D01*
X76562000Y-88023000D01*
X76531000Y-88013000D01*
X76501000Y-88001000D01*
X76471000Y-87987000D01*
X76442000Y-87972000D01*
X76414000Y-87955000D01*
X76386000Y-87937000D01*
X76360000Y-87918000D01*
X76335000Y-87897000D01*
X76310000Y-87875000D01*
X76288000Y-87852000D01*
X76266000Y-87827000D01*
X76245000Y-87801000D01*
X76226000Y-87775000D01*
X76209000Y-87747000D01*
X76193000Y-87719000D01*
X76178000Y-87689000D01*
X76165000Y-87659000D01*
X76154000Y-87629000D01*
X76144000Y-87597000D01*
X76136000Y-87566000D01*
X76129000Y-87534000D01*
X76124000Y-87501000D01*
X76121000Y-87469000D01*
X76120000Y-87436000D01*
X76120000Y-85964000D01*
X76121000Y-85931000D01*
X76124000Y-85899000D01*
X76129000Y-85866000D01*
X76136000Y-85834000D01*
X76144000Y-85803000D01*
X76154000Y-85771000D01*
X76165000Y-85741000D01*
X76178000Y-85711000D01*
X76193000Y-85681000D01*
X76209000Y-85653000D01*
X76226000Y-85625000D01*
X76245000Y-85599000D01*
X76266000Y-85573000D01*
X76288000Y-85548000D01*
X76310000Y-85525000D01*
X76335000Y-85503000D01*
X76360000Y-85482000D01*
X76386000Y-85463000D01*
X76414000Y-85445000D01*
X76442000Y-85428000D01*
X76471000Y-85413000D01*
X76501000Y-85399000D01*
X76531000Y-85387000D01*
X76562000Y-85377000D01*
X76594000Y-85368000D01*
X76626000Y-85361000D01*
X76658000Y-85356000D01*
X76690000Y-85352000D01*
X76720000Y-85350000D01*
X76750000Y-85352000D01*
G37*
D10*
X76750000Y-85352000D02*
X76782000Y-85356000D01*
X76814000Y-85361000D01*
X76846000Y-85368000D01*
X76878000Y-85377000D01*
X76909000Y-85387000D01*
X76939000Y-85399000D01*
X76969000Y-85413000D01*
X76998000Y-85428000D01*
X77026000Y-85445000D01*
X77054000Y-85463000D01*
X77080000Y-85482000D01*
X77105000Y-85503000D01*
X77130000Y-85525000D01*
X77152000Y-85548000D01*
X77174000Y-85573000D01*
X77195000Y-85599000D01*
X77214000Y-85625000D01*
X77231000Y-85653000D01*
X77247000Y-85681000D01*
X77262000Y-85711000D01*
X77275000Y-85741000D01*
X77286000Y-85771000D01*
X77296000Y-85803000D01*
X77304000Y-85834000D01*
X77311000Y-85866000D01*
X77316000Y-85899000D01*
X77319000Y-85931000D01*
X77320000Y-85964000D01*
X77320000Y-87436000D01*
X77319000Y-87469000D01*
X77316000Y-87501000D01*
X77311000Y-87534000D01*
X77304000Y-87566000D01*
X77296000Y-87597000D01*
X77286000Y-87629000D01*
X77275000Y-87659000D01*
X77262000Y-87689000D01*
X77247000Y-87719000D01*
X77231000Y-87747000D01*
X77214000Y-87775000D01*
X77195000Y-87801000D01*
X77174000Y-87827000D01*
X77152000Y-87852000D01*
X77130000Y-87875000D01*
X77105000Y-87897000D01*
X77080000Y-87918000D01*
X77054000Y-87937000D01*
X77026000Y-87955000D01*
X76998000Y-87972000D01*
X76969000Y-87987000D01*
X76939000Y-88001000D01*
X76909000Y-88013000D01*
X76878000Y-88023000D01*
X76846000Y-88032000D01*
X76814000Y-88039000D01*
X76782000Y-88044000D01*
X76750000Y-88048000D01*
X76720000Y-88050000D01*
X76690000Y-88048000D01*
X76658000Y-88044000D01*
X76626000Y-88039000D01*
X76594000Y-88032000D01*
X76562000Y-88023000D01*
X76531000Y-88013000D01*
X76501000Y-88001000D01*
X76471000Y-87987000D01*
X76442000Y-87972000D01*
X76414000Y-87955000D01*
X76386000Y-87937000D01*
X76360000Y-87918000D01*
X76335000Y-87897000D01*
X76310000Y-87875000D01*
X76288000Y-87852000D01*
X76266000Y-87827000D01*
X76245000Y-87801000D01*
X76226000Y-87775000D01*
X76209000Y-87747000D01*
X76193000Y-87719000D01*
X76178000Y-87689000D01*
X76165000Y-87659000D01*
X76154000Y-87629000D01*
X76144000Y-87597000D01*
X76136000Y-87566000D01*
X76129000Y-87534000D01*
X76124000Y-87501000D01*
X76121000Y-87469000D01*
X76120000Y-87436000D01*
X76120000Y-85964000D01*
X76121000Y-85931000D01*
X76124000Y-85899000D01*
X76129000Y-85866000D01*
X76136000Y-85834000D01*
X76144000Y-85803000D01*
X76154000Y-85771000D01*
X76165000Y-85741000D01*
X76178000Y-85711000D01*
X76193000Y-85681000D01*
X76209000Y-85653000D01*
X76226000Y-85625000D01*
X76245000Y-85599000D01*
X76266000Y-85573000D01*
X76288000Y-85548000D01*
X76310000Y-85525000D01*
X76335000Y-85503000D01*
X76360000Y-85482000D01*
X76386000Y-85463000D01*
X76414000Y-85445000D01*
X76442000Y-85428000D01*
X76471000Y-85413000D01*
X76501000Y-85399000D01*
X76531000Y-85387000D01*
X76562000Y-85377000D01*
X76594000Y-85368000D01*
X76626000Y-85361000D01*
X76658000Y-85356000D01*
X76690000Y-85352000D01*
X76720000Y-85350000D01*
X76750000Y-85352000D01*
G36*
X76785000Y-90961000D02*
G01*
X76815000Y-90964000D01*
X76845000Y-90968000D01*
X76874000Y-90974000D01*
X76904000Y-90982000D01*
X76932000Y-90991000D01*
X76961000Y-91001000D01*
X76988000Y-91013000D01*
X77015000Y-91027000D01*
X77041000Y-91042000D01*
X77067000Y-91058000D01*
X77091000Y-91075000D01*
X77115000Y-91094000D01*
X77138000Y-91114000D01*
X77159000Y-91135000D01*
X77179000Y-91157000D01*
X77199000Y-91181000D01*
X77216000Y-91205000D01*
X77233000Y-91230000D01*
X77248000Y-91256000D01*
X77262000Y-91283000D01*
X77275000Y-91310000D01*
X77286000Y-91338000D01*
X77295000Y-91367000D01*
X77303000Y-91396000D01*
X77310000Y-91425000D01*
X77315000Y-91455000D01*
X77318000Y-91485000D01*
X77320000Y-91510000D01*
X77320000Y-92546000D01*
X77319000Y-92579000D01*
X77316000Y-92611000D01*
X77311000Y-92644000D01*
X77304000Y-92676000D01*
X77296000Y-92707000D01*
X77286000Y-92739000D01*
X77275000Y-92769000D01*
X77262000Y-92799000D01*
X77247000Y-92829000D01*
X77231000Y-92857000D01*
X77214000Y-92885000D01*
X77195000Y-92911000D01*
X77174000Y-92937000D01*
X77152000Y-92962000D01*
X77130000Y-92985000D01*
X77105000Y-93007000D01*
X77080000Y-93028000D01*
X77054000Y-93047000D01*
X77026000Y-93065000D01*
X76998000Y-93082000D01*
X76969000Y-93097000D01*
X76939000Y-93111000D01*
X76909000Y-93123000D01*
X76878000Y-93133000D01*
X76846000Y-93142000D01*
X76814000Y-93149000D01*
X76782000Y-93154000D01*
X76750000Y-93158000D01*
X76720000Y-93160000D01*
X76689000Y-93159000D01*
X76657000Y-93157000D01*
X76626000Y-93153000D01*
X76595000Y-93147000D01*
X76565000Y-93140000D01*
X76535000Y-93131000D01*
X76505000Y-93120000D01*
X76476000Y-93108000D01*
X76448000Y-93095000D01*
X76420000Y-93080000D01*
X76393000Y-93063000D01*
X76367000Y-93045000D01*
X76342000Y-93026000D01*
X76319000Y-93006000D01*
X76296000Y-92984000D01*
X76274000Y-92961000D01*
X76254000Y-92938000D01*
X76235000Y-92913000D01*
X76217000Y-92887000D01*
X76200000Y-92860000D01*
X76185000Y-92832000D01*
X76172000Y-92804000D01*
X76160000Y-92775000D01*
X76149000Y-92745000D01*
X76140000Y-92715000D01*
X76133000Y-92685000D01*
X76127000Y-92654000D01*
X76123000Y-92623000D01*
X76121000Y-92591000D01*
X76120000Y-92560000D01*
X76120000Y-91560000D01*
X76121000Y-91529000D01*
X76123000Y-91497000D01*
X76127000Y-91466000D01*
X76133000Y-91435000D01*
X76140000Y-91405000D01*
X76149000Y-91375000D01*
X76160000Y-91345000D01*
X76172000Y-91316000D01*
X76185000Y-91288000D01*
X76200000Y-91260000D01*
X76217000Y-91233000D01*
X76235000Y-91207000D01*
X76254000Y-91182000D01*
X76274000Y-91159000D01*
X76296000Y-91136000D01*
X76319000Y-91114000D01*
X76342000Y-91094000D01*
X76367000Y-91075000D01*
X76393000Y-91057000D01*
X76420000Y-91040000D01*
X76448000Y-91025000D01*
X76476000Y-91012000D01*
X76505000Y-91000000D01*
X76535000Y-90989000D01*
X76565000Y-90980000D01*
X76595000Y-90973000D01*
X76626000Y-90967000D01*
X76657000Y-90963000D01*
X76689000Y-90961000D01*
X76720000Y-90960000D01*
X76755000Y-90960000D01*
X76785000Y-90961000D01*
G37*
X76785000Y-90961000D02*
X76815000Y-90964000D01*
X76845000Y-90968000D01*
X76874000Y-90974000D01*
X76904000Y-90982000D01*
X76932000Y-90991000D01*
X76961000Y-91001000D01*
X76988000Y-91013000D01*
X77015000Y-91027000D01*
X77041000Y-91042000D01*
X77067000Y-91058000D01*
X77091000Y-91075000D01*
X77115000Y-91094000D01*
X77138000Y-91114000D01*
X77159000Y-91135000D01*
X77179000Y-91157000D01*
X77199000Y-91181000D01*
X77216000Y-91205000D01*
X77233000Y-91230000D01*
X77248000Y-91256000D01*
X77262000Y-91283000D01*
X77275000Y-91310000D01*
X77286000Y-91338000D01*
X77295000Y-91367000D01*
X77303000Y-91396000D01*
X77310000Y-91425000D01*
X77315000Y-91455000D01*
X77318000Y-91485000D01*
X77320000Y-91510000D01*
X77320000Y-92546000D01*
X77319000Y-92579000D01*
X77316000Y-92611000D01*
X77311000Y-92644000D01*
X77304000Y-92676000D01*
X77296000Y-92707000D01*
X77286000Y-92739000D01*
X77275000Y-92769000D01*
X77262000Y-92799000D01*
X77247000Y-92829000D01*
X77231000Y-92857000D01*
X77214000Y-92885000D01*
X77195000Y-92911000D01*
X77174000Y-92937000D01*
X77152000Y-92962000D01*
X77130000Y-92985000D01*
X77105000Y-93007000D01*
X77080000Y-93028000D01*
X77054000Y-93047000D01*
X77026000Y-93065000D01*
X76998000Y-93082000D01*
X76969000Y-93097000D01*
X76939000Y-93111000D01*
X76909000Y-93123000D01*
X76878000Y-93133000D01*
X76846000Y-93142000D01*
X76814000Y-93149000D01*
X76782000Y-93154000D01*
X76750000Y-93158000D01*
X76720000Y-93160000D01*
X76689000Y-93159000D01*
X76657000Y-93157000D01*
X76626000Y-93153000D01*
X76595000Y-93147000D01*
X76565000Y-93140000D01*
X76535000Y-93131000D01*
X76505000Y-93120000D01*
X76476000Y-93108000D01*
X76448000Y-93095000D01*
X76420000Y-93080000D01*
X76393000Y-93063000D01*
X76367000Y-93045000D01*
X76342000Y-93026000D01*
X76319000Y-93006000D01*
X76296000Y-92984000D01*
X76274000Y-92961000D01*
X76254000Y-92938000D01*
X76235000Y-92913000D01*
X76217000Y-92887000D01*
X76200000Y-92860000D01*
X76185000Y-92832000D01*
X76172000Y-92804000D01*
X76160000Y-92775000D01*
X76149000Y-92745000D01*
X76140000Y-92715000D01*
X76133000Y-92685000D01*
X76127000Y-92654000D01*
X76123000Y-92623000D01*
X76121000Y-92591000D01*
X76120000Y-92560000D01*
X76120000Y-91560000D01*
X76121000Y-91529000D01*
X76123000Y-91497000D01*
X76127000Y-91466000D01*
X76133000Y-91435000D01*
X76140000Y-91405000D01*
X76149000Y-91375000D01*
X76160000Y-91345000D01*
X76172000Y-91316000D01*
X76185000Y-91288000D01*
X76200000Y-91260000D01*
X76217000Y-91233000D01*
X76235000Y-91207000D01*
X76254000Y-91182000D01*
X76274000Y-91159000D01*
X76296000Y-91136000D01*
X76319000Y-91114000D01*
X76342000Y-91094000D01*
X76367000Y-91075000D01*
X76393000Y-91057000D01*
X76420000Y-91040000D01*
X76448000Y-91025000D01*
X76476000Y-91012000D01*
X76505000Y-91000000D01*
X76535000Y-90989000D01*
X76565000Y-90980000D01*
X76595000Y-90973000D01*
X76626000Y-90967000D01*
X76657000Y-90963000D01*
X76689000Y-90961000D01*
X76720000Y-90960000D01*
X76755000Y-90960000D01*
X76785000Y-90961000D01*
G36*
X68111000Y-90961000D02*
G01*
X68143000Y-90963000D01*
X68174000Y-90967000D01*
X68205000Y-90973000D01*
X68235000Y-90980000D01*
X68265000Y-90989000D01*
X68295000Y-91000000D01*
X68324000Y-91012000D01*
X68352000Y-91025000D01*
X68380000Y-91040000D01*
X68407000Y-91057000D01*
X68433000Y-91075000D01*
X68458000Y-91094000D01*
X68481000Y-91114000D01*
X68504000Y-91136000D01*
X68526000Y-91159000D01*
X68546000Y-91182000D01*
X68565000Y-91207000D01*
X68583000Y-91233000D01*
X68600000Y-91260000D01*
X68615000Y-91288000D01*
X68628000Y-91316000D01*
X68640000Y-91345000D01*
X68651000Y-91375000D01*
X68660000Y-91405000D01*
X68667000Y-91435000D01*
X68673000Y-91466000D01*
X68677000Y-91497000D01*
X68679000Y-91529000D01*
X68680000Y-91560000D01*
X68680000Y-92560000D01*
X68679000Y-92591000D01*
X68677000Y-92623000D01*
X68673000Y-92654000D01*
X68667000Y-92685000D01*
X68660000Y-92715000D01*
X68651000Y-92745000D01*
X68640000Y-92775000D01*
X68628000Y-92804000D01*
X68615000Y-92832000D01*
X68600000Y-92860000D01*
X68583000Y-92887000D01*
X68565000Y-92913000D01*
X68546000Y-92938000D01*
X68526000Y-92961000D01*
X68504000Y-92984000D01*
X68481000Y-93006000D01*
X68458000Y-93026000D01*
X68433000Y-93045000D01*
X68407000Y-93063000D01*
X68380000Y-93080000D01*
X68352000Y-93095000D01*
X68324000Y-93108000D01*
X68295000Y-93120000D01*
X68265000Y-93131000D01*
X68235000Y-93140000D01*
X68205000Y-93147000D01*
X68174000Y-93153000D01*
X68143000Y-93157000D01*
X68111000Y-93159000D01*
X68080000Y-93160000D01*
X68049000Y-93159000D01*
X68017000Y-93157000D01*
X67986000Y-93153000D01*
X67955000Y-93147000D01*
X67925000Y-93140000D01*
X67895000Y-93131000D01*
X67865000Y-93120000D01*
X67836000Y-93108000D01*
X67808000Y-93095000D01*
X67780000Y-93080000D01*
X67753000Y-93063000D01*
X67727000Y-93045000D01*
X67702000Y-93026000D01*
X67679000Y-93006000D01*
X67656000Y-92984000D01*
X67634000Y-92961000D01*
X67614000Y-92938000D01*
X67595000Y-92913000D01*
X67577000Y-92887000D01*
X67560000Y-92860000D01*
X67545000Y-92832000D01*
X67532000Y-92804000D01*
X67520000Y-92775000D01*
X67509000Y-92745000D01*
X67500000Y-92715000D01*
X67493000Y-92685000D01*
X67487000Y-92654000D01*
X67483000Y-92623000D01*
X67481000Y-92591000D01*
X67480000Y-92560000D01*
X67480000Y-91560000D01*
X67481000Y-91529000D01*
X67483000Y-91497000D01*
X67487000Y-91466000D01*
X67493000Y-91435000D01*
X67500000Y-91405000D01*
X67509000Y-91375000D01*
X67520000Y-91345000D01*
X67532000Y-91316000D01*
X67545000Y-91288000D01*
X67560000Y-91260000D01*
X67577000Y-91233000D01*
X67595000Y-91207000D01*
X67614000Y-91182000D01*
X67634000Y-91159000D01*
X67656000Y-91136000D01*
X67679000Y-91114000D01*
X67702000Y-91094000D01*
X67727000Y-91075000D01*
X67753000Y-91057000D01*
X67780000Y-91040000D01*
X67808000Y-91025000D01*
X67836000Y-91012000D01*
X67865000Y-91000000D01*
X67895000Y-90989000D01*
X67925000Y-90980000D01*
X67955000Y-90973000D01*
X67986000Y-90967000D01*
X68017000Y-90963000D01*
X68049000Y-90961000D01*
X68080000Y-90960000D01*
X68111000Y-90961000D01*
G37*
X68111000Y-90961000D02*
X68143000Y-90963000D01*
X68174000Y-90967000D01*
X68205000Y-90973000D01*
X68235000Y-90980000D01*
X68265000Y-90989000D01*
X68295000Y-91000000D01*
X68324000Y-91012000D01*
X68352000Y-91025000D01*
X68380000Y-91040000D01*
X68407000Y-91057000D01*
X68433000Y-91075000D01*
X68458000Y-91094000D01*
X68481000Y-91114000D01*
X68504000Y-91136000D01*
X68526000Y-91159000D01*
X68546000Y-91182000D01*
X68565000Y-91207000D01*
X68583000Y-91233000D01*
X68600000Y-91260000D01*
X68615000Y-91288000D01*
X68628000Y-91316000D01*
X68640000Y-91345000D01*
X68651000Y-91375000D01*
X68660000Y-91405000D01*
X68667000Y-91435000D01*
X68673000Y-91466000D01*
X68677000Y-91497000D01*
X68679000Y-91529000D01*
X68680000Y-91560000D01*
X68680000Y-92560000D01*
X68679000Y-92591000D01*
X68677000Y-92623000D01*
X68673000Y-92654000D01*
X68667000Y-92685000D01*
X68660000Y-92715000D01*
X68651000Y-92745000D01*
X68640000Y-92775000D01*
X68628000Y-92804000D01*
X68615000Y-92832000D01*
X68600000Y-92860000D01*
X68583000Y-92887000D01*
X68565000Y-92913000D01*
X68546000Y-92938000D01*
X68526000Y-92961000D01*
X68504000Y-92984000D01*
X68481000Y-93006000D01*
X68458000Y-93026000D01*
X68433000Y-93045000D01*
X68407000Y-93063000D01*
X68380000Y-93080000D01*
X68352000Y-93095000D01*
X68324000Y-93108000D01*
X68295000Y-93120000D01*
X68265000Y-93131000D01*
X68235000Y-93140000D01*
X68205000Y-93147000D01*
X68174000Y-93153000D01*
X68143000Y-93157000D01*
X68111000Y-93159000D01*
X68080000Y-93160000D01*
X68049000Y-93159000D01*
X68017000Y-93157000D01*
X67986000Y-93153000D01*
X67955000Y-93147000D01*
X67925000Y-93140000D01*
X67895000Y-93131000D01*
X67865000Y-93120000D01*
X67836000Y-93108000D01*
X67808000Y-93095000D01*
X67780000Y-93080000D01*
X67753000Y-93063000D01*
X67727000Y-93045000D01*
X67702000Y-93026000D01*
X67679000Y-93006000D01*
X67656000Y-92984000D01*
X67634000Y-92961000D01*
X67614000Y-92938000D01*
X67595000Y-92913000D01*
X67577000Y-92887000D01*
X67560000Y-92860000D01*
X67545000Y-92832000D01*
X67532000Y-92804000D01*
X67520000Y-92775000D01*
X67509000Y-92745000D01*
X67500000Y-92715000D01*
X67493000Y-92685000D01*
X67487000Y-92654000D01*
X67483000Y-92623000D01*
X67481000Y-92591000D01*
X67480000Y-92560000D01*
X67480000Y-91560000D01*
X67481000Y-91529000D01*
X67483000Y-91497000D01*
X67487000Y-91466000D01*
X67493000Y-91435000D01*
X67500000Y-91405000D01*
X67509000Y-91375000D01*
X67520000Y-91345000D01*
X67532000Y-91316000D01*
X67545000Y-91288000D01*
X67560000Y-91260000D01*
X67577000Y-91233000D01*
X67595000Y-91207000D01*
X67614000Y-91182000D01*
X67634000Y-91159000D01*
X67656000Y-91136000D01*
X67679000Y-91114000D01*
X67702000Y-91094000D01*
X67727000Y-91075000D01*
X67753000Y-91057000D01*
X67780000Y-91040000D01*
X67808000Y-91025000D01*
X67836000Y-91012000D01*
X67865000Y-91000000D01*
X67895000Y-90989000D01*
X67925000Y-90980000D01*
X67955000Y-90973000D01*
X67986000Y-90967000D01*
X68017000Y-90963000D01*
X68049000Y-90961000D01*
X68080000Y-90960000D01*
X68111000Y-90961000D01*
G36*
X68110000Y-85402000D02*
G01*
X68142000Y-85406000D01*
X68174000Y-85411000D01*
X68206000Y-85418000D01*
X68238000Y-85427000D01*
X68269000Y-85437000D01*
X68299000Y-85449000D01*
X68329000Y-85463000D01*
X68358000Y-85478000D01*
X68386000Y-85495000D01*
X68414000Y-85513000D01*
X68440000Y-85532000D01*
X68465000Y-85553000D01*
X68490000Y-85575000D01*
X68512000Y-85598000D01*
X68534000Y-85623000D01*
X68555000Y-85649000D01*
X68574000Y-85675000D01*
X68591000Y-85703000D01*
X68607000Y-85731000D01*
X68622000Y-85761000D01*
X68635000Y-85791000D01*
X68646000Y-85821000D01*
X68656000Y-85853000D01*
X68664000Y-85884000D01*
X68671000Y-85916000D01*
X68676000Y-85949000D01*
X68679000Y-85981000D01*
X68680000Y-86014000D01*
X68680000Y-87386000D01*
X68679000Y-87419000D01*
X68676000Y-87451000D01*
X68671000Y-87484000D01*
X68664000Y-87516000D01*
X68656000Y-87547000D01*
X68646000Y-87579000D01*
X68635000Y-87609000D01*
X68622000Y-87639000D01*
X68607000Y-87669000D01*
X68591000Y-87697000D01*
X68574000Y-87725000D01*
X68555000Y-87751000D01*
X68534000Y-87777000D01*
X68512000Y-87802000D01*
X68490000Y-87825000D01*
X68465000Y-87847000D01*
X68440000Y-87868000D01*
X68414000Y-87887000D01*
X68386000Y-87905000D01*
X68358000Y-87922000D01*
X68329000Y-87937000D01*
X68299000Y-87951000D01*
X68269000Y-87963000D01*
X68238000Y-87973000D01*
X68206000Y-87982000D01*
X68174000Y-87989000D01*
X68142000Y-87994000D01*
X68110000Y-87998000D01*
X68080000Y-88000000D01*
X68050000Y-87998000D01*
X68018000Y-87994000D01*
X67986000Y-87989000D01*
X67954000Y-87982000D01*
X67922000Y-87973000D01*
X67891000Y-87963000D01*
X67861000Y-87951000D01*
X67831000Y-87937000D01*
X67802000Y-87922000D01*
X67774000Y-87905000D01*
X67746000Y-87887000D01*
X67720000Y-87868000D01*
X67695000Y-87847000D01*
X67670000Y-87825000D01*
X67648000Y-87802000D01*
X67626000Y-87777000D01*
X67605000Y-87751000D01*
X67586000Y-87725000D01*
X67569000Y-87697000D01*
X67553000Y-87669000D01*
X67538000Y-87639000D01*
X67525000Y-87609000D01*
X67514000Y-87579000D01*
X67504000Y-87547000D01*
X67496000Y-87516000D01*
X67489000Y-87484000D01*
X67484000Y-87451000D01*
X67481000Y-87419000D01*
X67480000Y-87386000D01*
X67480000Y-86014000D01*
X67481000Y-85981000D01*
X67484000Y-85949000D01*
X67489000Y-85916000D01*
X67496000Y-85884000D01*
X67504000Y-85853000D01*
X67514000Y-85821000D01*
X67525000Y-85791000D01*
X67538000Y-85761000D01*
X67553000Y-85731000D01*
X67569000Y-85703000D01*
X67586000Y-85675000D01*
X67605000Y-85649000D01*
X67626000Y-85623000D01*
X67648000Y-85598000D01*
X67670000Y-85575000D01*
X67695000Y-85553000D01*
X67720000Y-85532000D01*
X67746000Y-85513000D01*
X67774000Y-85495000D01*
X67802000Y-85478000D01*
X67831000Y-85463000D01*
X67861000Y-85449000D01*
X67891000Y-85437000D01*
X67922000Y-85427000D01*
X67954000Y-85418000D01*
X67986000Y-85411000D01*
X68018000Y-85406000D01*
X68050000Y-85402000D01*
X68080000Y-85400000D01*
X68110000Y-85402000D01*
G37*
X68110000Y-85402000D02*
X68142000Y-85406000D01*
X68174000Y-85411000D01*
X68206000Y-85418000D01*
X68238000Y-85427000D01*
X68269000Y-85437000D01*
X68299000Y-85449000D01*
X68329000Y-85463000D01*
X68358000Y-85478000D01*
X68386000Y-85495000D01*
X68414000Y-85513000D01*
X68440000Y-85532000D01*
X68465000Y-85553000D01*
X68490000Y-85575000D01*
X68512000Y-85598000D01*
X68534000Y-85623000D01*
X68555000Y-85649000D01*
X68574000Y-85675000D01*
X68591000Y-85703000D01*
X68607000Y-85731000D01*
X68622000Y-85761000D01*
X68635000Y-85791000D01*
X68646000Y-85821000D01*
X68656000Y-85853000D01*
X68664000Y-85884000D01*
X68671000Y-85916000D01*
X68676000Y-85949000D01*
X68679000Y-85981000D01*
X68680000Y-86014000D01*
X68680000Y-87386000D01*
X68679000Y-87419000D01*
X68676000Y-87451000D01*
X68671000Y-87484000D01*
X68664000Y-87516000D01*
X68656000Y-87547000D01*
X68646000Y-87579000D01*
X68635000Y-87609000D01*
X68622000Y-87639000D01*
X68607000Y-87669000D01*
X68591000Y-87697000D01*
X68574000Y-87725000D01*
X68555000Y-87751000D01*
X68534000Y-87777000D01*
X68512000Y-87802000D01*
X68490000Y-87825000D01*
X68465000Y-87847000D01*
X68440000Y-87868000D01*
X68414000Y-87887000D01*
X68386000Y-87905000D01*
X68358000Y-87922000D01*
X68329000Y-87937000D01*
X68299000Y-87951000D01*
X68269000Y-87963000D01*
X68238000Y-87973000D01*
X68206000Y-87982000D01*
X68174000Y-87989000D01*
X68142000Y-87994000D01*
X68110000Y-87998000D01*
X68080000Y-88000000D01*
X68050000Y-87998000D01*
X68018000Y-87994000D01*
X67986000Y-87989000D01*
X67954000Y-87982000D01*
X67922000Y-87973000D01*
X67891000Y-87963000D01*
X67861000Y-87951000D01*
X67831000Y-87937000D01*
X67802000Y-87922000D01*
X67774000Y-87905000D01*
X67746000Y-87887000D01*
X67720000Y-87868000D01*
X67695000Y-87847000D01*
X67670000Y-87825000D01*
X67648000Y-87802000D01*
X67626000Y-87777000D01*
X67605000Y-87751000D01*
X67586000Y-87725000D01*
X67569000Y-87697000D01*
X67553000Y-87669000D01*
X67538000Y-87639000D01*
X67525000Y-87609000D01*
X67514000Y-87579000D01*
X67504000Y-87547000D01*
X67496000Y-87516000D01*
X67489000Y-87484000D01*
X67484000Y-87451000D01*
X67481000Y-87419000D01*
X67480000Y-87386000D01*
X67480000Y-86014000D01*
X67481000Y-85981000D01*
X67484000Y-85949000D01*
X67489000Y-85916000D01*
X67496000Y-85884000D01*
X67504000Y-85853000D01*
X67514000Y-85821000D01*
X67525000Y-85791000D01*
X67538000Y-85761000D01*
X67553000Y-85731000D01*
X67569000Y-85703000D01*
X67586000Y-85675000D01*
X67605000Y-85649000D01*
X67626000Y-85623000D01*
X67648000Y-85598000D01*
X67670000Y-85575000D01*
X67695000Y-85553000D01*
X67720000Y-85532000D01*
X67746000Y-85513000D01*
X67774000Y-85495000D01*
X67802000Y-85478000D01*
X67831000Y-85463000D01*
X67861000Y-85449000D01*
X67891000Y-85437000D01*
X67922000Y-85427000D01*
X67954000Y-85418000D01*
X67986000Y-85411000D01*
X68018000Y-85406000D01*
X68050000Y-85402000D01*
X68080000Y-85400000D01*
X68110000Y-85402000D01*
%TD*%
D11*
%TO.P,J2,1,Pin_1*%
%TO.N,Net-(J2-Pad1)*%
X75200000Y-124025000D03*
D12*
%TO.P,J2,2,Pin_2*%
%TO.N,+5V*%
X75200000Y-126565000D03*
%TO.P,J2,3,Pin_3*%
%TO.N,Net-(J2-Pad3)*%
X72660000Y-124025000D03*
%TO.P,J2,4,Pin_4*%
%TO.N,Net-(J2-Pad4)*%
X72660000Y-126565000D03*
%TO.P,J2,5,Pin_5*%
%TO.N,Net-(J2-Pad5)*%
X70120000Y-124025000D03*
%TO.P,J2,6,Pin_6*%
%TO.N,GND*%
X70120000Y-126565000D03*
%TD*%
D13*
%TO.P,J1,S1,SHIELD*%
%TO.N,GND*%
X76720000Y-92060000D03*
%TO.P,J1,S2,SHIELD*%
X68080000Y-92060000D03*
%TO.P,J1,S3,SHIELD*%
X76720000Y-86700000D03*
%TO.P,J1,S4,SHIELD*%
X68080000Y-86700000D03*
%TD*%
D11*
%TO.P,J3,1,Pin_1*%
%TO.N,/IO10*%
X60550000Y-118585000D03*
D12*
%TO.P,J3,2,Pin_2*%
%TO.N,/IO11*%
X60550000Y-116045000D03*
%TO.P,J3,3,Pin_3*%
%TO.N,/IO12*%
X60550000Y-113505000D03*
%TO.P,J3,4,Pin_4*%
%TO.N,/IO13*%
X60550000Y-110965000D03*
%TO.P,J3,5,Pin_5*%
%TO.N,/A5*%
X60550000Y-108425000D03*
%TO.P,J3,6,Pin_6*%
%TO.N,/A4*%
X60550000Y-105885000D03*
%TO.P,J3,7,Pin_7*%
%TO.N,/A3*%
X60550000Y-103345000D03*
%TO.P,J3,8,Pin_8*%
%TO.N,/A2*%
X60550000Y-100805000D03*
%TO.P,J3,9,Pin_9*%
%TO.N,/A1*%
X60550000Y-98265000D03*
%TO.P,J3,10,Pin_10*%
%TO.N,/A0*%
X60550000Y-95725000D03*
%TD*%
D11*
%TO.P,J4,1,Pin_1*%
%TO.N,/D0 {slash} RX*%
X84725000Y-118610000D03*
D12*
%TO.P,J4,2,Pin_2*%
%TO.N,/D1 {slash} TX*%
X84725000Y-116070000D03*
%TO.P,J4,3,Pin_3*%
%TO.N,/D2 {slash} SDA*%
X84725000Y-113530000D03*
%TO.P,J4,4,Pin_4*%
%TO.N,/D3 {slash} SCL*%
X84725000Y-110990000D03*
%TO.P,J4,5,Pin_5*%
%TO.N,/D4*%
X84725000Y-108450000D03*
%TO.P,J4,6,Pin_6*%
%TO.N,/D5*%
X84725000Y-105910000D03*
%TO.P,J4,7,Pin_7*%
%TO.N,/D6*%
X84725000Y-103370000D03*
%TO.P,J4,8,Pin_8*%
%TO.N,/D7*%
X84725000Y-100830000D03*
%TO.P,J4,9,Pin_9*%
%TO.N,/IO8*%
X84725000Y-98290000D03*
%TO.P,J4,10,Pin_10*%
%TO.N,/IO9*%
X84725000Y-95750000D03*
%TD*%
D14*
%TO.N,+5V*%
X76400000Y-96150000D03*
D15*
X61750000Y-126925000D03*
X79075000Y-95750000D03*
X68025000Y-108775000D03*
X61050000Y-92900000D03*
X79700000Y-93375000D03*
X63600000Y-113711774D03*
X79175000Y-101100000D03*
X70575000Y-114050000D03*
X66450000Y-101825000D03*
X79287500Y-93787500D03*
X64925000Y-126925000D03*
X79075000Y-96250000D03*
X81650000Y-120425000D03*
X79075000Y-95225000D03*
%TO.N,GND*%
X80025000Y-96075000D03*
X77350000Y-98625000D03*
X84175000Y-127050000D03*
X71913556Y-101836444D03*
X69425000Y-93600000D03*
X69250000Y-99050000D03*
X78675000Y-109150000D03*
X76050000Y-117400000D03*
X75700000Y-94475000D03*
D14*
X72700000Y-107325000D03*
D15*
X63075000Y-94900000D03*
X81200000Y-127050000D03*
X75500000Y-91825000D03*
X70975000Y-116975000D03*
X65725000Y-108725000D03*
X68450000Y-105850000D03*
X65700000Y-115425000D03*
X84875000Y-85900000D03*
X72125000Y-114050000D03*
X64650000Y-87525000D03*
X75174500Y-113727930D03*
X64250000Y-118875000D03*
X64650000Y-102750000D03*
D14*
X75700000Y-104850000D03*
X75700000Y-107350000D03*
X72700000Y-104775000D03*
D15*
X62450000Y-120375000D03*
%TO.N,+5VA*%
X76275000Y-97675000D03*
X79650000Y-108575000D03*
X71000000Y-100875000D03*
%TO.N,/RXLED*%
X69350000Y-107400000D03*
X81525000Y-97150000D03*
X80125000Y-104125000D03*
X81400000Y-103200000D03*
%TO.N,/USB_VBUS*%
X76150000Y-95075000D03*
X69925000Y-95225500D03*
%TO.N,/USB_D+*%
X62825000Y-95575000D03*
X64150000Y-106075000D03*
D16*
%TO.N,/USB_D-*%
X72650000Y-91725000D03*
D15*
X64200000Y-104350000D03*
X68000000Y-94075000D03*
D16*
X72300000Y-92600000D03*
D15*
X63625000Y-94175500D03*
%TO.N,/CC2*%
X71325000Y-93650000D03*
D16*
X71650000Y-91725000D03*
D15*
%TO.N,/IO10*%
X79400000Y-105275500D03*
X62050000Y-110350000D03*
%TO.N,/IO11*%
X66325000Y-111600000D03*
%TO.N,/IO12*%
X80775000Y-107750000D03*
%TO.N,/IO13*%
X79100000Y-104050000D03*
%TO.N,/A4*%
X83500000Y-122450000D03*
%TO.N,/D2 {slash} SDA*%
X82350500Y-113350000D03*
%TO.N,/D3 {slash} SCL*%
X81337548Y-112312452D03*
%TO.N,/D4*%
X76025000Y-118475000D03*
%TO.N,/D5*%
X83000000Y-110300000D03*
%TO.N,/D6*%
X83125000Y-105500000D03*
%TO.N,/D7*%
X80050000Y-102650000D03*
X69550000Y-103775000D03*
%TO.N,/IO8*%
X67175000Y-111025000D03*
X67175000Y-115475000D03*
X70075000Y-111025000D03*
X81523944Y-106275500D03*
%TO.N,/IO9*%
X82400000Y-105374500D03*
%TO.N,/NRESET*%
X64600000Y-107050000D03*
X64900000Y-93100000D03*
%TO.N,/MISO*%
X69400000Y-110450000D03*
X69425000Y-114450000D03*
%TO.N,/SCK*%
X72750000Y-119475000D03*
X68063226Y-113236774D03*
X68100000Y-110475000D03*
%TO.N,/MOSI*%
X68749503Y-110475000D03*
X68775000Y-115086274D03*
X68775000Y-112699500D03*
%TD*%
D17*
%TO.N,+5VA*%
X80150000Y-108075000D02*
X80150000Y-107375000D01*
X77300000Y-97675000D02*
X76275000Y-97675000D01*
X79650000Y-108575000D02*
X80150000Y-108075000D01*
X80800000Y-101175000D02*
X77300000Y-97675000D01*
X80800000Y-106725000D02*
X80800000Y-101175000D01*
X76275000Y-97675000D02*
X74200000Y-97675000D01*
X80150000Y-107375000D02*
X80800000Y-106725000D01*
X74200000Y-97675000D02*
X71000000Y-100875000D01*
%TO.N,/RXLED*%
X76849805Y-104725500D02*
X74975305Y-106600000D01*
X74975305Y-106600000D02*
X70150000Y-106600000D01*
X70150000Y-106600000D02*
X69350000Y-107400000D01*
X81525000Y-97150000D02*
X81525000Y-103075000D01*
X81525000Y-103075000D02*
X81400000Y-103200000D01*
X80125000Y-104125000D02*
X79524500Y-104725500D01*
X79524500Y-104725500D02*
X76849805Y-104725500D01*
%TO.N,/USB_VBUS*%
X75999500Y-95225500D02*
X76150000Y-95075000D01*
X69925000Y-95225500D02*
X75999500Y-95225500D01*
%TO.N,/USB_D+*%
X62475000Y-104500000D02*
X64050000Y-106075000D01*
X64050000Y-106075000D02*
X64150000Y-106075000D01*
X62475000Y-95925000D02*
X62825000Y-95575000D01*
X62475000Y-104500000D02*
X62475000Y-95925000D01*
D18*
%TO.N,/USB_D-*%
X63625000Y-103800000D02*
X64175000Y-104350000D01*
X63625000Y-94250000D02*
X63625000Y-103800000D01*
X72650000Y-91725000D02*
X72300000Y-92075000D01*
X72650000Y-91725000D02*
X72150000Y-91225000D01*
X70850000Y-91225000D02*
X68000000Y-94075000D01*
X72300000Y-92075000D02*
X72300000Y-92600000D01*
X63625000Y-94175500D02*
X63625000Y-94250000D01*
X72150000Y-91225000D02*
X70850000Y-91225000D01*
D17*
%TO.N,/CC2*%
X71325000Y-93650000D02*
X71325000Y-92050000D01*
X71325000Y-92050000D02*
X71650000Y-91725000D01*
%TO.N,/IO10*%
X64425000Y-108075000D02*
X64325000Y-108075000D01*
X64325000Y-108075000D02*
X62050000Y-110350000D01*
X76600500Y-108075000D02*
X64425000Y-108075000D01*
X79400000Y-105275500D02*
X76600500Y-108075000D01*
%TO.N,/IO11*%
X62599500Y-113995500D02*
X60550000Y-116045000D01*
X62599500Y-113325000D02*
X62599500Y-113995500D01*
X66325000Y-111600000D02*
X64324500Y-111600000D01*
X64324500Y-111600000D02*
X62599500Y-113325000D01*
%TO.N,/IO12*%
X78452818Y-110550000D02*
X70625000Y-110550000D01*
X62900000Y-110550000D02*
X60550000Y-112900000D01*
X80775000Y-107750000D02*
X80775000Y-108227818D01*
X69650000Y-109575000D02*
X66861396Y-109575000D01*
X60550000Y-112900000D02*
X60550000Y-113505000D01*
X65886396Y-110550000D02*
X62900000Y-110550000D01*
X70625000Y-110550000D02*
X69650000Y-109575000D01*
X80775000Y-108227818D02*
X78452818Y-110550000D01*
X66861396Y-109575000D02*
X65886396Y-110550000D01*
%TO.N,/IO13*%
X68175000Y-107625000D02*
X63890000Y-107625000D01*
X73374695Y-106150000D02*
X69650000Y-106150000D01*
X79100000Y-104050000D02*
X75474695Y-104050000D01*
X69650000Y-106150000D02*
X68175000Y-107625000D01*
X63890000Y-107625000D02*
X60550000Y-110965000D01*
X75474695Y-104050000D02*
X73374695Y-106150000D01*
%TO.N,/A4*%
X59375000Y-107060000D02*
X59375000Y-125327818D01*
X60550000Y-105885000D02*
X59375000Y-107060000D01*
X59375000Y-125327818D02*
X61997182Y-127950000D01*
X75950000Y-127950000D02*
X78000000Y-127950000D01*
X61997182Y-127950000D02*
X75950000Y-127950000D01*
X78000000Y-127950000D02*
X83500000Y-122450000D01*
%TO.N,/D2 {slash} SDA*%
X84545000Y-113350000D02*
X84725000Y-113530000D01*
X82350500Y-113350000D02*
X84545000Y-113350000D01*
%TO.N,/D3 {slash} SCL*%
X82660000Y-110990000D02*
X84725000Y-110990000D01*
X81337548Y-112312452D02*
X82660000Y-110990000D01*
%TO.N,/D4*%
X84725000Y-108450000D02*
X86270022Y-109995022D01*
X86270022Y-119455001D02*
X85940023Y-119785000D01*
X80850000Y-118900000D02*
X76450000Y-118900000D01*
X76450000Y-118900000D02*
X76025000Y-118475000D01*
X81735000Y-119785000D02*
X80850000Y-118900000D01*
X85940023Y-119785000D02*
X81735000Y-119785000D01*
X86270022Y-109995022D02*
X86270022Y-119455001D01*
%TO.N,/D5*%
X82950000Y-110250000D02*
X83000000Y-110300000D01*
X82950000Y-107685000D02*
X82950000Y-110250000D01*
X84725000Y-105910000D02*
X82950000Y-107685000D01*
%TO.N,/D6*%
X83125000Y-105500000D02*
X83125000Y-104970000D01*
X83125000Y-104970000D02*
X84725000Y-103370000D01*
%TO.N,/D7*%
X70675000Y-102650000D02*
X69550000Y-103775000D01*
X80050000Y-102650000D02*
X70675000Y-102650000D01*
%TO.N,/IO8*%
X70100000Y-111000000D02*
X70075000Y-111025000D01*
X67175000Y-115475000D02*
X67175000Y-111025000D01*
X78700000Y-111000000D02*
X71125000Y-111000000D01*
X81523944Y-106275500D02*
X81523944Y-108176056D01*
X81523944Y-103976056D02*
X83350000Y-102150000D01*
X81523944Y-108176056D02*
X78700000Y-111000000D01*
X83350000Y-99665000D02*
X84725000Y-98290000D01*
X71125000Y-111000000D02*
X70100000Y-111000000D01*
X83350000Y-102150000D02*
X83350000Y-99665000D01*
X81523944Y-106275500D02*
X81523944Y-103976056D01*
%TO.N,/IO9*%
X85211701Y-102005000D02*
X85900000Y-101316701D01*
X82400000Y-104033299D02*
X84428299Y-102005000D01*
X85900000Y-96925000D02*
X84725000Y-95750000D01*
X85900000Y-101316701D02*
X85900000Y-96925000D01*
X84428299Y-102005000D02*
X85211701Y-102005000D01*
X82400000Y-105374500D02*
X82400000Y-104033299D01*
%TO.N,/NRESET*%
X65273591Y-106376409D02*
X64600000Y-107050000D01*
X64900000Y-93100000D02*
X65273591Y-93473591D01*
X65273591Y-93473591D02*
X65273591Y-106376409D01*
%TO.N,/MISO*%
X69400000Y-114425000D02*
X69425000Y-114450000D01*
X69400000Y-110450000D02*
X69400000Y-114425000D01*
%TO.N,/SCK*%
X68063226Y-113236774D02*
X68063226Y-115713226D01*
X68063226Y-115713226D02*
X71825000Y-119475000D01*
X68100000Y-110475000D02*
X68100000Y-113200000D01*
X71825000Y-119475000D02*
X72750000Y-119475000D01*
X68100000Y-113200000D02*
X68063226Y-113236774D01*
%TO.N,/MOSI*%
X68775000Y-115086274D02*
X68775000Y-112699500D01*
X68749503Y-110475000D02*
X68749503Y-112674003D01*
X68749503Y-112674003D02*
X68775000Y-112699500D01*
%TD*%
M02*
