M48
; DRILL file {KiCad (6.0.7)} date Fri Sep  2 00:32:41 2022
; FORMAT={3:3/ absolute / metric / suppress leading zeros}
; #@! TF.CreationDate,2022-09-02T00:32:41-07:00
; #@! TF.GenerationSoftware,Kicad,Pcbnew,(6.0.7)
; #@! TF.FileFunction,MixedPlating,1,4
FMAT,2
METRIC,TZ
; #@! TA.AperFunction,Plated,PTH,ViaDrill
T1C0.250
; #@! TA.AperFunction,Plated,PTH,ViaDrill
T2C0.400
; #@! TA.AperFunction,Plated,PTH,ComponentDrill
T3C0.650
; #@! TA.AperFunction,Plated,PTH,ComponentDrill
T4C1.000
%
G90
G05
T1
X61050Y-92900
X61750Y-126925
X62050Y-110350
X62450Y-120375
X62825Y-95575
X63075Y-94900
X63600Y-113712
X63625Y-94176
X64150Y-106075
X64200Y-104350
X64250Y-118875
X64600Y-107050
X64650Y-87525
X64650Y-102750
X64900Y-93100
X64925Y-126925
X65700Y-115425
X65725Y-108725
X66325Y-111600
X66450Y-101825
X67175Y-111025
X67175Y-115475
X68000Y-94075
X68025Y-108775
X68063Y-113237
X68100Y-110475
X68450Y-105850
X68750Y-110475
X68775Y-112699
X68775Y-115086
X69250Y-99050
X69350Y-107400
X69400Y-110450
X69425Y-93600
X69425Y-114450
X69550Y-103775
X69925Y-95226
X70075Y-111025
X70575Y-114050
X70975Y-116975
X71000Y-100875
X71325Y-93650
X71650Y-91725
X71914Y-101836
X72125Y-114050
X72300Y-92600
X72650Y-91725
X72750Y-119475
X75174Y-113728
X75500Y-91825
X75700Y-94475
X76025Y-118475
X76050Y-117400
X76150Y-95075
X76275Y-97675
X77350Y-98625
X78675Y-109150
X79075Y-95225
X79075Y-95750
X79075Y-96250
X79100Y-104050
X79175Y-101100
X79288Y-93788
X79400Y-105276
X79650Y-108575
X79700Y-93375
X80025Y-96075
X80050Y-102650
X80125Y-104125
X80775Y-107750
X81200Y-127050
X81338Y-112312
X81400Y-103200
X81524Y-106276
X81525Y-97150
X81650Y-120425
X82351Y-113350
X82400Y-105374
X83000Y-110300
X83125Y-105500
X83500Y-122450
X84175Y-127050
X84875Y-85900
T2
X72700Y-104775
X72700Y-107325
X75700Y-104850
X75700Y-107350
X76400Y-96150
T3
X68080Y-86700
X68080Y-92060
X76720Y-86700
X76720Y-92060
T4
X60550Y-95725
X60550Y-98265
X60550Y-100805
X60550Y-103345
X60550Y-105885
X60550Y-108425
X60550Y-110965
X60550Y-113505
X60550Y-116045
X60550Y-118585
X70120Y-124025
X70120Y-126565
X72660Y-124025
X72660Y-126565
X75200Y-124025
X75200Y-126565
X84725Y-95750
X84725Y-98290
X84725Y-100830
X84725Y-103370
X84725Y-105910
X84725Y-108450
X84725Y-110990
X84725Y-113530
X84725Y-116070
X84725Y-118610
T0
M30
