%TF.GenerationSoftware,KiCad,Pcbnew,(6.0.7)*%
%TF.CreationDate,2022-09-02T00:32:44-07:00*%
%TF.ProjectId,HARDWARE_USBC_ISP_Programmer,48415244-5741-4524-955f-555342435f49,rev?*%
%TF.SameCoordinates,Original*%
%TF.FileFunction,Legend,Bot*%
%TF.FilePolarity,Positive*%
%FSLAX46Y46*%
G04 Gerber Fmt 4.6, Leading zero omitted, Abs format (unit mm)*
G04 Created by KiCad (PCBNEW (6.0.7)) date 2022-09-02 00:32:44*
%MOMM*%
%LPD*%
G01*
G04 APERTURE LIST*
%ADD10C,0.200000*%
G04 APERTURE END LIST*
D10*
X81210714Y-118010857D02*
X81210714Y-116810857D01*
X80810714Y-117668000D01*
X80410714Y-116810857D01*
X80410714Y-118010857D01*
X79896428Y-117668000D02*
X79325000Y-117668000D01*
X80010714Y-118010857D02*
X79610714Y-116810857D01*
X79210714Y-118010857D01*
X78982142Y-116810857D02*
X78296428Y-116810857D01*
X78639285Y-118010857D02*
X78639285Y-116810857D01*
X78067857Y-116810857D02*
X77382142Y-116810857D01*
X77725000Y-118010857D02*
X77725000Y-116810857D01*
X76982142Y-118010857D02*
X76982142Y-116810857D01*
X76982142Y-117382285D02*
X76296428Y-117382285D01*
X76296428Y-118010857D02*
X76296428Y-116810857D01*
X75725000Y-117382285D02*
X75325000Y-117382285D01*
X75153571Y-118010857D02*
X75725000Y-118010857D01*
X75725000Y-116810857D01*
X75153571Y-116810857D01*
X74753571Y-116810857D02*
X74467857Y-118010857D01*
X74239285Y-117153714D01*
X74010714Y-118010857D01*
X73725000Y-116810857D01*
X71667857Y-118010857D02*
X72067857Y-117439428D01*
X72353571Y-118010857D02*
X72353571Y-116810857D01*
X71896428Y-116810857D01*
X71782142Y-116868000D01*
X71725000Y-116925142D01*
X71667857Y-117039428D01*
X71667857Y-117210857D01*
X71725000Y-117325142D01*
X71782142Y-117382285D01*
X71896428Y-117439428D01*
X72353571Y-117439428D01*
X71210714Y-117668000D02*
X70639285Y-117668000D01*
X71325000Y-118010857D02*
X70925000Y-116810857D01*
X70525000Y-118010857D01*
X70125000Y-118010857D02*
X70125000Y-116810857D01*
X69725000Y-117668000D01*
X69325000Y-116810857D01*
X69325000Y-118010857D01*
X68753571Y-118010857D02*
X68753571Y-116810857D01*
X68296428Y-116810857D01*
X68182142Y-116868000D01*
X68125000Y-116925142D01*
X68067857Y-117039428D01*
X68067857Y-117210857D01*
X68125000Y-117325142D01*
X68182142Y-117382285D01*
X68296428Y-117439428D01*
X68753571Y-117439428D01*
X67610714Y-117668000D02*
X67039285Y-117668000D01*
X67725000Y-118010857D02*
X67325000Y-116810857D01*
X66925000Y-118010857D01*
X66525000Y-118010857D02*
X66525000Y-116810857D01*
X66239285Y-116810857D01*
X66067857Y-116868000D01*
X65953571Y-116982285D01*
X65896428Y-117096571D01*
X65839285Y-117325142D01*
X65839285Y-117496571D01*
X65896428Y-117725142D01*
X65953571Y-117839428D01*
X66067857Y-117953714D01*
X66239285Y-118010857D01*
X66525000Y-118010857D01*
X65096428Y-116810857D02*
X64867857Y-116810857D01*
X64753571Y-116868000D01*
X64639285Y-116982285D01*
X64582142Y-117210857D01*
X64582142Y-117610857D01*
X64639285Y-117839428D01*
X64753571Y-117953714D01*
X64867857Y-118010857D01*
X65096428Y-118010857D01*
X65210714Y-117953714D01*
X65325000Y-117839428D01*
X65382142Y-117610857D01*
X65382142Y-117210857D01*
X65325000Y-116982285D01*
X65210714Y-116868000D01*
X65096428Y-116810857D01*
X78753571Y-118857142D02*
X78696428Y-118800000D01*
X78582142Y-118742857D01*
X78296428Y-118742857D01*
X78182142Y-118800000D01*
X78125000Y-118857142D01*
X78067857Y-118971428D01*
X78067857Y-119085714D01*
X78125000Y-119257142D01*
X78810714Y-119942857D01*
X78067857Y-119942857D01*
X77325000Y-118742857D02*
X77210714Y-118742857D01*
X77096428Y-118800000D01*
X77039285Y-118857142D01*
X76982142Y-118971428D01*
X76925000Y-119200000D01*
X76925000Y-119485714D01*
X76982142Y-119714285D01*
X77039285Y-119828571D01*
X77096428Y-119885714D01*
X77210714Y-119942857D01*
X77325000Y-119942857D01*
X77439285Y-119885714D01*
X77496428Y-119828571D01*
X77553571Y-119714285D01*
X77610714Y-119485714D01*
X77610714Y-119200000D01*
X77553571Y-118971428D01*
X77496428Y-118857142D01*
X77439285Y-118800000D01*
X77325000Y-118742857D01*
X76467857Y-118857142D02*
X76410714Y-118800000D01*
X76296428Y-118742857D01*
X76010714Y-118742857D01*
X75896428Y-118800000D01*
X75839285Y-118857142D01*
X75782142Y-118971428D01*
X75782142Y-119085714D01*
X75839285Y-119257142D01*
X76525000Y-119942857D01*
X75782142Y-119942857D01*
X75325000Y-118857142D02*
X75267857Y-118800000D01*
X75153571Y-118742857D01*
X74867857Y-118742857D01*
X74753571Y-118800000D01*
X74696428Y-118857142D01*
X74639285Y-118971428D01*
X74639285Y-119085714D01*
X74696428Y-119257142D01*
X75382142Y-119942857D01*
X74639285Y-119942857D01*
X74125000Y-119485714D02*
X73210714Y-119485714D01*
X72410714Y-118742857D02*
X72296428Y-118742857D01*
X72182142Y-118800000D01*
X72125000Y-118857142D01*
X72067857Y-118971428D01*
X72010714Y-119200000D01*
X72010714Y-119485714D01*
X72067857Y-119714285D01*
X72125000Y-119828571D01*
X72182142Y-119885714D01*
X72296428Y-119942857D01*
X72410714Y-119942857D01*
X72525000Y-119885714D01*
X72582142Y-119828571D01*
X72639285Y-119714285D01*
X72696428Y-119485714D01*
X72696428Y-119200000D01*
X72639285Y-118971428D01*
X72582142Y-118857142D01*
X72525000Y-118800000D01*
X72410714Y-118742857D01*
X71325000Y-119257142D02*
X71439285Y-119200000D01*
X71496428Y-119142857D01*
X71553571Y-119028571D01*
X71553571Y-118971428D01*
X71496428Y-118857142D01*
X71439285Y-118800000D01*
X71325000Y-118742857D01*
X71096428Y-118742857D01*
X70982142Y-118800000D01*
X70925000Y-118857142D01*
X70867857Y-118971428D01*
X70867857Y-119028571D01*
X70925000Y-119142857D01*
X70982142Y-119200000D01*
X71096428Y-119257142D01*
X71325000Y-119257142D01*
X71439285Y-119314285D01*
X71496428Y-119371428D01*
X71553571Y-119485714D01*
X71553571Y-119714285D01*
X71496428Y-119828571D01*
X71439285Y-119885714D01*
X71325000Y-119942857D01*
X71096428Y-119942857D01*
X70982142Y-119885714D01*
X70925000Y-119828571D01*
X70867857Y-119714285D01*
X70867857Y-119485714D01*
X70925000Y-119371428D01*
X70982142Y-119314285D01*
X71096428Y-119257142D01*
X70353571Y-119485714D02*
X69439285Y-119485714D01*
X68982142Y-118742857D02*
X68239285Y-118742857D01*
X68639285Y-119200000D01*
X68467857Y-119200000D01*
X68353571Y-119257142D01*
X68296428Y-119314285D01*
X68239285Y-119428571D01*
X68239285Y-119714285D01*
X68296428Y-119828571D01*
X68353571Y-119885714D01*
X68467857Y-119942857D01*
X68810714Y-119942857D01*
X68925000Y-119885714D01*
X68982142Y-119828571D01*
X67096428Y-119942857D02*
X67782142Y-119942857D01*
X67439285Y-119942857D02*
X67439285Y-118742857D01*
X67553571Y-118914285D01*
X67667857Y-119028571D01*
X67782142Y-119085714D01*
X80610714Y-121874857D02*
X80610714Y-120674857D01*
X80096428Y-121817714D02*
X79925000Y-121874857D01*
X79639285Y-121874857D01*
X79525000Y-121817714D01*
X79467857Y-121760571D01*
X79410714Y-121646285D01*
X79410714Y-121532000D01*
X79467857Y-121417714D01*
X79525000Y-121360571D01*
X79639285Y-121303428D01*
X79867857Y-121246285D01*
X79982142Y-121189142D01*
X80039285Y-121132000D01*
X80096428Y-121017714D01*
X80096428Y-120903428D01*
X80039285Y-120789142D01*
X79982142Y-120732000D01*
X79867857Y-120674857D01*
X79582142Y-120674857D01*
X79410714Y-120732000D01*
X78896428Y-121874857D02*
X78896428Y-120674857D01*
X78439285Y-120674857D01*
X78325000Y-120732000D01*
X78267857Y-120789142D01*
X78210714Y-120903428D01*
X78210714Y-121074857D01*
X78267857Y-121189142D01*
X78325000Y-121246285D01*
X78439285Y-121303428D01*
X78896428Y-121303428D01*
X76782142Y-121874857D02*
X76782142Y-120674857D01*
X76325000Y-120674857D01*
X76210714Y-120732000D01*
X76153571Y-120789142D01*
X76096428Y-120903428D01*
X76096428Y-121074857D01*
X76153571Y-121189142D01*
X76210714Y-121246285D01*
X76325000Y-121303428D01*
X76782142Y-121303428D01*
X74896428Y-121874857D02*
X75296428Y-121303428D01*
X75582142Y-121874857D02*
X75582142Y-120674857D01*
X75125000Y-120674857D01*
X75010714Y-120732000D01*
X74953571Y-120789142D01*
X74896428Y-120903428D01*
X74896428Y-121074857D01*
X74953571Y-121189142D01*
X75010714Y-121246285D01*
X75125000Y-121303428D01*
X75582142Y-121303428D01*
X74153571Y-120674857D02*
X73925000Y-120674857D01*
X73810714Y-120732000D01*
X73696428Y-120846285D01*
X73639285Y-121074857D01*
X73639285Y-121474857D01*
X73696428Y-121703428D01*
X73810714Y-121817714D01*
X73925000Y-121874857D01*
X74153571Y-121874857D01*
X74267857Y-121817714D01*
X74382142Y-121703428D01*
X74439285Y-121474857D01*
X74439285Y-121074857D01*
X74382142Y-120846285D01*
X74267857Y-120732000D01*
X74153571Y-120674857D01*
X72496428Y-120732000D02*
X72610714Y-120674857D01*
X72782142Y-120674857D01*
X72953571Y-120732000D01*
X73067857Y-120846285D01*
X73125000Y-120960571D01*
X73182142Y-121189142D01*
X73182142Y-121360571D01*
X73125000Y-121589142D01*
X73067857Y-121703428D01*
X72953571Y-121817714D01*
X72782142Y-121874857D01*
X72667857Y-121874857D01*
X72496428Y-121817714D01*
X72439285Y-121760571D01*
X72439285Y-121360571D01*
X72667857Y-121360571D01*
X71239285Y-121874857D02*
X71639285Y-121303428D01*
X71925000Y-121874857D02*
X71925000Y-120674857D01*
X71467857Y-120674857D01*
X71353571Y-120732000D01*
X71296428Y-120789142D01*
X71239285Y-120903428D01*
X71239285Y-121074857D01*
X71296428Y-121189142D01*
X71353571Y-121246285D01*
X71467857Y-121303428D01*
X71925000Y-121303428D01*
X70782142Y-121532000D02*
X70210714Y-121532000D01*
X70896428Y-121874857D02*
X70496428Y-120674857D01*
X70096428Y-121874857D01*
X69696428Y-121874857D02*
X69696428Y-120674857D01*
X69296428Y-121532000D01*
X68896428Y-120674857D01*
X68896428Y-121874857D01*
X68325000Y-121874857D02*
X68325000Y-120674857D01*
X67925000Y-121532000D01*
X67525000Y-120674857D01*
X67525000Y-121874857D01*
X66953571Y-121246285D02*
X66553571Y-121246285D01*
X66382142Y-121874857D02*
X66953571Y-121874857D01*
X66953571Y-120674857D01*
X66382142Y-120674857D01*
X65182142Y-121874857D02*
X65582142Y-121303428D01*
X65867857Y-121874857D02*
X65867857Y-120674857D01*
X65410714Y-120674857D01*
X65296428Y-120732000D01*
X65239285Y-120789142D01*
X65182142Y-120903428D01*
X65182142Y-121074857D01*
X65239285Y-121189142D01*
X65296428Y-121246285D01*
X65410714Y-121303428D01*
X65867857Y-121303428D01*
%TO.C,G\u002A\u002A\u002A*%
G36*
X83255453Y-108620059D02*
G01*
X83255073Y-109803750D01*
X83253401Y-110853513D01*
X83250417Y-111772897D01*
X83246100Y-112565453D01*
X83240428Y-113234730D01*
X83233381Y-113784279D01*
X83224937Y-114217648D01*
X83215075Y-114538389D01*
X83203775Y-114750051D01*
X83191015Y-114856184D01*
X83074235Y-115190829D01*
X82844537Y-115521061D01*
X82516342Y-115746249D01*
X82079661Y-115875557D01*
X82078833Y-115875693D01*
X81966619Y-115881806D01*
X81716890Y-115887405D01*
X81338759Y-115892461D01*
X80841338Y-115896945D01*
X80233739Y-115900826D01*
X79525073Y-115904075D01*
X78724452Y-115906663D01*
X77840989Y-115908559D01*
X76883796Y-115909735D01*
X75861983Y-115910161D01*
X74784663Y-115909807D01*
X73660948Y-115908644D01*
X72499951Y-115906642D01*
X71185060Y-115904037D01*
X69938294Y-115901616D01*
X68823505Y-115899188D01*
X67833084Y-115896415D01*
X66959424Y-115892957D01*
X66194915Y-115888477D01*
X65531950Y-115882634D01*
X64962920Y-115875091D01*
X64480218Y-115865508D01*
X64076234Y-115853547D01*
X63743362Y-115838870D01*
X63473992Y-115821136D01*
X63260516Y-115800008D01*
X63095327Y-115775146D01*
X62970815Y-115746212D01*
X62879373Y-115712867D01*
X62813393Y-115674773D01*
X62765266Y-115631590D01*
X62727384Y-115582980D01*
X62692139Y-115528603D01*
X62651922Y-115468122D01*
X62634107Y-115441777D01*
X62517198Y-115218576D01*
X62426313Y-114971494D01*
X62415883Y-114899862D01*
X62403964Y-114717284D01*
X62393229Y-114427830D01*
X62383649Y-114027869D01*
X62375195Y-113513771D01*
X62367837Y-112881904D01*
X62361547Y-112128637D01*
X62356294Y-111250338D01*
X62352050Y-110243378D01*
X62348785Y-109104123D01*
X62346470Y-107828944D01*
X62345124Y-106463856D01*
X62674454Y-106463856D01*
X62674516Y-107731001D01*
X62674956Y-108867146D01*
X62676040Y-109879716D01*
X62678032Y-110776139D01*
X62681198Y-111563841D01*
X62685803Y-112250248D01*
X62692110Y-112842787D01*
X62700386Y-113348885D01*
X62710894Y-113775966D01*
X62723900Y-114131459D01*
X62739669Y-114422790D01*
X62758465Y-114657384D01*
X62780553Y-114842669D01*
X62806197Y-114986070D01*
X62835664Y-115095014D01*
X62869217Y-115176928D01*
X62907122Y-115239239D01*
X62949643Y-115289371D01*
X62997045Y-115334753D01*
X63049594Y-115382809D01*
X63236891Y-115558778D01*
X72572463Y-115574484D01*
X72692614Y-115574686D01*
X74066128Y-115576978D01*
X75301120Y-115578838D01*
X76405254Y-115580051D01*
X77386193Y-115580400D01*
X78251604Y-115579668D01*
X79009148Y-115577640D01*
X79666491Y-115574098D01*
X80231297Y-115568827D01*
X80711230Y-115561610D01*
X81113953Y-115552231D01*
X81447132Y-115540472D01*
X81718429Y-115526119D01*
X81935510Y-115508954D01*
X82106039Y-115488761D01*
X82237679Y-115465324D01*
X82338094Y-115438427D01*
X82414950Y-115407852D01*
X82475909Y-115373383D01*
X82528636Y-115334805D01*
X82580796Y-115291900D01*
X82611968Y-115266384D01*
X82653802Y-115229970D01*
X82691363Y-115187993D01*
X82724882Y-115133018D01*
X82754587Y-115057609D01*
X82780710Y-114954334D01*
X82803481Y-114815756D01*
X82823129Y-114634442D01*
X82839885Y-114402956D01*
X82853978Y-114113865D01*
X82865639Y-113759734D01*
X82875097Y-113333127D01*
X82882584Y-112826611D01*
X82888328Y-112232751D01*
X82892559Y-111544113D01*
X82895509Y-110753261D01*
X82897406Y-109852761D01*
X82898482Y-108835179D01*
X82898965Y-107693080D01*
X82899086Y-106419029D01*
X82899075Y-105005592D01*
X82899075Y-95291911D01*
X82733902Y-94968659D01*
X82682693Y-94877569D01*
X82522457Y-94654068D01*
X82361483Y-94494289D01*
X82349968Y-94485970D01*
X82317047Y-94464678D01*
X82276191Y-94445590D01*
X82219684Y-94428568D01*
X82139812Y-94413472D01*
X82028857Y-94400164D01*
X81879105Y-94388504D01*
X81682838Y-94378354D01*
X81432342Y-94369574D01*
X81119900Y-94362027D01*
X80737797Y-94355572D01*
X80278316Y-94350070D01*
X79733742Y-94345384D01*
X79096358Y-94341373D01*
X78358450Y-94337899D01*
X77512300Y-94334823D01*
X76550194Y-94332006D01*
X75464414Y-94329309D01*
X74247246Y-94326593D01*
X72890973Y-94323719D01*
X63627709Y-94304267D01*
X63302228Y-94470540D01*
X63208715Y-94523158D01*
X62985068Y-94683531D01*
X62825627Y-94844074D01*
X62804547Y-94874296D01*
X62785121Y-94909766D01*
X62767734Y-94957291D01*
X62752271Y-95024359D01*
X62738621Y-95118456D01*
X62726669Y-95247070D01*
X62716303Y-95417688D01*
X62707411Y-95637796D01*
X62699879Y-95914881D01*
X62693594Y-96256431D01*
X62688444Y-96669931D01*
X62684315Y-97162871D01*
X62681094Y-97742735D01*
X62678670Y-98417011D01*
X62676928Y-99193187D01*
X62675756Y-100078748D01*
X62675041Y-101081183D01*
X62674670Y-102207978D01*
X62674530Y-103466619D01*
X62674509Y-104864594D01*
X62674508Y-105058285D01*
X62674454Y-106463856D01*
X62345124Y-106463856D01*
X62345075Y-106414209D01*
X62344572Y-104856287D01*
X62344547Y-103950523D01*
X62344617Y-102640623D01*
X62344912Y-101465208D01*
X62345541Y-100416736D01*
X62346612Y-99487666D01*
X62348232Y-98670453D01*
X62350509Y-97957557D01*
X62353551Y-97341435D01*
X62357466Y-96814545D01*
X62362361Y-96369344D01*
X62368344Y-95998290D01*
X62375523Y-95693841D01*
X62384006Y-95448454D01*
X62393900Y-95254587D01*
X62405313Y-95104699D01*
X62418352Y-94991245D01*
X62433127Y-94906686D01*
X62449744Y-94843477D01*
X62468310Y-94794076D01*
X62488935Y-94750943D01*
X62696138Y-94445883D01*
X62990899Y-94214252D01*
X63395328Y-94049375D01*
X63407908Y-94045813D01*
X63484473Y-94029482D01*
X63591752Y-94014873D01*
X63737486Y-94001894D01*
X63929415Y-93990454D01*
X64175280Y-93980460D01*
X64482821Y-93971822D01*
X64859778Y-93964447D01*
X65313892Y-93958245D01*
X65852903Y-93953124D01*
X66484551Y-93948991D01*
X67216578Y-93945756D01*
X68056723Y-93943327D01*
X69012727Y-93941613D01*
X70092330Y-93940521D01*
X71303273Y-93939960D01*
X72653296Y-93939839D01*
X73854633Y-93940392D01*
X75093094Y-93942088D01*
X76251452Y-93944877D01*
X77323035Y-93948706D01*
X78301171Y-93953525D01*
X79179188Y-93959284D01*
X79950416Y-93965931D01*
X80608183Y-93973416D01*
X81145816Y-93981688D01*
X81556644Y-93990697D01*
X81833996Y-94000391D01*
X81971200Y-94010720D01*
X82062562Y-94027710D01*
X82495992Y-94180949D01*
X82830672Y-94440960D01*
X83072973Y-94812376D01*
X83229422Y-95150685D01*
X83250443Y-104840859D01*
X83252424Y-105836692D01*
X83253276Y-106419029D01*
X83254563Y-107298890D01*
X83255453Y-108620059D01*
G37*
G36*
X64106012Y-110089703D02*
G01*
X68363815Y-110089703D01*
X68363815Y-114127275D01*
X67703122Y-114127275D01*
X67703122Y-110823807D01*
X64106012Y-110823807D01*
X64106012Y-114127275D01*
X63628844Y-114127275D01*
X63628844Y-103482766D01*
X64106012Y-103482766D01*
X64106012Y-110089703D01*
G37*
G36*
X65828123Y-102501441D02*
G01*
X66160911Y-102615494D01*
X66300698Y-102698455D01*
X66572291Y-102937904D01*
X66755188Y-103217162D01*
X66822197Y-103499861D01*
X66822197Y-103715475D01*
X66481257Y-103415368D01*
X66320877Y-103287946D01*
X66071857Y-103127922D01*
X65859706Y-103031187D01*
X65820986Y-103020510D01*
X65483977Y-103002778D01*
X65176844Y-103108866D01*
X64925446Y-103318106D01*
X64755643Y-103609832D01*
X64693295Y-103963377D01*
X64694167Y-104012619D01*
X64706717Y-104120017D01*
X64743221Y-104233671D01*
X64815089Y-104371556D01*
X64933726Y-104551645D01*
X65110542Y-104791912D01*
X65356942Y-105110330D01*
X65684336Y-105524874D01*
X65967384Y-105882456D01*
X66223429Y-106210359D01*
X66408893Y-106457762D01*
X66535143Y-106643111D01*
X66613548Y-106784850D01*
X66655476Y-106901427D01*
X66672296Y-107011287D01*
X66675376Y-107132876D01*
X66675376Y-107491459D01*
X66139056Y-107387618D01*
X65700522Y-107335623D01*
X65257246Y-107355054D01*
X64883172Y-107449953D01*
X64609210Y-107615712D01*
X64436359Y-107777275D01*
X64390419Y-107300107D01*
X64382811Y-107198460D01*
X64369687Y-106917855D01*
X64357708Y-106533595D01*
X64347545Y-106073340D01*
X64339872Y-105564748D01*
X64335361Y-105035479D01*
X64333962Y-104670642D01*
X64335622Y-104133288D01*
X64345264Y-103713829D01*
X64366072Y-103393839D01*
X64401228Y-103154889D01*
X64453916Y-102978554D01*
X64527319Y-102846407D01*
X64624620Y-102740022D01*
X64749002Y-102640970D01*
X64798170Y-102608654D01*
X65094484Y-102498964D01*
X65455225Y-102462912D01*
X65828123Y-102501441D01*
G37*
G36*
X65886274Y-107698519D02*
G01*
X66282412Y-107746333D01*
X66783966Y-107822161D01*
X67410042Y-107927230D01*
X67719508Y-107979989D01*
X68277801Y-108074678D01*
X68730160Y-108160873D01*
X69091426Y-108253479D01*
X69376435Y-108367400D01*
X69600027Y-108517541D01*
X69777039Y-108718805D01*
X69922309Y-108986097D01*
X70050676Y-109334322D01*
X70176979Y-109778384D01*
X70316054Y-110333187D01*
X70482741Y-111013636D01*
X70519168Y-111161209D01*
X70650002Y-111701457D01*
X70767048Y-112200440D01*
X70865822Y-112637956D01*
X70941843Y-112993798D01*
X70990627Y-113247762D01*
X71007691Y-113379644D01*
X70992454Y-113560091D01*
X70888195Y-113824166D01*
X70689797Y-113981522D01*
X70537003Y-114017608D01*
X70265943Y-113983629D01*
X70033405Y-113844821D01*
X70030330Y-113841476D01*
X69970521Y-113729784D01*
X69873375Y-113499310D01*
X69746142Y-113169354D01*
X69596067Y-112759218D01*
X69430399Y-112288201D01*
X69256385Y-111775606D01*
X68608330Y-109832766D01*
X66919792Y-109713067D01*
X66659858Y-109694194D01*
X66188203Y-109657584D01*
X65771091Y-109622194D01*
X65431511Y-109590127D01*
X65192454Y-109563488D01*
X65076911Y-109544382D01*
X65029183Y-109522899D01*
X64867997Y-109406506D01*
X64697816Y-109239416D01*
X64689166Y-109229521D01*
X64552240Y-109044007D01*
X64488641Y-108857740D01*
X64473064Y-108598569D01*
X64475676Y-108494322D01*
X64538011Y-108165333D01*
X64693927Y-107931745D01*
X64957468Y-107769520D01*
X64973817Y-107762827D01*
X65139325Y-107710872D01*
X65333834Y-107682017D01*
X65576449Y-107677490D01*
X65886274Y-107698519D01*
G37*
G36*
X74970752Y-108107622D02*
G01*
X73062081Y-108107622D01*
X73062081Y-114127275D01*
X72401388Y-114127275D01*
X72401388Y-108107622D01*
X68877688Y-108107622D01*
X68877688Y-107740570D01*
X74970752Y-107740570D01*
X74970752Y-108107622D01*
G37*
G36*
X81797919Y-105464847D02*
G01*
X81797919Y-109649240D01*
X79155145Y-109649240D01*
X79155145Y-110298979D01*
X79153346Y-110474539D01*
X79126402Y-110888647D01*
X79062374Y-111186992D01*
X78955161Y-111390476D01*
X78798659Y-111520001D01*
X78626709Y-111590829D01*
X78435748Y-111628382D01*
X78366582Y-111624844D01*
X78115325Y-111549090D01*
X77892457Y-111401997D01*
X77757193Y-111219269D01*
X77741015Y-111108321D01*
X77725925Y-110863649D01*
X77712807Y-110501505D01*
X77702005Y-110036790D01*
X77693863Y-109484408D01*
X77688726Y-108859262D01*
X77686937Y-108176253D01*
X77686889Y-107753860D01*
X77686288Y-107107807D01*
X77684441Y-106587388D01*
X77680662Y-106179029D01*
X77674265Y-105869158D01*
X77664563Y-105644199D01*
X77650871Y-105490580D01*
X77632502Y-105394727D01*
X77630991Y-105391437D01*
X79669018Y-105391437D01*
X80706066Y-105391437D01*
X80683062Y-105152853D01*
X80676490Y-105090849D01*
X80643437Y-104971351D01*
X80555235Y-104929473D01*
X80366417Y-104933753D01*
X80333640Y-104935904D01*
X80082012Y-104951304D01*
X79870896Y-104962641D01*
X79789848Y-104970418D01*
X79691840Y-105028358D01*
X79669018Y-105181741D01*
X79669018Y-105391437D01*
X77630991Y-105391437D01*
X77608771Y-105343066D01*
X77578992Y-105322024D01*
X77542478Y-105318026D01*
X77512318Y-105320582D01*
X77481938Y-105337803D01*
X77457238Y-105382940D01*
X77437495Y-105469204D01*
X77421985Y-105609809D01*
X77409984Y-105817963D01*
X77400770Y-106106880D01*
X77393618Y-106489770D01*
X77387806Y-106979845D01*
X77382609Y-107590315D01*
X77377305Y-108334393D01*
X77356590Y-111350759D01*
X77183284Y-111491040D01*
X77088674Y-111551275D01*
X76816587Y-111624764D01*
X76525675Y-111604675D01*
X76281919Y-111491009D01*
X76108613Y-111350698D01*
X76071908Y-106261508D01*
X76069519Y-105932694D01*
X76062350Y-104986528D01*
X76055507Y-104173848D01*
X76048673Y-103484530D01*
X76045919Y-103262535D01*
X79081734Y-103262535D01*
X79081784Y-103343941D01*
X79084566Y-103869746D01*
X79091205Y-104341599D01*
X79101131Y-104740926D01*
X79113773Y-105049155D01*
X79128559Y-105247713D01*
X79144919Y-105318026D01*
X79165161Y-105309167D01*
X79208250Y-105210802D01*
X79242624Y-104998332D01*
X79268702Y-104665242D01*
X79286900Y-104205021D01*
X79297636Y-103611155D01*
X79301328Y-102877130D01*
X79301329Y-102872272D01*
X79300389Y-102329284D01*
X79296391Y-101916104D01*
X79288231Y-101615867D01*
X79274802Y-101411708D01*
X79254999Y-101286762D01*
X79227717Y-101224162D01*
X79191850Y-101207044D01*
X79164142Y-101217893D01*
X79137367Y-101268210D01*
X79116957Y-101373649D01*
X79102094Y-101549491D01*
X79091958Y-101811019D01*
X79085733Y-102173514D01*
X79082598Y-102652259D01*
X79081734Y-103262535D01*
X76045919Y-103262535D01*
X76041525Y-102908446D01*
X76033746Y-102435469D01*
X76025014Y-102055472D01*
X76015011Y-101758329D01*
X76003414Y-101533913D01*
X75989906Y-101372096D01*
X75974166Y-101262752D01*
X75955873Y-101195754D01*
X75934708Y-101160976D01*
X75910352Y-101148290D01*
X75874108Y-101149966D01*
X75843365Y-101182971D01*
X75819808Y-101264330D01*
X75802114Y-101410452D01*
X75788961Y-101637749D01*
X75779028Y-101962633D01*
X75770992Y-102401513D01*
X75763531Y-102970801D01*
X75758844Y-103357628D01*
X75751949Y-103838791D01*
X75743794Y-104203238D01*
X75732589Y-104469161D01*
X75716547Y-104654749D01*
X75693881Y-104778193D01*
X75662802Y-104857685D01*
X75621523Y-104911413D01*
X75568255Y-104957568D01*
X75379005Y-105066185D01*
X75127274Y-105077974D01*
X74867563Y-104943307D01*
X74671164Y-104788820D01*
X74692490Y-102533687D01*
X74713815Y-100278555D01*
X74935171Y-99845967D01*
X75064298Y-99619338D01*
X75259564Y-99382479D01*
X75516428Y-99190703D01*
X75876330Y-98968026D01*
X77460680Y-98944175D01*
X77598657Y-98942289D01*
X78081453Y-98938643D01*
X78525715Y-98939614D01*
X78904381Y-98944876D01*
X79190388Y-98954105D01*
X79356674Y-98966973D01*
X79377922Y-98970378D01*
X79740705Y-99104281D01*
X80048452Y-99364649D01*
X80283018Y-99736410D01*
X80314447Y-99809709D01*
X80351542Y-99918723D01*
X80380829Y-100049412D01*
X80403568Y-100219653D01*
X80421023Y-100447322D01*
X80434454Y-100750299D01*
X80445123Y-101146461D01*
X80454292Y-101653684D01*
X80463223Y-102289847D01*
X80463977Y-102347431D01*
X80471235Y-102872272D01*
X80472520Y-102965198D01*
X80480862Y-103452780D01*
X80490165Y-103825533D01*
X80501590Y-104098811D01*
X80516299Y-104287970D01*
X80535454Y-104408365D01*
X80560215Y-104475350D01*
X80591745Y-104504280D01*
X80631205Y-104510512D01*
X80704012Y-104518230D01*
X80891471Y-104626247D01*
X81017622Y-104840635D01*
X81063815Y-105134500D01*
X81063815Y-105464847D01*
X81797919Y-105464847D01*
G37*
G36*
X65879902Y-103330880D02*
G01*
X65971347Y-103364905D01*
X66076954Y-103427483D01*
X66195869Y-103529973D01*
X66342611Y-103688205D01*
X66531702Y-103918009D01*
X66777659Y-104235217D01*
X67095004Y-104655658D01*
X68023976Y-105894709D01*
X69276699Y-106202788D01*
X69612569Y-106287538D01*
X70002273Y-106391581D01*
X70329910Y-106485411D01*
X70568526Y-106561242D01*
X70691165Y-106611290D01*
X70791731Y-106704636D01*
X70892740Y-106925087D01*
X70908766Y-107180034D01*
X70829602Y-107410547D01*
X70776330Y-107480392D01*
X70691730Y-107544302D01*
X70569176Y-107579696D01*
X70387362Y-107587056D01*
X70124983Y-107566863D01*
X69760733Y-107519600D01*
X69273308Y-107445748D01*
X69261280Y-107443867D01*
X68870858Y-107383280D01*
X68502681Y-107326947D01*
X68197673Y-107281085D01*
X67996763Y-107251907D01*
X67923349Y-107240129D01*
X67668719Y-107179941D01*
X67469308Y-107106847D01*
X67438540Y-107086535D01*
X67301542Y-106959008D01*
X67099656Y-106741790D01*
X66848994Y-106454937D01*
X66565672Y-106118504D01*
X66265801Y-105752550D01*
X65965496Y-105377129D01*
X65680871Y-105012299D01*
X65428039Y-104678116D01*
X65223114Y-104394637D01*
X65082209Y-104181917D01*
X65021438Y-104060014D01*
X65019941Y-104052965D01*
X65031742Y-103776917D01*
X65161247Y-103524454D01*
X65382786Y-103346275D01*
X65471291Y-103309090D01*
X65651483Y-103283182D01*
X65879902Y-103330880D01*
G37*
G36*
X66228571Y-99598603D02*
G01*
X66503743Y-99770884D01*
X66727027Y-100034225D01*
X66876831Y-100380925D01*
X66931564Y-100803286D01*
X66930390Y-100876637D01*
X66861370Y-101307091D01*
X66679942Y-101652238D01*
X66377765Y-101929028D01*
X66165170Y-102034502D01*
X65833658Y-102077199D01*
X65502031Y-101996385D01*
X65199387Y-101800846D01*
X64954820Y-101499367D01*
X64926934Y-101446480D01*
X64834146Y-101132023D01*
X64808643Y-100761672D01*
X64850249Y-100397050D01*
X64958789Y-100099782D01*
X65040829Y-99974069D01*
X65307640Y-99705115D01*
X65608928Y-99558019D01*
X65923102Y-99525081D01*
X66228571Y-99598603D01*
G37*
G36*
X77689859Y-96155183D02*
G01*
X78080964Y-96275305D01*
X78388877Y-96509058D01*
X78599349Y-96843212D01*
X78698132Y-97264535D01*
X78702425Y-97347849D01*
X78647647Y-97752194D01*
X78478571Y-98107954D01*
X78213431Y-98386597D01*
X77870463Y-98559590D01*
X77642258Y-98611986D01*
X77321400Y-98610207D01*
X76986501Y-98499693D01*
X76723851Y-98343202D01*
X76446349Y-98051157D01*
X76281145Y-97698851D01*
X76234609Y-97313107D01*
X76313114Y-96920750D01*
X76523031Y-96548603D01*
X76733772Y-96344848D01*
X77064920Y-96191260D01*
X77488909Y-96141726D01*
X77689859Y-96155183D01*
G37*
%TD*%
M02*
